/* XPM */
static char *result[] = {
/* columns rows colors chars-per-pixel */
"57 64 59 1 ",
"  c gray2",
". c #0B0B0B",
"X c #110E0E",
"o c #12110E",
"O c #0E0E11",
"+ c #0E1212",
"@ c #131313",
"# c #131314",
"$ c gray8",
"% c #161815",
"& c #181916",
"* c #161418",
"= c #17191A",
"- c gray10",
"; c #1D1122",
": c #2D0135",
"> c #300E39",
", c gray14",
"< c #262628",
"1 c #2B252A",
"2 c #2A2A2A",
"3 c #322532",
"4 c #313131",
"5 c #3E3E3E",
"6 c #3B1B44",
"7 c #3B2642",
"8 c #441E4F",
"9 c #412344",
"0 c #45224C",
"q c #493C4A",
"w c #4F3855",
"e c #6A257A",
"r c #444444",
"t c #4B4B4B",
"y c gray32",
"u c #5A5A5A",
"i c #624E65",
"p c #66436F",
"a c #6A4873",
"s c #6F6F6F",
"d c gray46",
"f c #797979",
"g c #701A83",
"h c #72138D",
"j c #793386",
"k c #7E3F8D",
"l c #754383",
"z c #7E6486",
"x c #803B92",
"c c #8C03AC",
"v c #8C0AAB",
"b c #9008AE",
"n c #9101B4",
"m c #8D5E99",
"M c #9C4FAF",
"N c #9756AA",
"B c #9E56B2",
"V c #A155B3",
"C c None",
/* pixels */
"CCCCCCCCCCCCCCCCCCCCCCCCCCCCCCCCCCrtCCCCCCCCCCCCCCCCCCCCC",
"CCCCCCCCCCCCCCCCCCCCCCCCCCCCCCCttttrr4CCCCCCCCCCCCCCCCCCC",
"CCCCCCCCCCCCCCCCCCCCCCCCCCCCCutttrr4,-CCCCCCCCCCCCCCCCCCC",
"CCCCCCCCCCCCCCCCCCCCCCCCCCCCduyyr4--,-@@CCCCCCCCCCCCCCCCC",
"CCCCCCCCCCCCCCCCCCCCCCCCCCCusds5,-,,,&@$@@CCCCCCCCCCCCCCC",
"CCCCCCCCCCCCCCCCCCCCCCCCCCCtyt4,,,,,,-%==$@-rtCCCCCCCCCCC",
"CCCCCCCCCCCCCCCCCCCCCCCCCC=rrr<,,,----===-4rrrr5CCCCCCCCC",
"CCCCCCCCCCCCCCCCCCCCCCCC@$%rr5-,<,---%%-4rttr52-CCCCCCCCC",
"CCCCCCCCCCCCCCCCCCCCCC@@$=%rr5,<,---=,tuuyt52-,-@@CCCCCCC",
"CCCCCCCCCCCCCCCCCCCC@@%%=-%555-,--%$&rsfst4--,,-=@@@CCCCC",
"CCCCCCCCCCCCCCCCCC$@@@%---=255-,&$===5yyr,,,,,,-=$@@@@CCC",
"CCCCCCCCCCCCCCCC@@@@@$%====$=2%$%----4tt4,<<,----=%$@@@@C",
"CCCCCCCCCCCCCCC@o@@@@&-=====---====-=5r5,,<<---=%===$@@@O",
"CCCCCCCCCCCCCCC@X@@@@%%=======-======5r5,,<,,--%===$$@X..",
"CCCCCCCCCCCCCCC@o$X@@@$%========---==4r5,,,--$$&&*$@X....",
"CCCCCCCCCCCCCCCX@=$$@@@@$=----====--=<5r,,-$@@@$$@.......",
"CCCCCCCCCCCCCCC@@@%=@o@o@@$==&=====-=%$2-$$%=%$@O........",
"CCCCCCCCCCCCCCCoXO@@$@@oo@@@$#%---===-=-=&&%*$+..........",
"CCCCCCCCCCCCCCCoo@@@@$$@@@o@@@$%==-====-=&$@X............",
"CCCCCCCCCCCCCCC@@@<#@$%@@oOoo@@@$%$%=%=&$@X..............",
"CCCCCCCCCCCCCCCo@@kl>@@@@@@@@@@@@@@$%%#@.................",
"CCCCCCCCCCCCCCCX@@mMvl;$@@@@@@@@o@@@$$X..................",
"CCCCCCCCCCCCCCCoX@mMnB:$$@@@$@%=%@o@O....................",
"CCCCCCCCCCCCCCC@o@0jcbj1$@@$#$@@%=$@.....................",
"CCCCCCCCCCCCCCC@@@$*6gVp@@@%@o@oo@$@.....................",
"CCCCCCCCCCCCCCC@@$*=$$9q@@@$@,3O@@+@.....................",
"CCCCCCCCCCCCCC@@@$%--=$@@@@@0wNe>#@+.....................",
"CCCCCCCC@@CC$%$@$%==-===%@@@aMMnNa$X.....................",
"CCCCCC@@@@@o@%=&-=====---=$@7xvnMk@@.....................",
"CCCC@@@$$o..%%==----====--==$#8hMz@@.....................",
"CCCC@@@@....================-=$*0i@@.....................",
"CCCC@XO..  O@$======----===--=%@@$#o.....................",
"CC@@@XX. .@$=&=---=$%=---==&%%%@@@@o.....................",
"$%*$$$o.o%%--===-&$@@$====&@@#@...@@.....................",
"@X@%%=&$$=-====%%%$@X.=====$@O....o@.....................",
"o@@@@$%=-====-$@@@O...%$$$@O......@@.....................",
"oX@O@o$%==%%==#oo.....@@@O........oo.....................",
"oXoo@@@@$$@@%=@@X...X$@O..........@O.....................",
"o@@@@@@@X@@$%==#X.X$#O............@@...................CC",
"oX@@@@@@@o@@$%&$@@@O..............oX.................CCCC",
"@.o@@@@@@@@@o@$$@O...............Ooo...............CCCCCC",
"o@oo@@@@@@@OXoXX...............O..oX.............CCCCCCCC",
"o#$@X@@@@@@@@oXX.............o....@O...........CCCCCCCCCC",
"@@@oXXoXo@@@@@oO...........oX.....@X.........CCCCCCCCCCCC",
".X@@$@@ooX@@@@@X........O@o.......X@.......CCCCCCCCCCCCCC",
"oX.o@@$@X@o@@@oX......O#$.........o@.....CCCCCCCCCCCCCCCC",
"oXXXOX@$#@oo@@XX.....@$X..........XX...CCCCCCCCCCCCCCCCCC",
".oXXX@XO@$$oXOo....+@o...........CCo.CCCCCCCCCCCCCCCCCCCC",
"@X@@@@@ooo@$$ooX.X$@O..........CCCCCCCCCCCCCCCCCCCCCCCCCC",
"C.XX@@@@@oOX@$$$@@X...........CCCCCCCCCCCCCCCCCCCCCCCCCCC",
"CCX.oX@@@@@XX+@@@...........CCCCCCCCCCCCCCCCCCCCCCCCCCCCC",
"CCCCXOXXoXoXOX.O..........CCCCCCCCCCCCCCCCCCCCCCCCCCCCCCC",
"CCCCCC..OXo@@@O..........CCCCCCCCCCCCCCCCCCCCCCCCCCCCCCCC",
"CCCCCCCC.X.o@@XO.......CCCCCCCCCCCCCCCCCCCCCCCCCCCCCCCCCC",
"CCCCCCCCCCoXOXOO.....CCCCCCCCCCCCCCCCCCCCCCCCCCCCCCCCCCCC",
"CCCCCCCCCCCC.o.X...CCCCCCCCCCCCCCCCCCCCCCCCCCCCCCCCCCCCCC",
"CCCCCCCCCCCCCC@...CCCCCCCCCCCCCCCCCCCCCCCCCCCCCCCCCCCCCCC",
"CCCCCCCCCCCCCCCCCCCCCCCCCCCCCCCCCCCCCCCCCCCCCCCCCCCCCCCCC",
"CCCCCCCCCCCCCCCCCCCCCCCCCCCCCCCCCCCCCCCCCCCCCCCCCCCCCCCCC",
"CCCCCCCCCCCCCCCCCCCCCCCCCCCCCCCCCCCCCCCCCCCCCCCCCCCCCCCCC",
"CCCCCCCCCCCCCCCCCCCCCCCCCCCCCCCCCCCCCCCCCCCCCCCCCCCCCCCCC",
"CCCCCCCCCCCCCCCCCCCCCCCCCCCCCCCCCCCCCCCCCCCCCCCCCCCCCCCCC",
"CCCCCCCCCCCCCCCCCCCCCCCCCCCCCCCCCCCCCCCCCCCCCCCCCCCCCCCCC",
"CCCCCCCCCCCCCCCCCCCCCCCCCCCCCCCCCCCCCCCCCCCCCCCCCCCCCCCCC"
};
