/* XPM */
static char *result[] = {
/* columns rows colors chars-per-pixel */
"57 64 61 1 ",
"  c gray2",
". c #0B0B0B",
"X c #110E0E",
"o c #12110E",
"O c #0E0E11",
"+ c #0E1212",
"@ c #131313",
"# c #131314",
"$ c gray8",
"% c #161815",
"& c #181916",
"* c #161418",
"= c #17191A",
"- c gray10",
"; c #1D1122",
": c #2D0135",
"> c #300E39",
", c gray14",
"< c #262628",
"1 c #2B252A",
"2 c #2A2A2A",
"3 c #322532",
"4 c #313131",
"5 c #3E3E3E",
"6 c #3B1B44",
"7 c #3B2642",
"8 c #441E4F",
"9 c #412344",
"0 c #45224C",
"q c #493C4A",
"w c #4F3855",
"e c #6A257A",
"r c #444444",
"t c #4B4B4B",
"y c gray32",
"u c #5A5A5A",
"i c #624E65",
"p c #66436F",
"a c #6A4873",
"s c #6F6F6F",
"d c gray46",
"f c #797979",
"g c #701A83",
"h c #72138D",
"j c #752D87",
"k c #793386",
"l c #7E3F8D",
"z c #754383",
"x c #7E6486",
"c c #803B92",
"v c #8C03AC",
"b c #8C0AAB",
"n c #9008AE",
"m c #9101B4",
"M c #9A08B7",
"N c #8D5E99",
"B c #9C4FAF",
"V c #9756AA",
"C c #9E56B2",
"Z c #A155B3",
"A c None",
/* pixels */
"AAAAAAAAAAAAAAAAAAAAAAAAAAAAAAAAAArrAAAAAAAAAAAAAAAAAAAAA",
"AAAAAAAAAAAAAAAAAAAAAAAAAAAAAAAttrrr54AAAAAAAAAAAAAAAAAAA",
"AAAAAAAAAAAAAAAAAAAAAAAAAAAAAurrrr54--AAAAAAAAAAAAAAAAAAA",
"AAAAAAAAAAAAAAAAAAAAAAAAAAAAduyyr4--,-@@AAAAAAAAAAAAAAAAA",
"AAAAAAAAAAAAAAAAAAAAAAAAAAAusds5,-,,,&@$@@AAAAAAAAAAAAAAA",
"AAAAAAAAAAAAAAAAAAAAAAAAAAAtyt4,,,,,,-%==$@-rrAAAAAAAAAAA",
"AAAAAAAAAAAAAAAAAAAAAAAAAA=5rr<,,,----===-4rrrr5AAAAAAAAA",
"AAAAAAAAAAAAAAAAAAAAAAAA@$%555-<2,---%%-4rtrr52-AAAAAAAAA",
"AAAAAAAAAAAAAAAAAAAAAA@@$==5r5,<,---=,tuuyr5<---@@AAAAAAA",
"AAAAAAAAAAAAAAAAAAAA@@%%=-&555-,--%$&rsfst4--,,-=@@@AAAAA",
"AAAAAAAAAAAAAAAAAA$@@@%---=255-,&$===5yyr,,,,,,-=$@@@@AAA",
"AAAAAAAAAAAAAAAA@@@@@$%====$=2%$%----4rt4,<<,----=%$@@@@A",
"AAAAAAAAAAAAAAA@o@@@@&-=====---====--4r5,,<<---=%===$$@@O",
"AAAAAAAAAAAAAAA@X@@@@%%=======-======4r5,<<,,--%===$%@X..",
"AAAAAAAAAAAAAAA@o$o@@@$%========---==4r5,,,--$$&&%$@X....",
"AAAAAAAAAAAAAAAX@=%#@@@@$=----====--=<5r,,-$@@@$$@O......",
"AAAAAAAAAAAAAAA@@@%=@o@o@@$==&=====-=%$2-$%%=%$@O........",
"AAAAAAAAAAAAAAAoXO@@$@@oo@@@$#%---===-=-=&%%*$+..........",
"AAAAAAAAAAAAAAAoo@@@@$$@@@X@@@$%==-====-=&$@X............",
"AAAAAAAAAAAAAAA@@@<#@%%@@XXoo@@@$%$%=%=&$@X..............",
"AAAAAAAAAAAAAAAo@@lz>@@@@@@@@@@@@@@$%%$@.................",
"AAAAAAAAAAAAAAAX@@NBbz;$#@@@@@@@o@@@$$X..................",
"AAAAAAAAAAAAAAAoX@NBMC:$$@@@$@%=%@o@O....................",
"AAAAAAAAAAAAAAA@o@0jvnk1$@@$$$o@%=$@.....................",
"AAAAAAAAAAAAAAA@@@**6gZp@@@%@o@@o@$@.....................",
"AAAAAAAAAAAAAAA@@$%&$$9q@@@$@,3O@@+@.....................",
"AAAAAAAAAAAAAA@@@$%--=$@@@@@0wVe>##@.....................",
"AAAAAAAA@@AA$%$@$%==-===%@@@aBBmVa$X.....................",
"AAAAAA@@@@@o@%=&-=====---=$@7cbmBl@@.....................",
"AAAA@@@%$o..%%==----====--==$#8hBx@@.....................",
"AAAA@@@@....=======&&=======-=$$0i@@.....................",
"AAAA@oO..  O@$======----===--=%@@$$o.....................",
"AA@@@oX. .@$=&=---=$%=---==&%%%@@@@o.....................",
"$%$$$$o.o%%--===-&$@@$====&@@#@...@@.....................",
"@X@&&=&$$=-====%%%$@X.=====$@O....o@.....................",
"o@@@@$%=-====-$@@@O...%$$$@O......+@.....................",
"oo@X@o$$==%%==#oo.....@@@O........Xo.....................",
"oXoO@@@@$%@@%=@@X...X$@O..........@o.....................",
"o@@@@@@@oo@$===$X.X$#O............@@...................AA",
"oX@@@@@@@@@@$%&$@@@O..............oX.................AAAA",
"oXX@@@@@@@@@O@$$@.................Xo...............AAAAAA",
"@@@@@@@@@@@Xo@@X..................Xo.............AAAAAAAA",
"X@@@@@@@@@@@@oOX..................@X...........AAAAAAAAAA",
"OX@@@OoO@@@@@@@O..................@X.........AAAAAAAAAAAA",
"@ooOoo@oOo@@@@@X..................X@.......AAAAAAAAAAAAAA",
"ooo@XXo@@O@@@@@X..................o@.....AAAAAAAAAAAAAAAA",
"X@@@o@o@@#@oXXXO.....O............oX...AAAAAAAAAAAAAAAAAA",
"OX@@@@@@oXX@@o@O..OO...............o.AAAAAAAAAAAAAAAAAAAA",
"@OXXo@@@@@oXo@@X.X................AAAAAAAAAAAAAAAAAAAAAAA",
"AOoXooo@@@@oXoX@.................AAAAAAAAAAAAAAAAAAAAAAAA",
"A..OO@.ooo@@@ooO................AAAAAAAAAAAAAAAAAAAAAAAAA",
"AA..O+OXX@@@@@O................AAAAAAAAAAAAAAAAAAAAAAAAAA",
"AA....O@.Xo@@o@O..............AAAAAAAAAAAAAAAAAAAAAAAAAAA",
"AAA.....OO.X.XX...............AAAAAAAAAAAAAAAAAAAAAAAAAAA",
"AAA........OO.@O.............AAAAAAAAAAAAAAAAAAAAAAAAAAAA",
"AAAA.......O++@X............AAAAAAAAAAAAAAAAAAAAAAAAAAAAA",
"AAAAA......O..O............AAAAAAAAAAAAAAAAAAAAAAAAAAAAAA",
"AAAAAAA...................AAAAAAAAAAAAAAAAAAAAAAAAAAAAAAA",
"AAAAAAAAA................AAAAAAAAAAAAAAAAAAAAAAAAAAAAAAAA",
"AAAAAAAAAAA.............AAAAAAAAAAAAAAAAAAAAAAAAAAAAAAAAA",
"AAAAAAAAAAAAA..........AAAAAAAAAAAAAAAAAAAAAAAAAAAAAAAAAA",
"AAAAAAAAAAAAAAA.......AAAAAAAAAAAAAAAAAAAAAAAAAAAAAAAAAAA",
"AAAAAAAAAAAAAAAAA....AAAAAAAAAAAAAAAAAAAAAAAAAAAAAAAAAAAA",
"AAAAAAAAAAAAAAAAAAA..AAAAAAAAAAAAAAAAAAAAAAAAAAAAAAAAAAAA"
};
