/* XPM */
static char *result[] = {
/* columns rows colors chars-per-pixel */
"57 64 62 1 ",
"  c gray2",
". c #0B0B0B",
"X c #110E0E",
"o c #0F120E",
"O c #12110E",
"+ c #0E0E11",
"@ c #130E12",
"# c #0E1212",
"$ c #131313",
"% c #131314",
"& c gray8",
"* c #161815",
"= c #181916",
"- c #161418",
"; c #17191A",
": c gray10",
"> c #1D1122",
", c #2D0135",
"< c #300E39",
"1 c gray14",
"2 c #262628",
"3 c #2B252A",
"4 c #2A2A2A",
"5 c #322532",
"6 c #313131",
"7 c #3E3E3E",
"8 c #3B1B44",
"9 c #3B2642",
"0 c #441E4F",
"q c #412344",
"w c #45224C",
"e c #493C4A",
"r c #4F3855",
"t c #6A257A",
"y c #444444",
"u c #4B4B4B",
"i c gray32",
"p c #5A5A5A",
"a c #624E65",
"s c #66436F",
"d c #6A4873",
"f c #6F6F6F",
"g c gray46",
"h c #797979",
"j c #701A83",
"k c #72138D",
"l c #752D87",
"z c #793386",
"x c #7E3F8D",
"c c #754383",
"v c #7E6486",
"b c #803B92",
"n c #8C03AC",
"m c #8C0AAB",
"M c #9008AE",
"N c #9101B4",
"B c #8D5E99",
"V c #9C4FAF",
"C c #9756AA",
"Z c #9E56B2",
"A c #A155B3",
"S c None",
/* pixels */
"SSSSSSSSSSSSSSSSSSSSSSSSSSSSSSSSSSyySSSSSSSSSSSSSSSSSSSSS",
"SSSSSSSSSSSSSSSSSSSSSSSSSSSSSSSuuyyy76SSSSSSSSSSSSSSSSSSS",
"SSSSSSSSSSSSSSSSSSSSSSSSSSSSSpyyyy761:SSSSSSSSSSSSSSSSSSS",
"SSSSSSSSSSSSSSSSSSSSSSSSSSSSgpiiy6::::**SSSSSSSSSSSSSSSSS",
"SSSSSSSSSSSSSSSSSSSSSSSSSSSpfgf71:111:****SSSSSSSSSSSSSSS",
"SSSSSSSSSSSSSSSSSSSSSSSSSSSuiu6111111:;;=**:yySSSSSSSSSSS",
"SSSSSSSSSSSSSSSSSSSSSSSSSS;7yy2111::::;;;:6yyyy7SSSSSSSSS",
"SSSSSSSSSSSSSSSSSSSSSSSS**=777:241:::=;:6yuyy74:SSSSSSSSS",
"SSSSSSSSSSSSSSSSSSSSSS***;;7y71221::;1uppiy72:::**SSSSSSS",
"SSSSSSSSSSSSSSSSSSSS***;::;777:1::=*=yfhfu6::11:;***SSSSS",
"SSSSSSSSSSSSSSSSSS****=:::;477:1;*;;;7iiy111111:;*****SSS",
"SSSSSSSSSSSSSSSS******;;;;;*:4=*=;:::6yu61221::::;=*****S",
"SSSSSSSSSSSSSSS$$****=:;;;;;:::;;;;::6y71122:::;=;;****&X",
"SSSSSSSSSSSSSSS$o$&***=;;;;;;;:;;;;;;6y712211::=;;;**&X..",
"SSSSSSSSSSSSSSS$O&$@$***=;;;;;;;:::;;6y711:::**==;*&o....",
"SSSSSSSSSSSSSSSX$;*&@$&**;::::;;;;::;27y1::******&X......",
"SSSSSSSSSSSSSSS$$$*=&$@$&**;=;;;;;::;==6:**=;**&o........",
"SSSSSSSSSSSSSSSOX.$&**&$+$&***=:::;;;;;::====&o..........",
"SSSSSSSSSSSSSSS$O$$$$**$$@O$&**==;:;;;;:;;*&X............",
"SSSSSSSSSSSSSSS$$$2&$**&$O.OX@&****=;=;=*&X..............",
"SSSSSSSSSSSSSSSO$$xc<$&&$$$$$$@@&****-*&X................",
"SSSSSSSSSSSSSSSX$$BVmc>&*$$$$&*&O$&**&o..................",
"SSSSSSSSSSSSSSSOX&BVNZ,**&&$***;*&X@X....................",
"SSSSSSSSSSSSSSS$O&qlnMz3*&&*&*$$=;*$.....................",
"SSSSSSSSSSSSSSS$$&&&8jAs&&**$@$+O&*$.....................",
"SSSSSSSSSSSSSSS&&*;;*-qe$$&*&15+$$#$.....................",
"SSSSSSSSSSSSSS****=::;*&$$$$wrCt<%$#.....................",
"SSSSSSSS**SS*****=;;:;;;*&&$dVVNCd&+.....................",
"SSSSSS****&$**=;;;;;;;:::;*&9bmNVx&$.....................",
"SSSS$****$..==;;;:::;;;;::;;**0kVv$$.....................",
"SSSS$$&$....;;;;;;;;;;;;;;;;:;&&wa$$.....................",
"SSSS$+X..  X**;;;;;;::::;;;::;***&$O.....................",
"SS**$XX. .$**=;:::;==;:::;=;*=**$@$O.....................",
"******O.$*;::;;;:=****;;;;=***&...$$.....................",
"$o&*=;;**;:;;;;*****o.;;;;;*&X....X$.....................",
"O$$$&**;:;;;;;*$*&o...****$+......$$.....................",
"OO$X$O**;;==;;&#O.....*&$X........XX.....................",
"OXOX&O@$&***=;&$X...o*&+..........$O.....................",
"O$$$&*$$+O&*;;;&..o*&X............$O...................SS",
"OX$&&&&&$$O$&****&$+..............+X.................SSSS",
"OX$$$&$$&&OOX$&*$X................OX...............SSSSSS",
"XX$$$$$$&&$$O$O+..................OO.............SSSSSSSS",
"OX$OX$O$X&&$$OoX..................$+...........SSSSSSSSSS",
"+$O$OX$XXO$&$$$X.................X$+.........SSSSSSSSSSSS",
"OX.O$X$OOX$$$$$X..................X$.......SSSSSSSSSSSSSS",
"O$O$XO$XXX$$$$OX..................OO.....SSSSSSSSSSSSSSSS",
"$$$$$&&$XXXO$$O...................OX...SSSSSSSSSSSSSSSSSS",
"$XO$$$&&&$$O+OX+................SSS$.SSSSSSSSSSSSSSSSSSSS",
"S+$$$$$$&$$O$$O...............SSSSSSSSSSSSSSSSSSSSSSSSSSS",
"SSS$OO$$$$$$+$X+............SSSSSSSSSSSSSSSSSSSSSSSSSSSSS",
"SSSSS$$XX$$&$$O...........SSSSSSSSSSSSSSSSSSSSSSSSSSSSSSS",
"SSSSSSS$$X$&&$$X........SSSSSSSSSSSSSSSSSSSSSSSSSSSSSSSSS",
"SSSSSSSSS$$X$$$X......SSSSSSSSSSSSSSSSSSSSSSSSSSSSSSSSSSS",
"SSSSSSSSSSS+$$++....SSSSSSSSSSSSSSSSSSSSSSSSSSSSSSSSSSSSS",
"SSSSSSSSSSSSS$O...SSSSSSSSSSSSSSSSSSSSSSSSSSSSSSSSSSSSSSS",
"SSSSSSSSSSSSSSS.SSSSSSSSSSSSSSSSSSSSSSSSSSSSSSSSSSSSSSSSS",
"SSSSSSSSSSSSSSSSSSSSSSSSSSSSSSSSSSSSSSSSSSSSSSSSSSSSSSSSS",
"SSSSSSSSSSSSSSSSSSSSSSSSSSSSSSSSSSSSSSSSSSSSSSSSSSSSSSSSS",
"SSSSSSSSSSSSSSSSSSSSSSSSSSSSSSSSSSSSSSSSSSSSSSSSSSSSSSSSS",
"SSSSSSSSSSSSSSSSSSSSSSSSSSSSSSSSSSSSSSSSSSSSSSSSSSSSSSSSS",
"SSSSSSSSSSSSSSSSSSSSSSSSSSSSSSSSSSSSSSSSSSSSSSSSSSSSSSSSS",
"SSSSSSSSSSSSSSSSSSSSSSSSSSSSSSSSSSSSSSSSSSSSSSSSSSSSSSSSS",
"SSSSSSSSSSSSSSSSSSSSSSSSSSSSSSSSSSSSSSSSSSSSSSSSSSSSSSSSS",
"SSSSSSSSSSSSSSSSSSSSSSSSSSSSSSSSSSSSSSSSSSSSSSSSSSSSSSSSS"
};
