/* XPM */
static char *_21586a6bc6a4b40ad23c02196a68564nbXEIL3EmbKATuSt[] = {
/* columns rows colors chars-per-pixel */
"64 64 90 1 ",
"  c #664F2C",
". c #67502C",
"X c #6A532E",
"o c #6E5630",
"O c #6F5831",
"+ c #705731",
"@ c #735A33",
"# c #795E35",
"$ c #7D6237",
"% c #7E6338",
"& c #826539",
"* c #866A3C",
"= c #896C3E",
"- c #92713F",
"; c #8D6F42",
": c #8F7343",
"> c #967441",
", c #997744",
"< c #957A47",
"1 c #9A7945",
"2 c #977C48",
"3 c #9A7E49",
"4 c #9E834D",
"5 c #A2854E",
"6 c #A9864F",
"7 c #A48651",
"8 c #A88753",
"9 c #A68951",
"0 c #A98853",
"q c #AB8B53",
"w c #A98C53",
"e c #AA8C52",
"r c #AC8D53",
"t c #AD8D53",
"y c #A88A54",
"u c #A98B54",
"i c #AE8B57",
"p c #AF8B57",
"a c #AA8C54",
"s c #AC8D55",
"d c #AE8C55",
"f c #AE8E54",
"g c #AE8F55",
"h c #AF8F55",
"j c #AF8F57",
"k c #AE8C58",
"l c #AF8F59",
"z c #B08D56",
"x c #B18E56",
"c c #B08F56",
"v c #B08C58",
"b c #B18E59",
"n c #B08F59",
"m c #B18F5A",
"M c #B09056",
"N c #B19056",
"B c #B19057",
"V c #B39258",
"C c #B3915B",
"Z c #B59159",
"A c #B49358",
"S c #B69259",
"D c #B5925B",
"F c #B6945A",
"G c #B7945B",
"H c #B7955B",
"J c #B6935C",
"K c #B6925D",
"L c #B6925E",
"P c #B7945E",
"I c #B9955E",
"U c #B8945F",
"Y c #B9945F",
"T c #BB975F",
"R c #BC995E",
"E c #BD995F",
"W c #BD9A5F",
"Q c #B99560",
"! c #BA9560",
"~ c #BB9660",
"^ c #BB9760",
"/ c #BF9B60",
"( c #BF9B61",
") c #C09B61",
"_ c #C19C61",
"` c #C19C62",
"' c #C19D62",
"] c #C29D62",
"[ c #C39E63",
"{ c #C49E63",
/* pixels */
"UUUUBhhhJQQQ(``{``{{_`{_[_[_{```UUJU`````{`[`[_[_[_[{`{`WUUC>>>>",
"UUUUBhhhJJQJ(```{```_{`__[_[``{`UUYY`{`{``[`[`[_[_[_````UUUj>>>>",
"UUUUBhhhJQJQ``{`{{){``{{[_[_`{`_UUUY```{[````[_[_[_[`{``UUUx>>>>",
"UUUUBhhhQQQQ``{`_){){__`_[_[`{``UUUW{{```[`([_[_[_[_`{``UUUB>>>>",
"UUUUJDDDABABFFFBe866uuhuAFBHWTTTUUUUWWUWFFFFFFFFWWQ`U^UUur953133",
"UUUUUUUUjMMfBMBf>>--4444fxhMHUUUUUUUUUUUMrMMMMMMFFUUUUUD54545555",
"UUUUUUUUBMfMfMfr1>>>4445rMrMUUUUUUUUUUUDMMMMMrrhUUUUUUUD54444455",
"UUUUUUUUBhMfMfBr1>>>3445rMMMUUUUUUUUUUUUMMrrMMMMPUUUUUUP54445445",
"xDJxLLJQDDmJCJJm6666ffhmBaCae997f9ey5eeu7579MfMMmBCDmQQmkkku1113",
"hhfxLQQQUPQQQJQPBffhDPPQMMhh5444444454445455fffMhhhxQQQQPQQk>>>>",
"hhxxLQJQUQQQQQJQBBBxFQUUMMhh5444444444444455hMhxhhhhQQQQQQQk>>>>",
"xaxvvLJJPJJJmQJJxffhDDPDMaae4444444444444445rffhffdmPmJJPJJk>->-",
"1331>=;;;;;=11332116:;;;%$$$#@$$*****=**#@$$*=**$$$#&#%&;;-*#@@@",
">-,-&#&#&#&&>>>,,>>=$$$$X.  ....$%%#$%&$   X$$$$       X##%@X   ",
",--,&&#&#&&&>>>>>>1-%%$$o.   . X#%%$$$$#XX X$$$$X...   X&#%#    ",
",,1-&&&&#&#&>,>,>>>-&%%$o... XXX%%%&&&&#XXXX$$%$X...XX o#&&#XXXX",
"xxvvvxvv4<<3xDFCFDAVBBcvf9e7<::<rBhhcBhh000887e733333333<<<37373",
"UDYY)){/9445W``{{{{`{{{_{`)(7449W{`{_``{_{{`QQQPBBMBCxkM5547FQQQ",
"HTYY_{{/9455W`{{`{```{_`{{`W5449(``{`{{`{{))QQUUxhhhhhha5449YQQQ",
"UUYY/{)_r445W)````{````{/`{W5545W``````_`)_)QQUFMhhhhhhd5457JQQQ",
"hCmxYTTTBCxCVVVVr9eeBBAAeee51111e9eeVAAAJDVDUUUUDFCJJCJJCkmCmCmx",
"hxhhSYYYUUPUBBBf5445fBBx5444,>-14445fBcMmxfBPUUUJQQQQQmQPQQJvkxh",
"xhhhJJYJUUUUBfxe5445fcMf5445,->>4445fffffBBBUUUUQJQJQQQQQUJJhhMh",
"hhhmJQQQUUUHBBvv5445eMMe5445,,>14445ffBBfffBUUUJQQQQJQJQUUQJhhhh",
"5555599yMCBBmJJmMreerhBMfre5>>>>hkmmJmJmmJmJvDxCBBChry997ay97795",
"54554444ahMBYYQQBMrfxhrMrhff1>>1mUQQQQQQQQQQxxhxMhfr444544444444",
"44544444ehhhQQYJBBMMrhBhBxff>>>1mQQQQQQQYJUPxhrhMMMh444454444454",
"44444444errhmJmDfrrrrffreee6>>--mJmmmJmmJJDCfrrrrrur544543444344",
"o@@@@@@@&***====>111-***$@#@OOO@########**===*=****=><>>*&*$@@@@",
"      ..#%%##&#&->>-&%$#X.......        #&&#&#&#$%%%->>-&$$#. ..",
".X X.X.X#%%%&#&&->>>&%%$X..X...X  ......#&&##&$%%%&&>>>-&$%$....",
"XXXXXXXX$&%&&&&&>>>>&&&%OXXXXXXXoo.oo.o+#&&&&&&&&&&&>1>>&&%$XXX.",
"8888hxBhmmmmkuuhe6e66555wMMMMkaMkkkkkxkkBAADBDBACcDDFHHAhde7<<<<",
"QQQQ({``{{{{QQJUxhhhMMBC([([[[[[))[{){{){[{```{_{{_{[`{[QJUC7444",
"QQYJ(){`{))`QQUUCfhhhhxh(```[(`````{{`)``````{`{```{`[``YQQC5444",
"QJYYW)```{))YQUFBhhhhxhm(`````(`````````````````___````RJQJC5444",
"QQQQDBVBUTYUUUUUFFPJJJJmBBFMr9a9999rr9euBDCBe99eBABBe9rw9975,,,,",
"QJQmBhBfHYUUUUUUPPUPQJQQCMhr544444444444uhfr4445fxBr54444453>>>>",
"QQQQBxBxUUUUUUUUQQUUQQPPBhhf444444444445hhhh5445ffMr54444444>>>>",
"QmQQBhfBDUUUUUUPJJUJQJJJBhhr744444545544rhhe5455fMff44544544>>>>",
"()``UHDDBBBBMBxBu779999747754445rrwrfeeehxffrrrr77744447Cmmk4343",
"``{)UUUUxhxhxhhr5444444444444444MMMMhhdhhffxfMrr74444447DUQm4447",
"``{`TUUUCxvhMrhr5444444444444444rBhhdvhhffMfxfhh44444447FQQm4444",
"QUTTmmmmeeeefffr544434444244442464r7eeerfrffeee644434434kmmd4433",
"@@@@@@@@&&**,,,,,,,>*&&&++++OOOO@@@@&***>11,=***%%*%@+++@+#+oo++",
"....X   #$%&->>>->>>&%%%X ........ X#%#&----&$$$%%%$.   .      .",
"X.X.  .X#$&&->>>>>>-&$%$X .......X.X$%%&----&$$$$%$$    ........",
"++X+X@XX%&&*,,,1,,1>=&&$OooooXX.XOX@&&&*>11,&&&&*&&%OooOOOoooooo",
"xmDx4<<29hkkUUWUWUFFFMkkd8k84<<4BDBCJFDFFWFD4334CFUAxudkkCCMCDCm",
"({{)w444CQJQ``{`{`{`QUQQQQQQ7445W{`{{`{{{`{W4449W`[_UUQQ{`{``{{`",
"_{{)9445CQJQ``{``{``QUUQJQQm5447`_`{`{{``{`W5449W```UUUU```{``{`",
"_```r455CQQQ__```W((UJJJQQQC7445U_W````````W5449_```UUUU```__```",
"VBBBhfrrDCUPUWUUu7995755umxM44455999QQQQUWUUrrrhURQQCChBhBAhBBAM",
"BxfMBffMQQUQUUUH74444454hhhx54445545JQJQUUUFBrMBPPQFffhhBhBhxBMM",
"ffxffMffPUQQQUUD74445445ehhu54444445JJUUUUUUBMMMPPPDMhhhhhMfhhhM",
"BffMfffMDCFUUDUY75554555exhe54445555FUUUUUUDMrrMPPPPhhhrhhhrffff",
"MfMf55557777BBMBmJmmxuhe6585,,,,hCmJQQQJBBBM55457554554465555555",
"fMff55444444rMMBJQQQmhhh5535>,,,JQQQQJQJBfhr54445444544444444445",
"BBhf55544447fBfMJQYHBhhx5453,>>,CQQQQQQJhBMM54444444444444444444",
"6556441434345975vdvxe9e54453,>>,kJmmmmmkr55544242442244224224224",
"OOOO$&&&&&&&@++X+++X&&&&->>>>>>>,>>>*&*&@OO@%%$$XXX@OXOOOXOOXXOX",
"....#$$$$%&#X..XX  X#$&&-->->>>>>>>>&#&#...X$$$$XX X............",
"....#$&$$&%#X...X  X#&$&-->>>>>>>>>>&&##X.XX$$$$................",
"....#$$$$$%$X...    #$&=-1->>>>>>>>;&#&&..XX$$$$................"
};
