/* XPM */
static char *result[] = {
/* columns rows colors chars-per-pixel */
"64 64 17 1 ",
"  c black",
". c #161517",
"X c #261412",
"o c #29282B",
"O c #4A2616",
"+ c #40231F",
"@ c #663430",
"# c #230752",
"$ c #280463",
"% c #13404A",
"& c #276C7D",
"* c #C4945E",
"= c #E3AC6D",
"- c #449BB3",
"; c #6FC1D4",
": c white",
"> c None",
/* pixels */
">>>>>>>>>>>>>>**********%%%%%%%%%%%%%%%%>>>>>>>>>>>>>>>>>>>>>>>>",
">>>>>>>>>>>>>>*======***%&&------;;----%>>>>>>>>>>>>>>>>>>>>>>>>",
">>>>>>>>>>>>>>*=======**%&&------;;----%>>>>>>>>>>>>>>>>>>>>>>>>",
">>>>>>>>>>>>>>*========*%--------;;----%>>>>>>>>>>>>>>>>>>>>>>>>",
">>>>>>>>>>>>>>*========*%----;;;;;;----%>>>>>>>>>>>>>>>>>>>>>>>>",
">>>>>>>>>>>>>>*========*%----;;;;;;----%>>>>>>>>>>>>>>>>>>>>>>>>",
">>>>>>>>>>>>>>*========*%--------------%>>>>>>>>>>>>>>>>>>>>>>>>",
">>>>>>>>>>>>>>*========*%--------------%>>>>>>>>>>>>>>>>>>>>>>>>",
">>>>>>>>>>>>>>*========*%---&&&&&&---&&%>>>>>>>>>>>>>>>>>>>>>>>>",
">>>>>>>>>>>>>>*========*%---&&&&&&---&&%>>>>>>>>>>>>>>>>>>>>>>>>",
">>>>>>>>>>>>>>*========*%------------&&%>>>>>>>>>>>>>>>>>>>>>>>>",
">>>>>>>>>>>>>>*========*%------------&&%>>>>>>>>>>>>>>>>>>>>>>>>",
">>>>>>>>>>>>>>*========*%----------&&&&%>>>>>>>>>>>>>>>>>>>>>>>>",
">>>>>>>>>>>>>>**=======*%;;;;------&&&&%>>>>>>>>>>>>>>>>>>>>>>>>",
">>>>>>>>>>>>>>***======*%;;;;------&&&&%>>>>>>>>>>>>>>>>>>>>>>>>",
">>>>>>>>>>>>>>**********%%%%%%%%%%%%%%%%>>>>>>>>>>>>>>>>>>>>>>>>",
">>>>>>>>>>>>>>>>                                ############....",
">>>>>>>>>>>>>>>> XXXX++++@@@@++++++++++++++XXXX #$$$$$$$$$$#.ooo",
">>>>>>>>>>>>>>>> XXXX++++@@@@++++++++++++++XXXX #$$$$$$$$$$#.ooo",
">>>>>>>>>>>>>>>> XXXX++++@@@@++++++++++++++XXXX #$$$$$$$$$$#.ooo",
">>>>>>>>>>>>>>>> XXXX++++@@@@++++++++++++++XXXX #$$$$$$$$$$#oooo",
">>>>>>>>>>>>>>>> @@@@++++@@@@XXXXXXXXX+++++XXXX :$$$$$$$$$$#oooo",
">>>>>>>>>>>>>>>> @@@@++++@@@@XXXXXXXXX+++++XXXX :$$$$$$$$$$#oooo",
">>>>>>>>>>>>>>>> @@@@++++@@@@XXXXXXXXX+++++XXXX :$$$$$$$$$$#oooo",
">>>>>>>>>>>>>>>> @@@@++++@@@@XXXXXXXXX+++++XXXX %$$$$$$$$$$#oooo",
">>>>>>>>>>>>>>>> ++++++++@@@@@@@@@+++++++++XXXX %$$$$$$$$$$#oooo",
">>>>>>>>>>>>>>>> ++++++++@@@@@@@@@+++++++++++++ #$$$$$$$$$$#ooo.",
">>>>>>>>>>>>>>>> ++++++++@@@@@@@@@+++++++++++++ #$$$$$$$$$$#ooo.",
">>>>>>>>>>>>>>>> ++++++++@@@@@@@@@+++++++++++++ #$$$$$$$$$$#ooo.",
">>>>>>>>>>>>>>>> XXXXXXXXXXXXXX++++++++++++++++ OO$$$$$$$$$#ooo.",
">>>>>>>>>>>>>>>> XXXXXXXXXXXXXX++++++++++++@@@@ OO$$$$$$$$$#ooo.",
">>>>>>>>>>>>>>>> XXXXXXXXXXXXXX++++++++++++@@@@ OO##########....",
"....############ XXXXXXXXXXXXXX++++++++++++@@@@ OO>>>>>>>>>>>>>>",
".ooo#$$$$$$$$$$# ++++++++++++++++++++++++++@@@@ OO>>>>>>>>>>>>>>",
".ooo#$$$$$$$$$$# +++++++++++++++++++XXXXXXXXXXX OO>>>>>>>>>>>>>>",
".ooo#$$$$$$$$$$# +++++++++++++++++++XXXXXXXXXXX >>>>>>>>>>>>>>>>",
".ooo#$$$$$$$$$$# +++++++++++++++++++XXXXXXXXXXX >>>>>>>>>>>>>>>>",
".ooo#$$$$$$$$$$# +++++++++++++XXXXXXXXXXXXXXXXX >>>>>>>>>>>>>>>>",
"oooo#$$$$$$$$$$# +++++++++++++XXXXXXXXXXXXXXXXX >>>>>>>>>>>>>>>>",
"oooo#$$$$$$$$$$# @@@@+++++++XXXXXXXXXX+++++++++ >>>>>>>>>>>>>>>>",
"oooo#$$$$$$$$$$# @@@@+++++++XXXXXXXXXX+++++++++ %>>>>>>>>>>>>>>>",
"oooo#$$$$$$$$$$# @@@@+++++++XXXX+++++++++++++++ %>>>>>>>>>>>>>>>",
"oooo#$$$$$$$$$$# @@@@+++++++XXXX+++++++++++++++ :>>>>>>>>>>>>>>>",
"oooo#$$$$$$$$$$# ++++@@@@+++XXXX+++++++++++++++ :>>>>>>>>>>>>>>>",
"ooo.#$$$$$$$$$$# ++++@@@@+++XXXX+++++++++++++++ >>>>>>>>>>>>>>>>",
"ooo.#$$$$$$$$$$# ++++@@@@+++XXXX+++++++++++++++ >>>>>>>>>>>>>>>>",
"ooo.#$$$$$$$$$$# ++++@@@@+++XXXX+++++++++++++++ >>>>>>>>>>>>>>>>",
"....############                                >>>>>>>>>>>>>>>>",
">>>>>>>>>>>>>>>>>>>>>>>>%%%%%%%%%%%%%%%%**********>>>>>>>>>>>>>>",
">>>>>>>>>>>>>>>>>>>>>>>>%&&------;;----%*======***>>>>>>>>>>>>>>",
">>>>>>>>>>>>>>>>>>>>>>>>%&&------;;----%*=======**>>>>>>>>>>>>>>",
">>>>>>>>>>>>>>>>>>>>>>>>%--------;;----%*========*>>>>>>>>>>>>>>",
">>>>>>>>>>>>>>>>>>>>>>>>%----;;;;;;----%*========*>>>>>>>>>>>>>>",
">>>>>>>>>>>>>>>>>>>>>>>>%----;;;;;;----%*========*>>>>>>>>>>>>>>",
">>>>>>>>>>>>>>>>>>>>>>>>%--------------%*========*>>>>>>>>>>>>>>",
">>>>>>>>>>>>>>>>>>>>>>>>%--------------%*========*>>>>>>>>>>>>>>",
">>>>>>>>>>>>>>>>>>>>>>>>%---&&&&&&---&&%*========*>>>>>>>>>>>>>>",
">>>>>>>>>>>>>>>>>>>>>>>>%---&&&&&&---&&%*========*>>>>>>>>>>>>>>",
">>>>>>>>>>>>>>>>>>>>>>>>%------------&&%*========*>>>>>>>>>>>>>>",
">>>>>>>>>>>>>>>>>>>>>>>>%------------&&%*========*>>>>>>>>>>>>>>",
">>>>>>>>>>>>>>>>>>>>>>>>%----------&&&&%*========*>>>>>>>>>>>>>>",
">>>>>>>>>>>>>>>>>>>>>>>>%;;;;------&&&&%**=======*>>>>>>>>>>>>>>",
">>>>>>>>>>>>>>>>>>>>>>>>%;;;;------&&&&%***======*>>>>>>>>>>>>>>",
">>>>>>>>>>>>>>>>>>>>>>>>%%%%%%%%%%%%%%%%**********>>>>>>>>>>>>>>"
};
