/* XPM */
static char *result[] = {
/* columns rows colors chars-per-pixel */
"64 64 11 1 ",
"  c black",
". c #261412",
"X c #4A2616",
"o c #40231F",
"O c #663430",
"+ c #13404A",
"@ c #276C7D",
"# c #449BB3",
"$ c #6FC1D4",
"% c white",
"& c None",
/* pixels */
"&&&&&&&&&&&&&&&&&&&&&&&&++++++++++++++++&&&&&&&&&&&&&&&&&&&&&&&&",
"&&&&&&&&&&&&&&&&&&&&&&&&+@@######$$####+&&&&&&&&&&&&&&&&&&&&&&&&",
"&&&&&&&&&&&&&&&&&&&&&&&&+@@######$$####+&&&&&&&&&&&&&&&&&&&&&&&&",
"&&&&&&&&&&&&&&&&&&&&&&&&+########$$####+&&&&&&&&&&&&&&&&&&&&&&&&",
"&&&&&&&&&&&&&&&&&&&&&&&&+####$$$$$$####+&&&&&&&&&&&&&&&&&&&&&&&&",
"&&&&&&&&&&&&&&&&&&&&&&&&+####$$$$$$####+&&&&&&&&&&&&&&&&&&&&&&&&",
"&&&&&&&&&&&&&&&&&&&&&&&&+##############+&&&&&&&&&&&&&&&&&&&&&&&&",
"&&&&&&&&&&&&&&&&&&&&&&&&+##############+&&&&&&&&&&&&&&&&&&&&&&&&",
"&&&&&&&&&&&&&&&&&&&&&&&&+###@@@@@@###@@+&&&&&&&&&&&&&&&&&&&&&&&&",
"&&&&&&&&&&&&&&&&&&&&&&&&+###@@@@@@###@@+&&&&&&&&&&&&&&&&&&&&&&&&",
"&&&&&&&&&&&&&&&&&&&&&&&&+############@@+&&&&&&&&&&&&&&&&&&&&&&&&",
"&&&&&&&&&&&&&&&&&&&&&&&&+############@@+&&&&&&&&&&&&&&&&&&&&&&&&",
"&&&&&&&&&&&&&&&&&&&&&&&&+##########@@@@+&&&&&&&&&&&&&&&&&&&&&&&&",
"&&&&&&&&&&&&&&&&&&&&&&&&+$$$$######@@@@+&&&&&&&&&&&&&&&&&&&&&&&&",
"&&&&&&&&&&&&&&&&&&&&&&&&+$$$$######@@@@+&&&&&&&&&&&&&&&&&&&&&&&&",
"&&&&&&&&&&&&&&&&&&&&&&&&++++++++++++++++&&&&&&&&&&&&&&&&&&&&&&&&",
"&&&&&&&&&&&&&&&&                                &&&&&&&&&&&&&&&&",
"&&&&&&&&&&&&&&&& ....ooooOOOOoooooooooooooo.... &&&&&&&&&&&&&&&&",
"&&&&&&&&&&&&&&&& ....ooooOOOOoooooooooooooo.... &&&&&&&&&&&&&&&&",
"&&&&&&&&&&&&&&&& ....ooooOOOOoooooooooooooo.... &&&&&&&&&&&&&&&&",
"&&&&&&&&&&&&&&&& ....ooooOOOOoooooooooooooo.... &&&&&&&&&&&&&&&&",
"&&&&&&&&&&&&&&&& OOOOooooOOOO.........ooooo.... %&&&&&&&&&&&&&&&",
"&&&&&&&&&&&&&&&& OOOOooooOOOO.........ooooo.... %&&&&&&&&&&&&&&&",
"&&&&&&&&&&&&&&&& OOOOooooOOOO.........ooooo.... %&&&&&&&&&&&&&&&",
"&&&&&&&&&&&&&&&& OOOOooooOOOO.........ooooo.... +&&&&&&&&&&&&&&&",
"&&&&&&&&&&&&&&&& ooooooooOOOOOOOOOooooooooo.... +&&&&&&&&&&&&&&&",
"&&&&&&&&&&&&&&&& ooooooooOOOOOOOOOooooooooooooo &&&&&&&&&&&&&&&&",
"&&&&&&&&&&&&&&&& ooooooooOOOOOOOOOooooooooooooo &&&&&&&&&&&&&&&&",
"&&&&&&&&&&&&&&&& ooooooooOOOOOOOOOooooooooooooo &&&&&&&&&&&&&&&&",
"&&&&&&&&&&&&&&&& ..............oooooooooooooooo XX&&&&&&&&&&&&&&",
"&&&&&&&&&&&&&&&& ..............ooooooooooooOOOO XX&&&&&&&&&&&&&&",
"&&&&&&&&&&&&&&&& ..............ooooooooooooOOOO XX&&&&&&&&&&&&&&",
"&&&&&&&&&&&&&&&& ..............ooooooooooooOOOO XX&&&&&&&&&&&&&&",
"&&&&&&&&&&&&&&&& ooooooooooooooooooooooooooOOOO XX&&&&&&&&&&&&&&",
"&&&&&&&&&&&&&&&& ooooooooooooooooooo........... XX&&&&&&&&&&&&&&",
"&&&&&&&&&&&&&&&& ooooooooooooooooooo........... &&&&&&&&&&&&&&&&",
"&&&&&&&&&&&&&&&& ooooooooooooooooooo........... &&&&&&&&&&&&&&&&",
"&&&&&&&&&&&&&&&& ooooooooooooo................. &&&&&&&&&&&&&&&&",
"&&&&&&&&&&&&&&&& ooooooooooooo................. &&&&&&&&&&&&&&&&",
"&&&&&&&&&&&&&&&& OOOOooooooo..........ooooooooo &&&&&&&&&&&&&&&&",
"&&&&&&&&&&&&&&&& OOOOooooooo..........ooooooooo +&&&&&&&&&&&&&&&",
"&&&&&&&&&&&&&&&& OOOOooooooo....ooooooooooooooo +&&&&&&&&&&&&&&&",
"&&&&&&&&&&&&&&&& OOOOooooooo....ooooooooooooooo %&&&&&&&&&&&&&&&",
"&&&&&&&&&&&&&&&& ooooOOOOooo....ooooooooooooooo %&&&&&&&&&&&&&&&",
"&&&&&&&&&&&&&&&& ooooOOOOooo....ooooooooooooooo &&&&&&&&&&&&&&&&",
"&&&&&&&&&&&&&&&& ooooOOOOooo....ooooooooooooooo &&&&&&&&&&&&&&&&",
"&&&&&&&&&&&&&&&& ooooOOOOooo....ooooooooooooooo &&&&&&&&&&&&&&&&",
"&&&&&&&&&&&&&&&&                                &&&&&&&&&&&&&&&&",
"&&&&&&&&&&&&&&&&&&&&&&&&++++++++++++++++&&&&&&&&&&&&&&&&&&&&&&&&",
"&&&&&&&&&&&&&&&&&&&&&&&&+@@######$$####+&&&&&&&&&&&&&&&&&&&&&&&&",
"&&&&&&&&&&&&&&&&&&&&&&&&+@@######$$####+&&&&&&&&&&&&&&&&&&&&&&&&",
"&&&&&&&&&&&&&&&&&&&&&&&&+########$$####+&&&&&&&&&&&&&&&&&&&&&&&&",
"&&&&&&&&&&&&&&&&&&&&&&&&+####$$$$$$####+&&&&&&&&&&&&&&&&&&&&&&&&",
"&&&&&&&&&&&&&&&&&&&&&&&&+####$$$$$$####+&&&&&&&&&&&&&&&&&&&&&&&&",
"&&&&&&&&&&&&&&&&&&&&&&&&+##############+&&&&&&&&&&&&&&&&&&&&&&&&",
"&&&&&&&&&&&&&&&&&&&&&&&&+##############+&&&&&&&&&&&&&&&&&&&&&&&&",
"&&&&&&&&&&&&&&&&&&&&&&&&+###@@@@@@###@@+&&&&&&&&&&&&&&&&&&&&&&&&",
"&&&&&&&&&&&&&&&&&&&&&&&&+###@@@@@@###@@+&&&&&&&&&&&&&&&&&&&&&&&&",
"&&&&&&&&&&&&&&&&&&&&&&&&+############@@+&&&&&&&&&&&&&&&&&&&&&&&&",
"&&&&&&&&&&&&&&&&&&&&&&&&+############@@+&&&&&&&&&&&&&&&&&&&&&&&&",
"&&&&&&&&&&&&&&&&&&&&&&&&+##########@@@@+&&&&&&&&&&&&&&&&&&&&&&&&",
"&&&&&&&&&&&&&&&&&&&&&&&&+$$$$######@@@@+&&&&&&&&&&&&&&&&&&&&&&&&",
"&&&&&&&&&&&&&&&&&&&&&&&&+$$$$######@@@@+&&&&&&&&&&&&&&&&&&&&&&&&",
"&&&&&&&&&&&&&&&&&&&&&&&&++++++++++++++++&&&&&&&&&&&&&&&&&&&&&&&&"
};
