/* XPM */
static char *result[] = {
/* columns rows colors chars-per-pixel */
"64 64 17 1 ",
"  c black",
". c #161517",
"X c #261412",
"o c #29282B",
"O c #4A2616",
"+ c #40231F",
"@ c #663430",
"# c #230752",
"$ c #280463",
"% c #13404A",
"& c #276C7D",
"* c #C4945E",
"= c #E3AC6D",
"- c #449BB3",
"; c #6FC1D4",
": c white",
"> c None",
/* pixels */
">>>>>>>>>>>>>>>>>>>>>>>>%%%%%%%%%%%%%%%%*****>>>>>>>>>>>>>>>>>>>",
">>>>>>>>>>>>>>>>>>>>>>>>%&&------;;----%*=***>>>>>>>>>>>>>>>>>>>",
">>>>>>>>>>>>>>>>>>>>>>>>%&&------;;----%*==**>>>>>>>>>>>>>>>>>>>",
">>>>>>>>>>>>>>>>>>>>>>>>%--------;;----%*===*>>>>>>>>>>>>>>>>>>>",
">>>>>>>>>>>>>>>>>>>>>>>>%----;;;;;;----%*===*>>>>>>>>>>>>>>>>>>>",
">>>>>>>>>>>>>>>>>>>>>>>>%----;;;;;;----%*===*>>>>>>>>>>>>>>>>>>>",
">>>>>>>>>>>>>>>>>>>>>>>>%--------------%*===*>>>>>>>>>>>>>>>>>>>",
">>>>>>>>>>>>>>>>>>>>>>>>%--------------%*===*>>>>>>>>>>>>>>>>>>>",
">>>>>>>>>>>>>>>>>>>>>>>>%---&&&&&&---&&%*===*>>>>>>>>>>>>>>>>>>>",
">>>>>>>>>>>>>>>>>>>>>>>>%---&&&&&&---&&%*===*>>>>>>>>>>>>>>>>>>>",
">>>>>>>>>>>>>>>>>>>>>>>>%------------&&%*===*>>>>>>>>>>>>>>>>>>>",
">>>>>>>>>>>>>>>>>>>>>>>>%------------&&%*===*>>>>>>>>>>>>>>>>>>>",
">>>>>>>>>>>>>>>>>>>>>>>>%----------&&&&%*===*>>>>>>>>>>>>>>>>>>>",
">>>>>>>>>>>>>>>>>>>>>>>>%;;;;------&&&&%**==*>>>>>>>>>>>>>>>>>>>",
">>>>>>>>>>>>>>>>>>>>>>>>%;;;;------&&&&%***=*>>>>>>>>>>>>>>>>>>>",
">>>>>>>>>>>>>>>>>>>>>>>>%%%%%%%%%%%%%%%%*****>>>>>>>>>>>>>>>>>>>",
">>>>>>>>>>..####                                >>>>>>>>>>>>>>>>",
">>>>>>>>>>.o#$$# XXXX++++@@@@++++++++++++++XXXX >>>>>>>>>>>>>>>>",
">>>>>>>>>>.o#$$# XXXX++++@@@@++++++++++++++XXXX >>>>>>>>>>>>>>>>",
">>>>>>>>>>.o#$$# XXXX++++@@@@++++++++++++++XXXX >>>>>>>>>>>>>>>>",
">>>>>>>>>>oo#$$# XXXX++++@@@@++++++++++++++XXXX >>>>>>>>>>>>>>>>",
">>>>>>>>>>oo#$$# @@@@++++@@@@XXXXXXXXX+++++XXXX :>>>>>>>>>>>>>>>",
">>>>>>>>>>oo#$$# @@@@++++@@@@XXXXXXXXX+++++XXXX :>>>>>>>>>>>>>>>",
">>>>>>>>>>oo#$$# @@@@++++@@@@XXXXXXXXX+++++XXXX :>>>>>>>>>>>>>>>",
">>>>>>>>>>oo#$$# @@@@++++@@@@XXXXXXXXX+++++XXXX %>>>>>>>>>>>>>>>",
">>>>>>>>>>oo#$$# ++++++++@@@@@@@@@+++++++++XXXX %>>>>>>>>>>>>>>>",
">>>>>>>>>>oo#$$# ++++++++@@@@@@@@@+++++++++++++ >>>>>>>>>>>>>>>>",
">>>>>>>>>>oo#$$# ++++++++@@@@@@@@@+++++++++++++ >>>>>>>>>>>>>>>>",
">>>>>>>>>>o.#$$# ++++++++@@@@@@@@@+++++++++++++ >>>>>>>>>>>>>>>>",
">>>>>>>>>>o.#$$# XXXXXXXXXXXXXX++++++++++++++++ OO>>>>>>>>>>>>>>",
">>>>>>>>>>o.#$$# XXXXXXXXXXXXXX++++++++++++@@@@ OO>>>>>>>>>>>>>>",
">>>>>>>>>>..#### XXXXXXXXXXXXXX++++++++++++@@@@ OO>>>>>>>>>>>>>>",
">>>>>>>>>>>>>>>> XXXXXXXXXXXXXX++++++++++++@@@@ OO##..>>>>>>>>>>",
">>>>>>>>>>>>>>>> ++++++++++++++++++++++++++@@@@ OO$#.o>>>>>>>>>>",
">>>>>>>>>>>>>>>> +++++++++++++++++++XXXXXXXXXXX OO$#.o>>>>>>>>>>",
">>>>>>>>>>>>>>>> +++++++++++++++++++XXXXXXXXXXX #$$#.o>>>>>>>>>>",
">>>>>>>>>>>>>>>> +++++++++++++++++++XXXXXXXXXXX #$$#oo>>>>>>>>>>",
">>>>>>>>>>>>>>>> +++++++++++++XXXXXXXXXXXXXXXXX #$$#oo>>>>>>>>>>",
">>>>>>>>>>>>>>>> +++++++++++++XXXXXXXXXXXXXXXXX #$$#oo>>>>>>>>>>",
">>>>>>>>>>>>>>>> @@@@+++++++XXXXXXXXXX+++++++++ #$$#oo>>>>>>>>>>",
">>>>>>>>>>>>>>>> @@@@+++++++XXXXXXXXXX+++++++++ %$$#oo>>>>>>>>>>",
">>>>>>>>>>>>>>>> @@@@+++++++XXXX+++++++++++++++ %$$#oo>>>>>>>>>>",
">>>>>>>>>>>>>>>> @@@@+++++++XXXX+++++++++++++++ :$$#oo>>>>>>>>>>",
">>>>>>>>>>>>>>>> ++++@@@@+++XXXX+++++++++++++++ :$$#oo>>>>>>>>>>",
">>>>>>>>>>>>>>>> ++++@@@@+++XXXX+++++++++++++++ #$$#o.>>>>>>>>>>",
">>>>>>>>>>>>>>>> ++++@@@@+++XXXX+++++++++++++++ #$$#o.>>>>>>>>>>",
">>>>>>>>>>>>>>>> ++++@@@@+++XXXX+++++++++++++++ #$$#o.>>>>>>>>>>",
">>>>>>>>>>>>>>>>                                ####..>>>>>>>>>>",
">>>>>>>>>>>>>>>>>>>*****%%%%%%%%%%%%%%%%>>>>>>>>>>>>>>>>>>>>>>>>",
">>>>>>>>>>>>>>>>>>>*=***%&&------;;----%>>>>>>>>>>>>>>>>>>>>>>>>",
">>>>>>>>>>>>>>>>>>>*==**%&&------;;----%>>>>>>>>>>>>>>>>>>>>>>>>",
">>>>>>>>>>>>>>>>>>>*===*%--------;;----%>>>>>>>>>>>>>>>>>>>>>>>>",
">>>>>>>>>>>>>>>>>>>*===*%----;;;;;;----%>>>>>>>>>>>>>>>>>>>>>>>>",
">>>>>>>>>>>>>>>>>>>*===*%----;;;;;;----%>>>>>>>>>>>>>>>>>>>>>>>>",
">>>>>>>>>>>>>>>>>>>*===*%--------------%>>>>>>>>>>>>>>>>>>>>>>>>",
">>>>>>>>>>>>>>>>>>>*===*%--------------%>>>>>>>>>>>>>>>>>>>>>>>>",
">>>>>>>>>>>>>>>>>>>*===*%---&&&&&&---&&%>>>>>>>>>>>>>>>>>>>>>>>>",
">>>>>>>>>>>>>>>>>>>*===*%---&&&&&&---&&%>>>>>>>>>>>>>>>>>>>>>>>>",
">>>>>>>>>>>>>>>>>>>*===*%------------&&%>>>>>>>>>>>>>>>>>>>>>>>>",
">>>>>>>>>>>>>>>>>>>*===*%------------&&%>>>>>>>>>>>>>>>>>>>>>>>>",
">>>>>>>>>>>>>>>>>>>*===*%----------&&&&%>>>>>>>>>>>>>>>>>>>>>>>>",
">>>>>>>>>>>>>>>>>>>**==*%;;;;------&&&&%>>>>>>>>>>>>>>>>>>>>>>>>",
">>>>>>>>>>>>>>>>>>>***=*%;;;;------&&&&%>>>>>>>>>>>>>>>>>>>>>>>>",
">>>>>>>>>>>>>>>>>>>*****%%%%%%%%%%%%%%%%>>>>>>>>>>>>>>>>>>>>>>>>"
};
