/* XPM */
static char *result[] = {
/* columns rows colors chars-per-pixel */
"64 64 17 1 ",
"  c black",
". c #161517",
"X c #261412",
"o c #29282B",
"O c #4A2616",
"+ c #40231F",
"@ c #663430",
"# c #230752",
"$ c #280463",
"% c #13404A",
"& c #276C7D",
"* c #C4945E",
"= c #E3AC6D",
"- c #449BB3",
"; c #6FC1D4",
": c white",
"> c None",
/* pixels */
">>>>>>>>>>>>>>>>>*******%%%%%%%%%%%%%%%%>>>>>>>>>>>>>>>>>>>>>>>>",
">>>>>>>>>>>>>>>>>*===***%&&------;;----%>>>>>>>>>>>>>>>>>>>>>>>>",
">>>>>>>>>>>>>>>>>*====**%&&------;;----%>>>>>>>>>>>>>>>>>>>>>>>>",
">>>>>>>>>>>>>>>>>*=====*%--------;;----%>>>>>>>>>>>>>>>>>>>>>>>>",
">>>>>>>>>>>>>>>>>*=====*%----;;;;;;----%>>>>>>>>>>>>>>>>>>>>>>>>",
">>>>>>>>>>>>>>>>>*=====*%----;;;;;;----%>>>>>>>>>>>>>>>>>>>>>>>>",
">>>>>>>>>>>>>>>>>*=====*%--------------%>>>>>>>>>>>>>>>>>>>>>>>>",
">>>>>>>>>>>>>>>>>*=====*%--------------%>>>>>>>>>>>>>>>>>>>>>>>>",
">>>>>>>>>>>>>>>>>*=====*%---&&&&&&---&&%>>>>>>>>>>>>>>>>>>>>>>>>",
">>>>>>>>>>>>>>>>>*=====*%---&&&&&&---&&%>>>>>>>>>>>>>>>>>>>>>>>>",
">>>>>>>>>>>>>>>>>*=====*%------------&&%>>>>>>>>>>>>>>>>>>>>>>>>",
">>>>>>>>>>>>>>>>>*=====*%------------&&%>>>>>>>>>>>>>>>>>>>>>>>>",
">>>>>>>>>>>>>>>>>*=====*%----------&&&&%>>>>>>>>>>>>>>>>>>>>>>>>",
">>>>>>>>>>>>>>>>>**====*%;;;;------&&&&%>>>>>>>>>>>>>>>>>>>>>>>>",
">>>>>>>>>>>>>>>>>***===*%;;;;------&&&&%>>>>>>>>>>>>>>>>>>>>>>>>",
">>>>>>>>>>>>>>>>>*******%%%%%%%%%%%%%%%%>>>>>>>>>>>>>>>>>>>>>>>>",
">>>>>>>>>>>>>>>>                                ######..o>>>>>>>",
">>>>>>>>>>>>>>>> XXXX++++@@@@++++++++++++++XXXX #$$$$$.oo>>>>>>>",
">>>>>>>>>>>>>>>> XXXX++++@@@@++++++++++++++XXXX #$$$$$.oo>>>>>>>",
">>>>>>>>>>>>>>>> XXXX++++@@@@++++++++++++++XXXX #$$$$$ooo>>>>>>>",
">>>>>>>>>>>>>>>> XXXX++++@@@@++++++++++++++XXXX #$$$$$ooo>>>>>>>",
">>>>>>>>>>>>>>>> @@@@++++@@@@XXXXXXXXX+++++XXXX :$$$$$ooo>>>>>>>",
">>>>>>>>>>>>>>>> @@@@++++@@@@XXXXXXXXX+++++XXXX :$$$$$ooo>>>>>>>",
">>>>>>>>>>>>>>>> @@@@++++@@@@XXXXXXXXX+++++XXXX :$$$$$ooo>>>>>>>",
">>>>>>>>>>>>>>>> @@@@++++@@@@XXXXXXXXX+++++XXXX %$$$$$ooo>>>>>>>",
">>>>>>>>>>>>>>>> ++++++++@@@@@@@@@+++++++++XXXX %$$$$$ooo>>>>>>>",
">>>>>>>>>>>>>>>> ++++++++@@@@@@@@@+++++++++++++ #$$$$$ooo>>>>>>>",
">>>>>>>>>>>>>>>> ++++++++@@@@@@@@@+++++++++++++ #$$$$$ooo>>>>>>>",
">>>>>>>>>>>>>>>> ++++++++@@@@@@@@@+++++++++++++ #$$$$$ooo>>>>>>>",
">>>>>>>>>>>>>>>> XXXXXXXXXXXXXX++++++++++++++++ OO$$$$oo.>>>>>>>",
">>>>>>>>>>>>>>>> XXXXXXXXXXXXXX++++++++++++@@@@ OO$$$$oo.>>>>>>>",
">>>>>>>>>>>>>>>> XXXXXXXXXXXXXX++++++++++++@@@@ OO####...>>>>>>>",
">>>>>>>...###### XXXXXXXXXXXXXX++++++++++++@@@@ OO>>>>>>>>>>>>>>",
">>>>>>>.oo$$$$$# ++++++++++++++++++++++++++@@@@ OO>>>>>>>>>>>>>>",
">>>>>>>.oo$$$$$# +++++++++++++++++++XXXXXXXXXXX OO>>>>>>>>>>>>>>",
">>>>>>>ooo$$$$$# +++++++++++++++++++XXXXXXXXXXX >>>>>>>>>>>>>>>>",
">>>>>>>ooo$$$$$# +++++++++++++++++++XXXXXXXXXXX >>>>>>>>>>>>>>>>",
">>>>>>>ooo$$$$$# +++++++++++++XXXXXXXXXXXXXXXXX >>>>>>>>>>>>>>>>",
">>>>>>>ooo$$$$$# +++++++++++++XXXXXXXXXXXXXXXXX >>>>>>>>>>>>>>>>",
">>>>>>>ooo$$$$$# @@@@+++++++XXXXXXXXXX+++++++++ >>>>>>>>>>>>>>>>",
">>>>>>>ooo$$$$$# @@@@+++++++XXXXXXXXXX+++++++++ %>>>>>>>>>>>>>>>",
">>>>>>>ooo$$$$$# @@@@+++++++XXXX+++++++++++++++ %>>>>>>>>>>>>>>>",
">>>>>>>ooo$$$$$# @@@@+++++++XXXX+++++++++++++++ :>>>>>>>>>>>>>>>",
">>>>>>>ooo$$$$$# ++++@@@@+++XXXX+++++++++++++++ :>>>>>>>>>>>>>>>",
">>>>>>>ooo$$$$$# ++++@@@@+++XXXX+++++++++++++++ >>>>>>>>>>>>>>>>",
">>>>>>>oo.$$$$$# ++++@@@@+++XXXX+++++++++++++++ >>>>>>>>>>>>>>>>",
">>>>>>>oo.$$$$$# ++++@@@@+++XXXX+++++++++++++++ >>>>>>>>>>>>>>>>",
">>>>>>>o..######                                >>>>>>>>>>>>>>>>",
">>>>>>>>>>>>>>>>>>>>>>>>%%%%%%%%%%%%%%%%*******>>>>>>>>>>>>>>>>>",
">>>>>>>>>>>>>>>>>>>>>>>>%&&------;;----%*===***>>>>>>>>>>>>>>>>>",
">>>>>>>>>>>>>>>>>>>>>>>>%&&------;;----%*====**>>>>>>>>>>>>>>>>>",
">>>>>>>>>>>>>>>>>>>>>>>>%--------;;----%*=====*>>>>>>>>>>>>>>>>>",
">>>>>>>>>>>>>>>>>>>>>>>>%----;;;;;;----%*=====*>>>>>>>>>>>>>>>>>",
">>>>>>>>>>>>>>>>>>>>>>>>%----;;;;;;----%*=====*>>>>>>>>>>>>>>>>>",
">>>>>>>>>>>>>>>>>>>>>>>>%--------------%*=====*>>>>>>>>>>>>>>>>>",
">>>>>>>>>>>>>>>>>>>>>>>>%--------------%*=====*>>>>>>>>>>>>>>>>>",
">>>>>>>>>>>>>>>>>>>>>>>>%---&&&&&&---&&%*=====*>>>>>>>>>>>>>>>>>",
">>>>>>>>>>>>>>>>>>>>>>>>%---&&&&&&---&&%*=====*>>>>>>>>>>>>>>>>>",
">>>>>>>>>>>>>>>>>>>>>>>>%------------&&%*=====*>>>>>>>>>>>>>>>>>",
">>>>>>>>>>>>>>>>>>>>>>>>%------------&&%*=====*>>>>>>>>>>>>>>>>>",
">>>>>>>>>>>>>>>>>>>>>>>>%----------&&&&%*=====*>>>>>>>>>>>>>>>>>",
">>>>>>>>>>>>>>>>>>>>>>>>%;;;;------&&&&%**====*>>>>>>>>>>>>>>>>>",
">>>>>>>>>>>>>>>>>>>>>>>>%;;;;------&&&&%***===*>>>>>>>>>>>>>>>>>",
">>>>>>>>>>>>>>>>>>>>>>>>%%%%%%%%%%%%%%%%*******>>>>>>>>>>>>>>>>>"
};
