/* XPM */
static char *result[] = {
/* columns rows colors chars-per-pixel */
"57 64 60 1 ",
"  c gray2",
". c #0B0B0B",
"X c #110E0E",
"o c #12110E",
"O c #0E0E11",
"+ c #0E1212",
"@ c #131313",
"# c #131314",
"$ c gray8",
"% c #161815",
"& c #181916",
"* c #161418",
"= c #17191A",
"- c gray10",
"; c #1D1122",
": c #2D0135",
"> c #300E39",
", c gray14",
"< c #262628",
"1 c #2B252A",
"2 c #2A2A2A",
"3 c #322532",
"4 c #313131",
"5 c #3E3E3E",
"6 c #3B1B44",
"7 c #441E4F",
"8 c #412344",
"9 c #45224C",
"0 c #493C4A",
"q c #4F3855",
"w c #6A257A",
"e c #444444",
"r c #4B4B4B",
"t c gray32",
"y c #5A5A5A",
"u c #624E65",
"i c #66436F",
"p c #6A4873",
"a c #6F6F6F",
"s c gray46",
"d c #797979",
"f c #701A83",
"g c #72138D",
"h c #752D87",
"j c #793386",
"k c #7E3F8D",
"l c #754383",
"z c #7E6486",
"x c #803B92",
"c c #8C03AC",
"v c #8C0AAB",
"b c #9008AE",
"n c #9101B4",
"m c #9A08B7",
"M c #8D5E99",
"N c #9C4FAF",
"B c #9756AA",
"V c #9E56B2",
"C c #A156B5",
"Z c None",
/* pixels */
"ZZZZZZZZZZZZZZZZZZZZZZZZZZZZZZZZZZerZZZZZZZZZZZZZZZZZZZZZ",
"ZZZZZZZZZZZZZZZZZZZZZZZZZZZZZZZrrrree4ZZZZZZZZZZZZZZZZZZZ",
"ZZZZZZZZZZZZZZZZZZZZZZZZZZZZZyrrree4,-ZZZZZZZZZZZZZZZZZZZ",
"ZZZZZZZZZZZZZZZZZZZZZZZZZZZZsytte4----$$ZZZZZZZZZZZZZZZZZ",
"ZZZZZZZZZZZZZZZZZZZZZZZZZZZyasa5,-,,,&$$$$ZZZZZZZZZZZZZZZ",
"ZZZZZZZZZZZZZZZZZZZZZZZZZZZrtr4,,,,,,-===$$-erZZZZZZZZZZZ",
"ZZZZZZZZZZZZZZZZZZZZZZZZZZ=eee<,,,----===-4eeee5ZZZZZZZZZ",
"ZZZZZZZZZZZZZZZZZZZZZZZZ$$%ee5-,<,---%=-4erre52-ZZZZZZZZZ",
"ZZZZZZZZZZZZZZZZZZZZZZ$$$==ee5,<,---=,ryytr52---$$ZZZZZZZ",
"ZZZZZZZZZZZZZZZZZZZZ$$%&=-%555-,--%$&eadar4--,,-=$$$ZZZZZ",
"ZZZZZZZZZZZZZZZZZZ$$$$%---=255-,&$===5tte,,,,,,-=$$$$$ZZZ",
"ZZZZZZZZZZZZZZZZ$$$$$$=====%=2&$%----4rr4,<<,----=%$$$$$Z",
"ZZZZZZZZZZZZZZZ$@$$$$&-=====---====-=5e5,,<<---=%==&$$$#O",
"ZZZZZZZZZZZZZZZ@X$$$$%&======--======5e5,,<,,--%===*$$X..",
"ZZZZZZZZZZZZZZZ@@$o@@$$%&=======---==4e5,,,--*$&&=$@X....",
"ZZZZZZZZZZZZZZZo@=%$@@$$%=----===---=<5e,,-$$$$$$@O......",
"ZZZZZZZZZZZZZZZ$@@%=$@$@$$%========-=%%2-$%&=%$@X........",
"ZZZZZZZZZZZZZZZ@XX$@$$$@@@$$$$%---===-=--&%%%$+..........",
"ZZZZZZZZZZZZZZZo@$$@@$$$@@o@$$%&==-====--&$@X............",
"ZZZZZZZZZZZZZZZ$@$<$@%%$@@.@o@$$$%$*=%=&$@X..............",
"ZZZZZZZZZZZZZZZo$$kl>@$$$$$$@$@@$$$$%%$$O................",
"ZZZZZZZZZZZZZZZo@$MNvl;$$$$$$$$$@$$$*$X..................",
"ZZZZZZZZZZZZZZZ@X$MNmV:$$$$$$$%=%$o@O....................",
"ZZZZZZZZZZZZZZZ$@$8hcbj1$$$%$$@@%=$@.....................",
"ZZZZZZZZZZZZZZZ$$$$$6fCi$$$%@@@@o$$@.....................",
"ZZZZZZZZZZZZZZZ$$$*=%*80@$$$@,3O@@+@.....................",
"ZZZZZZZZZZZZZZ$$$$%--=%$$$$@9qBw>#$@.....................",
"ZZZZZZZZ$$ZZ$%$$$%==-===%$$@pNNnBp$X.....................",
"ZZZZZZ$$$$$@$%==-=====---=$$8xvnNk$@.....................",
"ZZZZ$$$%$@..%%==----====--==%$7gNz$@.....................",
"ZZZZ@@$@...O================-=$*9u@@.....................",
"ZZZZ$oO..  O$$======----===--=%$$%$X.....................",
"ZZ$$@oo. .@*=&=---=%&=---===%%%$@@$o.....................",
"$%%$$$+.+%=--===-&$$$$====&$$$@O.X@@.....................",
"@o$%%==%$=-====%$%$$X.=====$#O....@@.....................",
"o@@@$$%=-====-%$$@+...%$%$@O......@@.....................",
"@X@O@@$%==%%==$@o.....$$@X........oo.....................",
"@o@@$@@@$%$$%=$$o...X$@X..........$O.....................",
"@$$@$$@$oo$$&==$X.X$$O...........O$$...................ZZ",
"@o@$$$$$@@@@$%=%$@@O..............@X.................ZZZZ",
"@o@@$$$$$$@o@@$$@O...............oXoO..............ZZZZZZ",
"XX@$$$$$$$@XXXoo...............O%$@oO............ZZZZZZZZ",
"o#$@@$@@@$$$@o@X..............X=$.oo...........ZZZZZZZZZZ",
"@@@o.@oO@@$$$@@X.............X%%..@@.........ZZZZZZZZZZZZ",
".X@@#$@ooo$$$$$X............X%$...@@.......ZZZZZZZZZZZZZZ",
"oX.$#@O%$@@$$o@X........ ..X$%....@@.....ZZZZZZZZZZZZZZZZ",
"oX%%+.$&#.XX@$@............$$O....XX...ZZZZZZZZZZZZZZZZZZ",
".$%$@%$%.....o@...........#=X......o.ZZZZZZZZZZZZZZZZZZZZ",
"@.O#$%%.O.....O.........X$=+......ZZZZZZZZZZZZZZZZZZZZZZZ",
"Z...%%O.................$=@......ZZZZZZZZZZZZZZZZZZZZZZZZ",
"Z..==X.................@%@......ZZZZZZZZZZZZZZZZZZZZZZZZZ",
"ZZ@*=%@X..............o%o......ZZZZZZZZZZZZZZZZZZZZZZZZZZ",
"ZZ..+%==$O...........O%@......ZZZZZZZZZZZZZZZZZZZZZZZZZZZ",
"ZZZ...o%=%oX....O...+%#.......ZZZZZZZZZZZZZZZZZZZZZZZZZZZ",
"ZZZ.....+%==@X....OX$$.......ZZZZZZZZZZZZZZZZZZZZZZZZZZZZ",
"ZZZZ......@%=%@...O%%.......ZZZZZZZZZZZZZZZZZZZZZZZZZZZZZ",
"ZZZZZ.......+%=%@X%%.......ZZZZZZZZZZZZZZZZZZZZZZZZZZZZZZ",
"ZZZZZZZ.......+%%%=X......ZZZZZZZZZZZZZZZZZZZZZZZZZZZZZZZ",
"ZZZZZZZZZ.......+%O......ZZZZZZZZZZZZZZZZZZZZZZZZZZZZZZZZ",
"ZZZZZZZZZZZ.............ZZZZZZZZZZZZZZZZZZZZZZZZZZZZZZZZZ",
"ZZZZZZZZZZZZZ..........ZZZZZZZZZZZZZZZZZZZZZZZZZZZZZZZZZZ",
"ZZZZZZZZZZZZZZZ.......ZZZZZZZZZZZZZZZZZZZZZZZZZZZZZZZZZZZ",
"ZZZZZZZZZZZZZZZZZ....ZZZZZZZZZZZZZZZZZZZZZZZZZZZZZZZZZZZZ",
"ZZZZZZZZZZZZZZZZZZZ..ZZZZZZZZZZZZZZZZZZZZZZZZZZZZZZZZZZZZ"
};
