/* XPM */
static char *result[] = {
/* columns rows colors chars-per-pixel */
"64 64 104 2 ",
"   c #082521",
".  c #092823",
"X  c #092924",
"o  c #092A25",
"O  c #092B25",
"+  c #0A2B26",
"@  c #0A2C27",
"#  c #0A2D27",
"$  c #0A2E28",
"%  c #0A2E29",
"&  c #0A2F29",
"*  c #0C342D",
"=  c #0C3932",
"-  c #0E3E36",
";  c #273936",
":  c #0F443B",
">  c #104B41",
",  c #115045",
"<  c #12554A",
"1  c #13594D",
"2  c #155F52",
"3  c #166356",
"4  c #166759",
"5  c #1A6558",
"6  c #17685B",
"7  c #17695C",
"8  c #176D5E",
"9  c #186E5F",
"0  c #187161",
"q  c #197364",
"w  c #197565",
"e  c #1A7767",
"r  c #1A7868",
"t  c #1B7B6A",
"y  c #1B7C6C",
"u  c #1B7E6D",
"i  c #277D6F",
"p  c #616766",
"a  c #1C8270",
"s  c #1C8472",
"d  c #1D8673",
"f  c #1E8876",
"g  c #1E8C78",
"h  c #1F907C",
"j  c #238675",
"k  c #2A8475",
"l  c #2A8777",
"z  c #258D7B",
"x  c #21917E",
"c  c #3E8E81",
"v  c #209580",
"b  c #229A85",
"n  c #2B9885",
"m  c #229F89",
"M  c #299E8A",
"N  c #23A08A",
"B  c #22A28C",
"V  c #23A38D",
"C  c #24A58F",
"Z  c #24A68F",
"A  c #32A18E",
"S  c #25A992",
"D  c #25AE96",
"F  c #26AF97",
"G  c #34A793",
"H  c #36AC98",
"J  c #27B199",
"K  c #2BB59D",
"L  c #35B29D",
"P  c #39B7A2",
"I  c #34BEA6",
"U  c #43998A",
"Y  c #5A9E92",
"T  c #7C8382",
"R  c #49A696",
"E  c #5FA69A",
"W  c #6EA79D",
"Q  c #64AEA1",
"!  c #66B2A5",
"~  c #6CBDAF",
"^  c #7DBEB3",
"/  c #3CC0A9",
"(  c #71C5B7",
")  c #7FC6BA",
"_  c #898989",
"`  c gray56",
"'  c #959595",
"]  c #9A9A9A",
"[  c #9F9F9F",
"{  c #8CBFB6",
"}  c #A4A4A4",
"|  c gray68",
" . c #B0B3B2",
".. c #B7B7B7",
"X. c gray73",
"o. c #83C7BB",
"O. c #A2C1BC",
"+. c #92CBC1",
"@. c #A9CAC4",
"#. c #B7C8C5",
"$. c #C5C5C5",
"%. c #C5CDCB",
"&. c #CECECE",
"*. c None",
/* pixels */
"*.*.*.*.*.*.*.*.*.*.*.*.*.*.*.*.*.*.*.*.*.*.*.*.*.*.*.*.*.*.*.*.*.*.*.*.*.*.*.*.*.*.*.*.*.*.*.*.*.*.*.*.*.*.*.*.*.*.*.*.*.*.*.*.",
"*.*.*.*.*.*.*.*.*.*.*.*.*.*.*.*.*.*.*.*.*.*.*.*.*.*.*.*.*.*.*.*.*.*.*.*.*.*.*.*.*.*.*.*.*.*.*.*.*.*.*.*.*.*.*.*.*.*.*.*.*.*.*.*.",
"*.*.*.*.*.*.*.*.*.*.*.*.*.*.*.*.*.*.*.*.*.*.*.*.*.*.*.*.*.*.*.*.*.*.*.*.*.*.*.*.*.*.*.*.*.*.*.*.*.*.*.*.*.*.*.*.*.*.*.*.*.*.*.*.",
"*.*.*.*.*.*.*.*.*.*.*.*.*.*.*.*.*.*.*.*.*.*.*.*.*.*.*.*.*.*.*.*.*.*.*.*.*.*.*.*.*.*.*.*.*.*.*.*.*.*.*.*.*.*.*.*.*.*.*.*.*.*.*.*.",
"*.*.*.*.*.*.*.*.*.*.*.*.*.*.*.*.*.*.*.*.*.*.*.*.*.*.*.*.*.*.*.*.*.*.*.*.*.*.*.*.*.*.*.*.*.*.*.*.*.*.*.*.*.*.*.*.*.*.*.*.*.*.*.*.",
"*.*.*.*.*.*.*.*.*.*.*.*.*.*.*.*.*.*.*.*.*.*.*.*.*.*.*.*.*.*.*.*.*.*.*.*.*.*.*.*.*.*.*.*.*.*.*.*.*.*.*.*.*.*.*.*.*.*.*.*.*.*.*.*.",
"*.*.*.*.*.*.*.*.*.*.*.*.*.*.*.*.*.*.*.*.*.*.*.*.*.*.*.*.*.*.*.*.*.*.*.*.*.*.*.*.*.*.*.*.*.*.*.*.*.*.*.*.*.*.*.*.*.*.*.*.*.*.*.*.",
"*.*.*.*.*.*.*.*.*.*.*.*.*.*.*.*.*.*.*.*.*.*.*.*.*.*.*.*.*.*.*.*.*.*.*.*.*.*.*.*.*.*.*.*.*.*.*.*.*.*.*.*.*.*.*.*.*.*.*.*.*.*.*.*.",
"*.*.*.*.*.*.*.*.*.*.*.*.*.*.*.*.*.*.*.*.*.*.*.*.*.*.*.*.*.*.*.*.*.*.*.*.*.*.*.*.*.*.*.*.*.*.*.*.*.*.*.*.*.*.*.*.*.*.*.*.*.*.*.*.",
"*.*.*.*.*.*.*.*.*.*.*.*.*.*.*.*.*.*.*.*.*.*.*.*.*.*.*.*.*.*.*.*.*.*.*.*.*.*.*.*.*.*.*.*.*.*.*.*.*.*.*.*.*.*.*.*.*.*.*.*.*.*.*.*.",
"*.*.*.*.*.*.*.*.*.*.*.*.*.*.*.*.*.*.*.*.*.*.*.*.$ % % & & % % % & & & & & & *.*.*.*.*.*.*.*.*.*.*.*.*.*.*.*.*.*.*.*.*.*.*.*.*.*.",
"*.*.*.*.*.*.*.*.*.*.*.*.*.*.*.*.*.*.*.*.*.*.*.*.@ @ @ @ @ @ @ @ @ @ @ @ # # *.*.*.*.*.*.*.*.*.*.*.*.*.*.*.*.*.*.*.*.*.*.*.*.*.*.",
"*.*.*.*.*.*.*.*.*.*.*.*.*.*.*.*.*.*.*.*.*.*.*.*.@ @ @ @ @ @ @ @ @ @ @ @ @ @ *.*.*.*.*.*.*.*.*.*.*.*.*.*.*.*.*.*.*.*.*.*.*.*.*.*.",
"*.*.*.*.*.*.*.*.*.*.*.*.*.*.*.*.*.*.*.*.*.@ @ @ @ @ @ @ @ @ @ @ @ @ @ @ @ + o + @ *.*.*.*.*.*.*.*.*.*.*.*.*.*.*.*.*.*.*.*.*.*.*.",
"*.*.*.*.*.*.*.*.*.*.*.*.*.*.*.*.*.*.*.*.*.@ @ @ ` &.$.$.$.X.X...| | | } [ ] + @ @ @ *.*.*.*.*.*.*.*.*.*.*.*.*.*.*.*.*.*.*.*.*.*.",
"*.*.*.*.*.*.*.*.*.*.*.*.*.*.*.*.*.*.*.*.*.@ @ @ ` &.&.&.&.&.&.&.&.&.&.&.&.$.@ @ @ + *.*.*.*.*.*.*.*.*.*.*.*.*.*.*.*.*.*.*.*.*.*.",
"*.*.*.*.*.*.*.*.*.*.*.*.*.*.*.*.*.*.+ O O @ @ @ ` &.&.&.&.&.&.&.&.&.&.&.&.$.@ @ @ + *.*.*.*.*.*.*.*.*.*.*.*.*.*.*.*.*.*.*.*.*.*.",
"*.*.*.*.*.*.*.*.*.*.*.*.*.*.*.*.*.*.@ @ @  .$.$.@.+.+.+.@.@.@.@.@.#.#.%.%.X.6 2 2 * + @ @ *.*.*.*.*.*.*.*.*.*.*.*.*.*.*.*.*.*.*.",
"*.*.*.*.*.*.*.*.*.*.*.*.*.*.*.*.*.*.@ @ @ | &.&.#.o.o.o.o.o.o.o.o.o.+.@.@.O.J J J < @ @ @ *.*.*.*.*.*.*.*.*.*.*.*.*.*.*.*.*.*.*.",
"*.*.*.*.*.*.*.*.*.*.*.*.*.*.*.o X X @ @ @ | &.&.#.o.o.o.o.o.o.o.o.o.+.@.@.{ J J J > @ @ @ *.*.*.*.*.*.*.*.*.*.*.*.*.*.*.*.*.*.*.",
"*.*.*.*.*.*.*.*.*.*.*.*.*.*.*.@ @ @ $.$.$.#.#.#.@.o.o.o.o.o.o.@.@.@.+.+.+.{ J J J - @ @ @ *.*.*.*.*.*.*.*.*.*.*.*.*.*.*.*.*.*.*.",
"*.*.*.*.*.*.*.*.*.*.*.*.*.*.*.@ @ @ $.&.&.#.@.@.+.o.o.o.o.o.o.%.&.&.o./ / / / / / - @ @ @ *.*.*.*.*.*.*.*.*.*.*.*.*.*.*.*.*.*.*.",
"*.*.*.*.*.*.*.*.*.*.*.*.*.*.*.@ @ @ $.&.&.#.@.@.+.o.o.o.o.o.o.&.&.&.o./ / / / / I # @ @ @ *.*.*.*.*.*.*.*.*.*.*.*.*.*.*.*.*.*.*.",
"*.*.*.*.*.*.*.*.*.*.*.*.*.*.*.@ @ @ X.&.&.@.+.+.@.#.#.@.+.+.+.%.%.%.+.~ / / / / I # @ @ o X O @ *.*.*.*.*.*.*.*.*.*.*.*.*.*.*.*.",
"*.*.*.*.*.*.*.*.*.*.*.*.*.    @ @ @ X.&.&.@.o.o.@.&.&.%.@.@.@.@.@.@.@.@.@.o./ / I S Z V , @ @ @ *.*.*.*.*.*.*.*.*.*.*.*.*.*.*.*.",
"*.*.*.*.*.*.*.*.*.*.*.*..     ; ; * X.&.&.@.o.o.@.&.&.%.@.@.@.@.@.@.@.@.@.o./ / I J J J < @ @ @ *.*.*.*.*.*.*.*.*.*.*.*.*.*.*.*.",
"*.*.*.*.*.*.*.*.*.*.*.*.@ @ @ $.&.%.+.o.+.@.#.#.@.@.@.@.+.+.+.+.+.+.@.@.@.) I / I J J J : @ @ @ *.*.*.*.*.*.*.*.*.*.*.*.*.*.*.*.",
"*.*.*.*.*.*.*.*.*.*.*.*.@ @ @ X.&.&.@.o.o.#.&.&.@.( ( ( ( ( ( ( ( ( ( ( ( R t y x I I I = @ @ @ *.*.*.*.*.*.*.*.*.*.*.*.*.*.*.*.",
"*.*.*.*.*.*.*.*.*.*.*.*.@ @ @ X.&.&.@.o.o.#.&.&.@.( ( ( ( ( ( ( ( ( ( ( ( Y r r x / / I @ @ @ @ *.*.*.*.*.*.*.*.*.*.*.*.*.*.*.*.",
"*.*.*.*.*.*.*.*.*.*.*.*.@ @ @ X.&.&.@.o.o.@.#.#.@.( ( ( ( ( ( ( ( ( ( ( ( U r r n / / P @ @ @ . . O *.*.*.*.*.*.*.*.*.*.*.*.*.*.",
"*.*.*.*.*.*.*.*.*.*.*.*.@ @ @  .&.&.@.o.o.+.@.@.+.( ( ( ( ( ( ( ( ( ( ( ( U r r n / / I b b x = + @ @ *.*.*.*.*.*.*.*.*.*.*.*.*.",
"*.*.*.*.*.*.*.*.*.*.*.*.@ @ @  .&.&.@.o.o.+.@.@.+.( ( ( ( ( ( ( ( ( ( ( ( U r r M / / I J J J : @ @ @ *.*.*.*.*.*.*.*.*.*.*.*.*.",
"*.*.*.*.*.*.*.*.*.*.*.*.@ @ @ | &.&.#.@.@.^ G R ! ( ( ( ( ( ( ( ( ( ( ( ( c r r M / / I J J F $ @ @ *.*.*.*.*.*.*.*.*.*.*.*.*.*.",
"*.*.*.*.*.*.*.*.*.*.*.*.@ @ @ } &.&.#.@.@.^ Z Z L ( ( ( ( ( ( ( ( ( ( ( ( c r r 9 7 9 q e t u @ @ @ *.*.*.*.*.*.*.*.*.*.*.*.*.*.",
"*.*.*.*.*.*.*.*.*.*.*.*.@ @ @ } &.&.#.+.+.^ S S L ( ( ( ( ( ( ( ( ( ( ( ( c r r 8 3 3 3 3 3 2 @ @ @ *.*.*.*.*.*.*.*.*.*.*.*.*.*.",
"*.*.*.*.*.*.*.*.*.*.*.*.@ @ @ [ &.&.O./ / / / / H y k l c c U U Y Y E E Q x d s e 9 4 3 3 3 1 @ @ @ *.*.*.*.*.*.*.*.*.*.*.*.*.*.",
"*.*.*.*.*.*.*.*.*.*.*.*.@ @ @ ' &.&.O./ / / / / H r r r r r r r r r r r r m Z Z Z Z Z x e e 4 @ @ @ *.*.*.*.*.*.*.*.*.*.*.*.*.*.",
"*.*.*.*.*.*.*.*.*.*.*.*.*.*.*.p T _ W / / P G H A a u y r r r r r r r r r N Z Z Z Z Z h r r 5 @ @ @ *.*.*.*.*.*.*.*.*.*.*.*.*.*.",
"*.*.*.*.*.*.*.*.*.*.*.*.*.*.*.@ @ @ j / / G 3 3 u Z Z Z C C B N m b n n v f z h V Z Z f q q 3 @ @ @ *.*.*.*.*.*.*.*.*.*.*.*.*.*.",
"*.*.*.*.*.*.*.*.*.*.*.*.*.*.*.@ @ @ i / / G 3 3 u Z Z Z Z Z Z Z Z Z Z Z Z 7 3 3 b Z Z 6 @ @ # *.*.*.*.*.*.*.*.*.*.*.*.*.*.*.*.*.",
"*.*.*.*.*.*.*.*.*.*.*.*.*.*.*.@ @ @ w K K N 3 3 u Z Z Z Z Z Z Z Z Z Z Z C 4 3 3 m Z Z 4 @ @ @ *.*.*.*.*.*.*.*.*.*.*.*.*.*.*.*.*.",
"*.*.*.*.*.*.*.*.*.*.*.*.*.*.*.@ @ @ q J J b 3 3 u Z Z Z Z Z Z Z Z Z Z Z V 3 3 3 g h x , @ @ @ *.*.*.*.*.*.*.*.*.*.*.*.*.*.*.*.*.",
"*.*.*.*.*.*.*.*.*.*.*.*.*.*.*.*.@ @ 0 S D b 3 3 u Z Z Z Z Z Z Z Z Z Z Z V 3 3 3 e r r : @ @ @ *.*.*.*.*.*.*.*.*.*.*.*.*.*.*.*.*.",
"*.*.*.*.*.*.*.*.*.*.*.*.*.*.*.*.*.*.@ @ @ , e e j Z Z Z Z Z Z Z Z Z Z Z B 3 3 3 r r r = @ @ *.*.*.*.*.*.*.*.*.*.*.*.*.*.*.*.*.*.",
"*.*.*.*.*.*.*.*.*.*.*.*.*.*.*.*.*.*.@ @ @ : r r f Z Z Z Z Z Z Z Z Z Z Z N r e w - : > = @ @ *.*.*.*.*.*.*.*.*.*.*.*.*.*.*.*.*.*.",
"*.*.*.*.*.*.*.*.*.*.*.*.*.*.*.*.*.*.*.@ @ : 4 8 y m N Z Z Z Z Z Z Z Z Z N r r q @ @ @ *.*.*.*.*.*.*.*.*.*.*.*.*.*.*.*.*.*.*.*.*.",
"*.*.*.*.*.*.*.*.*.*.*.*.*.*.*.*.*.*.*.*.*.*.@ @ @ @ @ % = > < 1 4 7 w r y 3 5 5 @ @ @ *.*.*.*.*.*.*.*.*.*.*.*.*.*.*.*.*.*.*.*.*.",
"*.*.*.*.*.*.*.*.*.*.*.*.*.*.*.*.*.*.*.*.*.*.@ @ @ @ @ @ @ @ @ @ @ @ @ @ @ @ @ @ *.*.*.*.*.*.*.*.*.*.*.*.*.*.*.*.*.*.*.*.*.*.*.*.",
"*.*.*.*.*.*.*.*.*.*.*.*.*.*.*.*.*.*.*.*.*.*.@ @ @ @ @ @ @ @ @ @ @ @ @ @ @ @ @ @ *.*.*.*.*.*.*.*.*.*.*.*.*.*.*.*.*.*.*.*.*.*.*.*.",
"*.*.*.*.*.*.*.*.*.*.*.*.*.*.*.*.*.*.*.*.*.*.*.*.*.*.*.*.*.*.*.*.*.*.*.*.*.*.*.*.*.*.*.*.*.*.*.*.*.*.*.*.*.*.*.*.*.*.*.*.*.*.*.*.",
"*.*.*.*.*.*.*.*.*.*.*.*.*.*.*.*.*.*.*.*.*.*.*.*.*.*.*.*.*.*.*.*.*.*.*.*.*.*.*.*.*.*.*.*.*.*.*.*.*.*.*.*.*.*.*.*.*.*.*.*.*.*.*.*.",
"*.*.*.*.*.*.*.*.*.*.*.*.*.*.*.*.*.*.*.*.*.*.*.*.*.*.*.*.*.*.*.*.*.*.*.*.*.*.*.*.*.*.*.*.*.*.*.*.*.*.*.*.*.*.*.*.*.*.*.*.*.*.*.*.",
"*.*.*.*.*.*.*.*.*.*.*.*.*.*.*.*.*.*.*.*.*.*.*.*.*.*.*.*.*.*.*.*.*.*.*.*.*.*.*.*.*.*.*.*.*.*.*.*.*.*.*.*.*.*.*.*.*.*.*.*.*.*.*.*.",
"*.*.*.*.*.*.*.*.*.*.*.*.*.*.*.*.*.*.*.*.*.*.*.*.*.*.*.*.*.*.*.*.*.*.*.*.*.*.*.*.*.*.*.*.*.*.*.*.*.*.*.*.*.*.*.*.*.*.*.*.*.*.*.*.",
"*.*.*.*.*.*.*.*.*.*.*.*.*.*.*.*.*.*.*.*.*.*.*.*.*.*.*.*.*.*.*.*.*.*.*.*.*.*.*.*.*.*.*.*.*.*.*.*.*.*.*.*.*.*.*.*.*.*.*.*.*.*.*.*.",
"*.*.*.*.*.*.*.*.*.*.*.*.*.*.*.*.*.*.*.*.*.*.*.*.*.*.*.*.*.*.*.*.*.*.*.*.*.*.*.*.*.*.*.*.*.*.*.*.*.*.*.*.*.*.*.*.*.*.*.*.*.*.*.*.",
"*.*.*.*.*.*.*.*.*.*.*.*.*.*.*.*.*.*.*.*.*.*.*.*.*.*.*.*.*.*.*.*.*.*.*.*.*.*.*.*.*.*.*.*.*.*.*.*.*.*.*.*.*.*.*.*.*.*.*.*.*.*.*.*.",
"*.*.*.*.*.*.*.*.*.*.*.*.*.*.*.*.*.*.*.*.*.*.*.*.*.*.*.*.*.*.*.*.*.*.*.*.*.*.*.*.*.*.*.*.*.*.*.*.*.*.*.*.*.*.*.*.*.*.*.*.*.*.*.*.",
"*.*.*.*.*.*.*.*.*.*.*.*.*.*.*.*.*.*.*.*.*.*.*.*.*.*.*.*.*.*.*.*.*.*.*.*.*.*.*.*.*.*.*.*.*.*.*.*.*.*.*.*.*.*.*.*.*.*.*.*.*.*.*.*.",
"*.*.*.*.*.*.*.*.*.*.*.*.*.*.*.*.*.*.*.*.*.*.*.*.*.*.*.*.*.*.*.*.*.*.*.*.*.*.*.*.*.*.*.*.*.*.*.*.*.*.*.*.*.*.*.*.*.*.*.*.*.*.*.*.",
"*.*.*.*.*.*.*.*.*.*.*.*.*.*.*.*.*.*.*.*.*.*.*.*.*.*.*.*.*.*.*.*.*.*.*.*.*.*.*.*.*.*.*.*.*.*.*.*.*.*.*.*.*.*.*.*.*.*.*.*.*.*.*.*.",
"*.*.*.*.*.*.*.*.*.*.*.*.*.*.*.*.*.*.*.*.*.*.*.*.*.*.*.*.*.*.*.*.*.*.*.*.*.*.*.*.*.*.*.*.*.*.*.*.*.*.*.*.*.*.*.*.*.*.*.*.*.*.*.*.",
"*.*.*.*.*.*.*.*.*.*.*.*.*.*.*.*.*.*.*.*.*.*.*.*.*.*.*.*.*.*.*.*.*.*.*.*.*.*.*.*.*.*.*.*.*.*.*.*.*.*.*.*.*.*.*.*.*.*.*.*.*.*.*.*.",
"*.*.*.*.*.*.*.*.*.*.*.*.*.*.*.*.*.*.*.*.*.*.*.*.*.*.*.*.*.*.*.*.*.*.*.*.*.*.*.*.*.*.*.*.*.*.*.*.*.*.*.*.*.*.*.*.*.*.*.*.*.*.*.*."
};
