/* XPM */
static char *result[] = {
/* columns rows colors chars-per-pixel */
"64 64 133 2 ",
"   c #051714",
".  c #061916",
"X  c #061A17",
"o  c #061C18",
"O  c #061D19",
"+  c #071E1A",
"@  c #071F1B",
"#  c #07221E",
"$  c #08231E",
"%  c #08241F",
"&  c #082521",
"*  c #092823",
"=  c #092924",
"-  c #092A25",
";  c #092B25",
":  c #0A2B26",
">  c #092D27",
",  c #0A2C27",
"<  c #0A2D27",
"1  c #0A2E28",
"2  c #0A2F29",
"3  c #0C342D",
"4  c #0C3932",
"5  c #0E3E36",
"6  c #273936",
"7  c #0F443B",
"8  c #104B41",
"9  c #115045",
"0  c #13594D",
"q  c #155F52",
"w  c #304643",
"e  c #166356",
"r  c #166759",
"t  c #17695C",
"y  c #176D5E",
"u  c #186E5F",
"i  c #186F60",
"p  c #1B6F61",
"a  c #187161",
"s  c #197364",
"d  c #1E7264",
"f  c #197565",
"g  c #1A7767",
"h  c #1A7868",
"j  c #1B7B6A",
"k  c #1B7C6C",
"l  c #1B7E6D",
"z  c #1B7F6E",
"x  c #227163",
"c  c #207566",
"v  c #46514F",
"b  c #515E5C",
"n  c #697D7A",
"m  c #787F7E",
"M  c #1B806F",
"N  c #1C816F",
"B  c #1C8270",
"V  c #1C8472",
"C  c #1D8673",
"Z  c #1E8876",
"A  c #1E8C78",
"S  c #1F907C",
"D  c #238675",
"F  c #258D7B",
"G  c #21917E",
"H  c #209580",
"J  c #229A85",
"K  c #2B9885",
"L  c #229F89",
"P  c #309B88",
"I  c #23A08A",
"U  c #22A28C",
"Y  c #23A38D",
"T  c #24A58F",
"R  c #24A68F",
"E  c #32A18E",
"W  c #2BA590",
"Q  c #25A992",
"!  c #25AB94",
"~  c #25AE96",
"^  c #26AF97",
"/  c #34A793",
"(  c #36AC98",
")  c #27B199",
"_  c #2BB59D",
"`  c #28B79E",
"'  c #35B29D",
"]  c #29BBA1",
"[  c #39B7A2",
"{  c #34BEA6",
"}  c #43998A",
"|  c #7C8382",
" . c #49A696",
".. c #61AA9D",
"X. c #64AEA1",
"o. c #66B2A5",
"O. c #60BAAB",
"+. c #7DBEB3",
"@. c #37C2AB",
"#. c #39C5AD",
"$. c #3EC6AE",
"%. c #3FC9B2",
"&. c #3FCBB3",
"*. c #5BCBB7",
"=. c #75CBBC",
"-. c #77CFC0",
";. c #78D1C1",
":. c gray55",
">. c #9F9F9F",
",. c #A4A4A4",
"<. c gray68",
"1. c #B7B7B7",
"2. c gray73",
"3. c #83C7BB",
"4. c #92CBC1",
"5. c #87D2C5",
"6. c #8AD1C5",
"7. c #8BD2C6",
"8. c #94D2C8",
"9. c #9DD2C9",
"0. c #B7C8C5",
"q. c #AED1CB",
"w. c #B2D5CF",
"e. c #B3D6D0",
"r. c #C5C5C5",
"t. c #C5CDCB",
"y. c #CECECE",
"u. c #C3D6D3",
"i. c #CFD8D6",
"p. c #D5D5D5",
"a. c #D8D8D8",
"s. c gray85",
"d. c None",
/* pixels */
"d.d.d.d.d.d.d.d.d.d.d.d.d.d.d.d.d.d.d.d.d.d.d.d.d.d.d.d.d.d.d.d.d.d.d.d.d.d.d.d.d.d.d.d.d.d.d.d.d.d.d.d.d.d.d.d.d.d.d.d.d.d.d.d.",
"d.d.d.d.d.d.d.d.d.d.d.d.d.d.d.d.d.d.d.d.d.d.d.d.d.d.d.d.d.d.d.d.d.d.d.d.d.d.d.d.d.d.d.d.d.d.d.d.d.d.d.d.d.d.d.d.d.d.d.d.d.d.d.d.",
"d.d.d.d.d.d.d.d.d.d.d.d.d.d.d.d.d.d.d.d.d.d.d.d.d.d.d.d.d.d.d.d.d.d.d.d.d.d.d.d.d.d.d.d.d.d.d.d.d.d.d.d.d.d.d.d.d.d.d.d.d.d.d.d.",
"d.d.d.d.d.d.d.d.d.d.d.d.d.d.d.d.d.d.d.d.d.d.d.d.d.d.d.d.d.d.d.d.d.d.d.d.d.d.d.d.d.d.d.d.d.d.d.d.d.d.d.d.d.d.d.d.d.d.d.d.d.d.d.d.",
"d.d.d.d.d.d.d.d.d.d.d.d.d.d.d.d.d.d.d.d.d.d.d.d.d.d.d.d.d.d.d.d.d.d.d.d.d.d.d.d.d.d.d.d.d.d.d.d.d.d.d.d.d.d.d.d.d.d.d.d.d.d.d.d.",
"d.d.d.d.d.d.d.d.d.d.d.d.d.d.d.d.d.d.d.d.d.d.d.d.d.d.d.d.d.d.d.d.d.d.d.d.d.d.d.d.d.d.d.d.d.d.d.d.d.d.d.d.d.d.d.d.d.d.d.d.d.d.d.d.",
"d.d.d.d.d.d.d.d.d.d.d.d.d.d.d.d.d.d.d.d.d.d.d.d.d.d.d.d.d.d.d.d.d.d.d.d.d.d.d.d.d.d.d.d.d.d.d.d.d.d.d.d.d.d.d.d.d.d.d.d.d.d.d.d.",
"d.d.d.d.d.d.d.d.d.d.d.d.d.d.d.d.d.d.d.d.d.d.d.d.d.d.d.d.d.d.d.d.d.d.d.d.d.d.d.d.d.d.d.d.d.d.d.d.d.d.d.d.d.d.d.d.d.d.d.d.d.d.d.d.",
"d.d.d.d.d.d.d.d.d.d.d.d.d.d.d.d.d.d.d.d.d.d.d.d.d.d.d.d.d.d.d.d.d.d.d.d.d.d.d.d.d.d.d.d.d.d.d.d.d.d.d.d.d.d.d.d.d.d.d.d.d.d.d.d.",
"d.d.d.d.d.d.d.d.d.d.d.d.d.d.d.d.d.d.d.d.d.d.d.d.d.2 2 2 2 2 d.d.d.d.d.d.d.d.d.d.d.d.d.d.d.d.d.d.d.d.d.d.d.d.d.d.d.d.d.d.d.d.d.d.",
"d.d.d.d.d.d.d.d.d.d.d.d.d.d.d.d.d.d.d.d.d.d.d.d.d.2 2 2 2 2 2 1 2 2 2 d.d.d.d.d.d.d.d.d.d.d.d.d.d.d.d.d.d.d.d.d.d.d.d.d.d.d.d.d.",
"d.d.d.d.d.d.d.d.d.d.d.d.d.d.d.d.d.d.d.d.d.d.d.d.; 2 2 2 2 2 2 2 2 2 2 2 < % d.d.d.d.d.d.d.d.d.d.d.d.d.d.d.d.d.d.d.d.d.d.d.d.d.d.",
"d.d.d.d.d.d.d.d.d.d.d.d.d.d.d.d.d.d.d.d.d.d.1 > : 3 2 2 2 2 2 2 2 2 2 2 + X d.d.d.d.d.d.d.d.d.d.d.d.d.d.d.d.d.d.d.d.d.d.d.d.d.d.",
"d.d.d.d.d.d.d.d.d.d.d.d.d.d.d.d.d.d.d.d.d.d.2 2 2 p.2.>.m w 2 2 2 2 2 2 O X d.d.d.d.d.d.d.d.d.d.d.d.d.d.d.d.d.d.d.d.d.d.d.d.d.d.",
"d.d.d.d.d.d.d.d.d.d.d.d.d.d.d.d.d.d.d.d.6 - , 2 2 s.s.s.s.a.r.<.:.b 3 2 X @ ; d.d.d.d.d.d.d.d.d.d.d.d.d.d.d.d.d.d.d.d.d.d.d.d.d.",
"d.d.d.d.d.d.d.d.d.d.d.d.d.d.d.d.d.d.d.d.2 1 n | v s.s.s.s.s.s.s.s.s.y.1.- : ; * @ d.d.d.d.d.d.d.d.d.d.d.d.d.d.d.d.d.d.d.d.d.d.d.",
"d.d.d.d.d.d.d.d.d.d.d.d.d.d.d.d.d.d.d.* 1 2 >.s.a.9.w.u.i.s.s.s.s.s.s.a.2 2 < X X d.d.d.d.d.d.d.d.d.d.d.d.d.d.d.d.d.d.d.d.d.d.d.",
"d.d.d.d.d.d.d.d.d.d.d.d.d.d.d.d.d.d., - w 2 >.s.s.8.7.7.7.8.w.u.i.s.s.p.2 2 < X X d.d.d.d.d.d.d.d.d.d.d.d.d.d.d.d.d.d.d.d.d.d.d.",
"d.d.d.d.d.d.d.d.d.d.d.d.d.d.d.d.d.2 2 2 y.r.0.i.a.8.7.7.7.7.7.7.7.e.u.t.0 3 , X % ; d.d.d.d.d.d.d.d.d.d.d.d.d.d.d.d.d.d.d.d.d.d.",
"d.d.d.d.d.d.d.d.d.d.d.d.d.d.d.d.d.d.2 2 t.s.u.e.e.8.7.7.7.7.7.7.7.w.e.q.] ) S ; - ; * @ d.d.d.d.d.d.d.d.d.d.d.d.d.d.d.d.d.d.d.d.",
"d.d.d.d.d.d.d.d.d.d.d.d.d.d.d.d.d.d.2 2 t.s.u.e.e.8.7.7.7.7.q.9.7.w.e.q.] ] Q 2 2 : o o d.d.d.d.d.d.d.d.d.d.d.d.d.d.d.d.d.d.d.d.",
"d.d.d.d.d.d.d.d.d.d.d.d.d.d.d.d.d.* 2 2 t.s.u.q.w.8.7.7.7.7.u.s.p.=.6.8.] ] I 2 2 - o o d.d.d.d.d.d.d.d.d.d.d.d.d.d.d.d.d.d.d.d.",
"d.d.d.d.d.d.d.d.d.d.d.d.d.d.d.< = & 2 2 t.s.u.7.7.u.e.9.7.7.u.s.a.&.&.&.%.$.W 2 2 - X X d.d.d.d.d.d.d.d.d.d.d.d.d.d.d.d.d.d.d.d.",
"d.d.d.d.d.d.d.d.d.d.d.d.d.d.d.2 2 v r.,.t.a.u.7.7.i.s.i.w.q.u.a.a.&.&.&.&.&.( 2 2 * X X d.d.d.d.d.d.d.d.d.d.d.d.d.d.d.d.d.d.d.d.",
"d.d.d.d.d.d.d.d.d.d.d.d.d.d.d.2 2 b s.s.9.8.w.w.8.i.s.i.e.e.e.e.e.8.-.*.&.&.E 2 2 * X . d.d.d.d.d.d.d.d.d.d.d.d.d.d.d.d.d.d.d.d.",
"d.d.d.d.d.d.d.d.d.d.d.d.d.d.d.2 2 b s.s.9.7.w.s.s.9.q.e.w.e.e.e.e.e.e.9.&.&./ 4 2 & o & d.d.d.d.d.d.d.d.d.d.d.d.d.d.d.d.d.d.d.d.",
"d.d.d.d.d.d.d.d.d.d.d.d.d.d.d.2 2 w s.s.9.7.w.s.s.5.;.;.;.7.9.w.e.e.e.8.&.&.#._ I r * * - & d.d.d.d.d.d.d.d.d.d.d.d.d.d.d.d.d.d.",
"d.d.d.d.d.d.d.d.d.d.d.d.d.d.d.2 2 3 s.s.9.7.9.u.i.5.;.;.;.;.;.;.5.8.q.8.&.&.@.] ] N 2 1 & o d.d.d.d.d.d.d.d.d.d.d.d.d.d.d.d.d.d.",
"d.d.d.d.d.d.d.d.d.d.d.d.d.d.d.2 2 3 s.s.9.7.9.e.e.;.;.;.;.;.;.;.;.;.;.O.P ' { ] ] k 2 2 % o d.d.d.d.d.d.d.d.d.d.d.d.d.d.d.d.d.d.",
"d.d.d.d.d.d.d.d.d.d.d.d.d.d.d.d.2 3 s.s.e.9.9.e.e.;.;.;.;.;.;.;.;.;.;.o.z z ' %.#.h 2 2 $ X d.d.d.d.d.d.d.d.d.d.d.d.d.d.d.d.d.d.",
"d.d.d.d.d.d.d.d.d.d.d.d.d.d.d.d.2 2 p.s.u.e.9.O.4.;.;.;.;.;.;.;.;.;.;.o.z z _ &.&.c 2 2 # X d.d.d.d.d.d.d.d.d.d.d.d.d.d.d.d.d.d.",
"d.d.d.d.d.d.d.d.d.d.d.d.d.d.d.d.2 2 y.s.u.e.4.^ ^ =.;.;.;.;.;.;.;.;.;.o.z z _ &.&.d 2 2 @ X d.d.d.d.d.d.d.d.d.d.d.d.d.d.d.d.d.d.",
"d.d.d.d.d.d.d.d.d.d.d.d.d.d.d.d.2 2 y.s.8.-.3.^ ^ =.;.;.;.;.;.;.;.;.;.X.z z [ &.&.x 2 2 @ @ * d.d.d.d.d.d.d.d.d.d.d.d.d.d.d.d.d.",
"d.d.d.d.d.d.d.d.d.d.d.d.d.d.d.d.2 2 y.s.6.&.&.%.@.O.-.;.;.;.;.;.;.;.;...z z { &.&.{ ! S 2 * * - % d.d.d.d.d.d.d.d.d.d.d.d.d.d.d.",
"d.d.d.d.d.d.d.d.d.d.d.d.d.d.d.d.d.d.v :.+.&.&.&.&.Z D  .O.=.;.;.;.;.;...z z [ &.&.] ] ] 7 1 < # o d.d.d.d.d.d.d.d.d.d.d.d.d.d.d.",
"d.d.d.d.d.d.d.d.d.d.d.d.d.d.d.d.d.d.2 2 P &.@.[ %.Z z z z V } O.=.;.;...z z a F ( _ ] ` 2 2 2 O o d.d.d.d.d.d.d.d.d.d.d.d.d.d.d.",
"d.d.d.d.d.d.d.d.d.d.d.d.d.d.d.d.d.d.2 2 P &.[ t g J A M z z z z V } O.} z z y t t t B K 2 2 2 o o d.d.d.d.d.d.d.d.d.d.d.d.d.d.d.",
"d.d.d.d.d.d.d.d.d.d.d.d.d.d.d.d.d.d.2 2 H $.[ t t Q ^ ! J A z z z z z I Y H s t t t t e 2 2 > o o d.d.d.d.d.d.d.d.d.d.d.d.d.d.d.",
"d.d.d.d.d.d.d.d.d.d.d.d.d.d.d.d.d.d.2 2 S ] ) t t Q ^ ^ ^ ^ Q J A z z I ^ ^ ~ I Z y t e 2 2 , o o d.d.d.d.d.d.d.d.d.d.d.d.d.d.d.",
"d.d.d.d.d.d.d.d.d.d.d.d.d.d.d.d.d.d.d.2 S ] ) t t Y ^ ^ ^ ^ ^ ^ ^ Q J L ^ ^ ^ ^ Q z j r 2 2 : o o d.d.d.d.d.d.d.d.d.d.d.d.d.d.d.",
"d.d.d.d.d.d.d.d.d.d.d.d.d.d.d.d.d.d.d.d.4 u S t t Y ^ ^ ^ ^ ^ ^ ^ ^ ^ l h G ^ ^ Q z z u 2 2 - o d.d.d.d.d.d.d.d.d.d.d.d.d.d.d.d.",
"d.d.d.d.d.d.d.d.d.d.d.d.d.d.d.d.d.d.d.d.2 2 7 l g T ^ ^ ^ ^ ^ ^ ^ ^ ^ l t a ^ ^ I g z t 2 2 = o d.d.d.d.d.d.d.d.d.d.d.d.d.d.d.d.",
"d.d.d.d.d.d.d.d.d.d.d.d.d.d.d.d.d.d.d.d.d.2 7 z z R ^ ^ ^ ^ ^ ^ ^ ^ ^ l t a ^ ^ J 2 7 9 < 2 * o d.d.d.d.d.d.d.d.d.d.d.d.d.d.d.d.",
"d.d.d.d.d.d.d.d.d.d.d.d.d.d.d.d.d.d.d.d.d.d.8 r j R ^ ^ ^ ^ ^ ^ ^ ^ ^ h t p U ~ S 2 2 & . d.* d.d.d.d.d.d.d.d.d.d.d.d.d.d.d.d.d.",
"d.d.d.d.d.d.d.d.d.d.d.d.d.d.d.d.d.d.d.d.d.d.d.2 3 y H ~ ^ ^ ^ ^ ^ ^ ^ f t u z V g 2 2 & . d.d.d.d.d.d.d.d.d.d.d.d.d.d.d.d.d.d.d.",
"d.d.d.d.d.d.d.d.d.d.d.d.d.d.d.d.d.d.d.d.d.d.d.2 2 2 2 8 l U ^ ^ ^ ^ ^ z i u z z e 2 2 % . d.d.d.d.d.d.d.d.d.d.d.d.d.d.d.d.d.d.d.",
"d.d.d.d.d.d.d.d.d.d.d.d.d.d.d.d.d.d.d.d.d.d.d.d.2 2 2 2 2 2 q A Q ^ ^ C z a e h e 2 2 # X d.d.d.d.d.d.d.d.d.d.d.d.d.d.d.d.d.d.d.",
"d.d.d.d.d.d.d.d.d.d.d.d.d.d.d.d.d.d.d.d.d.d.d.d.d.d.d.2 2 2 2 2 4 a J M z i 2 2 3 * 2 % d.d.d.d.d.d.d.d.d.d.d.d.d.d.d.d.d.d.d.d.",
"d.d.d.d.d.d.d.d.d.d.d.d.d.d.d.d.d.d.d.d.d.d.d.d.d.d.d.d.d.2 2 2 2 2 2 5 q r 2 2 $ . d.d.d.d.d.d.d.d.d.d.d.d.d.d.d.d.d.d.d.d.d.d.",
"d.d.d.d.d.d.d.d.d.d.d.d.d.d.d.d.d.d.d.d.d.d.d.d.d.d.d.d.d.d.d.d.2 2 2 2 2 * @ , % d.d.d.d.d.d.d.d.d.d.d.d.d.d.d.d.d.d.d.d.d.d.d.",
"d.d.d.d.d.d.d.d.d.d.d.d.d.d.d.d.d.d.d.d.d.d.d.d.d.d.d.d.d.d.d.d.d.d.2 2 2 *   d.d.d.d.d.d.d.d.d.d.d.d.d.d.d.d.d.d.d.d.d.d.d.d.d.",
"d.d.d.d.d.d.d.d.d.d.d.d.d.d.d.d.d.d.d.d.d.d.d.d.d.d.d.d.d.d.d.d.d.d.d.d.d.6 d.d.d.d.d.d.d.d.d.d.d.d.d.d.d.d.d.d.d.d.d.d.d.d.d.d.",
"d.d.d.d.d.d.d.d.d.d.d.d.d.d.d.d.d.d.d.d.d.d.d.d.d.d.d.d.d.d.d.d.d.d.d.d.d.d.d.d.d.d.d.d.d.d.d.d.d.d.d.d.d.d.d.d.d.d.d.d.d.d.d.d.",
"d.d.d.d.d.d.d.d.d.d.d.d.d.d.d.d.d.d.d.d.d.d.d.d.d.d.d.d.d.d.d.d.d.d.d.d.d.d.d.d.d.d.d.d.d.d.d.d.d.d.d.d.d.d.d.d.d.d.d.d.d.d.d.d.",
"d.d.d.d.d.d.d.d.d.d.d.d.d.d.d.d.d.d.d.d.d.d.d.d.d.d.d.d.d.d.d.d.d.d.d.d.d.d.d.d.d.d.d.d.d.d.d.d.d.d.d.d.d.d.d.d.d.d.d.d.d.d.d.d.",
"d.d.d.d.d.d.d.d.d.d.d.d.d.d.d.d.d.d.d.d.d.d.d.d.d.d.d.d.d.d.d.d.d.d.d.d.d.d.d.d.d.d.d.d.d.d.d.d.d.d.d.d.d.d.d.d.d.d.d.d.d.d.d.d.",
"d.d.d.d.d.d.d.d.d.d.d.d.d.d.d.d.d.d.d.d.d.d.d.d.d.d.d.d.d.d.d.d.d.d.d.d.d.d.d.d.d.d.d.d.d.d.d.d.d.d.d.d.d.d.d.d.d.d.d.d.d.d.d.d.",
"d.d.d.d.d.d.d.d.d.d.d.d.d.d.d.d.d.d.d.d.d.d.d.d.d.d.d.d.d.d.d.d.d.d.d.d.d.d.d.d.d.d.d.d.d.d.d.d.d.d.d.d.d.d.d.d.d.d.d.d.d.d.d.d.",
"d.d.d.d.d.d.d.d.d.d.d.d.d.d.d.d.d.d.d.d.d.d.d.d.d.d.d.d.d.d.d.d.d.d.d.d.d.d.d.d.d.d.d.d.d.d.d.d.d.d.d.d.d.d.d.d.d.d.d.d.d.d.d.d.",
"d.d.d.d.d.d.d.d.d.d.d.d.d.d.d.d.d.d.d.d.d.d.d.d.d.d.d.d.d.d.d.d.d.d.d.d.d.d.d.d.d.d.d.d.d.d.d.d.d.d.d.d.d.d.d.d.d.d.d.d.d.d.d.d.",
"d.d.d.d.d.d.d.d.d.d.d.d.d.d.d.d.d.d.d.d.d.d.d.d.d.d.d.d.d.d.d.d.d.d.d.d.d.d.d.d.d.d.d.d.d.d.d.d.d.d.d.d.d.d.d.d.d.d.d.d.d.d.d.d.",
"d.d.d.d.d.d.d.d.d.d.d.d.d.d.d.d.d.d.d.d.d.d.d.d.d.d.d.d.d.d.d.d.d.d.d.d.d.d.d.d.d.d.d.d.d.d.d.d.d.d.d.d.d.d.d.d.d.d.d.d.d.d.d.d.",
"d.d.d.d.d.d.d.d.d.d.d.d.d.d.d.d.d.d.d.d.d.d.d.d.d.d.d.d.d.d.d.d.d.d.d.d.d.d.d.d.d.d.d.d.d.d.d.d.d.d.d.d.d.d.d.d.d.d.d.d.d.d.d.d.",
"d.d.d.d.d.d.d.d.d.d.d.d.d.d.d.d.d.d.d.d.d.d.d.d.d.d.d.d.d.d.d.d.d.d.d.d.d.d.d.d.d.d.d.d.d.d.d.d.d.d.d.d.d.d.d.d.d.d.d.d.d.d.d.d."
};
