/* XPM */
static char *result[] = {
/* columns rows colors chars-per-pixel */
"64 64 111 2 ",
"   c #061A17",
".  c #071F1B",
"X  c #07221E",
"o  c #08231E",
"O  c #08241F",
"+  c #082521",
"@  c #092823",
"#  c #092824",
"$  c #092924",
"%  c #092A25",
"&  c #092B25",
"*  c #0A2B26",
"=  c #0A2C27",
"-  c #0A2D27",
";  c #0A2E28",
":  c #0A2F29",
">  c #0C342D",
",  c #0C3932",
"<  c #0E3E36",
"1  c #273936",
"2  c #0F443B",
"3  c #104B41",
"4  c #115045",
"5  c #12554A",
"6  c #13594D",
"7  c #155F52",
"8  c #304643",
"9  c #166356",
"0  c #166759",
"q  c #1A6558",
"w  c #17685B",
"e  c #17695C",
"r  c #176D5E",
"t  c #20665A",
"y  c #186F60",
"u  c #1B6F61",
"i  c #187161",
"p  c #197364",
"a  c #197565",
"s  c #1A7767",
"d  c #1A7868",
"f  c #1B7B6A",
"g  c #1F7A6B",
"h  c #1B7C6C",
"j  c #1B7E6D",
"k  c #1C7E6D",
"l  c #257769",
"z  c #2E7569",
"x  c #277D6F",
"c  c #3A776C",
"v  c #46514F",
"b  c #515E5C",
"n  c #407E73",
"m  c #616766",
"M  c #677270",
"N  c #697D7A",
"B  c #787F7E",
"V  c #1B806F",
"C  c #1C816F",
"Z  c #1C8270",
"A  c #1C8472",
"S  c #1D8673",
"D  c #1E8876",
"F  c #1E8C78",
"G  c #1F907C",
"H  c #218171",
"J  c #2A8475",
"K  c #2A8777",
"L  c #258D7B",
"P  c #2B8A7A",
"I  c #398174",
"U  c #21917E",
"Y  c #498076",
"T  c #42857A",
"R  c #209580",
"E  c #2E9583",
"W  c #2B9885",
"Q  c #299E8A",
"!  c #309886",
"~  c #309B88",
"^  c #528F85",
"/  c #43998A",
"(  c #57988C",
")  c #599B8F",
"_  c #5A9E92",
"`  c #62948B",
"'  c #659A90",
"]  c #7E9692",
"[  c #5DA296",
"{  c #65A096",
"}  c #6AA096",
"|  c #6EA79D",
" . c #7AA8A0",
".. c #808080",
"X. c #898989",
"o. c #8E9594",
"O. c #839D98",
"+. c gray57",
"@. c #959595",
"#. c #959E9D",
"$. c #989E9D",
"%. c #9F9F9F",
"&. c #87A39E",
"*. c #8EAAA5",
"=. c #91AEA9",
"-. c #A4A4A4",
";. c #A4ADAC",
":. c #A6AFAE",
">. c gray66",
",. c gray68",
"<. c None",
/* pixels */
"<.<.<.<.<.<.<.<.<.<.<.<.<.<.<.<.<.<.<.<.<.<.<.<.<.<.<.<.<.<.<.<.<.<.<.<.<.<.<.<.<.<.<.<.<.<.<.<.<.<.<.<.<.<.<.<.<.<.<.<.<.<.<.<.",
"<.<.<.<.<.<.<.<.<.<.<.<.<.<.<.<.<.<.<.<.<.<.<.<.<.<.<.<.<.<.<.<.<.<.<.<.<.<.<.<.<.<.<.<.<.<.<.<.<.<.<.<.<.<.<.<.<.<.<.<.<.<.<.<.",
"<.<.<.<.<.<.<.<.<.<.<.<.<.<.<.<.<.<.<.<.<.<.<.<.<.<.<.<.<.<.<.<.<.<.<.<.<.<.<.<.<.<.<.<.<.<.<.<.<.<.<.<.<.<.<.<.<.<.<.<.<.<.<.<.",
"<.<.<.<.<.<.<.<.<.<.<.<.<.<.<.<.<.<.<.<.<.<.<.<.<.<.<.<.<.<.<.<.<.<.<.<.<.<.<.<.<.<.<.<.<.<.<.<.<.<.<.<.<.<.<.<.<.<.<.<.<.<.<.<.",
"<.<.<.<.<.<.<.<.<.<.<.<.<.<.<.<.<.<.<.<.<.<.<.<.<.<.<.<.<.<.<.<.<.<.<.<.<.<.<.<.<.<.<.<.<.<.<.<.<.<.<.<.<.<.<.<.<.<.<.<.<.<.<.<.",
"<.<.<.<.<.<.<.<.<.<.<.<.<.<.<.<.<.<.<.<.<.<.<.<.<.<.<.<.<.<.<.<.<.<.<.<.<.<.<.<.<.<.<.<.<.<.<.<.<.<.<.<.<.<.<.<.<.<.<.<.<.<.<.<.",
"<.<.<.<.<.<.<.<.<.<.<.<.<.<.<.<.<.<.<.<.<.<.<.<.<.<.<.<.<.<.<.<.<.<.<.<.<.<.<.<.<.<.<.<.<.<.<.<.<.<.<.<.<.<.<.<.<.<.<.<.<.<.<.<.",
"<.<.<.<.<.<.<.<.<.<.<.<.<.<.<.<.<.<.<.<.<.<.<.<.<.<.<.<.<.<.<.<.<.<.<.<.<.<.<.<.<.<.<.<.<.<.<.<.<.<.<.<.<.<.<.<.<.<.<.<.<.<.<.<.",
"<.<.<.<.<.<.<.<.<.<.<.<.<.<.<.<.<.<.<.<.<.<.<.<.<.<.<.<.<.<.<.<.<.<.<.<.<.<.<.<.<.<.<.<.<.<.<.<.<.<.<.<.<.<.<.<.<.<.<.<.<.<.<.<.",
"<.<.<.<.<.<.<.<.<.<.<.<.<.<.<.<.<.<.<.<.<.<.<.<.<.<.<.<.<.<.<.<.<.<.: : : <.<.<.<.<.<.<.<.<.<.<.<.<.<.<.<.<.<.<.<.<.<.<.<.<.<.<.",
"<.<.<.<.<.<.<.<.<.<.<.<.<.<.<.<.<.<.<.<.<.<.<.<.<.: : : : : : : ; - = & $ @ <.<.<.<.<.<.<.<.<.<.<.<.<.<.<.<.<.<.<.<.<.<.<.<.<.<.",
"<.<.<.<.<.<.<.<.<.<.<.<.<.<.<.<.<.<.<.<.<.<.<.<.@ * = & $ @ @ + + + + + + + <.<.<.<.<.<.<.<.<.<.<.<.<.<.<.<.<.<.<.<.<.<.<.<.<.<.",
"<.<.<.<.<.<.<.<.<.<.<.<.<.<.<.<.<.<.<.<.<.<.<.<.@ @ + + + + + + + + + + + + & & <.<.<.<.<.<.<.<.<.<.<.<.<.<.<.<.<.<.<.<.<.<.<.<.",
"<.<.<.<.<.<.<.<.<.<.<.<.<.<.<.<.<.<.<.<.<.<.<.<.+ + + + + + + + + # 8 b M ..: + + <.<.<.<.<.<.<.<.<.<.<.<.<.<.<.<.<.<.<.<.<.<.<.",
"<.<.<.<.<.<.<.<.<.<.<.<.<.<.<.<.<.<.<.<.<.& - - * @ 1 v m B X.@.%.,.,.,.,.,.> + + <.<.<.<.<.<.<.<.<.<.<.<.<.<.<.<.<.<.<.<.<.<.<.",
"<.<.<.<.<.<.<.<.<.<.<.<.<.<.<.<.<.<.<.<.<.@ $ @ @ 8 ,.,.,.,.,.,.,.,.,.,.,.>.+ + + @ $ @ <.<.<.<.<.<.<.<.<.<.<.<.<.<.<.<.<.<.<.<.",
"<.<.<.<.<.<.<.<.<.<.<.<.<.<.<.<.<.<.<.<.<.@ @ + + v ,.,.,.,.,.,.,.,.,.,.;.-.p j f + O + <.<.<.<.<.<.<.<.<.<.<.<.<.<.<.<.<.<.<.<.",
"<.<.<.<.<.<.<.<.<.<.<.<.<.<.<.<.<.<.<.<.<.@ @ + + v ,.,.:.;.=.*.*. .| *.*.*.U R Z O O O <.<.<.<.<.<.<.<.<.<.<.<.<.<.<.<.<.<.<.<.",
"<.<.<.<.<.<.<.<.<.<.<.<.<.<.<.<.<.<.% * * & 1 M ..o. .| | | | | | | | *.*.O.G R j o o O <.<.<.<.<.<.<.<.<.<.<.<.<.<.<.<.<.<.<.<.",
"<.<.<.<.<.<.<.<.<.<.<.<.<.<.<.<.<.<.# @ + + m ,.,.;.| | | | | | | } | *.O.' E W h o o O <.<.<.<.<.<.<.<.<.<.<.<.<.<.<.<.<.<.<.<.",
"<.<.<.<.<.<.<.<.<.<.<.<.<.<.<.<.<.<.@ @ + + m ,.,.;.| | | | | | *.%.;.~ E W ~ Q g o o o X <.<.<.<.<.<.<.<.<.<.<.<.<.<.<.<.<.<.<.",
"<.<.<.<.<.<.<.<.<.<.<.<.<.<.<.<.& & $ @ + + m ;.;.=.| | | | |  .>.-.-.! ! ! ~ ! l + , : O O <.<.<.<.<.<.<.<.<.<.<.<.<.<.<.<.<.<.",
"<.<.<.<.<.<.<.<.<.<.<.<.<.<.<.= * $ @ b @.-.;.*.*.*.| | | | | | -.%.$.~ / / W ~ U D D 5 O o <.<.<.<.<.<.<.<.<.<.<.<.<.<.<.<.<.<.",
"<.<.<.<.<.<.<.<.<.<.<.<.<.<.<.= @ + + M ,.,.;.*.*.*.| | | | | } #.#.&.&.O.} ~ ~ U F F 3 o X <.<.<.<.<.<.<.<.<.<.<.<.<.<.<.<.<.<.",
"<.<.<.<.<.<.<.<.<.<.<.<.<.<.<.* # + + M ,.,.:.*.*.&.*.;.;.*.&.&.&.&.&.&.&.} Q ! U F U 3 o o <.<.<.<.<.<.<.<.<.<.<.<.<.<.<.<.<.<.",
"<.<.<.<.<.<.<.<.<.<.<.<.<.<.<.% # + + M ,.,.;.| |  .,.,.>.&.&.&.O.O.&.&.O.` x p K ! W < o X   <.<.<.<.<.<.<.<.<.<.<.<.<.<.<.<.<.",
"<.<.<.<.<.<.<.<.<.<.<.<.<.<.<.$ @ + + m ,.,.;.| |  .,.-.%.&.&.] } ' { _ ( T 7 9 K E E < o X . X <.<.<.<.<.<.<.<.<.<.<.<.<.<.<.<.",
"<.<.<.<.<.<.<.<.<.<.<.<.<.<.<.# @ + + m ,.,.;.|  .*.&.} } [ _ ) ) _ [ ) ) Y 9 7 P W ~ r d y o O o <.<.<.<.<.<.<.<.<.<.<.<.<.<.<.",
"<.<.<.<.<.<.<.<.<.<.<.<.% % $ $ @ % v B *.*.&.,.,.-._ _ _ _ _ _ _ _ _ _ _ I 7 7 P W W F L i o o <.<.<.<.<.<.<.<.<.<.<.<.<.<.<.<.",
"<.<.<.<.<.<.<.<.<.<.<.<.= % @ @ M >.,.;.| |  .,.-.-._ ) ( _ _ ) ) ( _ _ ) n 7 7 L E E G F w X O <.<.<.<.<.<.<.<.<.<.<.<.<.<.<.<.",
"<.<.<.<.<.<.<.<.<.<.<.<.= @ + + N ,.,.;.| |  .>.-.#.) ) ) [ _ ) ) _ [ ) ) n 9 7 J H l q 5 < O O <.<.<.<.<.<.<.<.<.<.<.<.<.<.<.<.",
"<.<.<.<.<.<.<.<.<.<.<.<.= # + + M ,.,.;.| | | *.*.O._ _ _ [ _ _ ) _ _ _ _ n 7 7 4 4 4 4 4 < o o <.<.<.<.<.<.<.<.<.<.<.<.<.<.<.<.",
"<.<.<.<.<.<.<.<.<.<.<.<.= # + + m ,.,.;.| | | *.&.&._ ) ) _ _ ) ) ) _ _ ) c 7 7 4 3 4 4 5 , X O <.<.<.<.<.<.<.<.<.<.<.<.<.<.<.<.",
"<.<.<.<.<.<.<.<.<.<.<.<.= $ + + m ,.,.;.| | | &.O.' ) ) ) [ _ ( ) _ [ ) ) z 9 e w i p 9 7 < O O <.<.<.<.<.<.<.<.<.<.<.<.<.<.<.<.",
"<.<.<.<.<.<.<.<.<.<.<.<.= $ + + m ,.,.;. . .&.D D K ) ) _ [ ) ) ) ) ^ T c k S A A Z f 7 7 , o o <.<.<.<.<.<.<.<.<.<.<.<.<.<.<.<.",
"<.<.<.<.<.<.<.<.<.<.<.<.= $ + + b ,.,.,.*.*.&.A A K _ ) ( ^ T c t 7 7 7 7 d A S Z Z p 4 2 , <.<.<.<.<.<.<.<.<.<.<.<.<.<.<.<.<.<.",
"<.<.<.<.<.<.<.<.<.<.<.<.= % + + b ,.,.,.*.*.O.A F L z t 7 9 7 7 7 7 9 7 7 d d i C Z 0 o o <.<.<.<.<.<.<.<.<.<.<.<.<.<.<.<.<.<.<.",
"<.<.<.<.<.<.<.<.<.<.<.<.= % + + v ,.,.,.} ( ! ! Q E 7 7 7 9 7 7 9 y a f V 6 4 6 A A 7 o o <.<.<.<.<.<.<.<.<.<.<.<.<.<.<.<.<.<.<.",
"<.<.<.<.<.<.<.<.<.<.<.<.<.% + + 8 ,.,.>.! ! ! ! ~ E 7 9 e p f C Z A A A Z 6 4 7 C d 5 O X <.<.<.<.<.<.<.<.<.<.<.<.<.<.<.<.<.<.<.",
"<.<.<.<.<.<.<.<.<.<.<.<.<.* + + 8 ,.,.-.~ ~ E K g u C C V S S C C A S Z C 5 4 5 7 7 2 o o <.<.<.<.<.<.<.<.<.<.<.<.<.<.<.<.<.<.<.",
"<.<.<.<.<.<.<.<.<.<.<.<.<.* + + 8 -.+.B ~ W E 4 4 4 Z Z A D A Z Z S A Z A 5 4 5 7 7 < o o <.<.<.<.<.<.<.<.<.<.<.<.<.<.<.<.<.<.<.",
"<.<.<.<.<.<.<.<.<.<.<.<.<.<.+ + % @ + + W ! E 4 4 4 A A A S A A Z A A A Z 4 4 5 3 < > <.<.<.<.<.<.<.<.<.<.<.<.<.<.<.<.<.<.<.<.<.",
"<.<.<.<.<.<.<.<.<.<.<.<.<.<.<.<.@ + + O W ! E 5 4 4 A C C S S V C A S Z V 7 9 4 o o <.<.<.<.<.<.<.<.<.<.<.<.<.<.<.<.<.<.<.<.<.<.",
"<.<.<.<.<.<.<.<.<.<.<.<.<.<.<.<.$ + + O G L D 5 4 4 Z Z A D Z Z Z D A Z Z 7 7 3 o o <.<.<.<.<.<.<.<.<.<.<.<.<.<.<.<.<.<.<.<.<.<.",
"<.<.<.<.<.<.<.<.<.<.<.<.<.<.<.<.% + + + F F F 5 4 5 A A A A A A Z A A A j 5 3 < <.<.<.<.<.<.<.<.<.<.<.<.<.<.<.<.<.<.<.<.<.<.<.<.",
"<.<.<.<.<.<.<.<.<.<.<.<.<.<.<.<.= + + O h s 9 6 7 9 A C V S S Z f y 7 3 & o O o <.<.<.<.<.<.<.<.<.<.<.<.<.<.<.<.<.<.<.<.<.<.<.<.",
"<.<.<.<.<.<.<.<.<.<.<.<.<.<.<.<.<.+ + O O o X 7 7 9 Z V s r 5 , O O o o o O o o <.<.<.<.<.<.<.<.<.<.<.<.<.<.<.<.<.<.<.<.<.<.<.<.",
"<.<.<.<.<.<.<.<.<.<.<.<.<.<.<.<.<.<.<.+ O o o 6 5 3 3 = O O o o o o o o o O <.<.<.<.<.<.<.<.<.<.<.<.<.<.<.<.<.<.<.<.<.<.<.<.<.<.",
"<.<.<.<.<.<.<.<.<.<.<.<.<.<.<.<.<.<.<.<.o o X O o O o o X O O X X <.<.<.<.<.<.<.<.<.<.<.<.<.<.<.<.<.<.<.<.<.<.<.<.<.<.<.<.<.<.<.",
"<.<.<.<.<.<.<.<.<.<.<.<.<.<.<.<.<.<.<.<.<.<.O O O O o o o <.<.<.<.<.<.<.<.<.<.<.<.<.<.<.<.<.<.<.<.<.<.<.<.<.<.<.<.<.<.<.<.<.<.<.",
"<.<.<.<.<.<.<.<.<.<.<.<.<.<.<.<.<.<.<.<.<.<.<.+ + <.<.<.<.<.<.<.<.<.<.<.<.<.<.<.<.<.<.<.<.<.<.<.<.<.<.<.<.<.<.<.<.<.<.<.<.<.<.<.",
"<.<.<.<.<.<.<.<.<.<.<.<.<.<.<.<.<.<.<.<.<.<.<.<.<.<.<.<.<.<.<.<.<.<.<.<.<.<.<.<.<.<.<.<.<.<.<.<.<.<.<.<.<.<.<.<.<.<.<.<.<.<.<.<.",
"<.<.<.<.<.<.<.<.<.<.<.<.<.<.<.<.<.<.<.<.<.<.<.<.<.<.<.<.<.<.<.<.<.<.<.<.<.<.<.<.<.<.<.<.<.<.<.<.<.<.<.<.<.<.<.<.<.<.<.<.<.<.<.<.",
"<.<.<.<.<.<.<.<.<.<.<.<.<.<.<.<.<.<.<.<.<.<.<.<.<.<.<.<.<.<.<.<.<.<.<.<.<.<.<.<.<.<.<.<.<.<.<.<.<.<.<.<.<.<.<.<.<.<.<.<.<.<.<.<.",
"<.<.<.<.<.<.<.<.<.<.<.<.<.<.<.<.<.<.<.<.<.<.<.<.<.<.<.<.<.<.<.<.<.<.<.<.<.<.<.<.<.<.<.<.<.<.<.<.<.<.<.<.<.<.<.<.<.<.<.<.<.<.<.<.",
"<.<.<.<.<.<.<.<.<.<.<.<.<.<.<.<.<.<.<.<.<.<.<.<.<.<.<.<.<.<.<.<.<.<.<.<.<.<.<.<.<.<.<.<.<.<.<.<.<.<.<.<.<.<.<.<.<.<.<.<.<.<.<.<.",
"<.<.<.<.<.<.<.<.<.<.<.<.<.<.<.<.<.<.<.<.<.<.<.<.<.<.<.<.<.<.<.<.<.<.<.<.<.<.<.<.<.<.<.<.<.<.<.<.<.<.<.<.<.<.<.<.<.<.<.<.<.<.<.<.",
"<.<.<.<.<.<.<.<.<.<.<.<.<.<.<.<.<.<.<.<.<.<.<.<.<.<.<.<.<.<.<.<.<.<.<.<.<.<.<.<.<.<.<.<.<.<.<.<.<.<.<.<.<.<.<.<.<.<.<.<.<.<.<.<.",
"<.<.<.<.<.<.<.<.<.<.<.<.<.<.<.<.<.<.<.<.<.<.<.<.<.<.<.<.<.<.<.<.<.<.<.<.<.<.<.<.<.<.<.<.<.<.<.<.<.<.<.<.<.<.<.<.<.<.<.<.<.<.<.<.",
"<.<.<.<.<.<.<.<.<.<.<.<.<.<.<.<.<.<.<.<.<.<.<.<.<.<.<.<.<.<.<.<.<.<.<.<.<.<.<.<.<.<.<.<.<.<.<.<.<.<.<.<.<.<.<.<.<.<.<.<.<.<.<.<.",
"<.<.<.<.<.<.<.<.<.<.<.<.<.<.<.<.<.<.<.<.<.<.<.<.<.<.<.<.<.<.<.<.<.<.<.<.<.<.<.<.<.<.<.<.<.<.<.<.<.<.<.<.<.<.<.<.<.<.<.<.<.<.<.<.",
"<.<.<.<.<.<.<.<.<.<.<.<.<.<.<.<.<.<.<.<.<.<.<.<.<.<.<.<.<.<.<.<.<.<.<.<.<.<.<.<.<.<.<.<.<.<.<.<.<.<.<.<.<.<.<.<.<.<.<.<.<.<.<.<.",
"<.<.<.<.<.<.<.<.<.<.<.<.<.<.<.<.<.<.<.<.<.<.<.<.<.<.<.<.<.<.<.<.<.<.<.<.<.<.<.<.<.<.<.<.<.<.<.<.<.<.<.<.<.<.<.<.<.<.<.<.<.<.<.<.",
"<.<.<.<.<.<.<.<.<.<.<.<.<.<.<.<.<.<.<.<.<.<.<.<.<.<.<.<.<.<.<.<.<.<.<.<.<.<.<.<.<.<.<.<.<.<.<.<.<.<.<.<.<.<.<.<.<.<.<.<.<.<.<.<."
};
