/* XPM */
static char *result[] = {
/* columns rows colors chars-per-pixel */
"64 64 63 1 ",
"  c #061C18",
". c #061D19",
"X c #071E1A",
"o c #071F1B",
"O c #07221E",
"+ c #08231E",
"@ c #08241F",
"# c #082521",
"$ c #092823",
"% c #092824",
"& c #092924",
"* c #092A25",
"= c #092B25",
"- c #0A2B26",
"; c #092D27",
": c #0A2C27",
"> c #0A2D27",
", c #0A2E28",
"< c #0A2F28",
"1 c #0A2E29",
"2 c #0A2F29",
"3 c #0C342D",
"4 c #0C3932",
"5 c #0E3E36",
"6 c #273936",
"7 c #0F443B",
"8 c #104B41",
"9 c #115045",
"0 c #12554A",
"q c #13594D",
"w c #1E584E",
"e c #155F52",
"r c #1F5F54",
"t c #304643",
"y c #166356",
"u c #166759",
"i c #1A6558",
"p c #17685B",
"a c #17695C",
"s c #186E5F",
"d c #20665A",
"f c #1B6F61",
"g c #1E7264",
"h c #246C60",
"j c #386E65",
"k c #227163",
"l c #207566",
"z c #257769",
"x c #2E7569",
"c c #3A776C",
"v c #46514F",
"b c #515E5C",
"n c #47635E",
"m c #44746C",
"M c #467A71",
"N c #517B74",
"B c #616766",
"V c #677270",
"C c #697D7A",
"Z c #787F7E",
"A c #6E827F",
"S c #808080",
"D c None",
/* pixels */
"DDDDDDDDDDDDDDDDDDDDDDDDDDDDDDDDDDDDDDDDDDDDDDDDDDDDDDDDDDDDDDDD",
"DDDDDDDDDDDDDDDDDDDDDDDDDDDDDDDDDDDDDDDDDDDDDDDDDDDDDDDDDDDDDDDD",
"DDDDDDDDDDDDDDDDDDDDDDDDDDDDDDDDDDDDDDDDDDDDDDDDDDDDDDDDDDDDDDDD",
"DDDDDDDDDDDDDDDDDDDDDDDDDDDDDDDDDDDDDDDDDDDDDDDDDDDDDDDDDDDDDDDD",
"DDDDDDDDDDDDDDDDDDDDDDDDDDDDDDDDDDDDDDDDDDDDDDDDDDDDDDDDDDDDDDDD",
"DDDDDDDDDDDDDDDDDDDDDDDDDDDDDDDDDDDDDDDDDDDDDDDDDDDDDDDDDDDDDDDD",
"DDDDDDDDDDDDDDDDDDDDDDDDDDDDDDDDDDDDDDDDDDDDDDDDDDDDDDDDDDDDDDDD",
"DDDDDDDDDDDDDDDDDDDDDDDDDDDDDDDDDDDDDDDDDDDDDDDDDDDDDDDDDDDDDDDD",
"DDDDDDDDDDDDDDDDDDDDDDDDDDDDDDDDDDDDDDDDDDDDDDDDDDDDDDDDDDDDDDDD",
"DDDDDDDDDDDDDDDDDDDDDDDDDDDDDDD22,1&XDDDDDDDDDDDDDDDDDDDDDDDDDDD",
"DDDDDDDDDDDDDDDDDDDDDDDDDDDDD222>#o  DDDDDDDDDDDDDDDDDDDDDDDDDDD",
"DDDDDDDDDDDDDDDDDDDDDDDDDD6222*+    @$DDDDDDDDDDDDDDDDDDDDDDDDDD",
"DDDDDDDDDDDDDDDDDDDDDDDDDD=--o     6t.DDDDDDDDDDDDDDDDDDDDDDDDDD",
"DDDDDDDDDDDDDDDDDDDDDDDDDD*=$   ovVSv #DDDDDDDDDDDDDDDDDDDDDDDDD",
"DDDDDDDDDDDDDDDDDDDDDDDDDD**$ %bZSSSv$O.DDDDDDDDDDDDDDDDDDDDDDDD",
"DDDDDDDDDDDDDDDDDDDDDDDDD>:-3BZSSSSSnaO DDDDDDDDDDDDDDDDDDDDDDDD",
"DDDDDDDDDDDDDDDDDDDDDDDD-:-OtSSSSZCCja  DDDDDDDDDDDDDDDDDDDDDDDD",
"DDDDDDDDDDDDDDDDDDDDDDDD==$ tSSZCNCCja  DDDDDDDDDDDDDDDDDDDDDDDD",
"DDDDDDDDDDDDDDDDDDDDDDDD==$ tZNNNNCCxk .DDDDDDDDDDDDDDDDDDDDDDDD",
"DDDDDDDDDDDDDDDDDDDDDDD:-=:vVNNNNNNzzh + DDDDDDDDDDDDDDDDDDDDDDD",
"DDDDDDDDDDDDDDDDDDDDDD>>:#vSZNNNCSNzzke8 DDDDDDDDDDDDDDDDDDDDDDD",
"DDDDDDDDDDDDDDDDDDDDDD::# vSZNNNCSNczls8 DDDDDDDDDDDDDDDDDDDDDDD",
"DDDDDDDDDDDDDDDDDDDDDD::# vSCNNNCSCCxls7 DDDDDDDDDDDDDDDDDDDDDDD",
"DDDDDDDDDDDDDDDDDDDDD=-:#6VCCNNNCCCCxfz8 .DDDDDDDDDDDDDDDDDDDDDD",
"DDDDDDDDDDDDDDDDDDDD>-:&vSZCCNCCCCCC0qz73 DDDDDDDDDDDDDDDDDDDDDD",
"DDDDDDDDDDDDDDDDDDD222$ bSZCCSZCCCNM8rzpe DDDDDDDDDDDDDDDDDDDDDD",
"DDDDDDDDDDDDDDDDDDD,,2# bSZNCSZCNMMM8rzfe DDDDDDDDDDDDDDDDDDDDDD",
"DDDDDDDDDDDDDDDDDDD>>,@ bSZNCSCMMMMm8rza8 DDDDDDDDDDDDDDDDDDDDDD",
"DDDDDDDDDDDDDDDDDDD::>@ vSZNCNMMMMMm8yy73 DDDDDDDDDDDDDDDDDDDDDD",
"DDDDDDDDDDDDDDDDDDD:::# vSZZAMMMMMMm87553 DDDDDDDDDDDDDDDDDDDDDD",
"DDDDDDDDDDDDDDDDDDDD::# vCCSAMMMMMMm87574 DDDDDDDDDDDDDDDDDDDDDD",
"DDDDDDDDDDDDDDDDDD-=--6VZNCSCMMMMMMj88e84 DDDDDDDDDDDDDDDDDDDDDD",
"DDDDDDDDDDDDDDDDD,,>-+bSZNNCCMMMMMMmqui83DDDDDDDDDDDDDDDDDDDDDDD",
"DDDDDDDDDDDDDDDDD222O bSZNNCCMMMMMjwuuy$ DDDDDDDDDDDDDDDDDDDDDDD",
"DDDDDDDDDDDDDDDDD222+ bSZNNCNMMMmr80iye  DDDDDDDDDDDDDDDDDDDDDDD",
"DDDDDDDDDDDDDDDDD222@ bSZNNhhMMj98897ee  DDDDDDDDDDDDDDDDDDDDDDD",
"DDDDDDDDDDDDDDDDD222@ bSZCNuhmw888eq5q9 DDDDDDDDDDDDDDDDDDDDDDDD",
"DDDDDDDDDDDDDDDDD222@ bSZCNud8880iuq587 DDDDDDDDDDDDDDDDDDDDDDDD",
"DDDDDDDDDDDDDDDDDD22@ vSZCNlh89euuuq585DDDDDDDDDDDDDDDDDDDDDDDDD",
"DDDDDDDDDDDDDDDDDD22# vSZMzzh0iuuuuq54XDDDDDDDDDDDDDDDDDDDDDDDDD",
"DDDDDDDDDDDDDDDDDD22# vSCzzgeuuuuuuq8O DDDDDDDDDDDDDDDDDDDDDDDDD",
"DDDDDDDDDDDDDDDDDD22# vSCzf70uuuuuuq8ODDDDDDDDDDDDDDDDDDDDDDDDDD",
"DDDDDDDDDDDDDDDDDD22# vSCzh50uuuuuuq5DDDDDDDDDDDDDDDDDDDDDDDDDDD",
"DDDDDDDDDDDDDDDDDD22# vB9zh50uuuuui7 DDDDDDDDDDDDDDDDDDDDDDDDDDD",
"DDDDDDDDDDDDDDDDDD22#o# 7zp50uuuue3  DDDDDDDDDDDDDDDDDDDDDDDDDDD",
"DDDDDDDDDDDDDDDDDDDD=:$ 5fy50uuu9+  DDDDDDDDDDDDDDDDDDDDDDDDDDDD",
"DDDDDDDDDDDDDDDDDDDD::% 4sy7quy5   DDDDDDDDDDDDDDDDDDDDDDDDDDDDD",
"DDDDDDDDDDDDDDDDDDDD>:% 4u78qq;   DDDDDDDDDDDDDDDDDDDDDDDDDDDDDD",
"DDDDDDDDDDDDDDDDDDDD2,& =#<85X  DDDDDDDDDDDDDDDDDDDDDDDDDDDDDDDD",
"DDDDDDDDDDDDDDDDDDDDD2*## *:   DDDDDDDDDDDDDDDDDDDDDDDDDDDDDDDDD",
"DDDDDDDDDDDDDDDDDDDDDDD&#o@   DDDDDDDDDDDDDDDDDDDDDDDDDDDDDDDDDD",
"DDDDDDDDDDDDDDDDDDDDDDDD@#@ DDDDDDDDDDDDDDDDDDDDDDDDDDDDDDDDDDDD",
"DDDDDDDDDDDDDDDDDDDDDDDDDD#DDDDDDDDDDDDDDDDDDDDDDDDDDDDDDDDDDDDD",
"DDDDDDDDDDDDDDDDDDDDDDDDDDDDDDDDDDDDDDDDDDDDDDDDDDDDDDDDDDDDDDDD",
"DDDDDDDDDDDDDDDDDDDDDDDDDDDDDDDDDDDDDDDDDDDDDDDDDDDDDDDDDDDDDDDD",
"DDDDDDDDDDDDDDDDDDDDDDDDDDDDDDDDDDDDDDDDDDDDDDDDDDDDDDDDDDDDDDDD",
"DDDDDDDDDDDDDDDDDDDDDDDDDDDDDDDDDDDDDDDDDDDDDDDDDDDDDDDDDDDDDDDD",
"DDDDDDDDDDDDDDDDDDDDDDDDDDDDDDDDDDDDDDDDDDDDDDDDDDDDDDDDDDDDDDDD",
"DDDDDDDDDDDDDDDDDDDDDDDDDDDDDDDDDDDDDDDDDDDDDDDDDDDDDDDDDDDDDDDD",
"DDDDDDDDDDDDDDDDDDDDDDDDDDDDDDDDDDDDDDDDDDDDDDDDDDDDDDDDDDDDDDDD",
"DDDDDDDDDDDDDDDDDDDDDDDDDDDDDDDDDDDDDDDDDDDDDDDDDDDDDDDDDDDDDDDD",
"DDDDDDDDDDDDDDDDDDDDDDDDDDDDDDDDDDDDDDDDDDDDDDDDDDDDDDDDDDDDDDDD",
"DDDDDDDDDDDDDDDDDDDDDDDDDDDDDDDDDDDDDDDDDDDDDDDDDDDDDDDDDDDDDDDD",
"DDDDDDDDDDDDDDDDDDDDDDDDDDDDDDDDDDDDDDDDDDDDDDDDDDDDDDDDDDDDDDDD"
};
