/* XPM */
static char *result[] = {
/* columns rows colors chars-per-pixel */
"64 64 42 1 ",
"  c #071F1B",
". c #07221E",
"X c #082521",
"o c #092823",
"O c #092824",
"+ c #092924",
"@ c #092A25",
"# c #092B25",
"$ c #0A2B26",
"% c #0A2C27",
"& c #0A2D27",
"* c #092E28",
"= c #0A2E28",
"- c #0A2F29",
"; c #0C342D",
": c #0C3932",
"> c #0E3E36",
", c #273936",
"< c #0F443B",
"1 c #104B41",
"2 c #115045",
"3 c #12554A",
"4 c #13594D",
"5 c #155F52",
"6 c #1F5F54",
"7 c #304643",
"8 c #3D5753",
"9 c #166356",
"0 c #20665A",
"q c #246C60",
"w c #386E65",
"e c #46514F",
"r c #515E5C",
"t c #47635E",
"y c #5A6866",
"u c #526F6A",
"i c #44746C",
"p c #517B74",
"a c #616766",
"s c #677270",
"d c #697D7A",
"f c None",
/* pixels */
"ffffffffffffffffffffffffffffffffffffffffffffffffffffffffffffffff",
"ffffffffffffffffffffffffffffffffffffffffffffffffffffffffffffffff",
"ffffffffffffffffffffffffffffffffffffffffffffffffffffffffffffffff",
"ffffffffffffffffffffffffffffffffffffffffffffffffffffffffffffffff",
"ffffffffffffffffffffffffffffffffffffffffffffffffffffffffffffffff",
"ffffffffffffffffffffffffffffffffffffffffffffffffffffffffffffffff",
"ffffffffffffffffffffffffffffffffffffffffffffffffffffffffffffffff",
"ffffffffffffffffffffffffffffffffffffffffffffffffffffffffffffffff",
"ffffffffffffffffffffffffffffff---fffffffffffffffffffffffffffffff",
"ffffffffffffffffffffffffffffff;--@ffffffffffffffffffffffffffffff",
"ffffffffffffffffffffffffffffff---.ffffffffffffffffffffffffffffff",
"fffffffffffffffffffffffffffff:--% ffffffffffffffffffffffffffffff",
"fffffffffffffffffffffffffffff%%%X7ffffffffffffffffffffffffffffff",
"fffffffffffffffffffffffffffff+OOXrffffffffffffffffffffffffffffff",
"fffffffffffffffffffffffffffff+OO7yffffffffffffffffffffffffffffff",
"fffffffffffffffffffffffffffff@++ryffffffffffffffffffffffffffffff",
"fffffffffffffffffffffffffffff&&%atffffffffffffffffffffffffffffff",
"ffffffffffffffffffffffffffff@+++yuffffffffffffffffffffffffffffff",
"ffffffffffffffffffffffffffff+++Ot6ffffffffffffffffffffffffffffff",
"ffffffffffffffffffffffffffff++OOt0ffffffffffffffffffffffffffffff",
"ffffffffffffffffffffffffffff%%$@sqffffffffffffffffffffffffffffff",
"ffffffffffffffffffffffffffff;%$+swffffffffffffffffffffffffffffff",
"ffffffffffffffffffffffffffff@@@ostffffffffffffffffffffffffffffff",
"ffffffffffffffffffffffffffff@@@optffffffffffffffffffffffffffffff",
"ffffffffffffffffffffffffffff@@@,d0ffffffffffffffffffffffffffffff",
"ffffffffffffffffffffffffffff=&$7d6ffffffffffffffffffffffffffffff",
"ffffffffffffffffffffffffffff%%%7d6ffffffffffffffffffffffffffffff",
"ffffffffffffffffffffffffffff%%%7p3ffffffffffffffffffffffffffffff",
"ffffffffffffffffffffffffffff%%%ep2ffffffffffffffffffffffffffffff",
"ffffffffffffffffffffffffffff$$$ep1ffffffffffffffffffffffffffffff",
"ffffffffffffffffffffffffffff@@#ep3ffffffffffffffffffffffffffffff",
"ffffffffffffffffffffffffffff@@@ep6ffffffffffffffffffffffffffffff",
"ffffffffffffffffffffffffffff#@@rp3ffffffffffffffffffffffffffffff",
"fffffffffffffffffffffffffff&&%$yi3ffffffffffffffffffffffffffffff",
"fffffffffffffffffffffffffff;%%%yw2ffffffffffffffffffffffffffffff",
"fffffffffffffffffffffffffff%%%%y0<ffffffffffffffffffffffffffffff",
"fffffffffffffffffffffffffff%%%%t6:ffffffffffffffffffffffffffffff",
"fffffffffffffffffffffffffff%%%%y5<ffffffffffffffffffffffffffffff",
"fffffffffffffffffffffffffff%%%%y5-ffffffffffffffffffffffffffffff",
"fffffffffffffffffffffffffff%%%$u5*ffffffffffffffffffffffffffffff",
"fffffffffffffffffffffffffff%%%$u9fffffffffffffffffffffffffffffff",
"fffffffffffffffffffffffffff%%%$t9fffffffffffffffffffffffffffffff",
"fffffffffffffffffffffffffff%%%$t5fffffffffffffffffffffffffffffff",
"fffffffffffffffffffffffffff%%%$84fffffffffffffffffffffffffffffff",
"fffffffffffffffffffffffffff%%%$83fffffffffffffffffffffffffffffff",
"fffffffffffffffffffffffffff%%%$12fffffffffffffffffffffffffffffff",
"fffffffffffffffffffffffffff%%%$1<fffffffffffffffffffffffffffffff",
"ffffffffffffffffffffffffffff@@@2-fffffffffffffffffffffffffffffff",
"ffffffffffffffffffffffffffff@@@>ffffffffffffffffffffffffffffffff",
"ffffffffffffffffffffffffffff$$$$ffffffffffffffffffffffffffffffff",
"fffffffffffffffffffffffffff%%%%.ffffffffffffffffffffffffffffffff",
"ffffffffffffffffffffffffffff+oo.ffffffffffffffffffffffffffffffff",
"ffffffffffffffffffffffffffff+ooXffffffffffffffffffffffffffffffff",
"ffffffffffffffffffffffffffffffffffffffffffffffffffffffffffffffff",
"ffffffffffffffffffffffffffffffffffffffffffffffffffffffffffffffff",
"ffffffffffffffffffffffffffffffffffffffffffffffffffffffffffffffff",
"ffffffffffffffffffffffffffffffffffffffffffffffffffffffffffffffff",
"ffffffffffffffffffffffffffffffffffffffffffffffffffffffffffffffff",
"ffffffffffffffffffffffffffffffffffffffffffffffffffffffffffffffff",
"ffffffffffffffffffffffffffffffffffffffffffffffffffffffffffffffff",
"ffffffffffffffffffffffffffffffffffffffffffffffffffffffffffffffff",
"ffffffffffffffffffffffffffffffffffffffffffffffffffffffffffffffff",
"ffffffffffffffffffffffffffffffffffffffffffffffffffffffffffffffff",
"ffffffffffffffffffffffffffffffffffffffffffffffffffffffffffffffff"
};
