/* XPM */
static char *result[] = {
/* columns rows colors chars-per-pixel */
"64 64 135 2 ",
"   c #051714",
".  c #061916",
"X  c #061A17",
"o  c #061C18",
"O  c #061D19",
"+  c #071E1A",
"@  c #071F1B",
"#  c #07221E",
"$  c #08231E",
"%  c #08241F",
"&  c #082521",
"*  c #092823",
"=  c #092924",
"-  c #092A25",
";  c #092B25",
":  c #0A2B26",
">  c #092D27",
",  c #0A2C27",
"<  c #0A2D27",
"1  c #0A2E28",
"2  c #0A2F29",
"3  c #0C342D",
"4  c #0C3932",
"5  c #0E3E36",
"6  c #273936",
"7  c #0F443B",
"8  c #104B41",
"9  c #115045",
"0  c #13594D",
"q  c #155F52",
"w  c #304643",
"e  c #166356",
"r  c #166759",
"t  c #1A6558",
"y  c #17685B",
"u  c #17695C",
"i  c #176D5E",
"p  c #186F60",
"a  c #1B6F61",
"s  c #187161",
"d  c #197364",
"f  c #197565",
"g  c #1A7767",
"h  c #1A7868",
"j  c #1B7B6A",
"k  c #1B7C6C",
"l  c #1B7E6D",
"z  c #1B7F6E",
"x  c #207566",
"c  c #46514F",
"v  c #515E5C",
"b  c #5A6866",
"n  c #616766",
"m  c #677270",
"M  c #787F7E",
"N  c #1B806F",
"B  c #1C816F",
"V  c #1C8472",
"C  c #1D8673",
"Z  c #1E8876",
"A  c #1E8C78",
"S  c #1F907C",
"D  c #238675",
"F  c #21917E",
"G  c #209580",
"H  c #2E9583",
"J  c #229A85",
"K  c #2B9885",
"L  c #299E8A",
"P  c #23A08A",
"I  c #22A28C",
"U  c #23A38D",
"Y  c #24A58F",
"T  c #24A68F",
"R  c #32A18E",
"E  c #25A992",
"W  c #25AB94",
"Q  c #25AE96",
"!  c #26AF97",
"~  c #34A793",
"^  c #32AF99",
"/  c #2BB59D",
"(  c #28B79E",
")  c #35B29D",
"_  c #29BBA1",
"`  c #39B7A2",
"'  c #34BEA6",
"]  c #43998A",
"[  c #49A696",
"{  c #4BB6A3",
"}  c #60BAAB",
"|  c #6CBDAF",
" . c #37C2AB",
".. c #3CC0A9",
"X. c #39C5AD",
"o. c #3EC6AE",
"O. c #3FCBB3",
"+. c #63C9B7",
"@. c #71C5B7",
"#. c #75CBBC",
"$. c #77CFC0",
"%. c #78D1C1",
"&. c gray55",
"*. c gray56",
"=. c #8E9594",
"-. c gray57",
";. c #959E9D",
":. c #9F9F9F",
">. c gray66",
",. c gray68",
"<. c #B0B3B2",
"1. c #B1B7B6",
"2. c #B7B7B7",
"3. c gray73",
"4. c #83C7BB",
"5. c #87CDC1",
"6. c #92CBC1",
"7. c #87D2C5",
"8. c #8AD1C5",
"9. c #8BD2C6",
"0. c #94D2C8",
"q. c #9DD2C9",
"w. c #B7C8C5",
"e. c #AED1CB",
"r. c #B2D5CF",
"t. c #B3D6D0",
"y. c #C5C5C5",
"u. c #C5CDCB",
"i. c #CECECE",
"p. c #C3D6D3",
"a. c #CFD8D6",
"s. c #D5D5D5",
"d. c #D8D8D8",
"f. c gray85",
"g. c None",
/* pixels */
"g.g.g.g.g.g.g.g.g.g.g.g.g.g.g.g.g.g.g.g.g.g.g.g.g.g.g.g.g.g.g.g.g.g.g.g.g.g.g.g.g.g.g.g.g.g.g.g.g.g.g.g.g.g.g.g.g.g.g.g.g.g.g.g.",
"g.g.g.g.g.g.g.g.g.g.g.g.g.g.g.g.g.g.g.g.g.g.g.g.g.g.g.g.g.g.g.g.g.g.g.g.g.g.g.g.g.g.g.g.g.g.g.g.g.g.g.g.g.g.g.g.g.g.g.g.g.g.g.g.",
"g.g.g.g.g.g.g.g.g.g.g.g.g.g.g.g.g.g.g.g.g.g.g.g.g.g.g.g.g.g.g.g.g.g.g.g.g.g.g.g.g.g.g.g.g.g.g.g.g.g.g.g.g.g.g.g.g.g.g.g.g.g.g.g.",
"g.g.g.g.g.g.g.g.g.g.g.g.g.g.g.g.g.g.g.g.g.g.g.g.g.g.g.g.g.g.g.g.g.g.g.g.g.g.g.g.g.g.g.g.g.g.g.g.g.g.g.g.g.g.g.g.g.g.g.g.g.g.g.g.",
"g.g.g.g.g.g.g.g.g.g.g.g.g.g.g.g.g.g.g.g.g.g.g.g.g.g.g.g.g.g.g.g.g.g.g.g.g.g.g.g.g.g.g.g.g.g.g.g.g.g.g.g.g.g.g.g.g.g.g.g.g.g.g.g.",
"g.g.g.g.g.g.g.g.g.g.g.g.g.g.g.g.g.g.g.g.g.g.g.g.g.g.g.g.g.g.g.g.g.g.g.g.g.g.g.g.g.g.g.g.g.g.g.g.g.g.g.g.g.g.g.g.g.g.g.g.g.g.g.g.",
"g.g.g.g.g.g.g.g.g.g.g.g.g.g.g.g.g.g.g.g.g.g.g.g.g.g.g.g.g.g.g.g.g.g.g.g.g.g.g.g.g.g.g.g.g.g.g.g.g.g.g.g.g.g.g.g.g.g.g.g.g.g.g.g.",
"g.g.g.g.g.g.g.g.g.g.g.g.g.g.g.g.g.g.g.g.g.g.g.g.g.g.g.g.g.g.g.g.g.g.g.g.g.g.g.g.g.g.g.g.g.g.g.g.g.g.g.g.g.g.g.g.g.g.g.g.g.g.g.g.",
"g.g.g.g.g.g.g.g.g.g.g.g.g.g.g.g.g.g.g.g.g.g.g.g.g.g.g.g.g.g.g.g.g.g.g.g.g.g.g.g.g.g.g.g.g.g.g.g.g.g.g.g.g.g.g.g.g.g.g.g.g.g.g.g.",
"g.g.g.g.g.g.g.g.g.g.g.g.g.g.g.g.g.g.g.g.g.g.g.g.g.2 2 2 2 2 g.g.g.g.g.g.g.g.g.g.g.g.g.g.g.g.g.g.g.g.g.g.g.g.g.g.g.g.g.g.g.g.g.g.",
"g.g.g.g.g.g.g.g.g.g.g.g.g.g.g.g.g.g.g.g.g.g.g.g.g.2 2 2 2 2 2 1 2 2 2 g.g.g.g.g.g.g.g.g.g.g.g.g.g.g.g.g.g.g.g.g.g.g.g.g.g.g.g.g.",
"g.g.g.g.g.g.g.g.g.g.g.g.g.g.g.g.g.g.g.g.g.g.g.g.- 2 2 2 2 2 2 2 2 2 2 2 < % g.g.g.g.g.g.g.g.g.g.g.g.g.g.g.g.g.g.g.g.g.g.g.g.g.g.",
"g.g.g.g.g.g.g.g.g.g.g.g.g.g.g.g.g.g.g.g.g.g.1 > : 3 2 2 2 2 2 2 2 2 2 2 O X g.g.g.g.g.g.g.g.g.g.g.g.g.g.g.g.g.g.g.g.g.g.g.g.g.g.",
"g.g.g.g.g.g.g.g.g.g.g.g.g.g.g.g.g.g.g.g.g.g.2 2 2 s.3.:.M w 2 2 2 2 2 2 O . g.g.g.g.g.g.g.g.g.g.g.g.g.g.g.g.g.g.g.g.g.g.g.g.g.g.",
"g.g.g.g.g.g.g.g.g.g.g.g.g.g.g.g.g.g.g.g.6 = , 2 2 f.f.f.f.d.y.,.&.v 3 2 X @ ; g.g.g.g.g.g.g.g.g.g.g.g.g.g.g.g.g.g.g.g.g.g.g.g.g.",
"g.g.g.g.g.g.g.g.g.g.g.g.g.g.g.g.g.g.g.g.2 1 y d 8 d.f.f.f.f.f.f.f.f.i.2.- : ; * @ g.g.g.g.g.g.g.g.g.g.g.g.g.g.g.g.g.g.g.g.g.g.g.",
"g.g.g.g.g.g.g.g.g.g.g.g.g.g.g.g.g.g.g.g.2 2 Z _ _ r.p.a.a.f.f.f.f.f.f.d.2 2 < X . g.g.g.g.g.g.g.g.g.g.g.g.g.g.g.g.g.g.g.g.g.g.g.",
"g.g.g.g.g.g.g.g.g.g.g.g.g.g.g.g.g.g.g.g.2 2 Z _ _ e.t.e.9.0.r.p.a.f.f.s.2 2 < X . g.g.g.g.g.g.g.g.g.g.g.g.g.g.g.g.g.g.g.g.g.g.g.",
"g.g.g.g.g.g.g.g.g.g.g.g.g.g.g.g.g.g.g.g.2 2 S ' _ e.t.e.9.9.9.9.9.0.e.e.b 3 , X $ - g.g.g.g.g.g.g.g.g.g.g.g.g.g.g.g.g.g.g.g.g.g.",
"g.g.g.g.g.g.g.g.g.g.g.g.g.g.g.g.g.g.g.& 1 2 H O.O.+.5.q.9.9.9.9.9.9.9.0.f.i.>.: : ; & @ g.g.g.g.g.g.g.g.g.g.g.g.g.g.g.g.g.g.g.g.",
"g.g.g.g.g.g.g.g.g.g.g.g.g.g.g.g.g.g., - 7 2 F O.O.O.O.5.d.p.q.9.9.9.9.0.f.f.y.2 2 : X X g.g.g.g.g.g.g.g.g.g.g.g.g.g.g.g.g.g.g.g.",
"g.g.g.g.g.g.g.g.g.g.g.g.g.g.g.g.g.g.2 2 Q Q ^ O.O.O.O.5.f.f.q.9.9.9.9.q.f.f.3.2 2 - X . g.g.g.g.g.g.g.g.g.g.g.g.g.g.g.g.g.g.g.g.",
"g.g.g.g.g.g.g.g.g.g.g.g.g.g.g.g.g.g.2 2 ! _ ..O.O.q.8.0.f.f.q.9.9.9.9.0.t.p.w.n 3 - O & - g.g.g.g.g.g.g.g.g.g.g.g.g.g.g.g.g.g.g.",
"g.g.g.g.g.g.g.g.g.g.g.g.g.g.g.g.g.g.2 2 ! _ ..O.O.e.t.t.t.p.e.0.9.9.9.0.t.t.p.f.i.-.: - - & @ g.g.g.g.g.g.g.g.g.g.g.g.g.g.g.g.g.",
"g.g.g.g.g.g.g.g.g.g.g.g.g.g.g.g.g., 2 2 ) O._ ) X.e.t.t.t.t.t.t.r.p.e.q.t.t.p.f.f.,.2 2 * o o g.g.g.g.g.g.g.g.g.g.g.g.g.g.g.g.g.",
"g.g.g.g.g.g.g.g.g.g.g.g.g.g.g.1 : 3 5 2 ) O.) z z 4.0.e.r.t.t.t.t.f.f.p.0.q.p.f.f.:.2 2 * o g.g.g.g.g.g.g.g.g.g.g.g.g.g.g.g.g.g.",
"g.g.g.g.g.g.g.g.g.g.g.g.g.g.g.2 2 7 ( I ' O.) z z #.%.%.%.9.q.r.t.f.f.p.9.9.r.f.f.:.2 2 & X g.g.g.g.g.g.g.g.g.g.g.g.g.g.g.g.g.g.",
"g.g.g.g.g.g.g.g.g.g.g.g.g.g.g.2 2 3 _ _ o.O.) z z #.%.%.%.%.%.%.7.e.p.p.9.9.t.f.f.=.2 2 & X g.g.g.g.g.g.g.g.g.g.g.g.g.g.g.g.g.g.",
"g.g.g.g.g.g.g.g.g.g.g.g.g.g.g.2 2 2 T _ o.O.) z z #.%.%.%.%.%.%.%.%.%.q.p.r.p.f.f.*.2 2 % X g.g.g.g.g.g.g.g.g.g.g.g.g.g.g.g.g.g.",
"g.g.g.g.g.g.g.g.g.g.g.g.g.g.g.g.2 2 u a F ^ ) z z #.%.%.%.%.%.%.%.%.%.e.f.f.r.q.r.;.6 2 # @ * g.g.g.g.g.g.g.g.g.g.g.g.g.g.g.g.g.",
"g.g.g.g.g.g.g.g.g.g.g.g.g.g.g.g.2 2 r u u u s z z #.%.%.%.%.%.%.%.%.%.e.f.f.e.9.9.p.s.1.v = * = % g.g.g.g.g.g.g.g.g.g.g.g.g.g.g.",
"g.g.g.g.g.g.g.g.g.g.g.g.g.g.g.g.2 2 s a u u a z z #.%.%.%.%.%.%.%.%.%.q.p.a.e.9.9.p.f.f.m 2 1 % o g.g.g.g.g.g.g.g.g.g.g.g.g.g.g.",
"g.g.g.g.g.g.g.g.g.g.g.g.g.g.g.g.2 2 j z J K Z B z #.%.%.%.%.%.%.%.%.%.q.t.t.0.9.9.a.f.f.n 2 2 # o g.g.g.g.g.g.g.g.g.g.g.g.g.g.g.",
"g.g.g.g.g.g.g.g.g.g.g.g.g.g.g.g.2 2 h z P ! ! W P } $.%.%.%.%.%.%.%.%.q.t.t.0.9.9.a.f.f.c 2 2 @ o g.g.g.g.g.g.g.g.g.g.g.g.g.g.g.",
"g.g.g.g.g.g.g.g.g.g.g.g.g.g.g.g.g.g.5 0 G ! ! ! ! C D [ } #.%.%.%.%.%.| | 6.0.9.9.d.f.f.w 2 2 + o g.g.g.g.g.g.g.g.g.g.g.g.g.g.g.",
"g.g.g.g.g.g.g.g.g.g.g.g.g.g.g.g.g.g.2 2 C ! E I Q C z z z V ] } #.%.%.} ! ! q.e.q.d.f.s.2 2 2 O o g.g.g.g.g.g.g.g.g.g.g.g.g.g.g.",
"g.g.g.g.g.g.g.g.g.g.g.g.g.g.g.g.g.g.2 2 C ! P u d J A N z z z z V ] } { ! ! e.t.t.f.f.s.2 2 2 o o g.g.g.g.g.g.g.g.g.g.g.g.g.g.g.",
"g.g.g.g.g.g.g.g.g.g.g.g.g.g.g.g.g.g.2 2 d I P u u E ! W J A z z z z z /  ._ q.t.t.f.f.u.2 2 > o o g.g.g.g.g.g.g.g.g.g.g.g.g.g.g.",
"g.g.g.g.g.g.g.g.g.g.g.g.g.g.g.g.g.g.2 2 e z l u u E ! ! ! ! E J A z z ` O.O.O.#.q.f.f.y.2 2 , o o g.g.g.g.g.g.g.g.g.g.g.g.g.g.g.",
"g.g.g.g.g.g.g.g.g.g.g.g.g.g.g.g.g.g.g.2 t z k u u U ! ! ! ! ! ! ! E J ^ O.O.O.O.#.f.f.3.2 2 : o o g.g.g.g.g.g.g.g.g.g.g.g.g.g.g.",
"g.g.g.g.g.g.g.g.g.g.g.g.g.g.g.g.g.g.g.g.3 9 u u u U ! ! ! ! ! ! ! ! ! l z R O.O.#.f.f.3.2 2 - o g.g.g.g.g.g.g.g.g.g.g.g.g.g.g.g.",
"g.g.g.g.g.g.g.g.g.g.g.g.g.g.g.g.g.g.g.g.2 2 7 l g Y ! ! ! ! ! ! ! ! ! l u x O.O.@.u.f.<.2 2 = o g.g.g.g.g.g.g.g.g.g.g.g.g.g.g.g.",
"g.g.g.g.g.g.g.g.g.g.g.g.g.g.g.g.g.g.g.g.g.2 7 z z T ! ! ! ! ! ! ! ! ! l u x O.O.) 2 n M < 2 * o g.g.g.g.g.g.g.g.g.g.g.g.g.g.g.g.",
"g.g.g.g.g.g.g.g.g.g.g.g.g.g.g.g.g.g.g.g.g.g.8 r j T ! ! ! ! ! ! ! ! ! h u h o.O.~ 2 2 & . g.* g.g.g.g.g.g.g.g.g.g.g.g.g.g.g.g.g.",
"g.g.g.g.g.g.g.g.g.g.g.g.g.g.g.g.g.g.g.g.g.g.g.2 3 i G Q ! ! ! ! ! ! ! f u l _ _ L 2 2 & . g.g.g.g.g.g.g.g.g.g.g.g.g.g.g.g.g.g.g.",
"g.g.g.g.g.g.g.g.g.g.g.g.g.g.g.g.g.g.g.g.g.g.g.2 2 2 2 8 l I ! ! ! ! ! z p l _ _ S 2 2 % . g.g.g.g.g.g.g.g.g.g.g.g.g.g.g.g.g.g.g.",
"g.g.g.g.g.g.g.g.g.g.g.g.g.g.g.g.g.g.g.g.g.g.g.g.2 2 2 2 2 2 q A E ! ! C z g A Q A 2 2 # X g.g.g.g.g.g.g.g.g.g.g.g.g.g.g.g.g.g.g.",
"g.g.g.g.g.g.g.g.g.g.g.g.g.g.g.g.g.g.g.g.g.g.g.g.g.g.g.2 2 2 2 2 4 s J N z p 2 2 5 * 2 % g.g.g.g.g.g.g.g.g.g.g.g.g.g.g.g.g.g.g.g.",
"g.g.g.g.g.g.g.g.g.g.g.g.g.g.g.g.g.g.g.g.g.g.g.g.g.g.g.g.g.2 2 2 2 2 2 5 q r 2 2 % . g.g.g.g.g.g.g.g.g.g.g.g.g.g.g.g.g.g.g.g.g.g.",
"g.g.g.g.g.g.g.g.g.g.g.g.g.g.g.g.g.g.g.g.g.g.g.g.g.g.g.g.g.g.g.g.2 2 2 2 2 * @ , & g.g.g.g.g.g.g.g.g.g.g.g.g.g.g.g.g.g.g.g.g.g.g.",
"g.g.g.g.g.g.g.g.g.g.g.g.g.g.g.g.g.g.g.g.g.g.g.g.g.g.g.g.g.g.g.g.g.g.2 2 2 *   g.g.g.g.g.g.g.g.g.g.g.g.g.g.g.g.g.g.g.g.g.g.g.g.g.",
"g.g.g.g.g.g.g.g.g.g.g.g.g.g.g.g.g.g.g.g.g.g.g.g.g.g.g.g.g.g.g.g.g.g.g.g.g.6 g.g.g.g.g.g.g.g.g.g.g.g.g.g.g.g.g.g.g.g.g.g.g.g.g.g.",
"g.g.g.g.g.g.g.g.g.g.g.g.g.g.g.g.g.g.g.g.g.g.g.g.g.g.g.g.g.g.g.g.g.g.g.g.g.g.g.g.g.g.g.g.g.g.g.g.g.g.g.g.g.g.g.g.g.g.g.g.g.g.g.g.",
"g.g.g.g.g.g.g.g.g.g.g.g.g.g.g.g.g.g.g.g.g.g.g.g.g.g.g.g.g.g.g.g.g.g.g.g.g.g.g.g.g.g.g.g.g.g.g.g.g.g.g.g.g.g.g.g.g.g.g.g.g.g.g.g.",
"g.g.g.g.g.g.g.g.g.g.g.g.g.g.g.g.g.g.g.g.g.g.g.g.g.g.g.g.g.g.g.g.g.g.g.g.g.g.g.g.g.g.g.g.g.g.g.g.g.g.g.g.g.g.g.g.g.g.g.g.g.g.g.g.",
"g.g.g.g.g.g.g.g.g.g.g.g.g.g.g.g.g.g.g.g.g.g.g.g.g.g.g.g.g.g.g.g.g.g.g.g.g.g.g.g.g.g.g.g.g.g.g.g.g.g.g.g.g.g.g.g.g.g.g.g.g.g.g.g.",
"g.g.g.g.g.g.g.g.g.g.g.g.g.g.g.g.g.g.g.g.g.g.g.g.g.g.g.g.g.g.g.g.g.g.g.g.g.g.g.g.g.g.g.g.g.g.g.g.g.g.g.g.g.g.g.g.g.g.g.g.g.g.g.g.",
"g.g.g.g.g.g.g.g.g.g.g.g.g.g.g.g.g.g.g.g.g.g.g.g.g.g.g.g.g.g.g.g.g.g.g.g.g.g.g.g.g.g.g.g.g.g.g.g.g.g.g.g.g.g.g.g.g.g.g.g.g.g.g.g.",
"g.g.g.g.g.g.g.g.g.g.g.g.g.g.g.g.g.g.g.g.g.g.g.g.g.g.g.g.g.g.g.g.g.g.g.g.g.g.g.g.g.g.g.g.g.g.g.g.g.g.g.g.g.g.g.g.g.g.g.g.g.g.g.g.",
"g.g.g.g.g.g.g.g.g.g.g.g.g.g.g.g.g.g.g.g.g.g.g.g.g.g.g.g.g.g.g.g.g.g.g.g.g.g.g.g.g.g.g.g.g.g.g.g.g.g.g.g.g.g.g.g.g.g.g.g.g.g.g.g.",
"g.g.g.g.g.g.g.g.g.g.g.g.g.g.g.g.g.g.g.g.g.g.g.g.g.g.g.g.g.g.g.g.g.g.g.g.g.g.g.g.g.g.g.g.g.g.g.g.g.g.g.g.g.g.g.g.g.g.g.g.g.g.g.g.",
"g.g.g.g.g.g.g.g.g.g.g.g.g.g.g.g.g.g.g.g.g.g.g.g.g.g.g.g.g.g.g.g.g.g.g.g.g.g.g.g.g.g.g.g.g.g.g.g.g.g.g.g.g.g.g.g.g.g.g.g.g.g.g.g.",
"g.g.g.g.g.g.g.g.g.g.g.g.g.g.g.g.g.g.g.g.g.g.g.g.g.g.g.g.g.g.g.g.g.g.g.g.g.g.g.g.g.g.g.g.g.g.g.g.g.g.g.g.g.g.g.g.g.g.g.g.g.g.g.g.",
"g.g.g.g.g.g.g.g.g.g.g.g.g.g.g.g.g.g.g.g.g.g.g.g.g.g.g.g.g.g.g.g.g.g.g.g.g.g.g.g.g.g.g.g.g.g.g.g.g.g.g.g.g.g.g.g.g.g.g.g.g.g.g.g."
};
