/* XPM */
static char *result[] = {
/* columns rows colors chars-per-pixel */
"64 64 106 2 ",
"   c #08231E",
".  c #08241F",
"X  c #082521",
"o  c #092823",
"O  c #092924",
"+  c #092A25",
"@  c #092B25",
"#  c #0A2B26",
"$  c #0A2C27",
"%  c #0A2D27",
"&  c #0A2E28",
"*  c #0A2E29",
"=  c #0A2F29",
"-  c #0C342D",
";  c #0C3932",
":  c #273936",
">  c #0F443B",
",  c #104B41",
"<  c #115045",
"1  c #12554A",
"2  c #13594D",
"3  c #155F52",
"4  c #304643",
"5  c #166356",
"6  c #166759",
"7  c #1A6558",
"8  c #17695C",
"9  c #176D5E",
"0  c #187161",
"q  c #197364",
"w  c #197565",
"e  c #1A7767",
"r  c #1A7868",
"t  c #1B7B6A",
"y  c #1B7C6C",
"u  c #1B7E6D",
"i  c #207566",
"p  c #257769",
"a  c #46514F",
"s  c #515E5C",
"d  c #616766",
"f  c #677270",
"g  c #697D7A",
"h  c #787F7E",
"j  c #1C8270",
"k  c #1C8472",
"l  c #1E8876",
"z  c #1F907C",
"x  c #238675",
"c  c #2A8475",
"v  c #2A8777",
"b  c #21917E",
"n  c #3E8E81",
"m  c #209580",
"M  c #229A85",
"N  c #2B9885",
"B  c #229F89",
"V  c #299E8A",
"C  c #23A08A",
"Z  c #22A28C",
"A  c #23A38D",
"S  c #24A58F",
"D  c #24A68F",
"F  c #32A18E",
"G  c #2BA590",
"H  c #25AB94",
"J  c #25AE96",
"K  c #2BAB95",
"L  c #32AF99",
"P  c #36AC98",
"I  c #27B199",
"U  c #2BB59D",
"Y  c #35B29D",
"T  c #29BBA1",
"R  c #39B7A2",
"E  c #34BEA6",
"W  c #43998A",
"Q  c #5A9E92",
"!  c #5FA69A",
"~  c #64AEA1",
"^  c #6CBDAF",
"/  c #7DBEB3",
"(  c #3CC0A9",
")  c #71C5B7",
"_  c #7FC6BA",
"`  c gray56",
"'  c #9A9A9A",
"]  c #9F9F9F",
"[  c #82B5AC",
"{  c #8CBFB6",
"}  c #A4A4A4",
"|  c gray66",
" . c gray68",
".. c #B0B3B2",
"X. c #B1B7B6",
"o. c #B7B7B7",
"O. c gray73",
"+. c #83C7BB",
"@. c #A2C1BC",
"#. c #92CBC1",
"$. c #A9CAC4",
"%. c #B7C8C5",
"&. c #C5C5C5",
"*. c #C5CDCB",
"=. c #CECECE",
"-. c None",
/* pixels */
"-.-.-.-.-.-.-.-.-.-.-.-.-.-.-.-.-.-.-.-.-.-.-.-.-.-.-.-.-.-.-.-.-.-.-.-.-.-.-.-.-.-.-.-.-.-.-.-.-.-.-.-.-.-.-.-.-.-.-.-.-.-.-.-.",
"-.-.-.-.-.-.-.-.-.-.-.-.-.-.-.-.-.-.-.-.-.-.-.-.-.-.-.-.-.-.-.-.-.-.-.-.-.-.-.-.-.-.-.-.-.-.-.-.-.-.-.-.-.-.-.-.-.-.-.-.-.-.-.-.",
"-.-.-.-.-.-.-.-.-.-.-.-.-.-.-.-.-.-.-.-.-.-.-.-.-.-.-.-.-.-.-.-.-.-.-.-.-.-.-.-.-.-.-.-.-.-.-.-.-.-.-.-.-.-.-.-.-.-.-.-.-.-.-.-.",
"-.-.-.-.-.-.-.-.-.-.-.-.-.-.-.-.-.-.-.-.-.-.-.-.-.-.-.-.-.-.-.-.-.-.-.-.-.-.-.-.-.-.-.-.-.-.-.-.-.-.-.-.-.-.-.-.-.-.-.-.-.-.-.-.",
"-.-.-.-.-.-.-.-.-.-.-.-.-.-.-.-.-.-.-.-.-.-.-.-.-.-.-.-.-.-.-.-.-.-.-.-.-.-.-.-.-.-.-.-.-.-.-.-.-.-.-.-.-.-.-.-.-.-.-.-.-.-.-.-.",
"-.-.-.-.-.-.-.-.-.-.-.-.-.-.-.-.-.-.-.-.-.-.-.-.-.-.-.-.-.-.-.-.-.-.-.-.-.-.-.-.-.-.-.-.-.-.-.-.-.-.-.-.-.-.-.-.-.-.-.-.-.-.-.-.",
"-.-.-.-.-.-.-.-.-.-.-.-.-.-.-.-.-.-.-.-.-.-.-.-.-.-.-.-.-.-.-.-.-.-.-.-.-.-.-.-.-.-.-.-.-.-.-.-.-.-.-.-.-.-.-.-.-.-.-.-.-.-.-.-.",
"-.-.-.-.-.-.-.-.-.-.-.-.-.-.-.-.-.-.-.-.-.-.-.-.-.-.-.-.-.-.-.-.-.-.-.-.-.-.-.-.-.-.-.-.-.-.-.-.-.-.-.-.-.-.-.-.-.-.-.-.-.-.-.-.",
"-.-.-.-.-.-.-.-.-.-.-.-.-.-.-.-.-.-.-.-.-.-.-.-.-.-.-.-.-.-.-.-.-.-.-.-.-.-.-.-.-.-.-.-.-.-.-.-.-.-.-.-.-.-.-.-.-.-.-.-.-.-.-.-.",
"-.-.-.-.-.-.-.-.-.-.-.-.-.-.-.-.-.-.-.-.-.-.-.-.-.-.-.-.-.-.-.-.-.-.-.-.-.-.-.-.-.-.-.-.-.-.-.-.-.-.-.-.-.-.-.-.-.-.-.-.-.-.-.-.",
"-.-.-.-.-.-.-.-.-.-.-.-.-.-.-.-.-.-.-.-.-.-.-.-.& * * = = * * * = = = = = = -.-.-.-.-.-.-.-.-.-.-.-.-.-.-.-.-.-.-.-.-.-.-.-.-.-.",
"-.-.-.-.-.-.-.-.-.-.-.-.-.-.-.-.-.-.-.-.-.-.-.-.$ $ $ $ $ $ $ $ $ $ $ $ % % -.-.-.-.-.-.-.-.-.-.-.-.-.-.-.-.-.-.-.-.-.-.-.-.-.-.",
"-.-.-.-.-.-.-.-.-.-.-.-.-.-.-.-.-.-.-.-.-.-.-.-.$ $ $ $ $ $ $ $ $ $ $ $ $ $ -.-.-.-.-.-.-.-.-.-.-.-.-.-.-.-.-.-.-.-.-.-.-.-.-.-.",
"-.-.-.-.-.-.-.-.-.-.-.-.-.-.-.-.-.-.-.-.-.$ $ # $ $ $ $ $ $ $ $ $ $ $ $ $ # O @ $ -.-.-.-.-.-.-.-.-.-.-.-.-.-.-.-.-.-.-.-.-.-.-.",
"-.-.-.-.-.-.-.-.-.-.-.-.-.-.-.-.-.-.-.-.-.$ $ $ ` =.&.&.&.O.O.o. . . .} ] ' # # $ $ -.-.-.-.-.-.-.-.-.-.-.-.-.-.-.-.-.-.-.-.-.-.",
"-.-.-.-.-.-.-.-.-.-.-.-.-.-.-.-.-.-.-.-.-.$ $ $ ` =.=.=.=.=.=.=.=.=.=.=.=.&.$ $ $ # -.-.-.-.-.-.-.-.-.-.-.-.-.-.-.-.-.-.-.-.-.-.",
"-.-.-.-.-.-.-.-.-.-.-.-.-.-.-.-.-.-.# @ + $ $ $ ` =.=.=.=.=.=.=.=.=.=.=.=.&.$ $ $ # -.-.-.-.-.-.-.-.-.-.-.-.-.-.-.-.-.-.-.-.-.-.",
"-.-.-.-.-.-.-.-.-.-.-.-.-.-.-.-.-.-.$ $ $ M D D [ %.%.%.$.$.$.$.$.%.%.%.%.O.g f f : @ # $ -.-.-.-.-.-.-.-.-.-.-.-.-.-.-.-.-.-.-.",
"-.-.-.-.-.-.-.-.-.-.-.-.-.-.-.-.-.-.$ $ $ m I I ^ $.$.$.+.+.+.+.+.+.+.+.+.#.=.=.=.s $ $ $ -.-.-.-.-.-.-.-.-.-.-.-.-.-.-.-.-.-.-.",
"-.-.-.-.-.-.-.-.-.-.-.-.-.-.-.-.-.-.$ $ $ m I I ^ $.$.$.+.+.+.+.+.+.+.+.+.#.=.=.=.a $ $ $ -.-.-.-.-.-.-.-.-.-.-.-.-.-.-.-.-.-.-.",
"-.-.-.-.-.-.-.-.-.-.-.-.-.-.-.-.-.-.$ $ $ F E E ( ) ) +.$.$.$.+.+.+.+.+.+.#.=.=.=.4 $ $ # @ # $ -.-.-.-.-.-.-.-.-.-.-.-.-.-.-.-.",
"-.-.-.-.-.-.-.-.-.-.-.-.-.-.-.-.-.-.$ $ $ F ( ( ( ( ( ) =.=.=.#.+.+.+.+.+.#.$.$.$.=.=.&.h $ $ $ -.-.-.-.-.-.-.-.-.-.-.-.-.-.-.-.",
"-.-.-.-.-.-.-.-.-.-.-.-.-.-.-.X X X # $ $ F ( ( ( ( ( ) =.=.=.+.+.+.+.+.+.#.$.$.$.=.=.=.h $ $ $ -.-.-.-.-.-.-.-.-.-.-.-.-.-.-.-.",
"-.-.-.-.-.-.-.-.-.-.-.-.-.-.-.$ $ $ M S A R ( ( ^ +.+.#.%.*.*.#.#.#.#.#.#.#.$.$.$.=.=.=.f $ $ $ -.-.-.-.-.-.-.-.-.-.-.-.-.-.-.-.",
"-.-.-.-.-.-.-.-.-.-.-.-.-.-.-.$ $ $ C I I T ( ( _ $.$.$.$.$.$.$.$.$.*.=.=.%.+.+.#.=.=.=.d $ $ $ -.-.-.-.-.-.-.-.-.-.-.-.-.-.-.-.",
"-.-.-.-.-.-.-.-.-.-.-.-.-.-.-.$ $ $ C I I T ( ( _ $.$.$.$.$.$.$.$.$.*.=.=.%.+.+.#.=.=.=.s $ $ $ -.-.-.-.-.-.-.-.-.-.-.-.-.-.-.-.",
"-.-.-.-.-.-.-.-.-.-.-.-.-.-.-.$ $ $ K ( E F b b ~ +.+.#.#.#.#.#.#.#.%.*.*.$.+.+.#.=.=.=.4 $ $ + O + @ -.-.-.-.-.-.-.-.-.-.-.-.-.",
"-.-.-.-.-.-.-.-.-.-.-.-.-..   # $ $ G ( ( V r r Q ) ) ) ) ) ) ) ) ) ) ) ) $.=.=.%.#.#.#.X. .| d # # $ -.-.-.-.-.-.-.-.-.-.-.-.-.",
"-.-.-.-.-.-.-.-.-.-.-.-.o o X > < - G ( ( V r r Q ) ) ) ) ) ) ) ) ) ) ) ) $.=.=.%.+.+.+.=.=.=.g $ $ $ -.-.-.-.-.-.-.-.-.-.-.-.-.",
"-.-.-.-.-.-.-.-.-.-.-.-.$ $ $ C I I E ( ( V r r W ) ) ) ) ) ) ) ) ) ) ) ) $.=.=.%.+.+.+.=.=.=.d $ $ $ -.-.-.-.-.-.-.-.-.-.-.-.-.",
"-.-.-.-.-.-.-.-.-.-.-.-.$ $ $ M I I T ( ( V r r W ) ) ) ) ) ) ) ) ) ) ) ) #.$.$.#.+.+.#.=.=.=.a $ $ $ -.-.-.-.-.-.-.-.-.-.-.-.-.",
"-.-.-.-.-.-.-.-.-.-.-.-.$ $ $ l S S Y R ( G r r W ) ) ) ) ) ) ) ) ) ) ) ) #.$.$.#.+.+.#.=.=.=.4 $ $ $ -.-.-.-.-.-.-.-.-.-.-.-.-.",
"-.-.-.-.-.-.-.-.-.-.-.-.$ $ $ 1 5 5 5 5 5 9 r r W ) ) ) ) ) ) ) ) ) ) ) ) #.@.$.#.+.+.#.=.=.=.* $ $ -.-.-.-.-.-.-.-.-.-.-.-.-.-.",
"-.-.-.-.-.-.-.-.-.-.-.-.$ $ $ < 5 5 5 5 5 9 r r W ) ) ) ) ) ) ) ) ) ) ) ) Y D D [ $.$.%.=.=.&.$ $ $ -.-.-.-.-.-.-.-.-.-.-.-.-.-.",
"-.-.-.-.-.-.-.-.-.-.-.-.$ $ $ 2 9 9 q t w t u y W ) ) ) ) ) ) ) ) ) ) ) ) P D D { $.$.%.=.=.&.$ $ $ -.-.-.-.-.-.-.-.-.-.-.-.-.-.",
"-.-.-.-.-.-.-.-.-.-.-.-.$ $ $ 3 r r z D D D D D M y c v n n W W Q Q ! ! ~ L J K / $.$.%.=.=.o.$ $ $ -.-.-.-.-.-.-.-.-.-.-.-.-.-.",
"-.-.-.-.-.-.-.-.-.-.-.-.$ $ $ 2 r r z D D D D D M r r r r r r r r r r r r R ( ( ( ( ( #.=.=...$ $ $ -.-.-.-.-.-.-.-.-.-.-.-.-.-.",
"-.-.-.-.-.-.-.-.-.-.-.-.-.-.-.> < 1 k D D B m m b j u y r r r r r r r r r R ( ( ( ( ( @.=.=. .$ $ $ -.-.-.-.-.-.-.-.-.-.-.-.-.-.",
"-.-.-.-.-.-.-.-.-.-.-.-.-.-.-.$ $ $ w D D m 5 5 u D D D S S Z C B M N N m N F F E ( ( { &.&.] $ $ $ -.-.-.-.-.-.-.-.-.-.-.-.-.-.",
"-.-.-.-.-.-.-.-.-.-.-.-.-.-.-.$ $ $ 9 D D m 5 5 u D D D D D D D D D D D D 8 5 5 Y ( ( p $ $ * -.-.-.-.-.-.-.-.-.-.-.-.-.-.-.-.-.",
"-.-.-.-.-.-.-.-.-.-.-.-.-.-.-.$ $ $ 2 k l y 5 5 u D D D D D D D D D D D S 6 5 5 U ( ( i $ $ $ -.-.-.-.-.-.-.-.-.-.-.-.-.-.-.-.-.",
"-.-.-.-.-.-.-.-.-.-.-.-.-.-.-.$ $ $ < r r 0 5 5 u D D D D D D D D D D D A 5 5 5 Y R R 5 $ $ $ -.-.-.-.-.-.-.-.-.-.-.-.-.-.-.-.-.",
"-.-.-.-.-.-.-.-.-.-.-.-.-.-.-.-.$ $ < q e 0 5 5 u D D D D D D D D D D D A 5 5 5 H I I 2 $ $ $ -.-.-.-.-.-.-.-.-.-.-.-.-.-.-.-.-.",
"-.-.-.-.-.-.-.-.-.-.-.-.-.-.-.-.-.-.$ $ $ < e e x D D D D D D D D D D D Z 5 5 6 I I I , $ $ -.-.-.-.-.-.-.-.-.-.-.-.-.-.-.-.-.-.",
"-.-.-.-.-.-.-.-.-.-.-.-.-.-.-.-.-.-.$ $ $ > r r l D D D D D D D D D D D C r e w < 2 5 > $ $ -.-.-.-.-.-.-.-.-.-.-.-.-.-.-.-.-.-.",
"-.-.-.-.-.-.-.-.-.-.-.-.-.-.-.-.-.-.-.$ $ > 6 9 y B C D D D D D D D D D C r r q $ $ $ -.-.-.-.-.-.-.-.-.-.-.-.-.-.-.-.-.-.-.-.-.",
"-.-.-.-.-.-.-.-.-.-.-.-.-.-.-.-.-.-.-.-.-.-.$ $ $ $ $ * ; , 1 2 6 8 w r y 5 7 7 $ $ $ -.-.-.-.-.-.-.-.-.-.-.-.-.-.-.-.-.-.-.-.-.",
"-.-.-.-.-.-.-.-.-.-.-.-.-.-.-.-.-.-.-.-.-.-.$ $ $ $ $ $ $ $ $ $ $ $ $ $ $ $ $ $ -.-.-.-.-.-.-.-.-.-.-.-.-.-.-.-.-.-.-.-.-.-.-.-.",
"-.-.-.-.-.-.-.-.-.-.-.-.-.-.-.-.-.-.-.-.-.-.$ $ $ $ $ $ $ $ $ $ $ $ $ $ $ $ $ $ -.-.-.-.-.-.-.-.-.-.-.-.-.-.-.-.-.-.-.-.-.-.-.-.",
"-.-.-.-.-.-.-.-.-.-.-.-.-.-.-.-.-.-.-.-.-.-.-.-.-.-.-.-.-.-.-.-.-.-.-.-.-.-.-.-.-.-.-.-.-.-.-.-.-.-.-.-.-.-.-.-.-.-.-.-.-.-.-.-.",
"-.-.-.-.-.-.-.-.-.-.-.-.-.-.-.-.-.-.-.-.-.-.-.-.-.-.-.-.-.-.-.-.-.-.-.-.-.-.-.-.-.-.-.-.-.-.-.-.-.-.-.-.-.-.-.-.-.-.-.-.-.-.-.-.",
"-.-.-.-.-.-.-.-.-.-.-.-.-.-.-.-.-.-.-.-.-.-.-.-.-.-.-.-.-.-.-.-.-.-.-.-.-.-.-.-.-.-.-.-.-.-.-.-.-.-.-.-.-.-.-.-.-.-.-.-.-.-.-.-.",
"-.-.-.-.-.-.-.-.-.-.-.-.-.-.-.-.-.-.-.-.-.-.-.-.-.-.-.-.-.-.-.-.-.-.-.-.-.-.-.-.-.-.-.-.-.-.-.-.-.-.-.-.-.-.-.-.-.-.-.-.-.-.-.-.",
"-.-.-.-.-.-.-.-.-.-.-.-.-.-.-.-.-.-.-.-.-.-.-.-.-.-.-.-.-.-.-.-.-.-.-.-.-.-.-.-.-.-.-.-.-.-.-.-.-.-.-.-.-.-.-.-.-.-.-.-.-.-.-.-.",
"-.-.-.-.-.-.-.-.-.-.-.-.-.-.-.-.-.-.-.-.-.-.-.-.-.-.-.-.-.-.-.-.-.-.-.-.-.-.-.-.-.-.-.-.-.-.-.-.-.-.-.-.-.-.-.-.-.-.-.-.-.-.-.-.",
"-.-.-.-.-.-.-.-.-.-.-.-.-.-.-.-.-.-.-.-.-.-.-.-.-.-.-.-.-.-.-.-.-.-.-.-.-.-.-.-.-.-.-.-.-.-.-.-.-.-.-.-.-.-.-.-.-.-.-.-.-.-.-.-.",
"-.-.-.-.-.-.-.-.-.-.-.-.-.-.-.-.-.-.-.-.-.-.-.-.-.-.-.-.-.-.-.-.-.-.-.-.-.-.-.-.-.-.-.-.-.-.-.-.-.-.-.-.-.-.-.-.-.-.-.-.-.-.-.-.",
"-.-.-.-.-.-.-.-.-.-.-.-.-.-.-.-.-.-.-.-.-.-.-.-.-.-.-.-.-.-.-.-.-.-.-.-.-.-.-.-.-.-.-.-.-.-.-.-.-.-.-.-.-.-.-.-.-.-.-.-.-.-.-.-.",
"-.-.-.-.-.-.-.-.-.-.-.-.-.-.-.-.-.-.-.-.-.-.-.-.-.-.-.-.-.-.-.-.-.-.-.-.-.-.-.-.-.-.-.-.-.-.-.-.-.-.-.-.-.-.-.-.-.-.-.-.-.-.-.-.",
"-.-.-.-.-.-.-.-.-.-.-.-.-.-.-.-.-.-.-.-.-.-.-.-.-.-.-.-.-.-.-.-.-.-.-.-.-.-.-.-.-.-.-.-.-.-.-.-.-.-.-.-.-.-.-.-.-.-.-.-.-.-.-.-.",
"-.-.-.-.-.-.-.-.-.-.-.-.-.-.-.-.-.-.-.-.-.-.-.-.-.-.-.-.-.-.-.-.-.-.-.-.-.-.-.-.-.-.-.-.-.-.-.-.-.-.-.-.-.-.-.-.-.-.-.-.-.-.-.-.",
"-.-.-.-.-.-.-.-.-.-.-.-.-.-.-.-.-.-.-.-.-.-.-.-.-.-.-.-.-.-.-.-.-.-.-.-.-.-.-.-.-.-.-.-.-.-.-.-.-.-.-.-.-.-.-.-.-.-.-.-.-.-.-.-.",
"-.-.-.-.-.-.-.-.-.-.-.-.-.-.-.-.-.-.-.-.-.-.-.-.-.-.-.-.-.-.-.-.-.-.-.-.-.-.-.-.-.-.-.-.-.-.-.-.-.-.-.-.-.-.-.-.-.-.-.-.-.-.-.-.",
"-.-.-.-.-.-.-.-.-.-.-.-.-.-.-.-.-.-.-.-.-.-.-.-.-.-.-.-.-.-.-.-.-.-.-.-.-.-.-.-.-.-.-.-.-.-.-.-.-.-.-.-.-.-.-.-.-.-.-.-.-.-.-.-."
};
