/* XPM */
static char *result[] = {
/* columns rows colors chars-per-pixel */
"64 64 175 2 ",
"   c #131D15",
".  c #171B1E",
"X  c #162216",
"o  c #18261A",
"O  c #1B2D1E",
"+  c #1E311F",
"@  c #233216",
"#  c #22351C",
"$  c #263B1E",
"%  c #283D1E",
"&  c #191B25",
"*  c #17182C",
"=  c #1A1B28",
"-  c #110F3D",
";  c #0D143C",
":  c #161536",
">  c #15143B",
",  c #1C2D20",
"<  c #122E2C",
"1  c #1E3220",
"2  c #1F3F27",
"3  c #14312D",
"4  c #1B3D2C",
"5  c #0C2B33",
"6  c #072E3B",
"7  c #143331",
"8  c #133B36",
"9  c #21232E",
"0  c #213521",
"q  c #253B22",
"w  c #293E23",
"e  c #213F28",
"r  c #2D2F38",
"t  c #2F303C",
"y  c #1E402E",
"u  c #164234",
"i  c #294223",
"p  c #2E4B24",
"a  c #22432B",
"s  c #23452A",
"d  c #2E4629",
"f  c #314D26",
"g  c #334B2B",
"h  c #34492C",
"j  c #2E532D",
"k  c #325227",
"l  c #345429",
"z  c #37592A",
"x  c #3A5D2C",
"c  c #3B403F",
"v  c #3B5532",
"b  c #3D5C32",
"n  c #3D622E",
"m  c #3E6130",
"M  c #415D35",
"N  c #445F38",
"B  c #436235",
"V  c #456B35",
"C  c #456339",
"Z  c #4A673A",
"A  c #4B6C3C",
"S  c #4B733A",
"D  c #120F40",
"F  c #0E1540",
"G  c #131145",
"H  c #151249",
"J  c #18154E",
"K  c #1A1652",
"L  c #1D1953",
"P  c #1E1A5B",
"I  c #201B5B",
"U  c #002D42",
"Y  c #07294A",
"T  c #003046",
"R  c #00344C",
"E  c #003750",
"W  c #003A52",
"Q  c #393A45",
"!  c #33344E",
"~  c #3A3B4A",
"^  c #2D2B5A",
"/  c #1F1B60",
"(  c #221D63",
")  c #231F6C",
"_  c #241F70",
"`  c #173C68",
"'  c #1F2B73",
"]  c #1F3674",
"[  c #282465",
"{  c #26206B",
"}  c #2A256D",
"|  c #393566",
" . c #262172",
".. c #2B2A74",
"X. c #312977",
"o. c #332B7C",
"O. c #27377F",
"+. c #253A7F",
"@. c #3B357F",
"#. c #195343",
"$. c #1F5D44",
"%. c #004A5B",
"&. c #125C52",
"*. c #3E4240",
"=. c #216047",
"-. c #2F6340",
";. c #3A6849",
":. c #2C7358",
">. c #004C60",
",. c #025266",
"<. c #1C457E",
"1. c #085D74",
"2. c #125A7F",
"3. c #0A6A65",
"4. c #066869",
"5. c #0C7069",
"6. c #1F7563",
"7. c #10716C",
"8. c #026373",
"9. c #016C76",
"0. c #086178",
"q. c #016E7A",
"w. c #057677",
"e. c #00727B",
"r. c #047C7C",
"t. c #525354",
"y. c #5E5E5B",
"u. c #406741",
"i. c #4F6A42",
"p. c #516E44",
"a. c #527146",
"s. c #547245",
"d. c #567846",
"f. c #547149",
"g. c #57754A",
"h. c #59774C",
"j. c #5B794C",
"k. c #62635E",
"l. c #627E53",
"z. c #5F5E68",
"x. c #5B5871",
"c. c #646460",
"v. c #0B807D",
"b. c #2F2981",
"n. c #352C84",
"m. c #382F85",
"M. c #392F88",
"N. c #2E3483",
"B. c #3C3385",
"V. c #32318A",
"C. c #3C328C",
"Z. c #3B3291",
"A. c #40368E",
"S. c #41388F",
"D. c #483F8F",
"F. c #413792",
"G. c #443996",
"H. c #413799",
"J. c #443998",
"K. c #453FA5",
"L. c #1B5887",
"P. c #0B6881",
"I. c #146F8E",
"U. c #037583",
"Y. c #007C83",
"T. c #097D8E",
"R. c #4E4786",
"E. c #504983",
"W. c #4942AD",
"Q. c #4E43B0",
"!. c #008186",
"~. c #00848A",
"^. c #008B8E",
"/. c #008E90",
"(. c None",
/* pixels */
"(.(.(.(.(.(.(.(.(.(.(.(.(.(.(.(.(.(.(.(.(.(.(.(.(.(.(.(.(.(.(.(.(.(.(.(.(.(.(.(.(.(.(.(.(.(.(.(.(.(.(.(.(.(.(.(.(.(.(.(.(.(.(.(.",
"(.(.(.(.(.(.(.(.(.(.(.(.(.(.(.(.(.(.(.(.(.(.(.(.(.(.(.(.(.(.(.(.(.(.(.(.(.(.(.(.(.(.(.(.(.(.(.(.(.(.(.(.(.(.(.(.(.(.(.(.(.(.(.(.",
"(.(.(.(.(.(.(.(.(.(.(.(.(.(.(.(.(.(.(.(.(.(.(.(.(.(.(.(.(.(.(.(.(.(.(.(.(.(.(.(.(.(.(.(.(.(.(.(.(.(.(.(.(.(.(.(.(.(.(.(.(.(.(.(.",
"(.(.(.(.(.(.(.(.(.(.(.(.(.(.(.(.(.(.(.(.(.(.(.(.(.(.(.(.(.(.(.(.(.(.(.(.(.(.(.(.(.(.(.(.(.(.(.(.(.(.(.(.(.(.(.(.(.(.(.(.(.(.(.(.",
"(.(.(.(.(.(.(.(.(.(.(.(.(.(.(.(.(.(.(.(.(.(.(.(.(.(.(.(.(.(.(.(.(.(.(.(.(.(.(.(.(.(.(.(.(.(.(.(.(.(.(.(.(.(.(.(.(.(.(.(.(.(.(.(.",
"(.(.(.(.(.(.(.(.(.(.(.(.(.(.(.(.(.(.(.(.(.(.(.z z l z z z z z z z l l l p q 0 + (.(.(.(.(.(.(.(.(.(.(.(.(.(.(.(.(.(.(.(.(.(.(.(.",
"(.(.(.(.(.(.(.(.(.(.(.(.(.(.(.(.(.(.(.(.(.(.z x x x z p k l z z w 0 q 1 , O O O O o (.(.(.(.(.(.(.(.(.(.(.(.(.(.(.(.(.(.(.(.(.(.",
"(.(.(.(.(.(.(.(.(.(.(.(.(.(.(.(.(.(.(.(.(.(.x z x n x x x x z l 0 1 1 , , O O O O O (.(.(.(.(.(.(.(.(.(.(.(.(.(.(.(.(.(.(.(.(.(.",
"(.(.(.(.(.(.(.(.(.(.(.(.(.(.(.(.(.(.(.(.(.(.z x m B n S S V z l 0 , , , O O O O O O (.(.(.(.(.(.(.(.(.(.(.(.(.(.(.(.(.(.(.(.(.(.",
"(.(.(.(.(.(.(.(.(.(.(.(.(.(.(.(.(.(.(.(.(.(.x A h.j.d.d.d.S n z 0 , , , , O O O O , (.(.(.(.(.(.(.(.(.(.(.(.(.(.(.(.(.(.(.(.(.(.",
"(.(.(.(.(.(.(.(.(.(.(.(.(.(.(.(.(.(.(.(.(.(.B a.h.j.l.j.j.g.A x 0 , O , , , O O , , (.(.(.(.(.(.(.(.(.(.(.(.(.(.(.(.(.(.(.(.(.(.",
"(.(.(.(.(.(.(.(.(.(.(.(.(.(.(.(.(.(.(.(.(.(.a.h.g.p.g.p.g.s.V n 0 , O O , , , , , O (.(.(.(.(.(.(.(.(.(.(.(.(.(.(.(.(.(.(.(.(.(.",
"(.(.(.(.(.(.(.(.(.(.(.(.(.(.(.(.(.(.(.(.(.(.a.b h M f.p.i.C n n q 1 , O O , , O O O (.(.(.(.(.(.(.(.(.(.(.(.(.(.(.(.(.(.(.(.(.(.",
"(.(.(.(.(.(.(.(.(.(.(.(.(.(.(.(.(.(.(.(.(.(.a.q   q a.h.h X i C w 1 O O O O O O O O (.(.(.(.(.(.(.(.(.(.(.(.(.(.(.(.(.(.(.(.(.(.",
"(.(.(.(.(.(.(.(.(.(.(.(.(.(.(.(.(.(.(.(.(.(.V C N b M C l O w C a 1 O O O O , O O O (.(.(.(.(.(.(.(.(.(.(.(.(.(.(.(.(.(.(.(.(.(.",
"(.(.(.(.(.(.(.(.(.(.(.(.(.(.(.(.(.(.(.(.(.(.n V s.a.g i B A x l 1 O O O O O , , O O (.(.(.(.(.(.(.(.(.(.(.(.(.(.(.(.(.(.(.(.(.(.",
"(.(.(.(.(.(.(.(.(.(.(.(.(.(.(.(.(.(.(.(.(.(.x n b b z l b B x p + O + + O O , , O , (.(.(.(.(.(.(.(.(.(.(.(.(.(.(.(.(.(.(.(.(.(.",
"(.(.(.(.(.(.(.(.(.(.(.(.(.(.(.(.(.(.(.(.(.(.j z k k z x k k x f O O + 1 + o , 1 O O (.(.(.(.(.(.(.(.(.(.(.(.(.(.(.(.(.(.(.(.(.(.",
"(.(.(.(.(.(.(.(.(.(.(.(.(.(.(.(.(.(.Z M C ;.j p p p p l p k z p O O + 0 # + 1 1 O O (.(.(.(.(.(.(.(.(.(.(.(.(.(.(.(.(.(.(.(.(.(.",
"(.(.(.(.(.(.(.(.(.(.(.g f B Z B b M v d d d i # a $.$.j k k z i O O 0 y #.#.&.5.3.(.(.(.(.(.(.(.(.(.(.(.(.(.(.(.(.(.(.(.(.(.(.(.",
"(.(.(.(.(.(.(.(.(.(.$ i $ d q 1 O + 1 1 + + + O u Y.v.-.x n x x b N C u.:.6.6.7.8.8.,.W (.(.(.(.(.(.(.(.(.(.(.(.(.(.(.(.(.(.(.(.",
"(.(.(.(.(.(.(.(.(.(.$ i # q q O O + 1 + O O O O e =.-.b C Z C M M v h d w 0 # 7 E E E E (.(.(.(.(.(.(.(.(.(.(.(.(.(.(.(.(.(.(.(.",
"(.(.(.(.(.(.(.(.(.(.% i # i q + + 1 1 + O O O + q % $ i % $ q # 1 1 1 1 O O O 3 T T T R (.(.(.(.(.(.(.(.(.(.(.(.(.(.(.(.(.(.(.(.",
"(.(.(.(.(.(.(.(.(.(.q $ w % 0 + O 1 1 1 + + 1 + q $ $ i # # 1 + O O + + 1 1 1 3 U U U R (.(.(.(.(.(.(.(.(.(.(.(.(.(.(.(.(.(.(.(.",
"(.(.(.(.(.(.(.(.(.(.$ # i # # 1 O 1 1 + + + # 1 q % # i # # + O O O + 1 1 1 1 < U U U R (.(.(.(.(.(.(.(.(.(.(.(.(.(.(.(.(.(.(.(.",
"(.(.(.(.(.(.(.(.(.(.q # i # # 1 1 + O O O O + # # % q % $ # 1 + + + + + 1 1 + < U T U R (.(.(.(.(.(.(.(.(.(.(.(.(.(.(.(.(.(.(.(.",
"(.(.(.(.(.(.(.(.(.(.(.(.(.# # + (.(.(.(.(.(.(.(.@ $ i # i 0 1 1 1 + + + + + 1 7 R R U R (.(.(.(.(.(.(.(.(.(.(.(.(.(.(.(.(.(.(.(.",
"(.(.(.(.(.(.(.(.(.(.(.(.(.(.(.(.(.(.(.(.(.(.(.(.(.$ % # i 0 1 + + O O O O 1 1 3 (.(.(.(.(.(.(.(.(.(.(.(.(.(.(.(.(.(.(.(.(.(.(.(.",
"(.(.(.(.(.(.(.(.(.(.(.(.(.(.(.(.(.(.(.(.(.(.(.(.(.s a 2 i 0 1 4 u u 8 < 5 6 6 (.(.(.(.(.(.(.(.(.(.(.(.(.(.(.(.(.(.(.(.(.(.(.(.(.",
"(.(.(.(.(.(.(.(.(.(.(.(.(.(.(.(.(.(.(.(.(.(.(.(.(.4.r.w.5.3.3.r.Y.e.%.U U U U (.(.(.(.(.(.(.(.(.(.(.(.(.(.(.(.(.(.(.(.(.(.(.(.(.",
"(.(.(.(.(.(.(.(.(.(.(.(.(.(.(.(.(.(.(.(.(.(.(.(.(.9.~.^.~.~./.^.~.e.%.U U U U (.(.(.(.(.(.(.(.(.(.(.(.(.(.(.(.(.(.(.(.(.(.(.(.(.",
"(.(.(.(.(.(.(.(.(.(.(.(.(.(.(.(.(.(.(.(.(.(.(.(.(.9.Y.^.~.!.^.^.Y.e.%.U U U U (.(.(.(.(.(.(.(.(.(.(.(.(.(.(.(.(.(.(.(.(.(.(.(.(.",
"(.(.(.(.(.(.(.(.(.(.(.(.(.(.(.(.(.(.(.(.(.(.(.(.(.e.Y.~.~.~.^.~.Y.9.%.T U U U (.(.(.(.(.(.(.(.(.(.(.(.(.(.(.(.(.(.(.(.(.(.(.(.(.",
"(.(.(.(.(.(.(.(.(.(.(.(.(.(.(.(.(.(.(.(.(.(.(.(.(.U.Y.~.~.~.^.~.Y.9.>.T U U R (.(.(.(.(.(.(.(.(.(.(.(.(.(.(.(.(.(.(.(.(.(.(.(.(.",
"(.(.(.(.(.(.(.(.(.(.(.(.(.(.(.(.(.(.(.(.(.(.(.(.(.9.e.Y.~.~.^.~.Y.q.>.T U U R (.(.(.(.(.(.(.(.(.(.(.(.(.(.(.(.(.(.(.(.(.(.(.(.(.",
"(.(.(.(.(.(.(.(.(.(.(.(.(.(.(.(.(.(.(.(.(.(.(.(.(.0.9.e.!.^./.~.Y.q.>.T U U R (.(.(.(.(.(.(.(.(.(.(.(.(.(.(.(.(.(.(.(.(.(.(.(.(.",
"(.(.(.(.(.(.(.(.(.(.(.(.(.(.(.(.(.(.(.(.(.(.(.(.(.O.+.<.L.I.T.U.Y.q.>.T U U Y (.(.(.(.(.(.(.(.(.(.(.(.(.(.(.(.(.(.(.(.(.(.(.(.(.",
"(.(.(.(.(.(.(.(.(.(.(.(.(.(.(.(.(.(.(.(.(.(.(.(.(.n.n.n.M.C.N.] U.e.>.U ; ; H (.(.(.(.(.(.(.(.(.(.(.(.(.(.(.(.(.(.(.(.(.(.(.(.(.",
"(.(.(.(.(.(.(.(.(.(.(.(.(.(.(.(.(.(.(.(.(.(.(.(.(.m.M.m.C.C.m...P.q.>.Y - - G (.(.(.(.(.(.(.(.(.(.(.(.(.(.(.(.(.(.(.(.(.(.(.(.(.",
"(.(.(.(.(.(.(.(.(.(.(.(.(.(.(.(.(.(.(.(.(.(.(.(.C.C.C.F.F.m.m.n.' 1.%.F - G H (.(.(.(.(.(.(.(.(.(.(.(.(.(.(.(.(.(.(.(.(.(.(.(.(.",
"(.(.(.(.(.(.(.(.(.(.(.(.(.(.(.(.(.(.(.(.(.(.(.(.C.C.F.G.C.P } H.V.2.` I P G G G (.(.(.(.(.(.(.(.(.(.(.(.(.(.(.(.(.(.(.(.(.(.(.(.",
"(.(.(.(.(.(.(.(.(.(.(.(.(.(.(.(.(.(.(.(.(.(.(.(.F.F.G.G.X.J m.Q.W.W.K.C.L G - G (.(.(.(.(.(.(.(.(.(.(.(.(.(.(.(.(.(.(.(.(.(.(.(.",
"(.(.(.(.(.(.(.(.(.(.(.(.(.(.(.(.(.(.(.(.(.(.(.F.G.G.G.F.( G { b.n.Z.C.I - - - G G (.(.(.(.(.(.(.(.(.(.(.(.(.(.(.(.(.(.(.(.(.(.(.",
"(.(.(.(.(.(.(.(.(.(.(.(.(.(.(.(.(.(.(.(.(.(.(.G.G.G.G.B.J - K  . . .{ K G - - - G (.(.(.(.(.(.(.(.(.(.(.(.(.(.(.(.(.(.(.(.(.(.(.",
"(.(.(.(.(.(.(.(.(.(.(.(.(.(.(.(.(.(.(.(.(.(.(.G.G.G.G...G - G )  . . ./ H G G - G (.(.(.(.(.(.(.(.(.(.(.(.(.(.(.(.(.(.(.(.(.(.(.",
"(.(.(.(.(.(.(.(.(.(.(.(.(.(.(.(.(.(.(.(.(.(.G.F.F.G.A.P G D G /  . . .) K H G - - G (.(.(.(.(.(.(.(.(.(.(.(.(.(.(.(.(.(.(.(.(.(.",
"(.(.(.(.(.(.(.(.(.(.(.(.(.(.(.(.(.(.(.(.(.(.A.B.@.S.o.H G G G J  . . . .P H G G - G (.(.(.(.(.(.(.(.(.(.(.(.(.(.(.(.(.(.(.(.(.(.",
"(.(.(.(.(.(.(.(.(.(.(.(.(.(.(.(.(.(.(.(.(.G.F.A.B.A.( G - - G (.(. . . .) J H G - G G (.(.(.(.(.(.(.(.(.(.(.(.(.(.(.(.(.(.(.(.(.",
"(.(.(.(.(.(.(.(.(.(.(.(.(.(.(.(.(.(.(.(.(.F.G.G.G.C.K - - - G (.(. . . . .P H G D - G (.(.(.(.(.(.(.(.(.(.(.(.(.(.(.(.(.(.(.(.(.",
"(.(.(.(.(.(.(.(.(.(.(.(.(.(.(.(.(.(.(.(.(.G.G.G.G.X.G - - G G (.(.(.) ( ) ) J H G D G G (.(.(.(.(.(.(.(.(.(.(.(.(.(.(.(.(.(.(.(.",
"(.(.(.(.(.(.(.(.(.(.(.(.(.(.(.(.(.(.(.(.G.G.G.G.F.( - - G G (.(.(.(. .) )  .P G H H H G (.(.(.(.(.(.(.(.(.(.(.(.(.(.(.(.(.(.(.(.",
"(.(.(.(.(.(.(.(.(.(.(.(.(.(.(.(.(.(.(.(.J.G.G.G.m.J - D H G (.(.(.(. . . . .( H H H H > = (.(.(.(.(.(.(.(.(.(.(.(.(.(.(.(.(.(.(.",
"(.(.(.(.(.(.(.(.(.(.(.(.(.(.(.(.(.(.(.G.J.G.G.G.{ H G G H (.(.(.(.(.(. . . . .K G H > = = (.(.(.(.(.(.(.(.(.(.(.(.(.(.(.(.(.(.(.",
"(.(.(.(.(.(.(.(.(.(.(.(.(.(.(.(.(.(.(.E.R.D.G.C.K G H H H (.(.(.(.(.(.)  . . .( J H > = = (.(.(.(.(.(.(.(.(.(.(.(.(.(.(.(.(.(.(.",
"(.(.(.(.(.(.(.(.(.(.(.(.(.(.(.(.(.(.(.c.c.z.x.| G G > > G (.(.(.(.(.(.(._ _  ._ K G : = = = (.(.(.(.(.(.(.(.(.(.(.(.(.(.(.(.(.(.",
"(.(.(.(.(.(.(.(.(.(.(.(.(.(.(.(.(.(.c.c.c.c.y.t * : = = (.(.(.(.(.(.(.(.^ ^ [ } P > = = = (.(.(.(.(.(.(.(.(.(.(.(.(.(.(.(.(.(.(.",
"(.(.(.(.(.(.(.(.(.(.(.(.(.(.(.(.(.(.y.y.k.c.t.9 = = = = (.(.(.(.(.(.(.(.(.~ ~ ~ ! 9 = = (.(.(.(.(.(.(.(.(.(.(.(.(.(.(.(.(.(.(.(.",
"(.(.(.(.(.(.(.(.(.(.(.(.(.(.(.(.(.(.(.(.*.c r = = = = = (.(.(.(.(.(.(.(.(.(.Q Q ~ r = (.(.(.(.(.(.(.(.(.(.(.(.(.(.(.(.(.(.(.(.(.",
"(.(.(.(.(.(.(.(.(.(.(.(.(.(.(.(.(.(.(.(.(.    . = = = (.(.(.(.(.(.(.(.(.(.(.(.(.(.(.(.(.(.(.(.(.(.(.(.(.(.(.(.(.(.(.(.(.(.(.(.(.",
"(.(.(.(.(.(.(.(.(.(.(.(.(.(.(.(.(.(.(.(.(.(.(.(.(.& = (.(.(.(.(.(.(.(.(.(.(.(.(.(.(.(.(.(.(.(.(.(.(.(.(.(.(.(.(.(.(.(.(.(.(.(.(.",
"(.(.(.(.(.(.(.(.(.(.(.(.(.(.(.(.(.(.(.(.(.(.(.(.(.(.(.(.(.(.(.(.(.(.(.(.(.(.(.(.(.(.(.(.(.(.(.(.(.(.(.(.(.(.(.(.(.(.(.(.(.(.(.(.",
"(.(.(.(.(.(.(.(.(.(.(.(.(.(.(.(.(.(.(.(.(.(.(.(.(.(.(.(.(.(.(.(.(.(.(.(.(.(.(.(.(.(.(.(.(.(.(.(.(.(.(.(.(.(.(.(.(.(.(.(.(.(.(.(.",
"(.(.(.(.(.(.(.(.(.(.(.(.(.(.(.(.(.(.(.(.(.(.(.(.(.(.(.(.(.(.(.(.(.(.(.(.(.(.(.(.(.(.(.(.(.(.(.(.(.(.(.(.(.(.(.(.(.(.(.(.(.(.(.(.",
"(.(.(.(.(.(.(.(.(.(.(.(.(.(.(.(.(.(.(.(.(.(.(.(.(.(.(.(.(.(.(.(.(.(.(.(.(.(.(.(.(.(.(.(.(.(.(.(.(.(.(.(.(.(.(.(.(.(.(.(.(.(.(.(."
};
