/* XPM */
static char *result[] = {
/* columns rows colors chars-per-pixel */
"64 64 146 2 ",
"   c #141D14",
".  c #152116",
"X  c #172619",
"o  c #19251A",
"O  c #1B2C1C",
"+  c #1D311E",
"@  c #23381E",
"#  c #142720",
"$  c #1C2D20",
"%  c #1E3221",
"&  c #113233",
"*  c #123831",
"=  c #252F28",
"-  c #2C2F2D",
";  c #233523",
":  c #243A23",
">  c #2A342B",
",  c #2B392B",
"<  c #2E2F3F",
"1  c #2E3230",
"2  c #2D3C30",
"3  c #2F313A",
"4  c #333434",
"5  c #313A30",
"6  c #31313A",
"7  c #363E39",
"8  c #274123",
"9  c #2A4524",
"0  c #2D4A26",
"q  c #284128",
"w  c #2F4828",
"e  c #304E26",
"r  c #354C2C",
"t  c #325327",
"y  c #355827",
"u  c #345529",
"i  c #3A552E",
"p  c #36592A",
"a  c #395D2B",
"s  c #2D4336",
"d  c #2A4A30",
"f  c #374333",
"g  c #364D32",
"h  c #35473E",
"j  c #23533D",
"k  c #3B5435",
"l  c #345D34",
"z  c #3E5F30",
"x  c #3C622C",
"c  c #3B6130",
"v  c #3B6B36",
"b  c #415236",
"n  c #415E32",
"m  c #425935",
"M  c #416531",
"N  c #446735",
"B  c #426931",
"V  c #43663D",
"C  c #45693B",
"Z  c #49693C",
"A  c #4A683C",
"S  c #4C6A3D",
"D  c #1F1B4E",
"F  c #1E1C52",
"G  c #1F1B5C",
"H  c #201B4F",
"J  c #211D54",
"K  c #241E5B",
"L  c #1D245E",
"P  c #14295B",
"I  c #1E2A5C",
"U  c #133053",
"Y  c #133B5F",
"T  c #2B2D44",
"R  c #2A274F",
"E  c #2B2A4A",
"W  c #292752",
"Q  c #26205E",
"!  c #1F1B67",
"~  c #1F1B6A",
"^  c #221D64",
"/  c #201C6A",
"(  c #241F72",
")  c #1A2466",
"_  c #1D2B60",
"`  c #0F3166",
"'  c #093C67",
"]  c #0D376B",
"[  c #133262",
"{  c #173470",
"}  c #262060",
"|  c #23296D",
" . c #2A2375",
".. c #2B257D",
"X. c #0D4E47",
"o. c #01494E",
"O. c #15474A",
"+. c #165444",
"@. c #1F5248",
"#. c #10584A",
"$. c #004E51",
"%. c #09445E",
"&. c #174E50",
"*. c #015455",
"=. c #035459",
"-. c #045B5C",
";. c #105C52",
":. c #145258",
">. c #214E4C",
",. c #0F675C",
"<. c #186755",
"1. c #136759",
"2. c #276847",
"3. c #246A49",
"4. c #296C49",
"5. c #2D6F4A",
"6. c #2F7148",
"7. c #37724E",
"8. c #27795E",
"9. c #064564",
"0. c #0A4463",
"q. c #074866",
"w. c #0B4C65",
"e. c #06466D",
"r. c #09456E",
"t. c #054B6B",
"y. c #094D69",
"u. c #0B5166",
"i. c #005F60",
"p. c #065F62",
"a. c #095A64",
"s. c #06506B",
"d. c #08526A",
"f. c #056364",
"g. c #086264",
"h. c #04646A",
"j. c #026869",
"k. c #01696A",
"l. c #006A6D",
"z. c #006C6D",
"x. c #177E6D",
"c. c #006E70",
"v. c #037E7E",
"b. c #07857F",
"n. c #048482",
"m. c None",
/* pixels */
"m.m.m.m.m.m.m.m.m.m.m.m.m.m.m.m.m.m.m.m.m.m.m.m.m.m.m.m.m.m.m.m.m.m.m.m.m.m.m.m.m.m.m.m.m.m.m.m.m.m.m.m.m.m.m.m.m.m.m.m.m.m.m.m.",
"m.m.m.m.m.m.m.m.m.m.m.m.m.m.m.m.m.m.m.m.m.m.m.m.m.m.m.m.m.m.m.m.m.m.m.m.m.m.m.m.m.m.m.m.m.m.m.m.m.m.m.m.m.m.m.m.m.m.m.m.m.m.m.m.",
"m.m.m.m.m.m.m.m.m.m.m.m.m.m.m.m.m.m.m.m.m.m.m.m.m.m.m.m.m.m.m.m.m.m.m.m.m.m.m.m.m.m.m.m.m.m.m.m.m.m.m.m.m.m.m.m.m.m.m.m.m.m.m.m.",
"m.m.m.m.m.m.m.m.m.m.m.m.m.m.m.m.m.m.m.m.m.m.m.m.m.m.m.m.m.m.m.m.m.m.m.m.m.m.m.m.m.m.m.m.m.m.m.m.m.m.m.m.m.m.m.m.m.m.m.m.m.m.m.m.",
"m.m.m.m.m.m.m.m.m.m.m.m.m.m.m.m.m.m.m.m.m.m.m.m.m.m.m.m.m.m.m.m.m.m.m.m.m.m.m.m.m.m.m.m.m.m.m.m.m.m.m.m.m.m.m.m.m.m.m.m.m.m.m.m.",
"m.m.m.m.m.m.m.m.m.m.m.m.m.m.m.m.m.m.m.m.m.m.m.m.u t t a a u u u t t t t 0 9 8 % $ m.m.m.m.m.m.m.m.m.m.m.m.m.m.m.m.m.m.m.m.m.m.m.",
"m.m.m.m.m.m.m.m.m.m.m.m.m.m.m.m.m.m.m.m.m.m.m.t t t t t u a a a a p : ; % O O $ $ m.m.m.m.m.m.m.m.m.m.m.m.m.m.m.m.m.m.m.m.m.m.m.",
"m.m.m.m.m.m.m.m.m.m.m.m.m.m.m.m.m.m.m.m.m.m.t t t t t t u a a a x a ; $ % % : % $ O m.m.m.m.m.m.m.m.m.m.m.m.m.m.m.m.m.m.m.m.m.m.",
"m.m.m.m.m.m.m.m.m.m.m.m.m.m.m.m.m.m.m.m.m.m.u u t e t t a p u p x a ; $ % ; 9 ; % % m.m.m.m.m.m.m.m.m.m.m.m.m.m.m.m.m.m.m.m.m.m.",
"m.m.m.m.m.m.m.m.m.m.m.m.m.m.m.m.m.m.m.m.m.m.p u u t t u p u u u a a ; > 2 s f 5 : ; m.m.m.m.m.m.m.m.m.m.m.m.m.m.m.m.m.m.m.m.m.m.",
"m.m.m.m.m.m.m.m.m.m.m.m.m.m.m.m.m.m.m.m.m.m.u u t t u u u u t e u t ; 4 7 h f 4 ; ; m.m.m.m.m.m.m.m.m.m.m.m.m.m.m.m.m.m.m.m.m.m.",
"m.m.m.m.m.m.m.m.m.m.m.m.m.m.m.m.m.m.m.m.m.m.u t p a a a u u t u a p , 4 4 4 , > % ; m.m.m.m.m.m.m.m.m.m.m.m.m.m.m.m.m.m.m.m.m.m.",
"m.m.m.m.m.m.m.m.m.m.m.m.m.m.m.m.m.m.m.m.m.m.t u u p a p u t u a a a 5 - > 4 ; o O ; m.m.m.m.m.m.m.m.m.m.m.m.m.m.m.m.m.m.m.m.m.m.",
"m.m.m.m.m.m.m.m.m.m.m.m.m.m.m.m.m.m.m.m.m.m.t t t u u t 0 t p x M M >   X 4 -   . ; m.m.m.m.m.m.m.m.m.m.m.m.m.m.m.m.m.m.m.m.m.m.",
"m.m.m.m.m.m.m.m.m.m.m.m.m.m.m.m.m.m.m.m.m.m.t t u u u u u u p x B M > o $ = = ; + O m.m.m.m.m.m.m.m.m.m.m.m.m.m.m.m.m.m.m.m.m.m.",
"m.m.m.m.m.m.m.m.m.m.m.m.m.m.m.m.m.m.m.m.m.m.u u u u u u a p y x a t : , > O O ; + O m.m.m.m.m.m.m.m.m.m.m.m.m.m.m.m.m.m.m.m.m.m.",
"m.m.m.m.m.m.m.m.m.m.m.m.m.m.m.m.m.m.m.m.m.m.u p u a e 9 x a p a p t : > ; + O O O O m.m.m.m.m.m.m.m.m.m.m.m.m.m.m.m.m.m.m.m.m.m.",
"m.m.m.m.m.m.m.m.m.m.m.m.m.m.m.m.m.m.m.m.m.m.u p t a 0 9 a x x u t 0 @ + O + O O O O m.m.m.m.m.m.m.m.m.m.m.m.m.m.m.m.m.m.m.m.m.m.",
"m.m.m.m.m.m.m.m.m.m.m.m.m.m.m.m.m.m.m.m.m.m.m.t u x p t x x x u e 9 + X O O O O O : f g k b m N S S m.m.m.m.m.m.m.m.m.m.m.m.m.m.",
"m.m.m.m.m.m.m.m.m.m.m.m.m.m.m.m.m.m.m.m.m.m.m.m.2.5.4.3.6.v x a t 9 O . # & * + 8 0 r t u i n c a n i ; O . m.m.m.m.m.m.m.m.m.m.",
"m.m.m.m.m.m.m.m.m.m.m.m.m.m.m.m.m.m.m.m.m.m.l.c.v.n.b.x.8.7.C S A n r w d >.O.q w 0 0 e t u a a u u @   .   m.m.m.m.m.m.m.m.m.m.",
"m.m.m.m.m.m.m.m.m.m.m.m.m.m.m.m.m.m.m.m.m.i.k.k.k.z.,.p a a z M N N Z Z Z Z V m r ; @ 0 e u u a a a @       m.m.m.m.m.m.m.m.m.m.",
"m.m.m.m.m.m.m.m.m.m.m.m.m.m.m.m.m.m.m.m.m.k.f.-.f.f.;.p u p p a x x x x x x u O .   O 9 0 t u a x x @     . m.m.m.m.m.m.m.m.m.m.",
"m.m.m.m.m.m.m.m.m.m.m.m.m.m.m.m.m.m.m.m.m.k.p.*.*.*.#.x x x x x a p p a a x t       O 0 e t p a a x @ .     m.m.m.m.m.m.m.m.m.m.",
"m.m.m.m.m.m.m.m.m.m.m.m.m.m.m.m.m.m.m.m.m.k.f.*.*.*.#.x x x x x a p u u u a t       O 9 0 e u a a x @ .   . m.m.m.m.m.m.m.m.m.m.",
"m.m.m.m.m.m.m.m.m.m.m.m.m.m.m.m.m.m.m.m.m.j.g.*.=.=.+.x x x x x x a a a a x t       X 8 8 0 u x x x @     m.m.m.m.m.m.m.m.m.m.m.",
"m.m.m.m.m.m.m.m.m.m.m.m.m.m.m.m.m.m.m.m.m.-.p.=.g.h.<.x x x a a a a x x x x u .   .   m.m.m.m.m.m.m.m.m.m.m.m.m.m.m.m.m.m.m.m.m.",
"m.m.m.m.m.m.m.m.m.m.m.m.m.m.m.m.m.m.m.m.m.m.m.=.f.j.1.c a a u u p u a x x x t X   .   m.m.m.m.m.m.m.m.m.m.m.m.m.m.m.m.m.m.m.m.m.",
"m.m.m.m.m.m.m.m.m.m.m.m.m.m.m.m.m.m.m.m.m.m.m.m.m.*.*.X.X.+.j j @.j l l l c t O . X m.m.m.m.m.m.m.m.m.m.m.m.m.m.m.m.m.m.m.m.m.m.",
"m.m.m.m.m.m.m.m.m.m.m.m.m.m.m.m.m.m.m.m.m.m.m.m.m.o.o.o.o.$.=.0.w.u.w.w.w.:.&.m.m.m.m.m.m.m.m.m.m.m.m.m.m.m.m.m.m.m.m.m.m.m.m.m.",
"m.m.m.m.m.m.m.m.m.m.m.m.m.m.m.m.m.m.m.m.m.m.m.m.m.*.$.o.o.$.=.0.w.w.e.t.s.w.q.m.m.m.m.m.m.m.m.m.m.m.m.m.m.m.m.m.m.m.m.m.m.m.m.m.",
"m.m.m.m.m.m.m.m.m.m.m.m.m.m.m.m.m.m.m.m.m.m.m.m.m.-.=.o.o.*.=.0.t.t.r.w.y.w.q.m.m.m.m.m.m.m.m.m.m.m.m.m.m.m.m.m.m.m.m.m.m.m.m.m.",
"m.m.m.m.m.m.m.m.m.m.m.m.m.m.m.m.m.m.m.m.m.m.m.m.m.j.g.*.*.-.a.q.s.d.e.w.y.w.t.m.m.m.m.m.m.m.m.m.m.m.m.m.m.m.m.m.m.m.m.m.m.m.m.m.",
"m.m.m.m.m.m.m.m.m.m.m.m.m.m.m.m.m.m.m.m.m.m.m.m.m.k.f.*.*.-.p.0.d.d.t.w.u.w.w.m.m.m.m.m.m.m.m.m.m.m.m.m.m.m.m.m.m.m.m.m.m.m.m.m.",
"m.m.m.m.m.m.m.m.m.m.m.m.m.m.m.m.m.m.m.m.m.m.m.m.m.k.f.*.*.p.h.w.w.u.w.y.w.y.q.m.m.m.m.m.m.m.m.m.m.m.m.m.m.m.m.m.m.m.m.m.m.m.m.m.",
"m.m.m.m.m.m.m.m.m.m.m.m.m.m.m.m.m.m.m.m.m.m.m.m.m.h.f.=.=.f.h.y.w.q.t.t.t.t.0.m.m.m.m.m.m.m.m.m.m.m.m.m.m.m.m.m.m.m.m.m.m.m.m.m.",
"m.m.m.m.m.m.m.m.m.m.m.m.m.m.m.m.m.m.m.m.m.m.m.m.m.a.a.=.j.k.h.9.0.' ] { [ q.0.m.m.m.m.m.m.m.m.m.m.m.m.m.m.m.m.m.m.m.m.m.m.m.m.m.",
"m.m.m.m.m.m.m.m.m.m.m.m.m.m.m.m.m.m.m.m.m.m.m.m.m._ I U Y Y %.` ) ) / / L 0.%.m.m.m.m.m.m.m.m.m.m.m.m.m.m.m.m.m.m.m.m.m.m.m.m.m.",
"m.m.m.m.m.m.m.m.m.m.m.m.m.m.m.m.m.m.m.m.m.m.m.m.m.Q K H K J F ! ! / / / ^ P m.m.m.m.m.m.m.m.m.m.m.m.m.m.m.m.m.m.m.m.m.m.m.m.m.m.",
"m.m.m.m.m.m.m.m.m.m.m.m.m.m.m.m.m.m.m.m.m.m.m.m.m.Q K D K Q K / ! ! ! (  .| m.m.m.m.m.m.m.m.m.m.m.m.m.m.m.m.m.m.m.m.m.m.m.m.m.m.",
"m.m.m.m.m.m.m.m.m.m.m.m.m.m.m.m.m.m.m.m.m.m.m.m.m.m.m.J Q Q K ! ! ! / ....( m.m.m.m.m.m.m.m.m.m.m.m.m.m.m.m.m.m.m.m.m.m.m.m.m.m.",
"m.m.m.m.m.m.m.m.m.m.m.m.m.m.m.m.m.m.m.m.m.m.m.m.m.m.K Q J J Q / ~ ! ! / ! ! m.m.m.m.m.m.m.m.m.m.m.m.m.m.m.m.m.m.m.m.m.m.m.m.m.m.",
"m.m.m.m.m.m.m.m.m.m.m.m.m.m.m.m.m.m.m.m.m.m.m.m.m.m.Q K J H Q ^ ! / ! ! ! ! m.m.m.m.m.m.m.m.m.m.m.m.m.m.m.m.m.m.m.m.m.m.m.m.m.m.",
"m.m.m.m.m.m.m.m.m.m.m.m.m.m.m.m.m.m.m.m.m.m.m.m.m.m.K J D J Q ^ ! ~ ! ! / m.m.m.m.m.m.m.m.m.m.m.m.m.m.m.m.m.m.m.m.m.m.m.m.m.m.m.",
"m.m.m.m.m.m.m.m.m.m.m.m.m.m.m.m.m.m.m.m.m.m.m.m.m.m.Q J D K Q ^ ! ~ ~ ~ ! m.m.m.m.m.m.m.m.m.m.m.m.m.m.m.m.m.m.m.m.m.m.m.m.m.m.m.",
"m.m.m.m.m.m.m.m.m.m.m.m.m.m.m.m.m.m.m.m.m.m.m.m.m.m.K J D K Q } / ~ ~ ! ! m.m.m.m.m.m.m.m.m.m.m.m.m.m.m.m.m.m.m.m.m.m.m.m.m.m.m.",
"m.m.m.m.m.m.m.m.m.m.m.m.m.m.m.m.m.m.m.m.m.m.m.m.m.m.m.K D J Q Q / ~ ~ ~ ! m.m.m.m.m.m.m.m.m.m.m.m.m.m.m.m.m.m.m.m.m.m.m.m.m.m.m.",
"m.m.m.m.m.m.m.m.m.m.m.m.m.m.m.m.m.m.m.m.m.m.m.m.m.m.m.Q J J Q Q ^ ~ ! ! ! m.m.m.m.m.m.m.m.m.m.m.m.m.m.m.m.m.m.m.m.m.m.m.m.m.m.m.",
"m.m.m.m.m.m.m.m.m.m.m.m.m.m.m.m.m.m.m.m.m.m.m.m.m.m.m.Q J J Q Q ^ ! K G / m.m.m.m.m.m.m.m.m.m.m.m.m.m.m.m.m.m.m.m.m.m.m.m.m.m.m.",
"m.m.m.m.m.m.m.m.m.m.m.m.m.m.m.m.m.m.m.m.m.m.m.m.m.m.m.Q K D Q Q ^ / K K / m.m.m.m.m.m.m.m.m.m.m.m.m.m.m.m.m.m.m.m.m.m.m.m.m.m.m.",
"m.m.m.m.m.m.m.m.m.m.m.m.m.m.m.m.m.m.m.m.m.m.m.m.m.m.m.Q K D K Q Q / / / ! m.m.m.m.m.m.m.m.m.m.m.m.m.m.m.m.m.m.m.m.m.m.m.m.m.m.m.",
"m.m.m.m.m.m.m.m.m.m.m.m.m.m.m.m.m.m.m.m.m.m.m.m.m.m.Q Q K F J Q Q ^ ~ ! / m.m.m.m.m.m.m.m.m.m.m.m.m.m.m.m.m.m.m.m.m.m.m.m.m.m.m.",
"m.m.m.m.m.m.m.m.m.m.m.m.m.m.m.m.m.m.m.m.m.m.m.m.m.m.R Q Q J J Q Q ^ / ! ! m.m.m.m.m.m.m.m.m.m.m.m.m.m.m.m.m.m.m.m.m.m.m.m.m.m.m.",
"m.m.m.m.m.m.m.m.m.m.m.m.m.m.m.m.m.m.m.m.m.m.m.m.m.m.4 T Q Q Q Q Q ^ ! ! ! ! m.m.m.m.m.m.m.m.m.m.m.m.m.m.m.m.m.m.m.m.m.m.m.m.m.m.",
"m.m.m.m.m.m.m.m.m.m.m.m.m.m.m.m.m.m.m.m.m.m.m.m.m.m.4 4 R Q Q Q Q } / ~ ~ / m.m.m.m.m.m.m.m.m.m.m.m.m.m.m.m.m.m.m.m.m.m.m.m.m.m.",
"m.m.m.m.m.m.m.m.m.m.m.m.m.m.m.m.m.m.m.m.m.m.m.m.m.1 4 4 E Q Q Q Q Q / ~ ~ / m.m.m.m.m.m.m.m.m.m.m.m.m.m.m.m.m.m.m.m.m.m.m.m.m.m.",
"m.m.m.m.m.m.m.m.m.m.m.m.m.m.m.m.m.m.m.m.m.m.m.m.m.4 4 4 6 T T E } Q ^ / ^ W m.m.m.m.m.m.m.m.m.m.m.m.m.m.m.m.m.m.m.m.m.m.m.m.m.m.",
"m.m.m.m.m.m.m.m.m.m.m.m.m.m.m.m.m.m.m.m.m.m.m.m.m.m.4 4 4 4 4 6 W W E E T T T m.m.m.m.m.m.m.m.m.m.m.m.m.m.m.m.m.m.m.m.m.m.m.m.m.",
"m.m.m.m.m.m.m.m.m.m.m.m.m.m.m.m.m.m.m.m.m.m.m.m.m.m.m.m.4 4 4 4 4 4 4 < T T T m.m.m.m.m.m.m.m.m.m.m.m.m.m.m.m.m.m.m.m.m.m.m.m.m.",
"m.m.m.m.m.m.m.m.m.m.m.m.m.m.m.m.m.m.m.m.m.m.m.m.m.m.m.m.m.4 4 4 4 4 4 3 T T T m.m.m.m.m.m.m.m.m.m.m.m.m.m.m.m.m.m.m.m.m.m.m.m.m.",
"m.m.m.m.m.m.m.m.m.m.m.m.m.m.m.m.m.m.m.m.m.m.m.m.m.m.m.m.m.m.4 4 4 4 4 3 m.m.m.m.m.m.m.m.m.m.m.m.m.m.m.m.m.m.m.m.m.m.m.m.m.m.m.m.",
"m.m.m.m.m.m.m.m.m.m.m.m.m.m.m.m.m.m.m.m.m.m.m.m.m.m.m.m.m.m.m.m.m.m.m.m.m.m.m.m.m.m.m.m.m.m.m.m.m.m.m.m.m.m.m.m.m.m.m.m.m.m.m.m.",
"m.m.m.m.m.m.m.m.m.m.m.m.m.m.m.m.m.m.m.m.m.m.m.m.m.m.m.m.m.m.m.m.m.m.m.m.m.m.m.m.m.m.m.m.m.m.m.m.m.m.m.m.m.m.m.m.m.m.m.m.m.m.m.m.",
"m.m.m.m.m.m.m.m.m.m.m.m.m.m.m.m.m.m.m.m.m.m.m.m.m.m.m.m.m.m.m.m.m.m.m.m.m.m.m.m.m.m.m.m.m.m.m.m.m.m.m.m.m.m.m.m.m.m.m.m.m.m.m.m."
};
