/* XPM */
static char *result[] = {
/* columns rows colors chars-per-pixel */
"64 64 164 2 ",
"   c #131D14",
".  c #152116",
"X  c #182317",
"o  c #172418",
"O  c #182619",
"+  c #1A2B1C",
"@  c #1D321E",
"#  c #202D1F",
"$  c #21321E",
"%  c #142621",
"&  c #172C23",
"*  c #1E3422",
"=  c #193C2E",
"-  c #153C35",
";  c #113D39",
":  c #242F21",
">  c #223622",
",  c #293427",
"<  c #243B23",
"1  c #2A3E26",
"2  c #2A352B",
"3  c #2C3D2A",
"4  c #313B2D",
"5  c #333434",
"6  c #353F31",
"7  c #33333C",
"8  c #1F453A",
"9  c #134D3F",
"0  c #194E3A",
"q  c #1F5037",
"w  c #274023",
"e  c #294325",
"r  c #2E4B25",
"t  c #27412A",
"y  c #2E412B",
"u  c #2C4B2A",
"i  c #304D26",
"p  c #31442D",
"a  c #354C2D",
"s  c #2F502A",
"d  c #335327",
"f  c #355827",
"g  c #355628",
"h  c #38572D",
"j  c #365929",
"k  c #395C2B",
"l  c #2C4334",
"z  c #2F4937",
"x  c #2E4939",
"c  c #344532",
"v  c #394535",
"b  c #334A35",
"n  c #394A36",
"m  c #36473B",
"M  c #384739",
"N  c #364A3A",
"B  c #2D5B34",
"V  c #355231",
"C  c #325C31",
"Z  c #3B5B32",
"A  c #395338",
"S  c #3C612B",
"D  c #3E652D",
"F  c #366031",
"G  c #3E6733",
"H  c #35693C",
"J  c #405B33",
"K  c #41642F",
"L  c #426434",
"P  c #456933",
"I  c #4A653A",
"U  c #4B6A3B",
"Y  c #4D6A3D",
"T  c #1F1B4E",
"R  c #1F1E50",
"E  c #211C54",
"W  c #231E5C",
"Q  c #0C3647",
"!  c #1B2756",
"~  c #16265B",
"^  c #18265D",
"/  c #093D51",
"(  c #0F3C5F",
")  c #14345D",
"_  c #2F2E49",
"`  c #3A3B46",
"'  c #3A3A4C",
"]  c #2C2A51",
"[  c #25215E",
"{  c #28245B",
"}  c #2E2C5D",
"|  c #373558",
" . c #1F1B65",
".. c #1E1B69",
"X. c #221D64",
"o. c #221D6C",
"O. c #251F71",
"+. c #1C216C",
"@. c #182B6B",
"#. c #0F3466",
"$. c #0A3D69",
"%. c #153068",
"&. c #262162",
"*. c #292167",
"=. c #25206C",
"-. c #2F296E",
";. c #20366B",
":. c #262173",
">. c #292376",
",. c #2C2579",
"<. c #07404B",
"1. c #0B424D",
"2. c #01494E",
"3. c #12494B",
"4. c #0B554E",
"5. c #0D4357",
"6. c #004D51",
"7. c #07465D",
"8. c #0A485D",
"9. c #144F52",
"0. c #114D58",
"q. c #015455",
"w. c #0A5B55",
"e. c #03565A",
"r. c #0E515A",
"t. c #025A5B",
"y. c #0E5D58",
"u. c #155152",
"i. c #1B5858",
"p. c #344A44",
"a. c #0D655F",
"s. c #19725D",
"d. c #296241",
"f. c #2E6B45",
"g. c #3D6F49",
"h. c #3D724E",
"j. c #217257",
"k. c #32775A",
"l. c #0E4263",
"z. c #054D65",
"x. c #0C4B65",
"c. c #05466B",
"v. c #09406D",
"b. c #034D6C",
"n. c #084D69",
"m. c #0B5066",
"M. c #045F62",
"N. c #04516D",
"B. c #08506A",
"V. c #075D69",
"C. c #004F70",
"Z. c #005573",
"A. c #005973",
"S. c #036364",
"D. c #036569",
"F. c #016969",
"G. c #05726F",
"H. c #197B67",
"J. c #217B64",
"K. c #446D43",
"L. c #0B847C",
"P. c #2C2685",
"I. c #302984",
"U. c None",
/* pixels */
"U.U.U.U.U.U.U.U.U.U.U.U.U.U.U.U.U.U.U.U.U.U.U.U.U.U.U.U.U.U.U.U.U.U.U.U.U.U.U.U.U.U.U.U.U.U.U.U.U.U.U.U.U.U.U.U.U.U.U.U.U.U.U.U.",
"U.U.U.U.U.U.U.U.U.U.U.U.U.U.U.U.U.U.U.U.U.U.U.U.U.U.U.U.U.U.U.U.U.U.U.U.U.U.U.U.U.U.U.U.U.U.U.U.U.U.U.U.U.U.U.U.U.U.U.U.U.U.U.U.",
"U.U.U.U.U.U.U.U.U.U.U.U.U.U.U.U.U.U.U.U.U.U.U.U.U.U.U.U.U.U.U.U.U.U.U.U.U.U.U.U.U.U.U.U.U.U.U.U.U.U.U.U.U.U.U.U.U.U.U.U.U.U.U.U.",
"U.U.U.U.U.U.U.U.U.U.U.U.U.U.U.U.U.U.U.U.U.U.U.U.U.U.U.U.U.U.U.U.U.U.U.U.U.U.U.U.U.U.U.U.U.U.U.U.U.U.U.U.U.U.U.U.U.U.U.U.U.U.U.U.",
"U.U.U.U.U.U.U.U.U.U.U.U.U.U.U.U.U.U.U.U.U.U.U.U.U.U.U.U.U.U.U.U.U.U.U.U.U.U.U.U.U.U.U.U.U.U.U.U.U.U.U.U.U.U.U.U.U.U.U.U.U.U.U.U.",
"U.U.U.U.U.U.U.U.U.U.U.U.U.U.U.U.U.U.U.U.U.U.U.d r d g k k j d d d g d r e e w e U.U.U.U.U.U.U.U.U.U.U.U.U.U.U.U.U.U.U.U.U.U.U.U.",
"U.U.U.U.U.U.U.U.U.U.U.U.U.U.U.U.U.U.U.U.U.U.U.d d d g k k j e 1 < < > * @ * * > > U.U.U.U.U.U.U.U.U.U.U.U.U.U.U.U.U.U.U.U.U.U.U.",
"U.U.U.U.U.U.U.U.U.U.U.U.U.U.U.U.U.U.U.U.U.U.d d d d g k k k 1 > > > > > > 1 1 > * * U.U.U.U.U.U.U.U.U.U.U.U.U.U.U.U.U.U.U.U.U.U.",
"U.U.U.U.U.U.U.U.U.U.U.U.U.U.U.U.U.U.U.U.U.U.g g d d j j j k 1 > > > < e u u e < > > U.U.U.U.U.U.U.U.U.U.U.U.U.U.U.U.U.U.U.U.U.U.",
"U.U.U.U.U.U.U.U.U.U.U.U.U.U.U.U.U.U.U.U.U.U.j g d g j g g j < < 1 l l x b b z p e < U.U.U.U.U.U.U.U.U.U.U.U.U.U.U.U.U.U.U.U.U.U.",
"U.U.U.U.U.U.U.U.U.U.U.U.U.U.U.U.U.U.U.U.U.U.g g g g j g d d > 3 v m p.p.m N N p y < U.U.U.U.U.U.U.U.U.U.U.U.U.U.U.U.U.U.U.U.U.U.",
"U.U.U.U.U.U.U.U.U.U.U.U.U.U.U.U.U.U.U.U.U.U.g g j j g d g h p p v M m v 3 c v e 1 < U.U.U.U.U.U.U.U.U.U.U.U.U.U.U.U.U.U.U.U.U.U.",
"U.U.U.U.U.U.U.U.U.U.U.U.U.U.U.U.U.U.U.U.U.U.d g j g d g j Z n v 6 4 6 v y 3 , O > 1 U.U.U.U.U.U.U.U.U.U.U.U.U.U.U.U.U.U.U.U.U.U.",
"U.U.U.U.U.U.U.U.U.U.U.U.U.U.U.U.U.U.U.U.U.U.d d g d r g D L n 2 X   , v M 2     > y U.U.U.U.U.U.U.U.U.U.U.U.U.U.U.U.U.U.U.U.U.U.",
"U.U.U.U.U.U.U.U.U.U.U.U.U.U.U.U.U.U.U.U.U.U.d g g d g g D G n , X X # 3 3 , : + > > U.U.U.U.U.U.U.U.U.U.U.U.U.U.U.U.U.U.U.U.U.U.",
"U.U.U.U.U.U.U.U.U.U.U.U.U.U.U.U.U.U.U.U.U.U.g g g g k j S j e y c c > + + , c e > @ U.U.U.U.U.U.U.U.U.U.U.U.U.U.U.U.U.U.U.U.U.U.",
"U.U.U.U.U.U.U.U.U.U.U.U.U.U.U.U.U.U.U.U.U.U.j g j r g k k d w 1 y y > @ > > > < > @ U.U.U.U.U.U.U.U.U.U.U.U.U.U.U.U.U.U.U.U.U.U.",
"U.U.U.U.U.U.U.U.U.U.U.U.U.U.U.U.U.U.U.U.U.U.g d k r g D f r < < < * > > > * @ > * * U.U.U.U.U.U.U.U.U.U.U.U.U.U.U.U.U.U.U.U.U.U.",
"U.U.U.U.U.U.U.U.U.U.U.U.U.U.U.U.U.U.U.U.U.U.d g k j k D j r * @ * @ @ @ * @ + @ @ - i.A A U.U.U.U.U.U.U.U.U.U.U.U.U.U.U.U.U.U.U.",
"U.U.U.U.U.U.U.U.U.U.U.U.U.U.U.U.U.U.U.U.U.U.U.L.H.j.f.H j i @ + + + + + * - - = w s Z J L I I Y Y Y U.U.U.U.U.U.U.U.U.U.U.U.U.U.",
"U.U.U.U.U.U.U.U.U.U.U.U.U.U.U.U.U.U.U.F.G.G.s.J.k.h.g.K.Y I V u e e * * ; z.B.3.r d j S S K k Z a 1 $ + . U.U.U.U.U.U.U.U.U.U.U.",
"U.U.U.U.U.U.U.U.U.U.U.U.U.U.U.U.U.U.F.S.S.a.C j j K P U Y Y Y I Z a t 8 8.Z.Z.9.r r d k S S g d +     O   U.U.U.U.U.U.U.U.U.U.U.",
"U.U.U.U.U.U.U.U.U.U.U.U.U.U.U.U.U.U.D.t.e.w.C k j k S S S j > $ @   . + 1.Z.Z.u.r r g k S k S j +   . O     U.U.U.U.U.U.U.U.U.U.",
"U.U.U.U.U.U.U.U.U.U.U.U.U.U.U.U.U.U.D.t.q.4.F S S S j j k j O   O .   + 1.Z.Z.9.r d j S S S S j + . . o . O U.U.U.U.U.U.U.U.U.U.",
"U.U.U.U.U.U.U.U.U.U.U.U.U.U.U.U.U.U.F.t.q.4.k S S S j g g g O . + .   O 1.Z.Z.9.i d j S S S k j O O O   O + U.U.U.U.U.U.U.U.U.U.",
"U.U.U.U.U.U.U.U.U.U.U.U.U.U.U.U.U.U.U.t.t.y.F S S S S k k j O   o . .   <.Z.Z.0.r d j j k S k j O O O   + U.U.U.U.U.U.U.U.U.U.U.",
"U.U.U.U.U.U.U.U.U.U.U.U.U.U.U.U.U.U.U.t.S.D.d.S k k S S S j @ o   O o   Q n.x.x.U.U.U.U.U.S D j O o O   O U.U.U.U.U.U.U.U.U.U.U.",
"U.U.U.U.U.U.U.U.U.U.U.U.U.U.U.U.U.U.U.U.U.U.U.k j j j k S j @ o   o O   Q n.x.x.U.U.U.U.U.U.U.U.U.U.U.U.U.U.U.U.U.U.U.U.U.U.U.U.",
"U.U.U.U.U.U.U.U.U.U.U.U.U.U.U.U.U.U.U.U.U.U.U.U.9 0 q B F j @ O   % & % / b.n.x.U.U.U.U.U.U.U.U.U.U.U.U.U.U.U.U.U.U.U.U.U.U.U.U.",
"U.U.U.U.U.U.U.U.U.U.U.U.U.U.U.U.U.U.U.U.U.U.U.U.6.6.2.q.r.u.1.1.1.7.x.z.b.b.n.x.U.U.U.U.U.U.U.U.U.U.U.U.U.U.U.U.U.U.U.U.U.U.U.U.",
"U.U.U.U.U.U.U.U.U.U.U.U.U.U.U.U.U.U.U.U.U.U.U.U.q.6.2.q.n.N.Z.Z.N.n.b.C.C.b.x.x.U.U.U.U.U.U.U.U.U.U.U.U.U.U.U.U.U.U.U.U.U.U.U.U.",
"U.U.U.U.U.U.U.U.U.U.U.U.U.U.U.U.U.U.U.U.U.U.U.U.S.q.6.q.z.N.A.A.B.x.b.b.b.b.x.x.U.U.U.U.U.U.U.U.U.U.U.U.U.U.U.U.U.U.U.U.U.U.U.U.",
"U.U.U.U.U.U.U.U.U.U.U.U.U.U.U.U.U.U.U.U.U.U.U.U.F.t.q.M.m.N.A.Z.n.x.n.b.C.b.n.x.U.U.U.U.U.U.U.U.U.U.U.U.U.U.U.U.U.U.U.U.U.U.U.U.",
"U.U.U.U.U.U.U.U.U.U.U.U.U.U.U.U.U.U.U.U.U.U.U.U.F.t.q.S.B.Z.Z.Z.n.x.n.b.C.C.n.x.U.U.U.U.U.U.U.U.U.U.U.U.U.U.U.U.U.U.U.U.U.U.U.U.",
"U.U.U.U.U.U.U.U.U.U.U.U.U.U.U.U.U.U.U.U.U.U.U.U.D.t.q.M.A.Z.Z.Z.n.x.n.C.C.C.n.x.U.U.U.U.U.U.U.U.U.U.U.U.U.U.U.U.U.U.U.U.U.U.U.U.",
"U.U.U.U.U.U.U.U.U.U.U.U.U.U.U.U.U.U.U.U.U.U.U.U.V.t.t.D.N.N.n.n.n.b.Z.b.b.C.n.x.U.U.U.U.U.U.U.U.U.U.U.U.U.U.U.U.U.U.U.U.U.U.U.U.",
"U.U.U.U.U.U.U.U.U.U.U.U.U.U.U.U.U.U.U.U.U.U.U.U.l.5.e.D.n.n.x.l.$.c.v.#.$.C.n.x.U.U.U.U.U.U.U.U.U.U.U.U.U.U.U.U.U.U.U.U.U.U.U.U.",
"U.U.U.U.U.U.U.U.U.U.U.U.U.U.U.U.U.U.U.U.U.U.U.U.[ R ! ) %.%.@.+...+...W ^ b.c.U.U.U.U.U.U.U.U.U.U.U.U.U.U.U.U.U.U.U.U.U.U.U.U.U.",
"U.U.U.U.U.U.U.U.U.U.U.U.U.U.U.U.U.U.U.U.U.U.U.U.U.T E E o.o.o.o.o.....o. .~ ( U.U.U.U.U.U.U.U.U.U.U.U.U.U.U.U.U.U.U.U.U.U.U.U.U.",
"U.U.U.U.U.U.U.U.U.U.U.U.U.U.U.U.U.U.U.U.U.U.U.U.U.T E X.o.o.o.o.o.o.o.o.:.*.;.U.U.U.U.U.U.U.U.U.U.U.U.U.U.U.U.U.U.U.U.U.U.U.U.U.",
"U.U.U.U.U.U.U.U.U.U.U.U.U.U.U.U.U.U.U.U.U.U.U.U.U.U.E W o.:.:.:.O.:.P.P.I.,.>.U.U.U.U.U.U.U.U.U.U.U.U.U.U.U.U.U.U.U.U.U.U.U.U.U.",
"U.U.U.U.U.U.U.U.U.U.U.U.U.U.U.U.U.U.U.U.U.U.U.U.U.W E E =.>.>.>.:.:.o.o.o.....U.U.U.U.U.U.U.U.U.U.U.U.U.U.U.U.U.U.U.U.U.U.U.U.U.",
"U.U.U.U.U.U.U.U.U.U.U.U.U.U.U.U.U.U.U.U.U.U.U.U.U.W T E =.>.>.>.>.:.o.......X.U.U.U.U.U.U.U.U.U.U.U.U.U.U.U.U.U.U.U.U.U.U.U.U.U.",
"U.U.U.U.U.U.U.U.U.U.U.U.U.U.U.U.U.U.U.U.U.U.U.U.U.E T E =.>.>.>.>.:.o....... .U.U.U.U.U.U.U.U.U.U.U.U.U.U.U.U.U.U.U.U.U.U.U.U.U.",
"U.U.U.U.U.U.U.U.U.U.U.U.U.U.U.U.U.U.U.U.U.U.U.U.U.W E [ X.>.>.>.>.>.:....... .U.U.U.U.U.U.U.U.U.U.U.U.U.U.U.U.U.U.U.U.U.U.U.U.U.",
"U.U.U.U.U.U.U.U.U.U.U.U.U.U.U.U.U.U.U.U.U.U.U.U.U.W E [ X.>.>.>.>.>.O.......U.U.U.U.U.U.U.U.U.U.U.U.U.U.U.U.U.U.U.U.U.U.U.U.U.U.",
"U.U.U.U.U.U.U.U.U.U.U.U.U.U.U.U.U.U.U.U.U.U.U.U.U.U.E W &.>.>.>.>.,.:.......U.U.U.U.U.U.U.U.U.U.U.U.U.U.U.U.U.U.U.U.U.U.U.U.U.U.",
"U.U.U.U.U.U.U.U.U.U.U.U.U.U.U.U.U.U.U.U.U.U.U.U.U.U.E W &.:.>.>.>.>.>.o.....U.U.U.U.U.U.U.U.U.U.U.U.U.U.U.U.U.U.U.U.U.U.U.U.U.U.",
"U.U.U.U.U.U.U.U.U.U.U.U.U.U.U.U.U.U.U.U.U.U.U.U.U.U.E E [ =.>.:.o.o.:.X.X.X.U.U.U.U.U.U.U.U.U.U.U.U.U.U.U.U.U.U.U.U.U.U.U.U.U.U.",
"U.U.U.U.U.U.U.U.U.U.U.U.U.U.U.U.U.U.U.U.U.U.U.U.U.U.E E [ X.:.o.X.X.>.X.W X.U.U.U.U.U.U.U.U.U.U.U.U.U.U.U.U.U.U.U.U.U.U.U.U.U.U.",
"U.U.U.U.U.U.U.U.U.U.U.U.U.U.U.U.U.U.U.U.U.U.U.U.U.U.W E [ =.>.:.:.>.>.o. . .U.U.U.U.U.U.U.U.U.U.U.U.U.U.U.U.U.U.U.U.U.U.U.U.U.U.",
"U.U.U.U.U.U.U.U.U.U.U.U.U.U.U.U.U.U.U.U.U.U.U.U.U.U.E E W &.>.>.>.>.>.:...U.U.U.U.U.U.U.U.U.U.U.U.U.U.U.U.U.U.U.U.U.U.U.U.U.U.U.",
"U.U.U.U.U.U.U.U.U.U.U.U.U.U.U.U.U.U.U.U.U.U.U.U.U.U.[ W [ &.>.>.>.>.>.>.o.U.U.U.U.U.U.U.U.U.U.U.U.U.U.U.U.U.U.U.U.U.U.U.U.U.U.U.",
"U.U.U.U.U.U.U.U.U.U.U.U.U.U.U.U.U.U.U.U.U.U.U.U.U.U.U.[ [ &.>.>.>.>.>.>.o.U.U.U.U.U.U.U.U.U.U.U.U.U.U.U.U.U.U.U.U.U.U.U.U.U.U.U.",
"U.U.U.U.U.U.U.U.U.U.U.U.U.U.U.U.U.U.U.U.U.U.U.U.U.U.U.[ [ W =.>.>.>.>.>.o.U.U.U.U.U.U.U.U.U.U.U.U.U.U.U.U.U.U.U.U.U.U.U.U.U.U.U.",
"U.U.U.U.U.U.U.U.U.U.U.U.U.U.U.U.U.U.U.U.U.U.U.U.U.U.U.{ [ W =.>.>.>.>.>.=.U.U.U.U.U.U.U.U.U.U.U.U.U.U.U.U.U.U.U.U.U.U.U.U.U.U.U.",
"U.U.U.U.U.U.U.U.U.U.U.U.U.U.U.U.U.U.U.U.U.U.U.U.U.U.U.7 _ [ =.>.>.-.-.-.} U.U.U.U.U.U.U.U.U.U.U.U.U.U.U.U.U.U.U.U.U.U.U.U.U.U.U.",
"U.U.U.U.U.U.U.U.U.U.U.U.U.U.U.U.U.U.U.U.U.U.U.U.U.U.U.5 7 ] ] | | ' ' ' ' U.U.U.U.U.U.U.U.U.U.U.U.U.U.U.U.U.U.U.U.U.U.U.U.U.U.U.",
"U.U.U.U.U.U.U.U.U.U.U.U.U.U.U.U.U.U.U.U.U.U.U.U.U.U.U.5 5 5 7 ` ` ` ` ` ` U.U.U.U.U.U.U.U.U.U.U.U.U.U.U.U.U.U.U.U.U.U.U.U.U.U.U.",
"U.U.U.U.U.U.U.U.U.U.U.U.U.U.U.U.U.U.U.U.U.U.U.U.U.U.U.2 5 5 5 ` ` ` ` ` ` U.U.U.U.U.U.U.U.U.U.U.U.U.U.U.U.U.U.U.U.U.U.U.U.U.U.U.",
"U.U.U.U.U.U.U.U.U.U.U.U.U.U.U.U.U.U.U.U.U.U.U.U.U.U.U.U.5 5 5 ` ` ` U.U.U.U.U.U.U.U.U.U.U.U.U.U.U.U.U.U.U.U.U.U.U.U.U.U.U.U.U.U.",
"U.U.U.U.U.U.U.U.U.U.U.U.U.U.U.U.U.U.U.U.U.U.U.U.U.U.U.U.U.U.U.U.U.U.U.U.U.U.U.U.U.U.U.U.U.U.U.U.U.U.U.U.U.U.U.U.U.U.U.U.U.U.U.U.",
"U.U.U.U.U.U.U.U.U.U.U.U.U.U.U.U.U.U.U.U.U.U.U.U.U.U.U.U.U.U.U.U.U.U.U.U.U.U.U.U.U.U.U.U.U.U.U.U.U.U.U.U.U.U.U.U.U.U.U.U.U.U.U.U.",
"U.U.U.U.U.U.U.U.U.U.U.U.U.U.U.U.U.U.U.U.U.U.U.U.U.U.U.U.U.U.U.U.U.U.U.U.U.U.U.U.U.U.U.U.U.U.U.U.U.U.U.U.U.U.U.U.U.U.U.U.U.U.U.U."
};
