/* XPM */
static char *result[] = {
/* columns rows colors chars-per-pixel */
"64 64 160 2 ",
"   c #152016",
".  c #1A251A",
"X  c #1B2D1D",
"o  c #1D321E",
"O  c #202E1E",
"+  c #21351D",
"@  c #25391F",
"#  c #1F3520",
"$  c #1D3823",
"%  c #1E3D2A",
"&  c #103C35",
"*  c #213620",
"=  c #243C22",
"-  c #2A3B28",
";  c #2E2F33",
":  c #2C2B3D",
">  c #313235",
",  c #3B3C3E",
"<  c #1E442E",
"1  c #0F403D",
"2  c #154437",
"3  c #1E4530",
"4  c #164638",
"5  c #1A4B3C",
"6  c #274022",
"7  c #2A4524",
"8  c #2D4A25",
"9  c #22442A",
"0  c #2C4B2A",
"q  c #304E26",
"w  c #314D2B",
"e  c #325127",
"r  c #345429",
"t  c #3A532D",
"y  c #36592A",
"u  c #3A5B2C",
"i  c #354E31",
"p  c #3A4D34",
"a  c #2A5633",
"s  c #2F5A36",
"d  c #2D5A39",
"f  c #355434",
"g  c #3D5532",
"h  c #3D5A33",
"j  c #355339",
"k  c #3C563B",
"l  c #3D5A3A",
"z  c #3C602D",
"x  c #27603E",
"c  c #30623E",
"v  c #405635",
"b  c #425C35",
"n  c #43553B",
"m  c #435D3C",
"M  c #436136",
"N  c #42613C",
"B  c #49653B",
"V  c #4D693E",
"C  c #506B3F",
"Z  c #1B184E",
"A  c #1D1B52",
"S  c #211C55",
"D  c #221D5C",
"F  c #192456",
"G  c #182A5F",
"H  c #12385A",
"J  c #2F2E40",
"K  c #26234B",
"L  c #28254E",
"P  c #373840",
"I  c #3A3B46",
"U  c #333349",
"Y  c #39394B",
"T  c #232053",
"R  c #231E64",
"E  c #231E6C",
"W  c #241F71",
"Q  c #1F2263",
"!  c #0E3866",
"~  c #113D6A",
"^  c #1F2470",
"/  c #232165",
"(  c #2A2664",
")  c #2C2862",
"_  c #25216E",
"`  c #29246C",
"'  c #252172",
"]  c #292375",
"[  c #2C257A",
"{  c #2F287E",
"}  c #30297F",
"|  c #3A3574",
" . c #373179",
".. c #39327A",
"X. c #044A4C",
"o. c #12504A",
"O. c #1A5C4F",
"+. c #044D55",
"@. c #054E58",
"#. c #055254",
"$. c #0A5555",
"%. c #06515A",
"&. c #0A5559",
"*. c #0B5B5E",
"=. c #125751",
"-. c #155B53",
";. c #135D58",
":. c #3E5840",
">. c #17625C",
",. c #1A6158",
"<. c #3F6145",
"1. c #346845",
"2. c #3C6E4E",
"3. c #326A53",
"4. c #326D57",
"5. c #0A4066",
"6. c #0B4D67",
"7. c #074B6B",
"8. c #084B6A",
"9. c #045567",
"0. c #0A5167",
"q. c #085E65",
"w. c #04546C",
"e. c #0A5268",
"r. c #015A6C",
"t. c #044F72",
"y. c #025771",
"u. c #015C74",
"i. c #05606C",
"p. c #0B676F",
"a. c #116164",
"s. c #016374",
"d. c #006376",
"f. c #00657A",
"g. c #006A7C",
"h. c #077174",
"j. c #227D69",
"k. c #4A4B4E",
"l. c #435B42",
"z. c #4D4E54",
"x. c #4B4B58",
"c. c #426040",
"v. c #426146",
"b. c #4E6647",
"n. c #496C41",
"m. c #4E6E43",
"M. c #466148",
"N. c #4E6249",
"B. c #4F7045",
"V. c #0B857F",
"C. c #1E8272",
"Z. c #1B8677",
"A. c #1A8678",
"S. c #2B2681",
"D. c #2D2A84",
"F. c #322A81",
"G. c #312D89",
"H. c #006E80",
"J. c #007182",
"K. c None",
/* pixels */
"K.K.K.K.K.K.K.K.K.K.K.K.K.K.K.K.K.K.K.K.K.K.K.K.K.K.K.K.K.K.K.K.K.K.K.K.K.K.K.K.K.K.K.K.K.K.K.K.K.K.K.K.K.K.K.K.K.K.K.K.K.K.K.K.",
"K.K.K.K.K.K.K.K.K.K.K.K.K.K.K.K.K.K.K.K.K.K.K.K.K.K.K.K.K.K.K.K.K.K.K.K.K.K.K.K.K.K.K.K.K.K.K.K.K.K.K.K.K.K.K.K.K.K.K.K.K.K.K.K.",
"K.K.K.K.K.K.K.K.K.K.K.K.K.K.K.K.K.K.K.K.K.K.K.K.K.K.K.K.K.K.K.K.K.K.K.K.K.K.K.K.K.K.K.K.K.K.K.K.K.K.K.K.K.K.K.K.K.K.K.K.K.K.K.K.",
"K.K.K.K.K.K.K.K.K.K.K.K.K.K.K.K.K.K.K.K.K.K.K.K.K.K.K.K.K.K.K.K.K.K.K.K.K.K.K.K.K.K.K.K.K.K.K.K.K.K.K.K.K.K.K.K.K.K.K.K.K.K.K.K.",
"K.K.K.K.K.K.K.K.K.K.K.K.K.K.K.K.K.K.K.K.K.K.K.K.K.K.K.K.K.K.K.K.K.K.K.K.K.K.K.K.K.K.K.K.K.K.K.K.K.K.K.K.K.K.K.K.K.K.K.K.K.K.K.K.",
"K.K.K.K.K.K.K.K.K.K.K.K.K.K.K.K.K.K.K.K.K.K.K.K.7 e y y y r e e e e e e e e 0 K.K.K.K.K.K.K.K.K.K.K.K.K.K.K.K.K.K.K.K.K.K.K.K.K.",
"K.K.K.K.K.K.K.K.K.K.K.K.K.K.K.K.K.K.K.K.K.K.K.K.8 r r e 8 8 8 q 8 6 = = 7 7 7 7 K.K.K.K.K.K.K.K.K.K.K.K.K.K.K.K.K.K.K.K.K.K.K.K.",
"K.K.K.K.K.K.K.K.K.K.K.K.K.K.K.K.K.K.K.K.K.K.K.K.8 e r 8 8 7 8 8 8 0 8 8 8 7 7 7 K.K.K.K.K.K.K.K.K.K.K.K.K.K.K.K.K.K.K.K.K.K.K.K.",
"K.K.K.K.K.K.K.K.K.K.K.K.K.K.K.K.K.K.K.K.K.K.K.K.q e r 8 7 7 7 8 q r z u r 8 7 7 7 K.K.K.K.K.K.K.K.K.K.K.K.K.K.K.K.K.K.K.K.K.K.K.",
"K.K.K.K.K.K.K.K.K.K.K.K.K.K.K.K.K.K.K.K.K.K.K.K.8 e e 8 0 w f k m N N N l r e 8 8 K.K.K.K.K.K.K.K.K.K.K.K.K.K.K.K.K.K.K.K.K.K.K.",
"K.K.K.K.K.K.K.K.K.K.K.K.K.K.K.K.K.K.K.K.K.K.K.K.e e 8 8 f <.v.M.N.b.v.<.c.u r e q K.K.K.K.K.K.K.K.K.K.K.K.K.K.K.K.K.K.K.K.K.K.K.",
"K.K.K.K.K.K.K.K.K.K.K.K.K.K.K.K.K.K.K.K.K.K.K.K.r e e t l c.b m l.l.l v.N r e e e K.K.K.K.K.K.K.K.K.K.K.K.K.K.K.K.K.K.K.K.K.K.K.",
"K.K.K.K.K.K.K.K.K.K.K.K.K.K.K.K.K.K.K.K.K.K.K.K.e q r h k j i p n n g k f 8 8 e e K.K.K.K.K.K.K.K.K.K.K.K.K.K.K.K.K.K.K.K.K.K.K.",
"K.K.K.K.K.K.K.K.K.K.K.K.K.K.K.K.K.K.K.K.K.K.K.K.q e u m -     . n m l.*     X g g K.K.K.K.K.K.K.K.K.K.K.K.K.K.K.K.K.K.K.K.K.K.K.",
"K.K.K.K.K.K.K.K.K.K.K.K.K.K.K.K.K.K.K.K.K.K.K.K.e e h l = . . O g v i - = + @ w q K.K.K.K.K.K.K.K.K.K.K.K.K.K.K.K.K.K.K.K.K.K.K.",
"K.K.K.K.K.K.K.K.K.K.K.K.K.K.K.K.K.K.K.K.K.K.K.K.e e r e t v :.k = = = g b r 8 6 7 K.K.K.K.K.K.K.K.K.K.K.K.K.K.K.K.K.K.K.K.K.K.K.",
"K.K.K.K.K.K.K.K.K.K.K.K.K.K.K.K.K.K.K.K.K.K.K.K.q t q 8 r g f w 6 6 6 0 w e 8 6 6 K.K.K.K.K.K.K.K.K.K.K.K.K.K.K.K.K.K.K.K.K.K.K.",
"K.K.K.K.K.K.K.K.K.K.K.K.K.K.K.K.K.K.K.K.K.K.K.K.r u 8 8 8 8 6 = 7 8 8 = = 8 7 6 K.K.K.K.K.K.K.K.K.K.K.K.K.K.K.K.K.K.K.K.K.K.K.K.",
"K.K.K.K.K.K.K.K.K.K.K.K.K.K.K.K.K.K.K.K.K.K.K.K.x y 8 = 6 6 = = = = 6 = = 7 6 = o.p.f.K.K.K.K.K.K.K.K.K.K.K.K.K.K.K.K.K.K.K.K.K.",
"K.K.K.K.K.K.K.K.K.K.K.K.K.K.K.K.K.K.h.V.A.Z.Z.C.j.1.8 $ = + + = = = 6 = < 5 5 3 d 3.4.4.3.2.V K.K.K.K.K.K.K.K.K.K.K.K.K.K.K.K.K.",
"K.K.K.K.K.K.K.K.K.K.K.K.K.K.K.K.K.K.>.c n.m.m.B.B.V N O.*.3 = 8 8 6 6 9 *.y.r.=.r b B C B B B B g K.K.K.K.K.K.K.K.K.K.K.K.K.K.K.",
"K.K.K.K.K.K.K.K.K.K.K.K.K.K.K.K.K.a.-.e u M b b b v g f O.;.=.0 7 = 5 &.d.d.s.-.r y r w = o * = # K.K.K.K.K.K.K.K.K.K.K.K.K.K.K.",
"K.K.K.K.K.K.K.K.K.K.K.K.K.K.K.K.K.a.$.a y 7 X o o X X + 4 s.s.5 3 < $.s.g.g.f.-.e r e = o X o # X . K.K.K.K.K.K.K.K.K.K.K.K.K.K.",
"K.K.K.K.K.K.K.K.K.K.K.K.K.K.K.K.K.a.#.a r 7 X o # X X o 4 d.f.s.i.i.s.f.g.g.g.,.r y r = o X o # o X K.K.K.K.K.K.K.K.K.K.K.K.K.K.",
"K.K.K.K.K.K.K.K.K.K.K.K.K.K.K.K.K.K.#.a r 7 X X # X X o 4 f.f.d.s.s.d.g.f.f.f.,.y r r = X o X X X o K.K.K.K.K.K.K.K.K.K.K.K.K.K.",
"K.K.K.K.K.K.K.K.K.K.K.K.K.K.K.K.K.K.*.d y 8 o o X o o X 2 g.H.d.s.s.f.H.g.g.f.;.r r r * X # o X X # K.K.K.K.K.K.K.K.K.K.K.K.K.K.",
"K.K.K.K.K.K.K.K.K.K.K.K.K.K.K.K.K.K.K.s r 8 # o X o # X & g.J.g.f.s.f.g.d.s.u.*.e r r * X # o X o # K.K.K.K.K.K.K.K.K.K.K.K.K.K.",
"K.K.K.K.K.K.K.K.K.K.K.K.K.K.K.K.K.K.K.K.r 8 # o X o o X & f.J.g.f.r.s.f.r.r.r.r.K.K.r * X o X X X o K.K.K.K.K.K.K.K.K.K.K.K.K.K.",
"K.K.K.K.K.K.K.K.K.K.K.K.K.K.K.K.K.K.K.K.K.8 + o X $ % $ 1 f.H.f.s.r.u.f.u.u.r.r.K.K.K.K.K.K.K.K.K.K.K.K.K.K.K.K.K.K.K.K.K.K.K.K.",
"K.K.K.K.K.K.K.K.K.K.K.K.K.K.K.K.K.K.K.K.K.K.K.K.& X.q.r.r.f.g.d.u.w.u.d.u.u.r.r.K.K.K.K.K.K.K.K.K.K.K.K.K.K.K.K.K.K.K.K.K.K.K.K.",
"K.K.K.K.K.K.K.K.K.K.K.K.K.K.K.K.K.K.K.K.K.K.K.K.X.+.i.s.g.g.f.r.w.y.u.u.u.u.r.r.K.K.K.K.K.K.K.K.K.K.K.K.K.K.K.K.K.K.K.K.K.K.K.K.",
"K.K.K.K.K.K.K.K.K.K.K.K.K.K.K.K.K.K.K.K.K.K.K.K.@.+.r.s.g.g.g.9.e.u.u.u.y.u.r.r.K.K.K.K.K.K.K.K.K.K.K.K.K.K.K.K.K.K.K.K.K.K.K.K.",
"K.K.K.K.K.K.K.K.K.K.K.K.K.K.K.K.K.K.K.K.K.K.K.K.%.%.r.u.g.f.d.e.0.w.y.u.y.y.9.r.K.K.K.K.K.K.K.K.K.K.K.K.K.K.K.K.K.K.K.K.K.K.K.K.",
"K.K.K.K.K.K.K.K.K.K.K.K.K.K.K.K.K.K.K.K.K.K.K.K.&.%.r.u.f.d.u.e.6.w.y.u.u.y.0.9.K.K.K.K.K.K.K.K.K.K.K.K.K.K.K.K.K.K.K.K.K.K.K.K.",
"K.K.K.K.K.K.K.K.K.K.K.K.K.K.K.K.K.K.K.K.K.K.K.K.@.@.s.d.u.u.u.e.6.w.y.u.u.u.w.9.K.K.K.K.K.K.K.K.K.K.K.K.K.K.K.K.K.K.K.K.K.K.K.K.",
"K.K.K.K.K.K.K.K.K.K.K.K.K.K.K.K.K.K.K.K.K.K.K.K.+.%.r.r.r.r.w.w.w.y.w.y.u.y.w.9.K.K.K.K.K.K.K.K.K.K.K.K.K.K.K.K.K.K.K.K.K.K.K.K.",
"K.K.K.K.K.K.K.K.K.K.K.K.K.K.K.K.K.K.K.K.K.K.K.K.F H 8.8.8.8.8.7.y.t.8.8.u.y.w.9.K.K.K.K.K.K.K.K.K.K.K.K.K.K.K.K.K.K.K.K.K.K.K.K.",
"K.K.K.K.K.K.K.K.K.K.K.K.K.K.K.K.K.K.K.K.K.K.K.K.S A _ ' ' ^ ^ ^ ^ ^ Q G w.u.w.9.K.K.K.K.K.K.K.K.K.K.K.K.K.K.K.K.K.K.K.K.K.K.K.K.",
"K.K.K.K.K.K.K.K.K.K.K.K.K.K.K.K.K.K.K.K.K.K.K.K.S S ' ] ' ' W W W W R / ! 5.6.0.K.K.K.K.K.K.K.K.K.K.K.K.K.K.K.K.K.K.K.K.K.K.K.K.",
"K.K.K.K.K.K.K.K.K.K.K.K.K.K.K.K.K.K.K.K.K.K.K.K.S D ' ' ' ' ' ' W W ' W R / ~ ~ K.K.K.K.K.K.K.K.K.K.K.K.K.K.K.K.K.K.K.K.K.K.K.K.",
"K.K.K.K.K.K.K.K.K.K.K.K.K.K.K.K.K.K.K.K.K.K.K.K.D / G.G.G.D.S.{ ] ' ' ' ' ' ' ' K.K.K.K.K.K.K.K.K.K.K.K.K.K.K.K.K.K.K.K.K.K.K.K.",
"K.K.K.K.K.K.K.K.K.K.K.K.K.K.K.K.K.K.K.K.K.K.K.K.S D { D.S.S.[ ' ' ' ' ' ] ] ] [ K.K.K.K.K.K.K.K.K.K.K.K.K.K.K.K.K.K.K.K.K.K.K.K.",
"K.K.K.K.K.K.K.K.K.K.K.K.K.K.K.K.K.K.K.K.K.K.K.K.S S E W W E E E ' ] ' ' ] [ [ ] K.K.K.K.K.K.K.K.K.K.K.K.K.K.K.K.K.K.K.K.K.K.K.K.",
"K.K.K.K.K.K.K.K.K.K.K.K.K.K.K.K.K.K.K.K.K.K.K.K.S D W W W W W W E ] ] ] ] ] [ { K.K.K.K.K.K.K.K.K.K.K.K.K.K.K.K.K.K.K.K.K.K.K.K.",
"K.K.K.K.K.K.K.K.K.K.K.K.K.K.K.K.K.K.K.K.K.K.K.K.S R ' W W W W E R ' ] ] ] ] [ [ K.K.K.K.K.K.K.K.K.K.K.K.K.K.K.K.K.K.K.K.K.K.K.K.",
"K.K.K.K.K.K.K.K.K.K.K.K.K.K.K.K.K.K.K.K.K.K.K.K.D R ' W W W W E D ' [ [ [ ] ] ] K.K.K.K.K.K.K.K.K.K.K.K.K.K.K.K.K.K.K.K.K.K.K.K.",
"K.K.K.K.K.K.K.K.K.K.K.K.K.K.K.K.K.K.K.K.K.K.K.K.A R ' ' W W W E D ] [ [ [ [ ] ] K.K.K.K.K.K.K.K.K.K.K.K.K.K.K.K.K.K.K.K.K.K.K.K.",
"K.K.K.K.K.K.K.K.K.K.K.K.K.K.K.K.K.K.K.K.K.K.K.K.Z R ' ' ' ' W W R ] [ [ [ ] [ [ K.K.K.K.K.K.K.K.K.K.K.K.K.K.K.K.K.K.K.K.K.K.K.K.",
"K.K.K.K.K.K.K.K.K.K.K.K.K.K.K.K.K.K.K.K.K.K.K.K.S R ' ' W W W W D ] [ E E R ' } K.K.K.K.K.K.K.K.K.K.K.K.K.K.K.K.K.K.K.K.K.K.K.K.",
"K.K.K.K.K.K.K.K.K.K.K.K.K.K.K.K.K.K.K.K.K.K.K.K.S R ' R R R R W D ] { ` _ _ ] [ K.K.K.K.K.K.K.K.K.K.K.K.K.K.K.K.K.K.K.K.K.K.K.K.",
"K.K.K.K.K.K.K.K.K.K.K.K.K.K.K.K.K.K.K.K.K.K.K.K.D R W R R E ' ' D ] F.F.F.} [ { K.K.K.K.K.K.K.K.K.K.K.K.K.K.K.K.K.K.K.K.K.K.K.K.",
"K.K.K.K.K.K.K.K.K.K.K.K.K.K.K.K.K.K.K.K.K.K.K.K.D R ' ' ' ' ' ' D ] F.F.F.F.} } K.K.K.K.K.K.K.K.K.K.K.K.K.K.K.K.K.K.K.K.K.K.K.K.",
"K.K.K.K.K.K.K.K.K.K.K.K.K.K.K.K.K.K.K.K.K.K.K.K.D _ ' ' ' ' ' ' D ` F.F.F.F.F.F.K.K.K.K.K.K.K.K.K.K.K.K.K.K.K.K.K.K.K.K.K.K.K.K.",
"K.K.K.K.K.K.K.K.K.K.K.K.K.K.K.K.K.K.K.K.K.K.K.K.T _ ' ' ' ' ' ' D / F.F.F.F.F.F.K.K.K.K.K.K.K.K.K.K.K.K.K.K.K.K.K.K.K.K.K.K.K.K.",
"K.K.K.K.K.K.K.K.K.K.K.K.K.K.K.K.K.K.K.K.K.K.K.K.K _ ' W ' ' ' W D ` F.F.F.F.F.F.K.K.K.K.K.K.K.K.K.K.K.K.K.K.K.K.K.K.K.K.K.K.K.K.",
"K.K.K.K.K.K.K.K.K.K.K.K.K.K.K.K.K.K.K.K.K.K.K.K.K E ' ' ' ' ' _ L ` F.F.F.F.F.F.F.K.K.K.K.K.K.K.K.K.K.K.K.K.K.K.K.K.K.K.K.K.K.K.",
"K.K.K.K.K.K.K.K.K.K.K.K.K.K.K.K.K.K.K.K.K.K.K.K.: / ` ` ` ` ` ( J )  . . ... . .| K.K.K.K.K.K.K.K.K.K.K.K.K.K.K.K.K.K.K.K.K.K.K.",
"K.K.K.K.K.K.K.K.K.K.K.K.K.K.K.K.K.K.K.K.K.K.K.K.> U Y Y Y Y Y Y > P x.x.x.x.x.x.x.K.K.K.K.K.K.K.K.K.K.K.K.K.K.K.K.K.K.K.K.K.K.K.",
"K.K.K.K.K.K.K.K.K.K.K.K.K.K.K.K.K.K.K.K.K.K.K.K.; P I I I I I P > , z.z.z.z.z.z.K.K.K.K.K.K.K.K.K.K.K.K.K.K.K.K.K.K.K.K.K.K.K.K.",
"K.K.K.K.K.K.K.K.K.K.K.K.K.K.K.K.K.K.K.K.K.K.K.K.K.P I I I I I K.K., z.z.z.z.z.z.K.K.K.K.K.K.K.K.K.K.K.K.K.K.K.K.K.K.K.K.K.K.K.K.",
"K.K.K.K.K.K.K.K.K.K.K.K.K.K.K.K.K.K.K.K.K.K.K.K.K.K.K.K.K.K.K.K.K.K.k.z.z.K.K.K.K.K.K.K.K.K.K.K.K.K.K.K.K.K.K.K.K.K.K.K.K.K.K.K.",
"K.K.K.K.K.K.K.K.K.K.K.K.K.K.K.K.K.K.K.K.K.K.K.K.K.K.K.K.K.K.K.K.K.K.K.K.K.K.K.K.K.K.K.K.K.K.K.K.K.K.K.K.K.K.K.K.K.K.K.K.K.K.K.K.",
"K.K.K.K.K.K.K.K.K.K.K.K.K.K.K.K.K.K.K.K.K.K.K.K.K.K.K.K.K.K.K.K.K.K.K.K.K.K.K.K.K.K.K.K.K.K.K.K.K.K.K.K.K.K.K.K.K.K.K.K.K.K.K.K.",
"K.K.K.K.K.K.K.K.K.K.K.K.K.K.K.K.K.K.K.K.K.K.K.K.K.K.K.K.K.K.K.K.K.K.K.K.K.K.K.K.K.K.K.K.K.K.K.K.K.K.K.K.K.K.K.K.K.K.K.K.K.K.K.K."
};
