/* XPM */
static char *result[] = {
/* columns rows colors chars-per-pixel */
"64 64 145 2 ",
"   c #1B2D1E",
".  c #1C2E21",
"X  c #1E3121",
"o  c #153231",
"O  c #123538",
"+  c #212427",
"@  c #213622",
"#  c #253D23",
"$  c #2E2E32",
"%  c #2F2E3E",
"&  c #2F303D",
"*  c #343435",
"=  c #32333A",
"-  c #2C4624",
";  c #2E4C25",
":  c #304F26",
">  c #314F28",
",  c #335427",
"<  c #345529",
"1  c #37592A",
"2  c #395C2B",
"3  c #355D31",
"4  c #3C612C",
"5  c #336235",
"6  c #3B6732",
"7  c #366E3E",
"8  c #40662F",
"9  c #406A2E",
"0  c #436533",
"q  c #446B34",
"w  c #49663A",
"e  c #4C6A3D",
"r  c #467034",
"t  c #1F1B4E",
"y  c #1F1B50",
"u  c #201B4E",
"i  c #211C54",
"p  c #241E5C",
"a  c #1E204F",
"s  c #152B4E",
"d  c #0D3944",
"f  c #1A2057",
"g  c #1A2A51",
"h  c #1A235E",
"j  c #132B5D",
"k  c #0A3C50",
"l  c #0B3C5E",
"z  c #143254",
"x  c #12335E",
"c  c #2C2C46",
"v  c #28264E",
"b  c #2B294B",
"n  c #313340",
"m  c #3B3C46",
"M  c #37374D",
"N  c #3B3C48",
"B  c #272456",
"V  c #292555",
"C  c #26215E",
"Z  c #292459",
"A  c #2F2C5E",
"S  c #353453",
"D  c #1E1A65",
"F  c #1E1968",
"G  c #231E63",
"H  c #221D6B",
"J  c #241F71",
"K  c #102F62",
"L  c #182868",
"P  c #0D3661",
"I  c #073E6B",
"U  c #113163",
"Y  c #1B2B71",
"T  c #262061",
"R  c #2D2965",
"E  c #25206D",
"W  c #29256F",
"Q  c #272274",
"!  c #282375",
"~  c #29237A",
"^  c #0B4046",
"/  c #014A4E",
"(  c #174A47",
")  c #094253",
"_  c #024E53",
"`  c #06445E",
"'  c #08435D",
"]  c #014B5C",
"[  c #0E4F5A",
"{  c #005555",
"}  c #085750",
"|  c #095B56",
" . c #025459",
".. c #0E515B",
"X. c #025A5A",
"o. c #0C605B",
"O. c #186A5A",
"+. c #2D764D",
"@. c #3C724E",
"#. c #2A6E50",
"$. c #237659",
"%. c #2B7258",
"&. c #054564",
"*. c #084360",
"=. c #024F63",
"-. c #084862",
";. c #034769",
":. c #00496C",
">. c #014A6C",
",. c #004B6E",
"<. c #004C6E",
"1. c #114161",
"2. c #095F63",
"3. c #01526C",
"4. c #00546C",
"5. c #004F72",
"6. c #005572",
"7. c #005176",
"8. c #025476",
"9. c #005178",
"0. c #00567B",
"q. c #00567D",
"w. c #005C7B",
"e. c #00587F",
"r. c #005C7C",
"t. c #096462",
"y. c #036568",
"u. c #066769",
"i. c #086668",
"p. c #036868",
"a. c #006A6A",
"s. c #096473",
"d. c #0C7670",
"f. c #037C7B",
"g. c #04797F",
"h. c #027C7C",
"j. c #486A40",
"k. c #2F2887",
"l. c #312D8E",
"z. c #005780",
"x. c #005881",
"c. c #057081",
"v. c #077485",
"b. c #028182",
"n. c None",
/* pixels */
"n.n.n.n.n.n.n.n.n.n.n.n.n.n.n.n.n.n.n.n.n.n.n.n.n.n.n.n.n.n.n.n.n.n.n.n.n.n.n.n.n.n.n.n.n.n.n.n.n.n.n.n.n.n.n.n.n.n.n.n.n.n.n.n.",
"n.n.n.n.n.n.n.n.n.n.n.n.n.n.n.n.n.n.n.n.n.n.n.n.n.n.n.n.n.n.n.n.n.n.n.n.n.n.n.n.n.n.n.n.n.n.n.n.n.n.n.n.n.n.n.n.n.n.n.n.n.n.n.n.",
"n.n.n.n.n.n.n.n.n.n.n.n.n.n.n.n.n.n.n.n.n.n.n.n.n.n.n.n.n.n.n.n.n.n.n.n.n.n.n.n.n.n.n.n.n.n.n.n.n.n.n.n.n.n.n.n.n.n.n.n.n.n.n.n.",
"n.n.n.n.n.n.n.n.n.n.n.n.n.n.n.n.n.n.n.n.n.n.n.n.n.n.n.n.n.n.n.n.n.n.n.n.n.n.n.n.n.n.n.n.n.n.n.n.n.n.n.n.n.n.n.n.n.n.n.n.n.n.n.n.",
"n.n.n.n.n.n.n.n.n.n.n.n.n.n.n.n.n.n.n.n.n.n.n.n.n.n.n.n.n.n.n.n.n.n.n.n.n.n.n.n.n.n.n.n.n.n.n.n.n.n.n.n.n.n.n.n.n.n.n.n.n.n.n.n.",
"n.n.n.n.n.n.n.n.n.n.n.n.n.n.n.n.n.n.n.n.n.n.n.1 1 < < 1 1 , , , , : , : ; - #   n.n.n.n.n.n.n.n.n.n.n.n.n.n.n.n.n.n.n.n.n.n.n.n.",
"n.n.n.n.n.n.n.n.n.n.n.n.n.n.n.n.n.n.n.n.n.n.< 2 2 4 < < , , , , ; @ X   . .       n.n.n.n.n.n.n.n.n.n.n.n.n.n.n.n.n.n.n.n.n.n.n.",
"n.n.n.n.n.n.n.n.n.n.n.n.n.n.n.n.n.n.n.n.n.n.4 4 2 2 1 , , , , , ; .     . .         n.n.n.n.n.n.n.n.n.n.n.n.n.n.n.n.n.n.n.n.n.n.",
"n.n.n.n.n.n.n.n.n.n.n.n.n.n.n.n.n.n.n.n.n.n.4 4 1 < 2 < , , , , ; .   X X .       n.n.n.n.n.n.n.n.n.n.n.n.n.n.n.n.n.n.n.n.n.n.n.",
"n.n.n.n.n.n.n.n.n.n.n.n.n.n.n.n.n.n.n.n.n.n.1 < , < 1 < , , , < ; .   X . .       n.n.n.n.n.n.n.n.n.n.n.n.n.n.n.n.n.n.n.n.n.n.n.",
"n.n.n.n.n.n.n.n.n.n.n.n.n.n.n.n.n.n.n.n.n.n.2 < , , 1 < < , < 1 , X X X   .       n.n.n.n.n.n.n.n.n.n.n.n.n.n.n.n.n.n.n.n.n.n.n.",
"n.n.n.n.n.n.n.n.n.n.n.n.n.n.n.n.n.n.n.n.n.n.4 2 1 , , 1 1 < < < ;   X .   . . . X n.n.n.n.n.n.n.n.n.n.n.n.n.n.n.n.n.n.n.n.n.n.n.",
"n.n.n.n.n.n.n.n.n.n.n.n.n.n.n.n.n.n.n.n.n.n.q 8 2 < , < 1 1 < < ;   X .     . X X n.n.n.n.n.n.n.n.n.n.n.n.n.n.n.n.n.n.n.n.n.n.n.",
"n.n.n.n.n.n.n.n.n.n.n.n.n.n.n.n.n.n.n.n.n.n.r q 4 < , , , , < < ; . X .     X X X n.n.n.n.n.n.n.n.n.n.n.n.n.n.n.n.n.n.n.n.n.n.n.",
"n.n.n.n.n.n.n.n.n.n.n.n.n.n.n.n.n.n.n.n.n.n.2 4 2 < < < , < , , ; . . .     . X X n.n.n.n.n.n.n.n.n.n.n.n.n.n.n.n.n.n.n.n.n.n.n.",
"n.n.n.n.n.n.n.n.n.n.n.n.n.n.n.n.n.n.n.n.n.n., 1 2 < 1 < < < < < ; . .     . X X X n.n.n.n.n.n.n.n.n.n.n.n.n.n.n.n.n.n.n.n.n.n.n.",
"n.n.n.n.n.n.n.n.n.n.n.n.n.n.n.n.n.n.n.n.n.n.- , 1 4 4 ; : 1 < < ; . . .       . X . n.n.n.n.n.n.n.n.n.n.n.n.n.n.n.n.n.n.n.n.n.n.",
"n.n.n.n.n.n.n.n.n.n.n.n.n.n.n.n.n.n.n.n.n.n.- : 2 9 8 ; ; 1 < 1 > . . X           . n.n.n.n.n.n.n.n.n.n.n.n.n.n.n.n.n.n.n.n.n.n.",
"n.n.n.n.n.n.n.n.n.n.n.n.n.n.e e n.n.n.n.n.n.- , 2 9 8 4 4 4 2 1 :                 ^ ;.n.n.n.n.n.n.n.n.n.n.n.n.n.n.n.n.n.n.n.n.n.",
"n.n.n.n.n.n.n.n.n.n.1 2 0 0 q e w w e w j.@.%.#.$.+.+.+.7 6 6 1 ; . . . o O d k ' 8.7.n.n.n.n.n.n.n.n.n.n.n.n.n.n.n.n.n.n.n.n.n.",
"n.n.n.n.n.n.n.n.n.n.2 4 2 4 4 4 1 1 2 3 O.d.f.h.b.g.c.v.s...[ ..( ) ` ` :.:.,.,.9.x.q.0.n.n.n.n.n.n.n.n.n.n.n.n.n.n.n.n.n.n.n.n.",
"n.n.n.n.n.n.n.n.n.n.4 1 1 1 2 4 1 1 1 3 t.a.a.a.a.4.9.x.0.,.:.,.,.,.,.<.,.,.,.,.9.x.x.q.n.n.n.n.n.n.n.n.n.n.n.n.n.n.n.n.n.n.n.n.",
"n.n.n.n.n.n.n.n.n.n.4 2 1 1 1 4 4 4 4 5 | X.X.t.a.6.q.x.0.,.,.,.,.,.,.,.,.,.,.9.e.x.z.0.n.n.n.n.n.n.n.n.n.n.n.n.n.n.n.n.n.n.n.n.",
"n.n.n.n.n.n.n.n.n.n.4 4 4 2 4 4 4 4 4 2 } { { X.u.r.x.x.q.5.,.,.,.,.<.,.,.,.,.7.q.x.9.n.n.n.n.n.n.n.n.n.n.n.n.n.n.n.n.n.n.n.n.n.",
"n.n.n.n.n.n.n.n.n.n.2 4 4 2 2 2 2 2 4 3 } { { X.u.r.x.x.x.q.5.,.,.,.,.,.:.,.,.,.5.q.;.n.n.n.n.n.n.n.n.n.n.n.n.n.n.n.n.n.n.n.n.n.",
"n.n.n.n.n.n.n.n.n.n.n.1 2 2 < 1 1 1 4 5 o.X.X.X.u.w.x.x.q.5.<.<.;.;.,.;.&.,.,.,.n.n.n.n.n.n.n.n.n.n.n.n.n.n.n.n.n.n.n.n.n.n.n.n.",
"n.n.n.n.n.n.n.n.n.n.n.n.n.n.n.n.n.1 4 5 t.u.2.X.i.4.9.x.0.,.,.,.&.&.,.&.*.,.,.n.n.n.n.n.n.n.n.n.n.n.n.n.n.n.n.n.n.n.n.n.n.n.n.n.",
"n.n.n.n.n.n.n.n.n.n.n.n.n.n.n.n.n.n.n.n.n.n.n.n.t.=.>.3.] ] ,.,.&.*.,.&.&.,.,.n.n.n.n.n.n.n.n.n.n.n.n.n.n.n.n.n.n.n.n.n.n.n.n.n.",
"n.n.n.n.n.n.n.n.n.n.n.n.n.n.n.n.n.n.n.n.n.n.n.n.n.{ / / / _ >.:.*.&.,.&.*.,.,.n.n.n.n.n.n.n.n.n.n.n.n.n.n.n.n.n.n.n.n.n.n.n.n.n.",
"n.n.n.n.n.n.n.n.n.n.n.n.n.n.n.n.n.n.n.n.n.n.n.n.n.{ / / _  .>.&.*.&.,.;.*.&.,.n.n.n.n.n.n.n.n.n.n.n.n.n.n.n.n.n.n.n.n.n.n.n.n.n.",
"n.n.n.n.n.n.n.n.n.n.n.n.n.n.n.n.n.n.n.n.n.n.n.n.n.{ / _ {  .>.:.&.&.,.:.' *.,.n.n.n.n.n.n.n.n.n.n.n.n.n.n.n.n.n.n.n.n.n.n.n.n.n.",
"n.n.n.n.n.n.n.n.n.n.n.n.n.n.n.n.n.n.n.n.n.n.n.n.n.X._ { {  .>.,.&.&.,.:.' *.,.n.n.n.n.n.n.n.n.n.n.n.n.n.n.n.n.n.n.n.n.n.n.n.n.n.",
"n.n.n.n.n.n.n.n.n.n.n.n.n.n.n.n.n.n.n.n.n.n.n.n.n.i.X.{ {  .>.,.&.&.,.:.*.&.,.n.n.n.n.n.n.n.n.n.n.n.n.n.n.n.n.n.n.n.n.n.n.n.n.n.",
"n.n.n.n.n.n.n.n.n.n.n.n.n.n.n.n.n.n.n.n.n.n.n.n.n.p.X.{ {  .<.,.;.:.,.,.,.,.,.n.n.n.n.n.n.n.n.n.n.n.n.n.n.n.n.n.n.n.n.n.n.n.n.n.",
"n.n.n.n.n.n.n.n.n.n.n.n.n.n.n.n.n.n.n.n.n.n.n.n.n.a.X.{ X.y.4.,.,.,.,.:.:.,.:.n.n.n.n.n.n.n.n.n.n.n.n.n.n.n.n.n.n.n.n.n.n.n.n.n.",
"n.n.n.n.n.n.n.n.n.n.n.n.n.n.n.n.n.n.n.n.n.n.n.n.n.a.X.{ X.p.>.;.&.:.,.*.*.,.I n.n.n.n.n.n.n.n.n.n.n.n.n.n.n.n.n.n.n.n.n.n.n.n.n.",
"n.n.n.n.n.n.n.n.n.n.n.n.n.n.n.n.n.n.n.n.n.n.n.n.n.i._ { X.y.-.' l &.:.*.l h D n.n.n.n.n.n.n.n.n.n.n.n.n.n.n.n.n.n.n.n.n.n.n.n.n.",
"n.n.n.n.n.n.n.n.n.n.n.n.n.n.n.n.n.n.n.n.n.n.n.n.n.2.g s z 1.U j f j ,.*.x p D n.n.n.n.n.n.n.n.n.n.n.n.n.n.n.n.n.n.n.n.n.n.n.n.n.",
"n.n.n.n.n.n.n.n.n.n.n.n.n.n.n.n.n.n.n.n.n.n.n.n.n.1.a u i p D p i h P K D D D n.n.n.n.n.n.n.n.n.n.n.n.n.n.n.n.n.n.n.n.n.n.n.n.n.",
"n.n.n.n.n.n.n.n.n.n.n.n.n.n.n.n.n.n.n.n.n.n.n.n.n.p t p C T G H H H L Y J ~ n.n.n.n.n.n.n.n.n.n.n.n.n.n.n.n.n.n.n.n.n.n.n.n.n.n.",
"n.n.n.n.n.n.n.n.n.n.n.n.n.n.n.n.n.n.n.n.n.n.n.n.n.n.n.p T T G H Q J Q l.l.k.n.n.n.n.n.n.n.n.n.n.n.n.n.n.n.n.n.n.n.n.n.n.n.n.n.n.",
"n.n.n.n.n.n.n.n.n.n.n.n.n.n.n.n.n.n.n.n.n.n.n.n.n.n.i i p C E Q Q Q Q Q H G n.n.n.n.n.n.n.n.n.n.n.n.n.n.n.n.n.n.n.n.n.n.n.n.n.n.",
"n.n.n.n.n.n.n.n.n.n.n.n.n.n.n.n.n.n.n.n.n.n.n.n.n.n.p t t p T Q Q Q Q H F D n.n.n.n.n.n.n.n.n.n.n.n.n.n.n.n.n.n.n.n.n.n.n.n.n.n.",
"n.n.n.n.n.n.n.n.n.n.n.n.n.n.n.n.n.n.n.n.n.n.n.n.n.n.p t t i T Q ! ! Q J F n.n.n.n.n.n.n.n.n.n.n.n.n.n.n.n.n.n.n.n.n.n.n.n.n.n.n.",
"n.n.n.n.n.n.n.n.n.n.n.n.n.n.n.n.n.n.n.n.n.n.n.n.n.n.p p i t C E Q Q Q Q H n.n.n.n.n.n.n.n.n.n.n.n.n.n.n.n.n.n.n.n.n.n.n.n.n.n.n.",
"n.n.n.n.n.n.n.n.n.n.n.n.n.n.n.n.n.n.n.n.n.n.n.n.n.n.C T p t i T Q Q E H G n.n.n.n.n.n.n.n.n.n.n.n.n.n.n.n.n.n.n.n.n.n.n.n.n.n.n.",
"n.n.n.n.n.n.n.n.n.n.n.n.n.n.n.n.n.n.n.n.n.n.n.n.n.n.C C C i i p G G G G G n.n.n.n.n.n.n.n.n.n.n.n.n.n.n.n.n.n.n.n.n.n.n.n.n.n.n.",
"n.n.n.n.n.n.n.n.n.n.n.n.n.n.n.n.n.n.n.n.n.n.n.n.n.n.T C C p t p G G G G p n.n.n.n.n.n.n.n.n.n.n.n.n.n.n.n.n.n.n.n.n.n.n.n.n.n.n.",
"n.n.n.n.n.n.n.n.n.n.n.n.n.n.n.n.n.n.n.n.n.n.n.n.n.n.p C T p y p T G G G G n.n.n.n.n.n.n.n.n.n.n.n.n.n.n.n.n.n.n.n.n.n.n.n.n.n.n.",
"n.n.n.n.n.n.n.n.n.n.n.n.n.n.n.n.n.n.n.n.n.n.n.n.n.n.p i C C i i C H E Q Q ! n.n.n.n.n.n.n.n.n.n.n.n.n.n.n.n.n.n.n.n.n.n.n.n.n.n.",
"n.n.n.n.n.n.n.n.n.n.n.n.n.n.n.n.n.n.n.n.n.n.n.n.n.C p i C T p u p E Q Q Q Q n.n.n.n.n.n.n.n.n.n.n.n.n.n.n.n.n.n.n.n.n.n.n.n.n.n.",
"n.n.n.n.n.n.n.n.n.n.n.n.n.n.n.n.n.n.n.n.n.n.n.n.n.p T C T C C i p T Q ! Q Q Q n.n.n.n.n.n.n.n.n.n.n.n.n.n.n.n.n.n.n.n.n.n.n.n.n.",
"n.n.n.n.n.n.n.n.n.n.n.n.n.n.n.n.n.n.n.n.n.n.n.n.% V C Z C C C C C T Q Q ! Q Q n.n.n.n.n.n.n.n.n.n.n.n.n.n.n.n.n.n.n.n.n.n.n.n.n.",
"n.n.n.n.n.n.n.n.n.n.n.n.n.n.n.n.n.n.n.n.n.n.n.n.* = b = b C C C C T E Q Q W R n.n.n.n.n.n.n.n.n.n.n.n.n.n.n.n.n.n.n.n.n.n.n.n.n.",
"n.n.n.n.n.n.n.n.n.n.n.n.n.n.n.n.n.n.n.n.n.n.n.n.* * * * = V T T T C Z A S M N N n.n.n.n.n.n.n.n.n.n.n.n.n.n.n.n.n.n.n.n.n.n.n.n.",
"n.n.n.n.n.n.n.n.n.n.n.n.n.n.n.n.n.n.n.n.n.n.n.n.* * * * = v C T V % = m m m m m n.n.n.n.n.n.n.n.n.n.n.n.n.n.n.n.n.n.n.n.n.n.n.n.",
"n.n.n.n.n.n.n.n.n.n.n.n.n.n.n.n.n.n.n.n.n.n.n.n.n.* * * = b C T V * * m m m m m n.n.n.n.n.n.n.n.n.n.n.n.n.n.n.n.n.n.n.n.n.n.n.n.",
"n.n.n.n.n.n.n.n.n.n.n.n.n.n.n.n.n.n.n.n.n.n.n.n.n.n.n.* & c B Z c * * = m m m m m n.n.n.n.n.n.n.n.n.n.n.n.n.n.n.n.n.n.n.n.n.n.n.",
"n.n.n.n.n.n.n.n.n.n.n.n.n.n.n.n.n.n.n.n.n.n.n.n.n.n.n.n.n.n.n.= * * * * m m m m n.n.n.n.n.n.n.n.n.n.n.n.n.n.n.n.n.n.n.n.n.n.n.n.",
"n.n.n.n.n.n.n.n.n.n.n.n.n.n.n.n.n.n.n.n.n.n.n.n.n.n.n.n.n.n.n.* * * * * = n n.n.n.n.n.n.n.n.n.n.n.n.n.n.n.n.n.n.n.n.n.n.n.n.n.n.",
"n.n.n.n.n.n.n.n.n.n.n.n.n.n.n.n.n.n.n.n.n.n.n.n.n.n.n.n.n.n.n.n.* * $ + n.n.n.n.n.n.n.n.n.n.n.n.n.n.n.n.n.n.n.n.n.n.n.n.n.n.n.n.",
"n.n.n.n.n.n.n.n.n.n.n.n.n.n.n.n.n.n.n.n.n.n.n.n.n.n.n.n.n.n.n.n.n.n.n.n.n.n.n.n.n.n.n.n.n.n.n.n.n.n.n.n.n.n.n.n.n.n.n.n.n.n.n.n.",
"n.n.n.n.n.n.n.n.n.n.n.n.n.n.n.n.n.n.n.n.n.n.n.n.n.n.n.n.n.n.n.n.n.n.n.n.n.n.n.n.n.n.n.n.n.n.n.n.n.n.n.n.n.n.n.n.n.n.n.n.n.n.n.n.",
"n.n.n.n.n.n.n.n.n.n.n.n.n.n.n.n.n.n.n.n.n.n.n.n.n.n.n.n.n.n.n.n.n.n.n.n.n.n.n.n.n.n.n.n.n.n.n.n.n.n.n.n.n.n.n.n.n.n.n.n.n.n.n.n."
};
