/* XPM */
static char *result[] = {
/* columns rows colors chars-per-pixel */
"64 64 141 2 ",
"   c #1E331E",
".  c #20351F",
"X  c #1E3521",
"o  c #1E3827",
"O  c #1D3A29",
"+  c #143C35",
"@  c #133E38",
"#  c #203621",
"$  c #243B22",
"%  c #333435",
"&  c #34343D",
"*  c #37383D",
"=  c #174036",
"-  c #174139",
";  c #274023",
":  c #284224",
">  c #2E4C25",
",  c #304E26",
"<  c #2E5029",
"1  c #325327",
"2  c #365827",
"3  c #345528",
"4  c #375929",
"5  c #3A5D2B",
"6  c #2E5A31",
"7  c #325D31",
"8  c #3C612C",
"9  c #3F682F",
"0  c #3D6331",
"q  c #336238",
"w  c #3B6539",
"e  c #406433",
"r  c #47663A",
"t  c #49653C",
"y  c #49683B",
"u  c #1E1F50",
"i  c #201C4F",
"p  c #211D53",
"a  c #231E5C",
"s  c #1B2757",
"d  c #192C52",
"f  c #1F255F",
"g  c #1E285C",
"h  c #17305F",
"j  c #2C2B45",
"k  c #2C2B4C",
"l  c #3B3C47",
"z  c #36374B",
"x  c #3A3B49",
"c  c #26205D",
"v  c #2F2D5F",
"b  c #302E55",
"n  c #333250",
"m  c #373953",
"M  c #241E63",
"N  c #231E6D",
"B  c #241F70",
"V  c #1A2D63",
"C  c #1C276D",
"Z  c #0C3E6A",
"A  c #15356B",
"S  c #11386F",
"D  c #1B2D72",
"F  c #252066",
"G  c #26206C",
"H  c #2F2D69",
"J  c #262173",
"K  c #292375",
"L  c #2C2870",
"P  c #2A2479",
"I  c #292A7E",
"U  c #24307D",
"Y  c #014B4F",
"T  c #124740",
"R  c #08554F",
"E  c #084656",
"W  c #014C51",
"Q  c #015456",
"!  c #0A5455",
"~  c #0E5C57",
"^  c #025758",
"/  c #0A545F",
"(  c #04595A",
")  c #1F745D",
"_  c #2D6D48",
"`  c #0F4064",
"'  c #074D66",
"]  c #0B4E66",
"[  c #0C4569",
"{  c #054E6C",
"}  c #055566",
"|  c #095165",
" . c #065964",
".. c #0A5B61",
"X. c #03546B",
"o. c #08536B",
"O. c #025A6C",
"+. c #015671",
"@. c #015B74",
"#. c #045D79",
"$. c #0E6163",
"%. c #01606F",
"&. c #0B656B",
"*. c #06686D",
"=. c #126565",
"-. c #177F6F",
";. c #197A69",
":. c #036374",
">. c #086577",
",. c #086870",
"<. c #0C6D70",
"1. c #016278",
"2. c #00637A",
"3. c #07607A",
"4. c #026479",
"5. c #07627E",
"6. c #02667C",
"7. c #00697B",
"8. c #087176",
"9. c #1A7F70",
"0. c #4F6C40",
"q. c #506D42",
"w. c #178170",
"e. c #1A8171",
"r. c #096382",
"t. c #096782",
"y. c #036A83",
"u. c #046982",
"i. c #026C82",
"p. c #056B84",
"a. c #026F86",
"s. c #0B6983",
"d. c #0B6984",
"f. c #0C6985",
"g. c #037283",
"h. c #017185",
"j. c #04728B",
"k. c #00768B",
"l. c #00768C",
"z. c #017A8E",
"x. c None",
/* pixels */
"x.x.x.x.x.x.x.x.x.x.x.x.x.x.x.x.x.x.x.x.x.x.x.x.x.x.x.x.x.x.x.x.x.x.x.x.x.x.x.x.x.x.x.x.x.x.x.x.x.x.x.x.x.x.x.x.x.x.x.x.x.x.x.x.",
"x.x.x.x.x.x.x.x.x.x.x.x.x.x.x.x.x.x.x.x.x.x.x.x.x.x.x.x.x.x.x.x.x.x.x.x.x.x.x.x.x.x.x.x.x.x.x.x.x.x.x.x.x.x.x.x.x.x.x.x.x.x.x.x.",
"x.x.x.x.x.x.x.x.x.x.x.x.x.x.x.x.x.x.x.x.x.x.x.x.x.x.x.x.x.x.x.x.x.x.x.x.x.x.x.x.x.x.x.x.x.x.x.x.x.x.x.x.x.x.x.x.x.x.x.x.x.x.x.x.",
"x.x.x.x.x.x.x.x.x.x.x.x.x.x.x.x.x.x.x.x.x.x.x.x.x.x.x.x.x.x.x.x.x.x.x.x.x.x.x.x.x.x.x.x.x.x.x.x.x.x.x.x.x.x.x.x.x.x.x.x.x.x.x.x.",
"x.x.x.x.x.x.x.x.x.x.x.x.x.x.x.x.x.x.x.x.x.x.x.x.x.x.x.x.x.x.x.x.x.x.x.x.x.x.x.x.x.x.x.x.x.x.x.x.x.x.x.x.x.x.x.x.x.x.x.x.x.x.x.x.",
"x.x.x.x.x.x.x.x.x.x.x.x.x.x.x.x.x.x.x.x.x.x.x.3 5 3 3 4 4 3 1 > 1 1 > 1 1 ; $ x.x.x.x.x.x.x.x.x.x.x.x.x.x.x.x.x.x.x.x.x.x.x.x.x.",
"x.x.x.x.x.x.x.x.x.x.x.x.x.x.x.x.x.x.x.x.x.x.x.5 5 1 , 1 > : $ $ $ $ $ $ $       # x.x.x.x.x.x.x.x.x.x.x.x.x.x.x.x.x.x.x.x.x.x.x.",
"x.x.x.x.x.x.x.x.x.x.x.x.x.x.x.x.x.x.x.x.x.x.x.5 4 1 , 1 > $ $ # X $ $ $ #         X x.x.x.x.x.x.x.x.x.x.x.x.x.x.x.x.x.x.x.x.x.x.",
"x.x.x.x.x.x.x.x.x.x.x.x.x.x.x.x.x.x.x.x.x.x.x.5 3 3 , 1 > $ #   $ : ; $ $           x.x.x.x.x.x.x.x.x.x.x.x.x.x.x.x.x.x.x.x.x.x.",
"x.x.x.x.x.x.x.x.x.x.x.x.x.x.x.x.x.x.x.x.x.x.x.1 1 3 1 1 , $ $ $ ; $ $ $ $           x.x.x.x.x.x.x.x.x.x.x.x.x.x.x.x.x.x.x.x.x.x.",
"x.x.x.x.x.x.x.x.x.x.x.x.x.x.x.x.x.x.x.x.x.x.x.3 1 3 1 1 1 $ ; ; ; $ # $ $ X     X # x.x.x.x.x.x.x.x.x.x.x.x.x.x.x.x.x.x.x.x.x.x.",
"x.x.x.x.x.x.x.x.x.x.x.x.x.x.x.x.x.x.x.x.x.x.x.5 3 3 4 3 > $ $ : $ $ X $ $ $ $ $ $ $ x.x.x.x.x.x.x.x.x.x.x.x.x.x.x.x.x.x.x.x.x.x.",
"x.x.x.x.x.x.x.x.x.x.x.x.x.x.x.x.x.x.x.x.x.x.x.8 3 1 5 3 >   $ : $ # X $ $ $ $ $ $ $ x.x.x.x.x.x.x.x.x.x.x.x.x.x.x.x.x.x.x.x.x.x.",
"x.x.x.x.x.x.x.x.x.x.x.x.x.x.x.x.x.x.x.x.x.x.x.8 4 , 1 1 > $ $ : $ $ # # $ : ; ; $ $ x.x.x.x.x.x.x.x.x.x.x.x.x.x.x.x.x.x.x.x.x.x.",
"x.x.x.x.x.x.x.x.x.x.x.x.x.x.x.x.x.x.x.x.x.x.x.5 4 3 3 1 > $ $ ; $ $ # $ $ ; : ; $ $ x.x.x.x.x.x.x.x.x.x.x.x.x.x.x.x.x.x.x.x.x.x.",
"x.x.x.x.x.x.x.x.x.x.x.x.x.x.x.x.x.x.x.x.x.x.x.1 4 4 3 1 > $ $ $ # # $ ; : $ : $ $ $ x.x.x.x.x.x.x.x.x.x.x.x.x.x.x.x.x.x.x.x.x.x.",
"x.x.x.x.x.x.x.x.x.x.x.x.x.x.x.x.x.x.x.x.x.x.x.> 5 3 > 3 > $ $ $ $ $ $ $ $ # $ $ $ $ x.x.x.x.x.x.x.x.x.x.x.x.x.x.x.x.x.x.x.x.x.x.",
"x.x.x.x.x.x.x.x.x.x.x.x.x.x.x.x.x.x.x.x.x.x.x.> 8 5 3 4 1 $ $ $ : $ $ # X # $ $ $ $ x.x.x.x.x.x.x.x.x.x.x.x.x.x.x.x.x.x.x.x.x.x.",
"x.x.x.x.x.x.x.x.x.x.x.x.x.5 e y 0.q.r y t e 0 4 0 9 8 5 1 $ # # $ # # # . # .   . T >.>.x.x.x.x.x.x.x.x.x.x.x.x.x.x.x.x.x.x.x.x.",
"x.x.x.x.x.x.x.x.x.x.x.x.x.5 8 5 5 w ) ;.e.e.9.-.w.) _ q < $ o X o o O = - - + + @ ..d.s.#.x.x.x.x.x.x.x.x.x.x.x.x.x.x.x.x.x.x.x.",
"x.x.x.x.x.x.x.x.x.x.x.x.5 2 2 5 2 6 =.<.8.7.h.z.z.g.>. .! ! | / } } O.@.@.O.} X.O.5.d.d.5.#.x.x.x.x.x.x.x.x.x.x.x.x.x.x.x.x.x.x.",
"x.x.x.x.x.x.x.x.x.x.x.x.8 4 3 5 5 7 ~ =.&.@.p.l.l.y.@.@.@.@.2.4.4.2.2.#.@.@.@.+.X.5.d.d.d.d.x.x.x.x.x.x.x.x.x.x.x.x.x.x.x.x.x.x.",
"x.x.x.x.x.x.x.x.x.x.x.x.5 5 5 5 5 7 R ^ *.a.j.l.l.u.@.@.1.4.4.4.4.4.2.@.@.@.@.@.#.r.f.d.d.d.x.x.x.x.x.x.x.x.x.x.x.x.x.x.x.x.x.x.",
"x.x.x.x.x.x.x.x.x.x.x.x.x.5 5 5 5 7 R ^ ,.k.l.l.l.h.i.6.2.4.4.4.4.4.2.@.@.@.@.#.t.d.f.f.t.3.x.x.x.x.x.x.x.x.x.x.x.x.x.x.x.x.x.x.",
"x.x.x.x.x.x.x.x.x.x.x.x.x.5 4 2 5 7 ! ( ,.k.l.l.l.l.j.u.4.4.2.2.4.2.@.@.@.@.@.+.@.r.f.f.#.x.x.x.x.x.x.x.x.x.x.x.x.x.x.x.x.x.x.x.",
"x.x.x.x.x.x.x.x.x.x.x.x.x.x.x.x.5 7 =.$.&.a.j.l.l.j.6.6.4.4.O.O.4.2.@.o.o.@.@.X.O.5.d.t.} x.x.x.x.x.x.x.x.x.x.x.x.x.x.x.x.x.x.x.",
"x.x.x.x.x.x.x.x.x.x.x.x.x.x.x.x.x.x.x.$.$.@.u.k.j.3.O.2.4.4.O.O.4.2.@.X.o.@.@.@.x.x.x.x.x.x.x.x.x.x.x.x.x.x.x.x.x.x.x.x.x.x.x.x.",
"x.x.x.x.x.x.x.x.x.x.x.x.x.x.x.x.x.x.x.x.x.x.x.x. .W W O.2.2.O.O.4.2.@.X.o.@.@.@.x.x.x.x.x.x.x.x.x.x.x.x.x.x.x.x.x.x.x.x.x.x.x.x.",
"x.x.x.x.x.x.x.x.x.x.x.x.x.x.x.x.x.x.x.x.x.x.x.x.Q Y W %.2.@.O.O.4.2.@.} } @.@.@.x.x.x.x.x.x.x.x.x.x.x.x.x.x.x.x.x.x.x.x.x.x.x.x.",
"x.x.x.x.x.x.x.x.x.x.x.x.x.x.x.x.x.x.x.x.x.x.x.x.^ Y Q :.2.O.} O.2.2.@.X.} O.@.@.x.x.x.x.x.x.x.x.x.x.x.x.x.x.x.x.x.x.x.x.x.x.x.x.",
"x.x.x.x.x.x.x.x.x.x.x.x.x.x.x.x.x.x.x.x.x.x.x.x.^ W ^ O.2.:.O.O.@.@.@.} | ' +.@.x.x.x.x.x.x.x.x.x.x.x.x.x.x.x.x.x.x.x.x.x.x.x.x.",
"x.x.x.x.x.x.x.x.x.x.x.x.x.x.x.x.x.x.x.x.x.x.x.x. .^ ^ %.2.@.O.O.@.@.@.o.] | @.@.x.x.x.x.x.x.x.x.x.x.x.x.x.x.x.x.x.x.x.x.x.x.x.x.",
"x.x.x.x.x.x.x.x.x.x.x.x.x.x.x.x.x.x.x.x.x.x.x.x.=.( ^ :.4.4.O.O.@.@.@.o.' o.@.#.x.x.x.x.x.x.x.x.x.x.x.x.x.x.x.x.x.x.x.x.x.x.x.x.",
"x.x.x.x.x.x.x.x.x.x.x.x.x.x.x.x.x.x.x.x.x.x.x.x.=.( ( :.4.4.@.@.@.@.@.@.@.@.@.@.x.x.x.x.x.x.x.x.x.x.x.x.x.x.x.x.x.x.x.x.x.x.x.x.",
"x.x.x.x.x.x.x.x.x.x.x.x.x.x.x.x.x.x.x.x.x.x.x.x.=.( ..>.4.4.4.2.@.@.@.@.@.@.@.+.x.x.x.x.x.x.x.x.x.x.x.x.x.x.x.x.x.x.x.x.x.x.x.x.",
"x.x.x.x.x.x.x.x.x.x.x.x.x.x.x.x.x.x.x.x.x.x.x.x.=.( ..:.@.O.O.O.@.@.o.| o.@.@.{ x.x.x.x.x.x.x.x.x.x.x.x.x.x.x.x.x.x.x.x.x.x.x.x.",
"x.x.x.x.x.x.x.x.x.x.x.x.x.x.x.x.x.x.x.x.x.x.x.x. .E / O.} } ' ' @.@.o.] ] Z S D x.x.x.x.x.x.x.x.x.x.x.x.x.x.x.x.x.x.x.x.x.x.x.x.",
"x.x.x.x.x.x.x.x.x.x.x.x.x.x.x.x.x.x.x.x.x.x.x.x./ d s A A h f V +.O.| ' ` F N B x.x.x.x.x.x.x.x.x.x.x.x.x.x.x.x.x.x.x.x.x.x.x.x.",
"x.x.x.x.x.x.x.x.x.x.x.x.x.x.x.x.x.x.x.x.x.x.x.x.g u a N N M M F A [ ' S C N N N x.x.x.x.x.x.x.x.x.x.x.x.x.x.x.x.x.x.x.x.x.x.x.x.",
"x.x.x.x.x.x.x.x.x.x.x.x.x.x.x.x.x.x.x.x.x.x.x.x.x.p a G J J J J M V { D K P P J x.x.x.x.x.x.x.x.x.x.x.x.x.x.x.x.x.x.x.x.x.x.x.x.",
"x.x.x.x.x.x.x.x.x.x.x.x.x.x.x.x.x.x.x.x.x.x.x.x.a p a F N J K K J K U I K J F F x.x.x.x.x.x.x.x.x.x.x.x.x.x.x.x.x.x.x.x.x.x.x.x.",
"x.x.x.x.x.x.x.x.x.x.x.x.x.x.x.x.x.x.x.x.x.x.x.x.a p a M N K K K K J N N N N M M x.x.x.x.x.x.x.x.x.x.x.x.x.x.x.x.x.x.x.x.x.x.x.x.",
"x.x.x.x.x.x.x.x.x.x.x.x.x.x.x.x.x.x.x.x.x.x.x.x.c p p M K K K K P G N B N N N M x.x.x.x.x.x.x.x.x.x.x.x.x.x.x.x.x.x.x.x.x.x.x.x.",
"x.x.x.x.x.x.x.x.x.x.x.x.x.x.x.x.x.x.x.x.x.x.x.x.c p i F K K K K K K N N N N N N x.x.x.x.x.x.x.x.x.x.x.x.x.x.x.x.x.x.x.x.x.x.x.x.",
"x.x.x.x.x.x.x.x.x.x.x.x.x.x.x.x.x.x.x.x.x.x.x.x.c a p F K P P K P P N N N N N x.x.x.x.x.x.x.x.x.x.x.x.x.x.x.x.x.x.x.x.x.x.x.x.x.",
"x.x.x.x.x.x.x.x.x.x.x.x.x.x.x.x.x.x.x.x.x.x.x.x.x.a p F K K P P P J J N G N N x.x.x.x.x.x.x.x.x.x.x.x.x.x.x.x.x.x.x.x.x.x.x.x.x.",
"x.x.x.x.x.x.x.x.x.x.x.x.x.x.x.x.x.x.x.x.x.x.x.x.x.a p F K K K K J K G F N M M x.x.x.x.x.x.x.x.x.x.x.x.x.x.x.x.x.x.x.x.x.x.x.x.x.",
"x.x.x.x.x.x.x.x.x.x.x.x.x.x.x.x.x.x.x.x.x.x.x.x.x.a p M F N N M M M a a a a a x.x.x.x.x.x.x.x.x.x.x.x.x.x.x.x.x.x.x.x.x.x.x.x.x.",
"x.x.x.x.x.x.x.x.x.x.x.x.x.x.x.x.x.x.x.x.x.x.x.x.x.c p a M M M M M M a a a a a x.x.x.x.x.x.x.x.x.x.x.x.x.x.x.x.x.x.x.x.x.x.x.x.x.",
"x.x.x.x.x.x.x.x.x.x.x.x.x.x.x.x.x.x.x.x.x.x.x.x.x.c p a M M M M M M a a a a a x.x.x.x.x.x.x.x.x.x.x.x.x.x.x.x.x.x.x.x.x.x.x.x.x.",
"x.x.x.x.x.x.x.x.x.x.x.x.x.x.x.x.x.x.x.x.x.x.x.x.x.c p a N M N N N N M M N N N x.x.x.x.x.x.x.x.x.x.x.x.x.x.x.x.x.x.x.x.x.x.x.x.x.",
"x.x.x.x.x.x.x.x.x.x.x.x.x.x.x.x.x.x.x.x.x.x.x.x.x.c p a J J K K J P J N N N N x.x.x.x.x.x.x.x.x.x.x.x.x.x.x.x.x.x.x.x.x.x.x.x.x.",
"x.x.x.x.x.x.x.x.x.x.x.x.x.x.x.x.x.x.x.x.x.x.x.x.x.c a a J K K K K J B N N N N x.x.x.x.x.x.x.x.x.x.x.x.x.x.x.x.x.x.x.x.x.x.x.x.x.",
"x.x.x.x.x.x.x.x.x.x.x.x.x.x.x.x.x.x.x.x.x.x.x.x.x.c c M J K K K P K J N N N N x.x.x.x.x.x.x.x.x.x.x.x.x.x.x.x.x.x.x.x.x.x.x.x.x.",
"x.x.x.x.x.x.x.x.x.x.x.x.x.x.x.x.x.x.x.x.x.x.x.x.x.c a M K K K K K K J N N F M x.x.x.x.x.x.x.x.x.x.x.x.x.x.x.x.x.x.x.x.x.x.x.x.x.",
"x.x.x.x.x.x.x.x.x.x.x.x.x.x.x.x.x.x.x.x.x.x.x.x.x.c c c L L L H H H v b n z k x.x.x.x.x.x.x.x.x.x.x.x.x.x.x.x.x.x.x.x.x.x.x.x.x.",
"x.x.x.x.x.x.x.x.x.x.x.x.x.x.x.x.x.x.x.x.x.x.x.x.x.a k & z m z x x x x l l l z x.x.x.x.x.x.x.x.x.x.x.x.x.x.x.x.x.x.x.x.x.x.x.x.x.",
"x.x.x.x.x.x.x.x.x.x.x.x.x.x.x.x.x.x.x.x.x.x.x.x.x.j j % l l l l l l l l l x l x.x.x.x.x.x.x.x.x.x.x.x.x.x.x.x.x.x.x.x.x.x.x.x.x.",
"x.x.x.x.x.x.x.x.x.x.x.x.x.x.x.x.x.x.x.x.x.x.x.x.x.% % % l l l l l l l l l x x.x.x.x.x.x.x.x.x.x.x.x.x.x.x.x.x.x.x.x.x.x.x.x.x.x.",
"x.x.x.x.x.x.x.x.x.x.x.x.x.x.x.x.x.x.x.x.x.x.x.x.x.% % % * l l l l l l l l l x.x.x.x.x.x.x.x.x.x.x.x.x.x.x.x.x.x.x.x.x.x.x.x.x.x.",
"x.x.x.x.x.x.x.x.x.x.x.x.x.x.x.x.x.x.x.x.x.x.x.x.x.x.% % * l l l l l l x.x.x.x.x.x.x.x.x.x.x.x.x.x.x.x.x.x.x.x.x.x.x.x.x.x.x.x.x.",
"x.x.x.x.x.x.x.x.x.x.x.x.x.x.x.x.x.x.x.x.x.x.x.x.x.x.x.x.x.x.x.x.x.x.x.x.x.x.x.x.x.x.x.x.x.x.x.x.x.x.x.x.x.x.x.x.x.x.x.x.x.x.x.x.",
"x.x.x.x.x.x.x.x.x.x.x.x.x.x.x.x.x.x.x.x.x.x.x.x.x.x.x.x.x.x.x.x.x.x.x.x.x.x.x.x.x.x.x.x.x.x.x.x.x.x.x.x.x.x.x.x.x.x.x.x.x.x.x.x.",
"x.x.x.x.x.x.x.x.x.x.x.x.x.x.x.x.x.x.x.x.x.x.x.x.x.x.x.x.x.x.x.x.x.x.x.x.x.x.x.x.x.x.x.x.x.x.x.x.x.x.x.x.x.x.x.x.x.x.x.x.x.x.x.x."
};
