/* XPM */
static char *result[] = {
/* columns rows colors chars-per-pixel */
"64 64 141 2 ",
"   c #1B2D1E",
".  c #1D301F",
"X  c #191A27",
"o  c #17182C",
"O  c #1E1F2A",
"+  c #110F3C",
"@  c #1C2E21",
"#  c #1F212B",
"$  c #1E3120",
"%  c #1A3A2A",
"&  c #0E2F30",
"*  c #0F3132",
"=  c #0B353A",
"-  c #163E30",
";  c #183A31",
":  c #213522",
">  c #243D22",
",  c #272A30",
"<  c #2C2C36",
"1  c #26253E",
"2  c #274122",
"3  c #2A4524",
"4  c #2D4B25",
"5  c #2E402A",
"6  c #284B2A",
"7  c #304F26",
"8  c #32462D",
"9  c #324C2A",
"0  c #2C512C",
"q  c #325127",
"w  c #345429",
"e  c #38552D",
"r  c #37582B",
"t  c #395A2C",
"y  c #3A4535",
"u  c #255435",
"i  c #325A32",
"p  c #435637",
"a  c #47593A",
"s  c #48583D",
"d  c #41613A",
"f  c #120F42",
"g  c #0A1E45",
"h  c #131043",
"j  c #151249",
"k  c #191651",
"l  c #1D1953",
"z  c #1E1A5A",
"x  c #012D44",
"c  c #013347",
"v  c #00334A",
"b  c #003851",
"n  c #231D65",
"m  c #221D6B",
"M  c #241F70",
"N  c #1E366E",
"B  c #1A3D77",
"V  c #252064",
"C  c #2A236C",
"Z  c #272274",
"A  c #292275",
"S  c #222A75",
"D  c #2D267B",
"F  c #2E287C",
"G  c #31297E",
"H  c #3D367D",
"J  c #433E71",
"K  c #423D7C",
"L  c #1D5740",
"P  c #1E5B42",
"I  c #0A5A55",
"U  c #165655",
"Y  c #254D42",
"T  c #2A5141",
"R  c #225E42",
"E  c #315547",
"W  c #3A5340",
"Q  c #1B6E57",
"!  c #035B6C",
"~  c #0C4E75",
"^  c #16497B",
"/  c #0D5177",
"(  c #045F71",
")  c #0A5D7A",
"_  c #12567E",
"`  c #00616E",
"'  c #1F7E6E",
"]  c #036474",
"[  c #0D607E",
"{  c #056E7D",
"}  c #047576",
"|  c #0B7574",
" . c #0C7B75",
".. c #02747C",
"X. c #007A7D",
"o. c #0B7E79",
"O. c #4A4B4D",
"+. c #4D4E54",
"@. c #535555",
"#. c #54555A",
"$. c #57595B",
"%. c #585A5A",
"&. c #444263",
"*. c #342B83",
"=. c #382F87",
"-. c #352E88",
";. c #382F89",
":. c #293E85",
">. c #393087",
",. c #313A87",
"<. c #373188",
"1. c #3A318A",
"2. c #323B8B",
"3. c #3B3393",
"4. c #195381",
"5. c #165A81",
"6. c #066F83",
"7. c #047482",
"8. c #017E83",
"9. c #057788",
"0. c #037F88",
"q. c #018186",
"w. c #0E8984",
"e. c #00868B",
"r. c #00878C",
"t. c #01888A",
"y. c #00898E",
"u. c #008B8E",
"i. c #008B90",
"p. c #008D91",
"a. c #009195",
"s. c #009599",
"d. c #00979B",
"f. c #009A9D",
"g. c #009C9F",
"h. c #009BA0",
"j. c #009CA1",
"k. c #00A1A4",
"l. c #00A2A5",
"z. c #00A4A6",
"x. c None",
/* pixels */
"x.x.x.x.x.x.x.x.x.x.x.x.x.x.x.x.x.x.x.x.x.x.x.x.x.x.x.x.x.x.x.x.x.x.x.x.x.x.x.x.x.x.x.x.x.x.x.x.x.x.x.x.x.x.x.x.x.x.x.x.x.x.x.x.",
"x.x.x.x.x.x.x.x.x.x.x.x.x.x.x.x.x.x.x.x.x.x.x.x.x.x.x.x.x.x.x.x.x.x.x.x.x.x.x.x.x.x.x.x.x.x.x.x.x.x.x.x.x.x.x.x.x.x.x.x.x.x.x.x.",
"x.x.x.x.x.x.x.x.x.x.x.x.x.x.x.x.x.x.x.x.x.x.x.x.x.x.x.x.x.x.x.x.x.x.x.x.x.x.x.x.x.x.x.x.x.x.x.x.x.x.x.x.x.x.x.x.x.x.x.x.x.x.x.x.",
"x.x.x.x.x.x.x.x.x.x.x.x.x.x.x.x.x.x.x.x.x.x.x.x.x.x.x.x.x.x.x.x.x.x.x.x.x.x.x.x.x.x.x.x.x.x.x.x.x.x.x.x.x.x.x.x.x.x.x.x.x.x.x.x.",
"x.x.x.x.x.x.x.x.x.x.x.x.x.x.x.x.x.x.x.x.x.x.x.x.x.x.x.x.x.x.x.x.x.x.x.x.x.x.x.x.x.x.x.x.x.x.x.x.x.x.x.x.x.x.x.x.x.x.x.x.x.x.x.x.",
"x.x.x.x.x.x.x.x.x.x.x.x.x.x.x.x.x.x.x.x.x.x.x.x.x.7 7 7 q w r w q q w w w 3 > $ x.x.x.x.x.x.x.x.x.x.x.x.x.x.x.x.x.x.x.x.x.x.x.x.",
"x.x.x.x.x.x.x.x.x.x.x.x.x.x.x.x.x.x.x.x.x.x.x.q w w w 4 7 w w q 4 4 4 9 8 .   @ x.x.x.x.x.x.x.x.x.x.x.x.x.x.x.x.x.x.x.x.x.x.x.x.",
"x.x.x.x.x.x.x.x.x.x.x.x.x.x.x.x.x.x.x.x.x.x.x.w q q q 7 q w w 7 4 4 4 9 5     @ $ x.x.x.x.x.x.x.x.x.x.x.x.x.x.x.x.x.x.x.x.x.x.x.",
"x.x.x.x.x.x.x.x.x.x.x.x.x.x.x.x.x.x.x.x.x.x.x.w q 4 q r r r w 7 4 4 4 4 2     @ @ x.x.x.x.x.x.x.x.x.x.x.x.x.x.x.x.x.x.x.x.x.x.x.",
"x.x.x.x.x.x.x.x.x.x.x.x.x.x.x.x.x.x.x.x.x.x.x.w w w w t w q w 7 4 4 4 4 2       @ x.x.x.x.x.x.x.x.x.x.x.x.x.x.x.x.x.x.x.x.x.x.x.",
"x.x.x.x.x.x.x.x.x.x.x.x.x.x.x.x.x.x.x.x.x.x.x.7 w t t t q 4 w q 4 4 4 4 2     @ $ x.x.x.x.x.x.x.x.x.x.x.x.x.x.x.x.x.x.x.x.x.x.x.",
"x.x.x.x.x.x.x.x.x.x.x.x.x.x.x.x.x.x.x.x.x.x.x.4 7 r t r 7 4 w q 7 q w q 3 @ @ @ : x.x.x.x.x.x.x.x.x.x.x.x.x.x.x.x.x.x.x.x.x.x.x.",
"x.x.x.x.x.x.x.x.x.x.x.x.x.x.x.x.x.x.x.x.x.x.x.4 q r r w 4 4 q w w r t w 4 @     : x.x.x.x.x.x.x.x.x.x.x.x.x.x.x.x.x.x.x.x.x.x.x.",
"x.x.x.x.x.x.x.x.x.x.x.x.x.x.x.x.x.x.x.x.x.x.x.q w t r w q 4 4 w t t t w 4       : x.x.x.x.x.x.x.x.x.x.x.x.x.x.x.x.x.x.x.x.x.x.x.",
"x.x.x.x.x.x.x.x.x.x.x.x.x.x.x.x.x.x.x.x.x.x.x.w w w w q 7 4 4 w t t t w 4         x.x.x.x.x.x.x.x.x.x.x.x.x.x.x.x.x.x.x.x.x.x.x.",
"x.x.x.x.x.x.x.x.x.x.x.x.x.x.x.x.x.x.x.x.x.x.x.w w w w 4 4 q r t t t t r 4 @ @     x.x.x.x.x.x.x.x.x.x.x.x.x.x.x.x.x.x.x.x.x.x.x.",
"x.x.x.x.x.x.x.x.x.x.x.x.x.x.x.x.x.x.x.x.x.x.x.w q q w q q q w w e e t w 4 @ @ .   x.x.x.x.x.x.x.x.x.x.x.x.x.x.x.x.x.x.x.x.x.x.x.",
"x.x.x.x.x.x.x.x.x.x.x.x.x.x.x.x.x.x.x.x.x.x.d r q 4 q r w q 4 9 y 9 r w 4 @     x.x.x.x.p s a x.x.x.x.x.x.x.x.x.x.x.x.x.x.x.x.x.",
"x.x.x.x.x.x.x.x.x.x.x.x.x.x.x.x.x.x.x.p.e.w.' i 7 4 4 7 7 4 4 7 9 7 q q 4   . % Y Y T E W a p 8 : x.x.x.x.x.x.x.x.x.x.x.x.x.x.x.",
"x.x.x.x.x.x.x.x.x.x.x.x.x.x.x.x.x.x.q.s.f.j.s.Q R L P R u 0 0 0 0 0 6 0 6 - I } q.q.8.q.| U ; . . x.x.x.x.x.x.x.x.x.x.x.x.x.x.x.",
"x.x.x.x.x.x.x.x.x.x.x.x.x.x.x.x.x.x.y.j.z.l.f.t.8.X.q.q.X. . .o.o. .|  .| ..q.a.j.h.s.y.! b *     x.x.x.x.x.x.x.x.x.x.x.x.x.x.x.",
"x.x.x.x.x.x.x.x.x.x.x.x.x.x.x.x.x.d.j.l.l.l.f.e.e.e.e.r.r.y.y.y.u.y.y.e.q.e.e.a.l.l.g.p.! v * $ . x.x.x.x.x.x.x.x.x.x.x.x.x.x.x.",
"x.x.x.x.x.x.x.x.x.x.x.x.x.x.x.x.x.j.l.l.l.l.j.p.e.y.y.y.y.y.y.y.y.y.y.e.e.e.e.p.l.l.l.l.] x * $ $ x.x.x.x.x.x.x.x.x.x.x.x.x.x.x.",
"x.x.x.x.x.x.x.x.x.x.x.x.x.x.x.x.x.s.j.l.l.l.l.l.a.y.y.y.y.y.y.y.y.y.y.e.e.i.s.f.l.l.l.l.] x & . . x.x.x.x.x.x.x.x.x.x.x.x.x.x.x.",
"x.x.x.x.x.x.x.x.x.x.x.x.x.x.x.x.x.x.y.s.l.l.j.s.p.y.y.e.q.e.y.y.y.e.e.y.e.p.h.k.l.l.l.l.( v *     x.x.x.x.x.x.x.x.x.x.x.x.x.x.x.",
"x.x.x.x.x.x.x.x.x.x.x.x.x.x.x.x.x.x.X.t.j.l.s.y.e.y.y.q.X.e.y.e.q.X.q.y.e.e.y.a.l.l.j.a.! v = x.x.x.x.x.x.x.x.x.x.x.x.x.x.x.x.x.",
"x.x.x.x.x.x.x.x.x.x.x.x.x.x.x.x.x.x.x.x.x.x.x.x.y.y.y.q.X.q.e.e.q.X.q.e.e.8...y.j.j.s.8.x.x.x.x.x.x.x.x.x.x.x.x.x.x.x.x.x.x.x.x.",
"x.x.x.x.x.x.x.x.x.x.x.x.x.x.x.x.x.x.x.x.x.x.x.x.y.r.e.8.X.e.r.r.q.X.q.y.y.] c v x.x.x.x.x.x.x.x.x.x.x.x.x.x.x.x.x.x.x.x.x.x.x.x.",
"x.x.x.x.x.x.x.x.x.x.x.x.x.x.x.x.x.x.x.x.x.x.x.x.y.r.8.X.X.e.r.e.q.X.q.r.y.` x x x.x.x.x.x.x.x.x.x.x.x.x.x.x.x.x.x.x.x.x.x.x.x.x.",
"x.x.x.x.x.x.x.x.x.x.x.x.x.x.x.x.x.x.x.x.x.x.x.x.y.y.8.X.X.q.e.e.q.X.8.e.y.! x x x.x.x.x.x.x.x.x.x.x.x.x.x.x.x.x.x.x.x.x.x.x.x.x.",
"x.x.x.x.x.x.x.x.x.x.x.x.x.x.x.x.x.x.x.x.x.x.x.x.r.r.e.8.X.q.e.r.e.X.X.8.y.` x x x.x.x.x.x.x.x.x.x.x.x.x.x.x.x.x.x.x.x.x.x.x.x.x.",
"x.x.x.x.x.x.x.x.x.x.x.x.x.x.x.x.x.x.x.x.x.x.x.x.y.y.r.8.X.q.e.r.e.X.X.X.y.] x v x.x.x.x.x.x.x.x.x.x.x.x.x.x.x.x.x.x.x.x.x.x.x.x.",
"x.x.x.x.x.x.x.x.x.x.x.x.x.x.x.x.x.x.x.x.x.x.x.x.y.y.y.q.X.q.e.e.e.X.X.X.r.] v v x.x.x.x.x.x.x.x.x.x.x.x.x.x.x.x.x.x.x.x.x.x.x.x.",
"x.x.x.x.x.x.x.x.x.x.x.x.x.x.x.x.x.x.x.x.x.x.x.x.y.y.y.e.q.e.r.r.y.q.8.q.y.] v v x.x.x.x.x.x.x.x.x.x.x.x.x.x.x.x.x.x.x.x.x.x.x.x.",
"x.x.x.x.x.x.x.x.x.x.x.x.x.x.x.x.x.x.x.x.x.x.x.x.q.e.e.e.e.y.y.y.y.r.y.y.y.] v v x.x.x.x.x.x.x.x.x.x.x.x.x.x.x.x.x.x.x.x.x.x.x.x.",
"x.x.x.x.x.x.x.x.x.x.x.x.x.x.x.x.x.x.x.x.x.x.x.x.7.X.8.X.X.e.y.q.8.8.e.y.y.] v v x.x.x.x.x.x.x.x.x.x.x.x.x.x.x.x.x.x.x.x.x.x.x.x.",
"x.x.x.x.x.x.x.x.x.x.x.x.x.x.x.x.x.x.x.x.x.x.x.x.4._ / ~ ) 0.y.8.X.X.7.9.0.] x g x.x.x.x.x.x.x.x.x.x.x.x.x.x.x.x.x.x.x.x.x.x.x.x.",
"x.x.x.x.x.x.x.x.x.x.x.x.x.x.x.x.x.x.x.x.x.x.x.x.<.*.Z M S 6.e.X.X.X.~ S :.N h f x.x.x.x.x.x.x.x.x.x.x.x.x.x.x.x.x.x.x.x.x.x.x.x.",
"x.x.x.x.x.x.x.x.x.x.x.x.x.x.x.x.x.x.x.x.x.x.x.x.=.=.F D D ^ _ ..{ 5.B A *.C h h x.x.x.x.x.x.x.x.x.x.x.x.x.x.x.x.x.x.x.x.x.x.x.x.",
"x.x.x.x.x.x.x.x.x.x.x.x.x.x.x.x.x.x.x.x.x.x.x.x.1.1.=.1.-.D A ) [ <.=.=.=.C j x.x.x.x.x.x.x.x.x.x.x.x.x.x.x.x.x.x.x.x.x.x.x.x.x.",
"x.x.x.x.x.x.x.x.x.x.x.x.x.x.x.x.x.x.x.x.x.x.x.x.*.-.;.1.1.1.3.2.,.1.1.=.D n j j x.x.x.x.x.x.x.x.x.x.x.x.x.x.x.x.x.x.x.x.x.x.x.x.",
"x.x.x.x.x.x.x.x.x.x.x.x.x.x.x.x.x.x.x.x.x.x.x.x.M M G *.G *.=.1.1.1.1.=.F n h x.x.x.x.x.x.x.x.x.x.x.x.x.x.x.x.x.x.x.x.x.x.x.x.x.",
"x.x.x.x.x.x.x.x.x.x.x.x.x.x.x.x.x.x.x.x.x.x.x.x.A F G *.*.*.*.=.1.1.1.1.1.C + x.x.x.x.x.x.x.x.x.x.x.x.x.x.x.x.x.x.x.x.x.x.x.x.x.",
"x.x.x.x.x.x.x.x.x.x.x.x.x.x.x.x.x.x.x.x.x.x.x.x.x.*.*.G *.*.*.=.1.1.1.1.1.C h x.x.x.x.x.x.x.x.x.x.x.x.x.x.x.x.x.x.x.x.x.x.x.x.x.",
"x.x.x.x.x.x.x.x.x.x.x.x.x.x.x.x.x.x.x.x.x.x.x.x.x.*.*.*.*.*.=.=.1.1.1.1.1.C h x.x.x.x.x.x.x.x.x.x.x.x.x.x.x.x.x.x.x.x.x.x.x.x.x.",
"x.x.x.x.x.x.x.x.x.x.x.x.x.x.x.x.x.x.x.x.x.x.x.x.x.G *.*.*.*.=.1.1.1.1.1.1.C h x.x.x.x.x.x.x.x.x.x.x.x.x.x.x.x.x.x.x.x.x.x.x.x.x.",
"x.x.x.x.x.x.x.x.x.x.x.x.x.x.x.x.x.x.x.x.x.x.x.x.x.D G F *.*.*.=.=.=.=.=.1.C h x.x.x.x.x.x.x.x.x.x.x.x.x.x.x.x.x.x.x.x.x.x.x.x.x.",
"x.x.x.x.x.x.x.x.x.x.x.x.x.x.x.x.x.x.x.x.x.x.x.x.x.m m M A A A A A A A A D V h x.x.x.x.x.x.x.x.x.x.x.x.x.x.x.x.x.x.x.x.x.x.x.x.x.",
"x.x.x.x.x.x.x.x.x.x.x.x.x.x.x.x.x.x.x.x.x.x.x.x.x.m m m m m m Z A A A A A z h x.x.x.x.x.x.x.x.x.x.x.x.x.x.x.x.x.x.x.x.x.x.x.x.x.",
"x.x.x.x.x.x.x.x.x.x.x.x.x.x.x.x.x.x.x.x.x.x.x.x.x.m m m m m m A A A A A Z k h x.x.x.x.x.x.x.x.x.x.x.x.x.x.x.x.x.x.x.x.x.x.x.x.x.",
"x.x.x.x.x.x.x.x.x.x.x.x.x.x.x.x.x.x.x.x.x.x.x.x.x.F F A A A D *.G G G *.D k h x.x.x.x.x.x.x.x.x.x.x.x.x.x.x.x.x.x.x.x.x.x.x.x.x.",
"x.x.x.x.x.x.x.x.x.x.x.x.x.x.x.x.x.x.x.x.x.x.x.x.x.G *.*.*.*.=.1.1.1.1.1.>.l h x.x.x.x.x.x.x.x.x.x.x.x.x.x.x.x.x.x.x.x.x.x.x.x.x.",
"x.x.x.x.x.x.x.x.x.x.x.x.x.x.x.x.x.x.x.x.x.x.x.x.x.G *.*.*.*.=.1.1.1.1.1.>.z h x.x.x.x.x.x.x.x.x.x.x.x.x.x.x.x.x.x.x.x.x.x.x.x.x.",
"x.x.x.x.x.x.x.x.x.x.x.x.x.x.x.x.x.x.x.x.x.x.x.x.x.*.G *.*.*.=.1.1.1.1.1.>.z h x.x.x.x.x.x.x.x.x.x.x.x.x.x.x.x.x.x.x.x.x.x.x.x.x.",
"x.x.x.x.x.x.x.x.x.x.x.x.x.x.x.x.x.x.x.x.x.x.x.x.x.G G *.G *.=.1.1.1.1.1.=.z h x.x.x.x.x.x.x.x.x.x.x.x.x.x.x.x.x.x.x.x.x.x.x.x.x.",
"x.x.x.x.x.x.x.x.x.x.x.x.x.x.x.x.x.x.x.x.x.x.x.x.x.&.&.&.&.&.J K K K K K H l h x.x.x.x.x.x.x.x.x.x.x.x.x.x.x.x.x.x.x.x.x.x.x.x.x.",
"x.x.x.x.x.x.x.x.x.x.x.x.x.x.x.x.x.x.x.x.x.x.x.x.x.+.+.+.+.+.#.$.$.$.$.$.#.1 h x.x.x.x.x.x.x.x.x.x.x.x.x.x.x.x.x.x.x.x.x.x.x.x.x.",
"x.x.x.x.x.x.x.x.x.x.x.x.x.x.x.x.x.x.x.x.x.x.x.x.x.+.+.+.+.+.#.%.%.%.%.%.$.< o x.x.x.x.x.x.x.x.x.x.x.x.x.x.x.x.x.x.x.x.x.x.x.x.x.",
"x.x.x.x.x.x.x.x.x.x.x.x.x.x.x.x.x.x.x.x.x.x.x.x.x.x.+.+.+.+.#.%.%.%.%.%.@., X x.x.x.x.x.x.x.x.x.x.x.x.x.x.x.x.x.x.x.x.x.x.x.x.x.",
"x.x.x.x.x.x.x.x.x.x.x.x.x.x.x.x.x.x.x.x.x.x.x.x.x.x.+.+.+.+.#.%.%.%.%.%.O.# x.x.x.x.x.x.x.x.x.x.x.x.x.x.x.x.x.x.x.x.x.x.x.x.x.x.",
"x.x.x.x.x.x.x.x.x.x.x.x.x.x.x.x.x.x.x.x.x.x.x.x.x.x.x.x.x.x.$.%.%.%.%.%.O.O x.x.x.x.x.x.x.x.x.x.x.x.x.x.x.x.x.x.x.x.x.x.x.x.x.x.",
"x.x.x.x.x.x.x.x.x.x.x.x.x.x.x.x.x.x.x.x.x.x.x.x.x.x.x.x.x.x.x.x.x.x.x.x.x.x.x.x.x.x.x.x.x.x.x.x.x.x.x.x.x.x.x.x.x.x.x.x.x.x.x.x.",
"x.x.x.x.x.x.x.x.x.x.x.x.x.x.x.x.x.x.x.x.x.x.x.x.x.x.x.x.x.x.x.x.x.x.x.x.x.x.x.x.x.x.x.x.x.x.x.x.x.x.x.x.x.x.x.x.x.x.x.x.x.x.x.x.",
"x.x.x.x.x.x.x.x.x.x.x.x.x.x.x.x.x.x.x.x.x.x.x.x.x.x.x.x.x.x.x.x.x.x.x.x.x.x.x.x.x.x.x.x.x.x.x.x.x.x.x.x.x.x.x.x.x.x.x.x.x.x.x.x."
};
