/* XPM */
static char *result[] = {
/* columns rows colors chars-per-pixel */
"64 64 160 2 ",
"   c #18271A",
".  c #1B2C1D",
"X  c #1D311F",
"o  c #191A27",
"O  c #1A1B29",
"+  c #110F3D",
"@  c #171733",
"#  c #181831",
"$  c #15143A",
"%  c #1C2D20",
"&  c #1F222D",
"*  c #1E3221",
"=  c #16322A",
"-  c #193A2A",
";  c #21222D",
":  c #213621",
">  c #233A21",
",  c #262732",
"<  c #2B2C36",
"1  c #2F3038",
"2  c #33343D",
"3  c #13493D",
"4  c #2B4525",
"5  c #2F4C25",
"6  c #2C4329",
"7  c #304E26",
"8  c #35472E",
"9  c #344A2C",
"0  c #2D532C",
"q  c #325127",
"w  c #355529",
"e  c #3A562E",
"r  c #37582B",
"t  c #3A5C2C",
"y  c #364F33",
"u  c #295B38",
"i  c #3D612E",
"p  c #465A36",
"a  c #465C37",
"s  c #120F40",
"d  c #0C1A41",
"f  c #131144",
"g  c #151249",
"h  c #18144E",
"j  c #1A1653",
"k  c #1E1A5B",
"l  c #211C5E",
"z  c #052541",
"x  c #002D42",
"c  c #052C4B",
"v  c #003047",
"b  c #00344C",
"n  c #003750",
"m  c #2A285E",
"M  c #3C395D",
"N  c #1F1B64",
"B  c #1E1A68",
"V  c #221D65",
"C  c #231E6A",
"Z  c #1B336A",
"A  c #1A386E",
"S  c #262067",
"D  c #26206E",
"F  c #2A236E",
"G  c #393764",
"H  c #272171",
"J  c #2B2575",
"K  c #2E277C",
"L  c #2F287C",
"P  c #332E75",
"I  c #322B7B",
"U  c #2A357F",
"Y  c #363079",
"T  c #38307F",
"R  c #135045",
"E  c #044257",
"W  c #034A5C",
"Q  c #3F4146",
"!  c #3F404A",
"~  c #2F5D48",
"^  c #0F6157",
"/  c #0A665F",
"(  c #106B5F",
")  c #196E5A",
"_  c #236345",
"`  c #2E644C",
"'  c #2E6B51",
"]  c #207055",
"[  c #014F61",
"{  c #005465",
"}  c #065C6A",
"|  c #1D437A",
" . c #13597B",
".. c #0C6A64",
"X. c #147867",
"o. c #137B6B",
"O. c #026371",
"+. c #006B75",
"@. c #016D78",
"#. c #08697D",
"$. c #067471",
"%. c #03747D",
"&. c #09767F",
"*. c #047E7E",
"=. c #207564",
"-. c #444546",
";. c #464847",
":. c #454649",
">. c #4B4D4B",
",. c #565755",
"<. c #5E5F5B",
"1. c #61625D",
"2. c #4A4767",
"3. c #5E5C6B",
"4. c #605F66",
"5. c #646460",
"6. c #0C8077",
"7. c #04817F",
"8. c #0B837C",
"9. c #352C84",
"0. c #382F86",
"q. c #392E88",
"w. c #3A3284",
"e. c #363588",
"r. c #3C328A",
"t. c #3D3A95",
"y. c #41378F",
"u. c #423793",
"i. c #433894",
"p. c #43399D",
"a. c #463CA5",
"s. c #4A3FAA",
"d. c #1C5280",
"f. c #125D81",
"g. c #2B4286",
"h. c #245087",
"j. c #0C6C82",
"k. c #037686",
"l. c #047C81",
"z. c #4D4784",
"x. c #4F4980",
"c. c #49408B",
"v. c #038383",
"b. c #048887",
"n. c #018588",
"m. c #008B8C",
"M. c #018B8C",
"N. c #018E8E",
"B. c #008F90",
"V. c #009192",
"C. c #009596",
"Z. c #0A9790",
"A. c #059A97",
"S. c #009798",
"D. c #009B9C",
"F. c #009E9E",
"G. c #00A4A4",
"H. c #00A5A6",
"J. c #00A8A9",
"K. c None",
/* pixels */
"K.K.K.K.K.K.K.K.K.K.K.K.K.K.K.K.K.K.K.K.K.K.K.K.K.K.K.K.K.K.K.K.K.K.K.K.K.K.K.K.K.K.K.K.K.K.K.K.K.K.K.K.K.K.K.K.K.K.K.K.K.K.K.K.",
"K.K.K.K.K.K.K.K.K.K.K.K.K.K.K.K.K.K.K.K.K.K.K.K.K.K.K.K.K.K.K.K.K.K.K.K.K.K.K.K.K.K.K.K.K.K.K.K.K.K.K.K.K.K.K.K.K.K.K.K.K.K.K.K.",
"K.K.K.K.K.K.K.K.K.K.K.K.K.K.K.K.K.K.K.K.K.K.K.K.K.K.K.K.K.K.K.K.K.K.K.K.K.K.K.K.K.K.K.K.K.K.K.K.K.K.K.K.K.K.K.K.K.K.K.K.K.K.K.K.",
"K.K.K.K.K.K.K.K.K.K.K.K.K.K.K.K.K.K.K.K.K.K.K.K.K.K.K.K.K.K.K.K.K.K.K.K.K.K.K.K.K.K.K.K.K.K.K.K.K.K.K.K.K.K.K.K.K.K.K.K.K.K.K.K.",
"K.K.K.K.K.K.K.K.K.K.K.K.K.K.K.K.K.K.K.K.K.K.K.K.K.K.K.K.K.K.K.K.K.K.K.K.K.K.K.K.K.K.K.K.K.K.K.K.K.K.K.K.K.K.K.K.K.K.K.K.K.K.K.K.",
"K.K.K.K.K.K.K.K.K.K.K.K.K.K.K.K.K.K.K.K.K.K.K.K.q 5 5 w w w w w w q w q 4 4 4 : * K.K.K.K.K.K.K.K.K.K.K.K.K.K.K.K.K.K.K.K.K.K.K.",
"K.K.K.K.K.K.K.K.K.K.K.K.K.K.K.K.K.K.K.K.K.K.K.w w 7 q w w q 7 7 9 > : * . % * * * K.K.K.K.K.K.K.K.K.K.K.K.K.K.K.K.K.K.K.K.K.K.K.",
"K.K.K.K.K.K.K.K.K.K.K.K.K.K.K.K.K.K.K.K.K.K.r w w r t t w q 7 7 8 : . . . % % * * : K.K.K.K.K.K.K.K.K.K.K.K.K.K.K.K.K.K.K.K.K.K.",
"K.K.K.K.K.K.K.K.K.K.K.K.K.K.K.K.K.K.K.K.K.K.w w w i i t r q 5 7 7 : . . . . % % % * K.K.K.K.K.K.K.K.K.K.K.K.K.K.K.K.K.K.K.K.K.K.",
"K.K.K.K.K.K.K.K.K.K.K.K.K.K.K.K.K.K.K.K.K.K.w r t i r w r q 5 5 5 : . . . % % . . % K.K.K.K.K.K.K.K.K.K.K.K.K.K.K.K.K.K.K.K.K.K.",
"K.K.K.K.K.K.K.K.K.K.K.K.K.K.K.K.K.K.K.K.K.K.q r i t w w w q 7 5 5 : % . . % % % % * K.K.K.K.K.K.K.K.K.K.K.K.K.K.K.K.K.K.K.K.K.K.",
"K.K.K.K.K.K.K.K.K.K.K.K.K.K.K.K.K.K.K.K.K.K.5 w t r q q r w w r q : % % % % . . * * K.K.K.K.K.K.K.K.K.K.K.K.K.K.K.K.K.K.K.K.K.K.",
"K.K.K.K.K.K.K.K.K.K.K.K.K.K.K.K.K.K.K.K.K.K.w r t r q q w w t i w : % % % . . X : : K.K.K.K.K.K.K.K.K.K.K.K.K.K.K.K.K.K.K.K.K.K.",
"K.K.K.K.K.K.K.K.K.K.K.K.K.K.K.K.K.K.K.K.K.K.w t t r w q w t i i w : . . . . . . : : K.K.K.K.K.K.K.K.K.K.K.K.K.K.K.K.K.K.K.K.K.K.",
"K.K.K.K.K.K.K.K.K.K.K.K.K.K.K.K.K.K.K.K.K.K.w r r w q w r t i i w : . . . . . . * X K.K.K.K.K.K.K.K.K.K.K.K.K.K.K.K.K.K.K.K.K.K.",
"K.K.K.K.K.K.K.K.K.K.K.K.K.K.K.K.K.K.K.K.K.K.w w w q q w i i i i w > . . % . % . X . K.K.K.K.K.K.K.K.K.K.K.K.K.K.K.K.K.K.K.K.K.K.",
"K.K.K.K.K.K.K.K.K.K.K.K.K.K.K.K.K.K.K.K.K.K.w w w t r r r e t i w > . . . . * . . . K.K.K.K.K.K.K.K.K.K.K.K.K.K.K.K.K.K.K.K.K.K.",
"K.K.K.K.K.K.K.K.K.K.K.K.K.K.K.K.K.K.K.K.K.K.r w q t t w q 9 e i w > . . . . X . .   K.K.K.K.K.K.K.K.K.K.K.K.K.K.K.K.K.K.K.K.K.K.",
"K.K.K.K.K.K.K.K.K.K.K.K.K.K.K.K.K.K.K.K.N.A.] q 5 7 q q q q w r w > . . . . X X X > K.K.K.a p a a a e K.K.K.K.K.K.K.K.K.K.K.K.K.",
"K.K.K.K.K.K.K.K.K.K.K.K.K.K.K.K.K.K.K.K.F.J.Z.o.) _ _ _ u 0 0 0 q > * - 3 R ^ / ..=.' ` ~ y y 6 6 6 > : * K.K.K.K.K.K.K.K.K.K.K.",
"K.K.K.K.K.K.K.K.K.K.K.K.K.K.K.K.K.K.K.H.H.J.J.C.M.b.M.M.v.6.8.8.X.( $.*.N.G.F.C.m.%.} W E = . . X X X . * K.K.K.K.K.K.K.K.K.K.K.",
"K.K.K.K.K.K.K.K.K.K.K.K.K.K.K.K.K.K.K.J.J.J.J.C.N.N.V.V.V.V.V.V.V.N.N.N.C.J.J.F.m.[ b b b = X X * . . . X K.K.K.K.K.K.K.K.K.K.K.",
"K.K.K.K.K.K.K.K.K.K.K.K.K.K.K.K.K.K.K.J.J.J.J.H.C.B.V.V.V.V.V.V.B.N.N.N.V.J.J.J.F.[ x x x = * * * X X X * K.K.K.K.K.K.K.K.K.K.K.",
"K.K.K.K.K.K.K.K.K.K.K.K.K.K.K.K.K.K.K.F.H.J.J.J.D.V.V.V.V.V.V.V.V.B.N.B.D.J.J.J.H.{ x x x = X X * * * * * K.K.K.K.K.K.K.K.K.K.K.",
"K.K.K.K.K.K.K.K.K.K.K.K.K.K.K.K.K.K.K.K.C.J.J.S.V.V.V.M.N.V.V.N.N.B.N.S.J.J.J.J.H.{ x x x = * X X . X X * K.K.K.K.K.K.K.K.K.K.K.",
"K.K.K.K.K.K.K.K.K.K.K.K.K.K.K.K.K.K.K.K.K.K.K.*.N.V.V.v.M.V.N.v.v.B.N.B.D.J.J.H.F.{ x b b = * . . . . K.K.K.K.K.K.K.K.K.K.K.K.K.",
"K.K.K.K.K.K.K.K.K.K.K.K.K.K.K.K.K.K.K.K.K.K.K.K.V.N.N.v.M.V.N.v.v.V.N.n.V.H.J.F.M.W x b b K.K.K.K.K.K.K.K.K.K.K.K.K.K.K.K.K.K.K.",
"K.K.K.K.K.K.K.K.K.K.K.K.K.K.K.K.K.K.K.K.K.K.K.K.V.N.M.v.M.V.N.v.v.V.V.@.W { { @.v.K.K.K.K.K.K.K.K.K.K.K.K.K.K.K.K.K.K.K.K.K.K.K.",
"K.K.K.K.K.K.K.K.K.K.K.K.K.K.K.K.K.K.K.K.K.K.K.K.V.M.*.l.M.V.M.v.v.N.V.O.z x x x K.K.K.K.K.K.K.K.K.K.K.K.K.K.K.K.K.K.K.K.K.K.K.K.",
"K.K.K.K.K.K.K.K.K.K.K.K.K.K.K.K.K.K.K.K.K.K.K.K.V.N.b.v.M.N.N.v.v.N.V.O.z x x x K.K.K.K.K.K.K.K.K.K.K.K.K.K.K.K.K.K.K.K.K.K.K.K.",
"K.K.K.K.K.K.K.K.K.K.K.K.K.K.K.K.K.K.K.K.K.K.K.K.V.V.M.v.v.N.N.v.*.v.V.O.x x x x K.K.K.K.K.K.K.K.K.K.K.K.K.K.K.K.K.K.K.K.K.K.K.K.",
"K.K.K.K.K.K.K.K.K.K.K.K.K.K.K.K.K.K.K.K.K.K.K.K.V.V.B.v.v.N.B.v.*.v.V.+.x x x b K.K.K.K.K.K.K.K.K.K.K.K.K.K.K.K.K.K.K.K.K.K.K.K.",
"K.K.K.K.K.K.K.K.K.K.K.K.K.K.K.K.K.K.K.K.K.K.K.K.V.V.V.n.v.N.B.v.*.v.V.@.v x b n K.K.K.K.K.K.K.K.K.K.K.K.K.K.K.K.K.K.K.K.K.K.K.K.",
"K.K.K.K.K.K.K.K.K.K.K.K.K.K.K.K.K.K.K.K.K.K.K.K.V.V.V.V.B.B.V.M.v.b.V.@.v x b n K.K.K.K.K.K.K.K.K.K.K.K.K.K.K.K.K.K.K.K.K.K.K.K.",
"K.K.K.K.K.K.K.K.K.K.K.K.K.K.K.K.K.K.K.K.K.K.K.K.n.n.M.N.V.V.B.V.V.V.V.@.v x b b K.K.K.K.K.K.K.K.K.K.K.K.K.K.K.K.K.K.K.K.K.K.K.K.",
"K.K.K.K.K.K.K.K.K.K.K.K.K.K.K.K.K.K.K.K.K.K.K.K.j.l.l.*.M.N.v.v.n.V.V.@.v v b b K.K.K.K.K.K.K.K.K.K.K.K.K.K.K.K.K.K.K.K.K.K.K.K.",
"K.K.K.K.K.K.K.K.K.K.K.K.K.K.K.K.K.K.K.K.K.K.K.K.g.g.|  .k.N.v.l.v.B.N.+.v c c z K.K.K.K.K.K.K.K.K.K.K.K.K.K.K.K.K.K.K.K.K.K.K.K.",
"K.K.K.K.K.K.K.K.K.K.K.K.K.K.K.K.K.K.K.K.K.K.K.K.r.q.I J f.M.v.7.&.d.h.A d f f + K.K.K.K.K.K.K.K.K.K.K.K.K.K.K.K.K.K.K.K.K.K.K.K.",
"K.K.K.K.K.K.K.K.K.K.K.K.K.K.K.K.K.K.K.K.K.K.K.K.0.w.0.0.U f.%.j. .I q.F + + f f K.K.K.K.K.K.K.K.K.K.K.K.K.K.K.K.K.K.K.K.K.K.K.K.",
"K.K.K.K.K.K.K.K.K.K.K.K.K.K.K.K.K.K.K.K.K.K.K.K.w.w.u.u.r.9.#.g.e.r.r.F + + g g K.K.K.K.K.K.K.K.K.K.K.K.K.K.K.K.K.K.K.K.K.K.K.K.",
"K.K.K.K.K.K.K.K.K.K.K.K.K.K.K.K.K.K.K.K.K.K.K.K.r.u.u.u.i.L Z t.p.p.r.I S g + f K.K.K.K.K.K.K.K.K.K.K.K.K.K.K.K.K.K.K.K.K.K.K.K.",
"K.K.K.K.K.K.K.K.K.K.K.K.K.K.K.K.K.K.K.K.K.K.K.K.u.u.u.u.u.J J p.a.a.s.p.H g + f K.K.K.K.K.K.K.K.K.K.K.K.K.K.K.K.K.K.K.K.K.K.K.K.",
"K.K.K.K.K.K.K.K.K.K.K.K.K.K.K.K.K.K.K.K.K.K.K.K.u.i.u.u.r.l S I L 9.I V g + + f K.K.K.K.K.K.K.K.K.K.K.K.K.K.K.K.K.K.K.K.K.K.K.K.",
"K.K.K.K.K.K.K.K.K.K.K.K.K.K.K.K.K.K.K.K.K.K.K.K.u.u.u.i.0.j k K K K J V g + s g K.K.K.K.K.K.K.K.K.K.K.K.K.K.K.K.K.K.K.K.K.K.K.K.",
"K.K.K.K.K.K.K.K.K.K.K.K.K.K.K.K.K.K.K.K.K.K.K.w.u.u.u.i.I g j K K K K J j + s g f K.K.K.K.K.K.K.K.K.K.K.K.K.K.K.K.K.K.K.K.K.K.K.",
"K.K.K.K.K.K.K.K.K.K.K.K.K.K.K.K.K.K.K.K.K.K.K.Y w.w.w.r.F g g H K K K K k s + g f K.K.K.K.K.K.K.K.K.K.K.K.K.K.K.K.K.K.K.K.K.K.K.",
"K.K.K.K.K.K.K.K.K.K.K.K.K.K.K.K.K.K.K.K.K.K.K.Y I Y I I k s f C K K K K V f + f f K.K.K.K.K.K.K.K.K.K.K.K.K.K.K.K.K.K.K.K.K.K.K.",
"K.K.K.K.K.K.K.K.K.K.K.K.K.K.K.K.K.K.K.K.K.K.K.I I I I J j + f k H J J K F g + f g K.K.K.K.K.K.K.K.K.K.K.K.K.K.K.K.K.K.K.K.K.K.K.",
"K.K.K.K.K.K.K.K.K.K.K.K.K.K.K.K.K.K.K.K.K.K.w.w.w.w.T J g + + h B V V C V h + f g f K.K.K.K.K.K.K.K.K.K.K.K.K.K.K.K.K.K.K.K.K.K.",
"K.K.K.K.K.K.K.K.K.K.K.K.K.K.K.K.K.K.K.K.K.K.r.i.u.u.u.J g + + g N V V B V j s + g f K.K.K.K.K.K.K.K.K.K.K.K.K.K.K.K.K.K.K.K.K.K.",
"K.K.K.K.K.K.K.K.K.K.K.K.K.K.K.K.K.K.K.K.K.K.y.u.u.u.u.F g f + g V H D C C k f + f f K.K.K.K.K.K.K.K.K.K.K.K.K.K.K.K.K.K.K.K.K.K.",
"K.K.K.K.K.K.K.K.K.K.K.K.K.K.K.K.K.K.K.K.K.K.y.u.u.u.u.l g f f K.K.K K K K C g s g f K.K.K.K.K.K.K.K.K.K.K.K.K.K.K.K.K.K.K.K.K.K.",
"K.K.K.K.K.K.K.K.K.K.K.K.K.K.K.K.K.K.K.K.K.K.u.u.u.u.r.j f + f K.K.K K K K J h g g g K.K.K.K.K.K.K.K.K.K.K.K.K.K.K.K.K.K.K.K.K.K.",
"K.K.K.K.K.K.K.K.K.K.K.K.K.K.K.K.K.K.K.K.K.2.x.z.c.i.T g g f f K.K.J K K K K j g g g f K.K.K.K.K.K.K.K.K.K.K.K.K.K.K.K.K.K.K.K.K.",
"K.K.K.K.K.K.K.K.K.K.K.K.K.K.K.K.K.K.K.K.K.1.5.5.4.3.M $ f g g K.K.K.P I K K V f $ f # K.K.K.K.K.K.K.K.K.K.K.K.K.K.K.K.K.K.K.K.K.",
"K.K.K.K.K.K.K.K.K.K.K.K.K.K.K.K.K.K.K.K.K.<.5.5.5.1.2 o $ g K.K.K.K.:.M M G m @ o O o K.K.K.K.K.K.K.K.K.K.K.K.K.K.K.K.K.K.K.K.K.",
"K.K.K.K.K.K.K.K.K.K.K.K.K.K.K.K.K.K.K.K.K.5.5.5.5.<.< o $ f K.K.K.K.-.-.;.:.Q & o o o K.K.K.K.K.K.K.K.K.K.K.K.K.K.K.K.K.K.K.K.K.",
"K.K.K.K.K.K.K.K.K.K.K.K.K.K.K.K.K.K.K.K.K.5.5.5.5.,.; o o O K.K.K.K.-.:.:.:.:., o o o K.K.K.K.K.K.K.K.K.K.K.K.K.K.K.K.K.K.K.K.K.",
"K.K.K.K.K.K.K.K.K.K.K.K.K.K.K.K.K.K.K.K.K.1.1.5.5.>.O o o o K.K.K.K.K.! -.:.:.2 o o K.K.K.K.K.K.K.K.K.K.K.K.K.K.K.K.K.K.K.K.K.K.",
"K.K.K.K.K.K.K.K.K.K.K.K.K.K.K.K.K.K.K.K.K.K.K.K.K.1 o o o K.K.K.K.K.K.K.K.K.:.2 K.K.K.K.K.K.K.K.K.K.K.K.K.K.K.K.K.K.K.K.K.K.K.K.",
"K.K.K.K.K.K.K.K.K.K.K.K.K.K.K.K.K.K.K.K.K.K.K.K.K.K.K.K.K.K.K.K.K.K.K.K.K.K.K.K.K.K.K.K.K.K.K.K.K.K.K.K.K.K.K.K.K.K.K.K.K.K.K.K.",
"K.K.K.K.K.K.K.K.K.K.K.K.K.K.K.K.K.K.K.K.K.K.K.K.K.K.K.K.K.K.K.K.K.K.K.K.K.K.K.K.K.K.K.K.K.K.K.K.K.K.K.K.K.K.K.K.K.K.K.K.K.K.K.K.",
"K.K.K.K.K.K.K.K.K.K.K.K.K.K.K.K.K.K.K.K.K.K.K.K.K.K.K.K.K.K.K.K.K.K.K.K.K.K.K.K.K.K.K.K.K.K.K.K.K.K.K.K.K.K.K.K.K.K.K.K.K.K.K.K.",
"K.K.K.K.K.K.K.K.K.K.K.K.K.K.K.K.K.K.K.K.K.K.K.K.K.K.K.K.K.K.K.K.K.K.K.K.K.K.K.K.K.K.K.K.K.K.K.K.K.K.K.K.K.K.K.K.K.K.K.K.K.K.K.K."
};
