/* XPM */
static char *result[] = {
/* columns rows colors chars-per-pixel */
"64 64 155 2 ",
"   c #1C2F1E",
".  c #1E331F",
"X  c #191A27",
"o  c #1A1B29",
"O  c #110F3D",
"+  c #1F1F32",
"@  c #15133D",
"#  c #1F202B",
"$  c #1F3520",
"%  c #1E3C26",
"&  c #1F3E29",
"*  c #153E36",
"=  c #183C31",
"-  c #20222C",
";  c #213721",
":  c #243B22",
">  c #283D25",
",  c #2B3E29",
"<  c #292B34",
"1  c #31323B",
"2  c #16413A",
"3  c #1A4D3B",
"4  c #274024",
"5  c #294225",
"6  c #2E4B26",
"7  c #254429",
"8  c #2C4428",
"9  c #2E4829",
"0  c #304F26",
"q  c #344D2B",
"w  c #2D512A",
"e  c #325127",
"r  c #345429",
"t  c #3A522E",
"y  c #37592B",
"u  c #395C2C",
"i  c #2D5033",
"p  c #285B3A",
"a  c #3B5531",
"s  c #3E5A32",
"d  c #305439",
"f  c #3D602E",
"g  c #425D34",
"h  c #4A5E38",
"j  c #4A643B",
"k  c #0E1B45",
"l  c #141145",
"z  c #181544",
"x  c #17144A",
"c  c #19154D",
"v  c #1B1652",
"b  c #1D1855",
"n  c #1E195A",
"m  c #201B5C",
"M  c #0A2145",
"N  c #002D43",
"B  c #023345",
"V  c #04354A",
"C  c #09354E",
"Z  c #112751",
"A  c #102B51",
"S  c #063751",
"D  c #0A3652",
"F  c #073851",
"G  c #0A3A55",
"H  c #0B3C58",
"J  c #252349",
"K  c #373742",
"L  c #373841",
"P  c #3B3B41",
"I  c #2A265A",
"U  c #221D64",
"Y  c #221D6B",
"T  c #241E70",
"R  c #262066",
"E  c #26216B",
"W  c #343064",
"Q  c #262172",
"!  c #2A2474",
"~  c #2D267A",
"^  c #2D2C7D",
"/  c #322A7D",
"(  c #2A317C",
")  c #213B7B",
"_  c #393571",
"`  c #403D66",
"'  c #195341",
"]  c #1C5944",
"[  c #0B4459",
"{  c #215D56",
"}  c #1B6F5B",
"|  c #256446",
" . c #134D6A",
".. c #005661",
"X. c #025865",
"o. c #035B6A",
"O. c #1A4077",
"+. c #10567A",
"@. c #1A5B7D",
"#. c #03616E",
"$. c #08606D",
"%. c #176265",
"&. c #117567",
"*. c #056171",
"=. c #046975",
"-. c #096A72",
";. c #046978",
":. c #0E687D",
">. c #0B7C73",
",. c #00727B",
"<. c #047B7F",
"1. c #10767C",
"2. c #43434A",
"3. c #474851",
"4. c #4D4E54",
"5. c #48485C",
"6. c #515255",
"7. c #5C5D5C",
"8. c #61615E",
"9. c #5D5D63",
"0. c #55526E",
"q. c #4C4875",
"w. c #0B837D",
"e. c #11877A",
"r. c #332B82",
"t. c #382F85",
"y. c #382F88",
"u. c #2F3B86",
"i. c #393087",
"p. c #3D338D",
"a. c #3E3592",
"s. c #463E86",
"d. c #403591",
"f. c #1A5682",
"g. c #0D7787",
"h. c #058584",
"j. c #098481",
"k. c #058887",
"l. c #0B8B83",
"z. c #048589",
"x. c #018A8A",
"c. c #008B8C",
"v. c #018C8C",
"b. c #008F90",
"n. c #019191",
"m. c #019494",
"M. c #089791",
"N. c #00999A",
"B. c #019B9B",
"V. c #009D9E",
"C. c #019FA0",
"Z. c #00A3A4",
"A. c #00A7A8",
"S. c #00A9AA",
"D. c None",
/* pixels */
"D.D.D.D.D.D.D.D.D.D.D.D.D.D.D.D.D.D.D.D.D.D.D.D.D.D.D.D.D.D.D.D.D.D.D.D.D.D.D.D.D.D.D.D.D.D.D.D.D.D.D.D.D.D.D.D.D.D.D.D.D.D.D.D.",
"D.D.D.D.D.D.D.D.D.D.D.D.D.D.D.D.D.D.D.D.D.D.D.D.D.D.D.D.D.D.D.D.D.D.D.D.D.D.D.D.D.D.D.D.D.D.D.D.D.D.D.D.D.D.D.D.D.D.D.D.D.D.D.D.",
"D.D.D.D.D.D.D.D.D.D.D.D.D.D.D.D.D.D.D.D.D.D.D.D.D.D.D.D.D.D.D.D.D.D.D.D.D.D.D.D.D.D.D.D.D.D.D.D.D.D.D.D.D.D.D.D.D.D.D.D.D.D.D.D.",
"D.D.D.D.D.D.D.D.D.D.D.D.D.D.D.D.D.D.D.D.D.D.D.D.D.D.D.D.D.D.D.D.D.D.D.D.D.D.D.D.D.D.D.D.D.D.D.D.D.D.D.D.D.D.D.D.D.D.D.D.D.D.D.D.",
"D.D.D.D.D.D.D.D.D.D.D.D.D.D.D.D.D.D.D.D.D.D.D.D.D.D.D.D.D.D.D.D.D.D.D.D.D.D.D.D.D.D.D.D.D.D.D.D.D.D.D.D.D.D.D.D.D.D.D.D.D.D.D.D.",
"D.D.D.D.D.D.D.D.D.D.D.D.D.D.D.D.D.D.D.D.D.D.D.0 e r r e y r r r r r r 6 6 6 6 6 D.D.D.D.D.D.D.D.D.D.D.D.D.D.D.D.D.D.D.D.D.D.D.D.",
"D.D.D.D.D.D.D.D.D.D.D.D.D.D.D.D.D.D.D.D.D.D.D.r e r r 6 q 8 : : : : ; ; ; 4 > > > D.D.D.D.D.D.D.D.D.D.D.D.D.D.D.D.D.D.D.D.D.D.D.",
"D.D.D.D.D.D.D.D.D.D.D.D.D.D.D.D.D.D.D.D.D.D.r e r u r 6 q , $ $ $ $ $ ; ; : : : > 5 D.D.D.D.D.D.D.D.D.D.D.D.D.D.D.D.D.D.D.D.D.D.",
"D.D.D.D.D.D.D.D.D.D.D.D.D.D.D.D.D.D.D.D.D.D.r e y u r 6 0 5 $ $ $ $ $ ; > ; ; ; , > D.D.D.D.D.D.D.D.D.D.D.D.D.D.D.D.D.D.D.D.D.D.",
"D.D.D.D.D.D.D.D.D.D.D.D.D.D.D.D.D.D.D.D.D.D.r u f y r 6 6 5 ; ; $ $ ; ; > ; $ ; ; ; D.D.D.D.D.D.D.D.D.D.D.D.D.D.D.D.D.D.D.D.D.D.",
"D.D.D.D.D.D.D.D.D.D.D.D.D.D.D.D.D.D.D.D.D.D.r u u r r 0 6 5 : ; $ $ ; ; ; ; $ $ ; : D.D.D.D.D.D.D.D.D.D.D.D.D.D.D.D.D.D.D.D.D.D.",
"D.D.D.D.D.D.D.D.D.D.D.D.D.D.D.D.D.D.D.D.D.D.e u y 0 r r r 6 ; ; ; ; ; ; ; $ ; ; : > D.D.D.D.D.D.D.D.D.D.D.D.D.D.D.D.D.D.D.D.D.D.",
"D.D.D.D.D.D.D.D.D.D.D.D.D.D.D.D.D.D.D.D.D.D.r u y e r y y 6 ; ; : ; ; ; $ $ ; : > 8 D.D.D.D.D.D.D.D.D.D.D.D.D.D.D.D.D.D.D.D.D.D.",
"D.D.D.D.D.D.D.D.D.D.D.D.D.D.D.D.D.D.D.D.D.D.r y y r r f y 6 ; ; ; ; $ $ $ $ : 5 5 8 D.D.D.D.D.D.D.D.D.D.D.D.D.D.D.D.D.D.D.D.D.D.",
"D.D.D.D.D.D.D.D.D.D.D.D.D.D.D.D.D.D.D.D.D.D.r r r r y f u 6 ; ; ; ; ; ; ; ; ; 4 : : D.D.D.D.D.D.D.D.D.D.D.D.D.D.D.D.D.D.D.D.D.D.",
"D.D.D.D.D.D.D.D.D.D.D.D.D.D.D.D.D.D.D.D.D.D.r r r r u f u 6 ; ; ; ; ; ; > ; ; : ; $ D.D.D.D.D.D.D.D.D.D.D.D.D.D.D.D.D.D.D.D.D.D.",
"D.D.D.D.D.D.D.D.D.D.D.D.D.D.D.D.D.D.D.D.D.D.r r y r r y u 6 ; ; ; ; $ ; > : ; ; . . D.D.D.D.D.D.D.D.D.D.D.D.D.D.D.D.D.D.D.D.D.D.",
"D.D.D.D.D.D.D.D.D.D.D.D.D.D.D.D.D.D.D.D.D.D.e e r r e r u 6 : ; ; ;   $ 8 5 ; $   . D.D.D.D.D.D.D.D.D.D.D.D.D.D.D.D.D.D.D.D.D.D.",
"D.D.D.D.D.D.D.D.D.D.D.D.D.D.D.D.D.D.D.D.D.D.| p w e 0 0 r 6 ; ; ; : ; ; 5 > ; .   . . D.D.D.D.D.D.D.D.D.D.D.D.D.D.D.D.D.D.D.D.D.",
"D.D.D.D.D.D.D.D.D.D.D.D.D.D.D.D.D.D.D.D.D.D.l.M.e.} | p w 6 % % 7 7 & 3 ] ] ' ' i a a h j j j j j g s t D.D.D.D.D.D.D.D.D.D.D.D.",
"D.D.D.D.D.D.D.D.D.D.D.D.D.D.D.D.D.D.D.D.D.D.B.S.Z.x.x.h.>.&.>.>.>.w.l.x.h.j.<.-.%.{ d q 5 5 8 9 8 5 4 > : : D.D.D.D.D.D.D.D.D.D.",
"D.D.D.D.D.D.D.D.D.D.D.D.D.D.D.D.D.D.D.D.D.D.S.S.Z.n.c.n.n.n.b.c.c.N.S.m.#.[ [ H G G * . $ ; ; : : : : ; ; : D.D.D.D.D.D.D.D.D.D.",
"D.D.D.D.D.D.D.D.D.D.D.D.D.D.D.D.D.D.D.D.D.D.B.A.S.V.b.n.n.n.c.c.x.m.S.V.*.D C V V V * : : : 4 4 ; $ $ $ ; 5 D.D.D.D.D.D.D.D.D.D.",
"D.D.D.D.D.D.D.D.D.D.D.D.D.D.D.D.D.D.D.D.D.D.D.C.S.N.b.c.n.n.b.c.n.V.S.S.;.F B B B B = : : 4 : : : ; ; : : : D.D.D.D.D.D.D.D.D.D.",
"D.D.D.D.D.D.D.D.D.D.D.D.D.D.D.D.D.D.D.D.D.D.D.m.V.c.b.x.c.c.c.c.V.S.S.S.;.S B B B B = 5 : 5 : : 5 : 5 : 4 : D.D.D.D.D.D.D.D.D.D.",
"D.D.D.D.D.D.D.D.D.D.D.D.D.D.D.D.D.D.D.D.D.D.D.D.D.c.c.h.c.x.h.c.n.Z.S.A.=.S B B V V * 4 4 : ; ; ; : : 4 : : D.D.D.D.D.D.D.D.D.D.",
"D.D.D.D.D.D.D.D.D.D.D.D.D.D.D.D.D.D.D.D.D.D.D.D.D.D.c.h.c.x.h.c.x.m.S.N.o.F B F G G 2 : : ; $ $ $ ; D.D.D.D.D.D.D.D.D.D.D.D.D.D.",
"D.D.D.D.D.D.D.D.D.D.D.D.D.D.D.D.D.D.D.D.D.D.D.D.D.D.x.j.c.x.h.c.=.X.,.<.o.S V G G D.D.D.D.D.D.D.D.D.D.D.D.D.D.D.D.D.D.D.D.D.D.D.",
"D.D.D.D.D.D.D.D.D.D.D.D.D.D.D.D.D.D.D.D.D.D.D.D.D.D.x.j.c.x.h.c.X.N N B V N D.D.D.D.D.D.D.D.D.D.D.D.D.D.D.D.D.D.D.D.D.D.D.D.D.D.",
"D.D.D.D.D.D.D.D.D.D.D.D.D.D.D.D.D.D.D.D.D.D.D.D.D.D.c.j.c.x.j.c...N N N N N D.D.D.D.D.D.D.D.D.D.D.D.D.D.D.D.D.D.D.D.D.D.D.D.D.D.",
"D.D.D.D.D.D.D.D.D.D.D.D.D.D.D.D.D.D.D.D.D.D.D.D.D.D.c.j.x.c.j.k.X.N N N N N D.D.D.D.D.D.D.D.D.D.D.D.D.D.D.D.D.D.D.D.D.D.D.D.D.D.",
"D.D.D.D.D.D.D.D.D.D.D.D.D.D.D.D.D.D.D.D.D.D.D.D.D.D.c.j.x.c.j.h.X.N N N N B D.D.D.D.D.D.D.D.D.D.D.D.D.D.D.D.D.D.D.D.D.D.D.D.D.D.",
"D.D.D.D.D.D.D.D.D.D.D.D.D.D.D.D.D.D.D.D.D.D.D.D.D.D.b.k.x.c.j.h.o.S N N N C D.D.D.D.D.D.D.D.D.D.D.D.D.D.D.D.D.D.D.D.D.D.D.D.D.D.",
"D.D.D.D.D.D.D.D.D.D.D.D.D.D.D.D.D.D.D.D.D.D.D.D.D.D.c.b.b.b.k.x.*.G B N N D D.D.D.D.D.D.D.D.D.D.D.D.D.D.D.D.D.D.D.D.D.D.D.D.D.D.",
"D.D.D.D.D.D.D.D.D.D.D.D.D.D.D.D.D.D.D.D.D.D.D.D.D.D.h.x.c.c.b.n.*.D B B B D D.D.D.D.D.D.D.D.D.D.D.D.D.D.D.D.D.D.D.D.D.D.D.D.D.D.",
"D.D.D.D.D.D.D.D.D.D.D.D.D.D.D.D.D.D.D.D.D.D.D.D.D.D.:.<.c.h.h.b.*.D B V F G D.D.D.D.D.D.D.D.D.D.D.D.D.D.D.D.D.D.D.D.D.D.D.D.D.D.",
"D.D.D.D.D.D.D.D.D.D.D.D.D.D.D.D.D.D.D.D.D.D.D.D.D.D.^ O.z.j.j.v.$.G B V G G D.D.D.D.D.D.D.D.D.D.D.D.D.D.D.D.D.D.D.D.D.D.D.D.D.D.",
"D.D.D.D.D.D.D.D.D.D.D.D.D.D.D.D.D.D.D.D.D.D.D.D.D.D.r.( g.w.1.f. .A M M Z k D.D.D.D.D.D.D.D.D.D.D.D.D.D.D.D.D.D.D.D.D.D.D.D.D.D.",
"D.D.D.D.D.D.D.D.D.D.D.D.D.D.D.D.D.D.D.D.D.D.D.D.D.D.i.i.) :.@.^ R x O l c l D.D.D.D.D.D.D.D.D.D.D.D.D.D.D.D.D.D.D.D.D.D.D.D.D.D.",
"D.D.D.D.D.D.D.D.D.D.D.D.D.D.D.D.D.D.D.D.D.D.D.D.D.D.t.p.^ +.u.y.R x O l c c D.D.D.D.D.D.D.D.D.D.D.D.D.D.D.D.D.D.D.D.D.D.D.D.D.D.",
"D.D.D.D.D.D.D.D.D.D.D.D.D.D.D.D.D.D.D.D.D.D.D.D.D.D.p.p.r.( a.a.! m c l l c D.D.D.D.D.D.D.D.D.D.D.D.D.D.D.D.D.D.D.D.D.D.D.D.D.D.",
"D.D.D.D.D.D.D.D.D.D.D.D.D.D.D.D.D.D.D.D.D.D.D.D.D.p.p.p.r.~ y.a.i.! n l O x D.D.D.D.D.D.D.D.D.D.D.D.D.D.D.D.D.D.D.D.D.D.D.D.D.D.",
"D.D.D.D.D.D.D.D.D.D.D.D.D.D.D.D.D.D.D.D.D.D.D.D.D.a.p.a.! E r./ Y v c l O l c D.D.D.D.D.D.D.D.D.D.D.D.D.D.D.D.D.D.D.D.D.D.D.D.D.",
"D.D.D.D.D.D.D.D.D.D.D.D.D.D.D.D.D.D.D.D.D.D.D.D.D.i.p.a.R U r.r.E v l O O l c D.D.D.D.D.D.D.D.D.D.D.D.D.D.D.D.D.D.D.D.D.D.D.D.D.",
"D.D.D.D.D.D.D.D.D.D.D.D.D.D.D.D.D.D.D.D.D.D.D.D.D.p.p.p.U n r.r./ n x O l c c D.D.D.D.D.D.D.D.D.D.D.D.D.D.D.D.D.D.D.D.D.D.D.D.D.",
"D.D.D.D.D.D.D.D.D.D.D.D.D.D.D.D.D.D.D.D.D.D.D.D.D.r.i.t.b b ~ r./ n x O x c c D.D.D.D.D.D.D.D.D.D.D.D.D.D.D.D.D.D.D.D.D.D.D.D.D.",
"D.D.D.D.D.D.D.D.D.D.D.D.D.D.D.D.D.D.D.D.D.D.D.D.! ! ~ ! v v ~ r.r.U x @ l c c D.D.D.D.D.D.D.D.D.D.D.D.D.D.D.D.D.D.D.D.D.D.D.D.D.",
"D.D.D.D.D.D.D.D.D.D.D.D.D.D.D.D.D.D.D.D.D.D.D.D.! ! ! Y c l Y ~ / R c l l c c c D.D.D.D.D.D.D.D.D.D.D.D.D.D.D.D.D.D.D.D.D.D.D.D.",
"D.D.D.D.D.D.D.D.D.D.D.D.D.D.D.D.D.D.D.D.D.D.D.D.r./ ! Y c @ n Y T Y c l O c c c D.D.D.D.D.D.D.D.D.D.D.D.D.D.D.D.D.D.D.D.D.D.D.D.",
"D.D.D.D.D.D.D.D.D.D.D.D.D.D.D.D.D.D.D.D.D.D.D.D.p.p.t.U x l b Y Y Y v l O x c c D.D.D.D.D.D.D.D.D.D.D.D.D.D.D.D.D.D.D.D.D.D.D.D.",
"D.D.D.D.D.D.D.D.D.D.D.D.D.D.D.D.D.D.D.D.D.D.D.D.p.p.p.U c c v Q T Y v l O x c c D.D.D.D.D.D.D.D.D.D.D.D.D.D.D.D.D.D.D.D.D.D.D.D.",
"D.D.D.D.D.D.D.D.D.D.D.D.D.D.D.D.D.D.D.D.D.D.D.D.d.d.i.m c c c ~ ^ ! n x O x c c D.D.D.D.D.D.D.D.D.D.D.D.D.D.D.D.D.D.D.D.D.D.D.D.",
"D.D.D.D.D.D.D.D.D.D.D.D.D.D.D.D.D.D.D.D.D.D.D.p.p.p.t.b c c l ! r.r.U c l c c c c D.D.D.D.D.D.D.D.D.D.D.D.D.D.D.D.D.D.D.D.D.D.D.",
"D.D.D.D.D.D.D.D.D.D.D.D.D.D.D.D.D.D.D.D.D.D.D.q.s.p./ v c c c ! r.r.Y c c c c c c D.D.D.D.D.D.D.D.D.D.D.D.D.D.D.D.D.D.D.D.D.D.D.",
"D.D.D.D.D.D.D.D.D.D.D.D.D.D.D.D.D.D.D.D.D.D.D.7.9.0.W x x x c R r.r.! v c c c c c D.D.D.D.D.D.D.D.D.D.D.D.D.D.D.D.D.D.D.D.D.D.D.",
"D.D.D.D.D.D.D.D.D.D.D.D.D.D.D.D.D.D.D.D.D.D.D.7.8.8.K X o z c I _ / ~ b c x c c c D.D.D.D.D.D.D.D.D.D.D.D.D.D.D.D.D.D.D.D.D.D.D.",
"D.D.D.D.D.D.D.D.D.D.D.D.D.D.D.D.D.D.D.D.D.D.D.7.7.7.1 X X @ x J 4.5.` J @ o z x @ D.D.D.D.D.D.D.D.D.D.D.D.D.D.D.D.D.D.D.D.D.D.D.",
"D.D.D.D.D.D.D.D.D.D.D.D.D.D.D.D.D.D.D.D.D.D.D.7.7.7.< X X X o + 3.6.4.< X X o o o D.D.D.D.D.D.D.D.D.D.D.D.D.D.D.D.D.D.D.D.D.D.D.",
"D.D.D.D.D.D.D.D.D.D.D.D.D.D.D.D.D.D.D.D.D.D.D.7.7.6.- X X X X - 2.4.4.L X X X X X D.D.D.D.D.D.D.D.D.D.D.D.D.D.D.D.D.D.D.D.D.D.D.",
"D.D.D.D.D.D.D.D.D.D.D.D.D.D.D.D.D.D.D.D.D.D.D.D.D.D.o X X X X D.D.4.4.P o X X X X D.D.D.D.D.D.D.D.D.D.D.D.D.D.D.D.D.D.D.D.D.D.D.",
"D.D.D.D.D.D.D.D.D.D.D.D.D.D.D.D.D.D.D.D.D.D.D.D.D.D.D.D.D.D.D.D.D.D.4.2.# X X D.D.D.D.D.D.D.D.D.D.D.D.D.D.D.D.D.D.D.D.D.D.D.D.D.",
"D.D.D.D.D.D.D.D.D.D.D.D.D.D.D.D.D.D.D.D.D.D.D.D.D.D.D.D.D.D.D.D.D.D.D.D.D.D.D.D.D.D.D.D.D.D.D.D.D.D.D.D.D.D.D.D.D.D.D.D.D.D.D.D.",
"D.D.D.D.D.D.D.D.D.D.D.D.D.D.D.D.D.D.D.D.D.D.D.D.D.D.D.D.D.D.D.D.D.D.D.D.D.D.D.D.D.D.D.D.D.D.D.D.D.D.D.D.D.D.D.D.D.D.D.D.D.D.D.D.",
"D.D.D.D.D.D.D.D.D.D.D.D.D.D.D.D.D.D.D.D.D.D.D.D.D.D.D.D.D.D.D.D.D.D.D.D.D.D.D.D.D.D.D.D.D.D.D.D.D.D.D.D.D.D.D.D.D.D.D.D.D.D.D.D."
};
