/* XPM */
static char *result[] = {
/* columns rows colors chars-per-pixel */
"64 64 144 2 ",
"   c #1D0F0A",
".  c #1C1207",
"X  c #1E1409",
"o  c #201507",
"O  c #211609",
"+  c #25190B",
"@  c #291C0D",
"#  c #2B1D11",
"$  c #332315",
"%  c #3D2C1E",
"&  c #432D1D",
"*  c #4E311F",
"=  c #4F2D23",
"-  c #532F26",
";  c #433021",
":  c #4D3224",
">  c #433A2B",
",  c #483B2B",
"<  c #543126",
"1  c #593626",
"2  c #5B3927",
"3  c #533B2B",
"4  c #5C3B2A",
"5  c #623E2B",
"6  c #4C402F",
"7  c #484131",
"8  c #64412B",
"9  c #68432C",
"0  c #634634",
"q  c #6C4632",
"w  c #6C4936",
"e  c #634A38",
"r  c #6E4C3E",
"t  c #714B37",
"y  c #6C503F",
"u  c #272059",
"i  c #3E3B5F",
"p  c #193E65",
"a  c #2A2364",
"s  c #252F67",
"d  c #2D266B",
"f  c #2A2D6D",
"g  c #322961",
"h  c #352E6D",
"j  c #223164",
"k  c #23396E",
"l  c #3A3566",
"z  c #37316B",
"x  c #393368",
"c  c #2F2971",
"v  c #302670",
"b  c #312974",
"n  c #293572",
"m  c #223D71",
"M  c #4A375A",
"N  c #413E5A",
"B  c #4E3D59",
"V  c #423462",
"C  c #1F5B55",
"Z  c #364F44",
"A  c #3C5144",
"S  c #315248",
"D  c #285F57",
"F  c #3D5256",
"G  c #15635E",
"H  c #3D6158",
"J  c #3F685F",
"K  c #174B70",
"L  c #1C4C76",
"P  c #115C76",
"I  c #0F6764",
"U  c #0E6865",
"Y  c #04666C",
"T  c #0E6468",
"R  c #016D6D",
"E  c #0B6A68",
"W  c #146460",
"Q  c #1D6761",
"!  c #166863",
"~  c #196862",
"^  c #0B726F",
"/  c #19736F",
"(  c #0B6272",
")  c #026E72",
"_  c #007474",
"`  c #097776",
"'  c #027578",
"]  c #007A7A",
"[  c #147471",
"{  c #1F7A73",
"}  c #236C67",
"|  c #326C65",
" . c #3C6960",
".. c #22706C",
"X. c #3D7369",
"o. c #4B4B4B",
"O. c #564148",
"+. c #525240",
"@. c #454454",
"#. c #484750",
"$. c #424058",
"%. c #5F4656",
"&. c #4C5E50",
"*. c #6A4F40",
"=. c #6C5041",
"-. c #6B504A",
";. c #665B4D",
":. c #6E5B4B",
">. c #745545",
",. c #795545",
"<. c #775847",
"1. c #795846",
"2. c #72524B",
"3. c #725949",
"4. c #7A5B4B",
"5. c #614551",
"6. c #775A54",
"7. c #7C5D50",
"8. c #4E6152",
"9. c #48655B",
"0. c #516357",
"q. c #5B6053",
"w. c #81604E",
"e. c #836252",
"r. c #846D5F",
"t. c #8A787C",
"y. c #248079",
"u. c #7C7387",
"i. c #857A85",
"p. c #008282",
"a. c #008989",
"s. c #008D8D",
"d. c #088D8B",
"f. c #0D908E",
"g. c #009191",
"h. c #009494",
"j. c #0C9391",
"k. c #009B9B",
"l. c #009E9E",
"z. c #009FA0",
"x. c #9A8980",
"c. c #A0938C",
"v. c #A9A4A0",
"b. c None",
/* pixels */
"b.b.b.b.b.b.b.b.b.b.b.b.b.b.b.b.b.b.b.b.b.b.b.b.b.b.b.b.b.b.b.b.b.b.b.b.b.b.b.b.b.b.b.b.b.b.b.b.b.b.b.b.b.b.b.b.b.b.b.b.b.b.b.b.",
"b.b.b.b.b.b.b.b.b.b.b.b.b.b.b.b.b.b.b.b.b.b.b.b.b.b.b.b.b.b.b.b.b.b.b.b.b.b.b.b.b.b.b.b.b.b.b.b.b.b.b.b.b.b.b.b.b.b.b.b.b.b.b.b.",
"b.b.b.b.b.b.b.b.b.b.b.b.b.b.b.b.b.b.b.b.b.b.b.b.b.b.b.b.b.b.b.b.b.b.b.b.b.b.b.b.b.b.b.b.b.b.b.b.b.b.b.b.b.b.b.b.b.b.b.b.b.b.b.b.",
"b.b.b.b.b.b.b.b.b.b.b.b.b.b.b.b.b.b.b.b.b.b.b.b.b.b.b.b.b.b.b.b.b.b.b.b.b.b.b.b.b.b.b.b.b.b.b.b.b.b.b.b.b.b.b.b.b.b.b.b.b.b.b.b.",
"b.b.b.b.b.b.b.b.b.b.b.b.b.b.b.b.b.b.b.b.b.b.b.b.b.b.b.b.b.b.b.b.b.b.b.b.b.b.b.b.b.b.b.b.b.b.b.b.b.b.b.b.b.b.b.b.b.b.b.b.b.b.b.b.",
"b.b.b.b.b.b.b.b.b.b.b.b.b.b.b.b.b.b.b.b.b.b.b.b.b.b.b.b.b.b.b.b.b.b.b.b.b.b.b.b.b.b.b.b.b.b.b.b.b.b.b.b.b.b.b.b.b.b.b.b.b.b.b.b.",
"b.b.b.b.b.b.b.b.b.b.b.b.b.b.b.b.b.b.b.b.b.b.b.b.b.b.b.b.b.b.b.b.O + + + b.b.b.b.b.b.b.b.b.b.b.b.b.b.b.b.b.b.b.b.b.b.b.b.b.b.b.b.",
"b.b.b.b.b.b.b.b.b.b.b.b.b.b.b.b.b.b.b.b.b.b.b.b.b.b.b.b.+ + + O o o o o o b.b.b.b.b.b.b.b.b.b.b.b.b.b.b.b.b.b.b.b.b.b.b.b.b.b.b.",
"b.b.b.b.b.b.b.b.b.b.b.b.b.b.b.b.b.b.b.b.b.b.b.b.  o o + @ @ + + o o O + + O b.b.b.b.b.b.b.b.b.b.b.b.b.b.b.b.b.b.b.b.b.b.b.b.b.b.",
"b.b.b.b.b.b.b.b.b.b.b.b.b.b.b.b.b.b.b.b.b.b.b.b.X o o @ @ + o + + + @ @ @ + b.b.b.b.b.b.b.b.b.b.b.b.b.b.b.b.b.b.b.b.b.b.b.b.b.b.",
"b.b.b.b.b.b.b.b.b.b.b.b.b.b.b.b.b.b.b.b.b.b.b.b.. o + @ @ + + o O + @ @ @ @ @ b.b.b.b.b.b.b.b.b.b.b.b.b.b.b.b.b.b.b.b.b.b.b.b.b.",
"b.b.b.b.b.b.b.b.b.b.b.b.b.b.b.b.b.b.b.b.b.b.b.b.. . o + @ + + + + + + o o @ @ + b.b.b.b.b.b.b.b.b.b.b.b.b.b.b.b.b.b.b.b.b.b.b.b.",
"b.b.b.b.b.b.b.b.b.b.b.b.b.b.b.b.b.b.b.b.b.b.b.b.. . X @ @ + + @ + + o X X o o X b.b.b.b.b.b.b.b.b.b.b.b.b.b.b.b.b.b.b.b.b.b.b.b.",
"b.b.b.b.b.b.b.b.b.b.b.b.b.b.b.b.b.b.b.b.b.b.b.b.X X X O @ @ + + + o . . X X X X b.b.b.b.b.b.b.b.b.b.b.b.b.b.b.b.b.b.b.b.b.b.b.b.",
"b.b.b.b.b.b.b.b.b.b.b.b.b.b.b.b.b.b.b.b.b.b.b.b.X X X X O O o X o o o + @ # # O b.b.b.b.b.b.b.b.b.b.b.b.b.b.b.b.b.b.b.b.b.b.b.b.",
"b.b.b.b.b.b.b.b.b.b.b.b.b.b.b.b.b.b.b.b.b.b.b.b.X X X X o o X X + $ ; 3 e r w $ b.b.b.b.b.b.b.b.b.b.b.b.b.b.b.b.b.b.b.b.b.b.b.b.",
"b.b.b.b.b.b.b.b.b.b.b.b.b.b.b.b.b.b.b.b.b.b.b.b.X X X . X o % 3 *.7.e.w.e.,.w 0 b.b.b.b.b.b.b.b.b.b.b.b.b.b.b.b.b.b.b.b.b.b.b.b.",
"b.b.b.b.b.b.b.b.b.b.b.b.b.b.b.b.b.b.b.b.b.b.b.b.X . X X O @ >.w.w.e.4.<.7.7.r.<.X.g.g.b.b.b.b.b.b.b.b.b.b.b.b.b.b.b.b.b.b.b.b.b.",
"b.b.b.b.b.b.b.b.b.b.b.b.b.b.b.b.b.b.b.b.b.b.b.b.o . + & 3 e 4.4.2.4.4.2.M u.v.4.y.k.k.l.b.b.b.b.b.b.b.b.b.b.b.b.b.b.b.b.b.b.b.b.",
"b.b.b.b.b.b.b.b.b.b.b.b.b.b.b.b.b.b.b.b.b.b.b.b.* $ $ 4 >.4.x.i.M 2.,.2.%.6.4.4 { z.l.l.k.b.b.b.b.b.b.b.b.b.b.b.b.b.b.b.b.b.b.b.",
"b.b.b.b.b.b.b.b.b.b.b.b.b.b.b.b.b.b.b.b.b.b.b.b.e 4 1 5 ,.e.c.t.5.4 : 4 ,.t 9 4 { h.g.a.p.b.b.b.b.b.b.b.b.b.b.b.b.b.b.b.b.b.b.b.",
"b.b.b.b.b.b.b.b.b.b.b.b.b.b.b.b.b.b.b.b.b.b.h.h.d.&.q 9 q t ,.,.r < = - < 4 8 2 Q ] ] ] ] b.b.b.b.b.b.b.b.b.b.b.b.b.b.b.b.b.b.b.",
"b.b.b.b.b.b.b.b.b.b.b.b.b.b.b.b.b.b.b.s.k.l.k.k.l.j.8.9 9 q q 5 < < < < 1 4 4 6 ! ] ] ] ] b.b.b.b.b.b.b.b.b.b.b.b.b.b.b.b.b.b.b.",
"b.b.b.b.b.b.b.b.b.b.b.b.b.b.b.b.b.b.b.] h.l.l.l.l.l.f.+.5 5 2 1 2 2 3 7 A D ~ ^ ] ] ] ] ] b.b.b.b.b.b.b.b.b.b.b.b.b.b.b.b.b.b.b.",
"b.b.b.b.b.b.b.b.b.b.b.b.b.b.b.b.b.b.b.' p.h.k.g.s.a.p.~ , : > > 2 2 Z R ' ] ] ] ] ] ] ] ] b.b.b.b.b.b.b.b.b.b.b.b.b.b.b.b.b.b.b.",
"b.b.b.b.b.b.b.b.b.b.b.b.b.b.b.b.b.b.b.] ] ] ] ] ] ] ] ' U W R G S C I ' ] ] ] ] ] ] ` [ ..b.b.b.b.b.b.b.b.b.b.b.b.b.b.b.b.b.b.b.",
"b.b.b.b.b.b.b.b.b.b.b.b.b.b.b.b.b.b.b.] ] ] ] ] ] ] ] ] ] ] ] _ R R _ ] ] ] ' [ | 9.q.:.3.b.b.b.b.b.b.b.b.b.b.b.b.b.b.b.b.b.b.b.",
"b.b.b.b.b.b.b.b.b.b.b.b.b.b.b.b.b.b.b.` ] ] ] ] ] ] ] ] ] ] ] ' R R _ ] ' R E ;.1.1.1.1.<.b.b.b.b.b.b.b.b.b.b.b.b.b.b.b.b.b.b.b.",
"b.b.b.b.b.b.b.b.b.b.b.b.b.b.b.b.b.b.b.9.] ] ] ] ] ] ] ] ] ' ] ] ' R _ ] _ R E ;.1.<.<.<.<.b.b.b.b.b.b.b.b.b.b.b.b.b.b.b.b.b.b.b.",
"b.b.b.b.b.b.b.b.b.b.b.b.b.b.b.b.b.b.b.3.| ] ] ] ` / | } R R ' ] ] R _ ] ' _ E ;.<.=.*.>.<.b.b.b.b.b.b.b.b.b.b.b.b.b.b.b.b.b.b.b.",
"b.b.b.b.b.b.b.b.b.b.b.b.b.b.b.b.b.b.b.<.3. .J 0.;.:.1.H R R _ ] ' R _ ] ' _ E ;.<.>.>.<.<.b.b.b.b.b.b.b.b.b.b.b.b.b.b.b.b.b.b.b.",
"b.b.b.b.b.b.b.b.b.b.b.b.b.b.b.b.b.b.b.>.<.<.1.1.1.1.1.H R R ' ' R _ ] ] ' _ E ;.1.<.<.<.<.b.b.b.b.b.b.b.b.b.b.b.b.b.b.b.b.b.b.b.",
"b.b.b.b.b.b.b.b.b.b.b.b.b.b.b.b.b.b.b.>.<.<.<.<.<.>.,.H R ] ] ' R _ ] ] ' ' E ;.1.<.<.<.>.b.b.b.b.b.b.b.b.b.b.b.b.b.b.b.b.b.b.b.",
"b.b.b.b.b.b.b.b.b.b.b.b.b.b.b.b.b.b.b.>.<.<.<.=.*.=.,.H R ] ] ' R _ ] ] ] ' E ;.<.=.<.>.*.b.b.b.b.b.b.b.b.b.b.b.b.b.b.b.b.b.b.b.",
"b.b.b.b.b.b.b.b.b.b.b.b.b.b.b.b.b.b.b.>.<.<.<.>.>.<.,.H _ ] ] ' R _ ] ] ] ' E ;.>.=.<.>.*.b.b.b.b.b.b.b.b.b.b.b.b.b.b.b.b.b.b.b.",
"b.b.b.b.b.b.b.b.b.b.b.b.b.b.b.b.b.b.b.<.<.<.<.<.<.<.,.J ] ' ' _ _ ' ' ) ' ' E ;.>.=.<.>.*.b.b.b.b.b.b.b.b.b.b.b.b.b.b.b.b.b.b.b.",
"b.b.b.b.b.b.b.b.b.b.b.b.b.b.b.b.b.b.b.<.<.<.<.<.<.<.>.H R R Y ( P L k j ( ) E ;.>.=.<.>.*.b.b.b.b.b.b.b.b.b.b.b.b.b.b.b.b.b.b.b.",
"b.b.b.b.b.b.b.b.b.b.b.b.b.b.b.b.b.b.b.<.<.<.<.=.>.<.*.F K m n c b b v d s p T ;.<.b.b.b.b.b.b.b.b.b.b.b.b.b.b.b.b.b.b.b.b.b.b.b.",
"b.b.b.b.b.b.b.b.b.b.b.b.b.b.b.b.b.b.b.=.<.<.<.*.>.<.=.B b b b b b b b b d f n b.b.b.b.b.b.b.b.b.b.b.b.b.b.b.b.b.b.b.b.b.b.b.b.b.",
"b.b.b.b.b.b.b.b.b.b.b.b.b.b.b.b.b.b.b.b.<.<.<.*.>.<.y B b b b b b b b b b b b b.b.b.b.b.b.b.b.b.b.b.b.b.b.b.b.b.b.b.b.b.b.b.b.b.",
"b.b.b.b.b.b.b.b.b.b.b.b.b.b.b.b.b.b.b.b.<.<.<.*.>.-.O.V b b b b b b b b b b b b.b.b.b.b.b.b.b.b.b.b.b.b.b.b.b.b.b.b.b.b.b.b.b.b.",
"b.b.b.b.b.b.b.b.b.b.b.b.b.b.b.b.b.b.b.b.b.<.<.b.b.g u b b b b b b b b b b b b b.b.b.b.b.b.b.b.b.b.b.b.b.b.b.b.b.b.b.b.b.b.b.b.b.",
"b.b.b.b.b.b.b.b.b.b.b.b.b.b.b.b.b.b.b.b.b.b.b.b.b.a a b b b b b b b b b b b b b.b.b.b.b.b.b.b.b.b.b.b.b.b.b.b.b.b.b.b.b.b.b.b.b.",
"b.b.b.b.b.b.b.b.b.b.b.b.b.b.b.b.b.b.b.b.b.b.b.b.b.a d b b b b b b b b b b b b b.b.b.b.b.b.b.b.b.b.b.b.b.b.b.b.b.b.b.b.b.b.b.b.b.",
"b.b.b.b.b.b.b.b.b.b.b.b.b.b.b.b.b.b.b.b.b.b.b.b.b.a d b b b b b b b b b b b b b.b.b.b.b.b.b.b.b.b.b.b.b.b.b.b.b.b.b.b.b.b.b.b.b.",
"b.b.b.b.b.b.b.b.b.b.b.b.b.b.b.b.b.b.b.b.b.b.b.b.b.a d b b b b b b b b d d d b b.b.b.b.b.b.b.b.b.b.b.b.b.b.b.b.b.b.b.b.b.b.b.b.b.",
"b.b.b.b.b.b.b.b.b.b.b.b.b.b.b.b.b.b.b.b.b.b.b.b.b.a d b b b d c b b d a a d b b.b.b.b.b.b.b.b.b.b.b.b.b.b.b.b.b.b.b.b.b.b.b.b.b.",
"b.b.b.b.b.b.b.b.b.b.b.b.b.b.b.b.b.b.b.b.b.b.b.b.b.a d b c a a d b b b b b b b b.b.b.b.b.b.b.b.b.b.b.b.b.b.b.b.b.b.b.b.b.b.b.b.b.",
"b.b.b.b.b.b.b.b.b.b.b.b.b.b.b.b.b.b.b.b.b.b.b.b.b.d d b b d c b b b b b b b b b.b.b.b.b.b.b.b.b.b.b.b.b.b.b.b.b.b.b.b.b.b.b.b.b.",
"b.b.b.b.b.b.b.b.b.b.b.b.b.b.b.b.b.b.b.b.b.b.b.b.b.b b b b b b b b b b b b b b b.b.b.b.b.b.b.b.b.b.b.b.b.b.b.b.b.b.b.b.b.b.b.b.b.",
"b.b.b.b.b.b.b.b.b.b.b.b.b.b.b.b.b.b.b.b.b.b.b.b.b.z b b b b b b b b b b b b b b.b.b.b.b.b.b.b.b.b.b.b.b.b.b.b.b.b.b.b.b.b.b.b.b.",
"b.b.b.b.b.b.b.b.b.b.b.b.b.b.b.b.b.b.b.b.b.b.b.b.b.@.h b b b b b b b b b b b h b.b.b.b.b.b.b.b.b.b.b.b.b.b.b.b.b.b.b.b.b.b.b.b.b.",
"b.b.b.b.b.b.b.b.b.b.b.b.b.b.b.b.b.b.b.b.b.b.b.b.b.o.x b b b b b b b z l N @.#.b.b.b.b.b.b.b.b.b.b.b.b.b.b.b.b.b.b.b.b.b.b.b.b.b.",
"b.b.b.b.b.b.b.b.b.b.b.b.b.b.b.b.b.b.b.b.b.b.b.b.b.o.N b b h x i @.@.o.o.o.o.o.b.b.b.b.b.b.b.b.b.b.b.b.b.b.b.b.b.b.b.b.b.b.b.b.b.",
"b.b.b.b.b.b.b.b.b.b.b.b.b.b.b.b.b.b.b.b.b.b.b.b.b.o.o.$.@.o.o.o.o.o.o.o.o.o.o.b.b.b.b.b.b.b.b.b.b.b.b.b.b.b.b.b.b.b.b.b.b.b.b.b.",
"b.b.b.b.b.b.b.b.b.b.b.b.b.b.b.b.b.b.b.b.b.b.b.b.b.b.o.o.o.o.o.o.o.o.o.b.b.b.b.b.b.b.b.b.b.b.b.b.b.b.b.b.b.b.b.b.b.b.b.b.b.b.b.b.",
"b.b.b.b.b.b.b.b.b.b.b.b.b.b.b.b.b.b.b.b.b.b.b.b.b.b.b.o.o.o.b.b.b.b.b.b.b.b.b.b.b.b.b.b.b.b.b.b.b.b.b.b.b.b.b.b.b.b.b.b.b.b.b.b.",
"b.b.b.b.b.b.b.b.b.b.b.b.b.b.b.b.b.b.b.b.b.b.b.b.b.b.b.b.b.b.b.b.b.b.b.b.b.b.b.b.b.b.b.b.b.b.b.b.b.b.b.b.b.b.b.b.b.b.b.b.b.b.b.b.",
"b.b.b.b.b.b.b.b.b.b.b.b.b.b.b.b.b.b.b.b.b.b.b.b.b.b.b.b.b.b.b.b.b.b.b.b.b.b.b.b.b.b.b.b.b.b.b.b.b.b.b.b.b.b.b.b.b.b.b.b.b.b.b.b.",
"b.b.b.b.b.b.b.b.b.b.b.b.b.b.b.b.b.b.b.b.b.b.b.b.b.b.b.b.b.b.b.b.b.b.b.b.b.b.b.b.b.b.b.b.b.b.b.b.b.b.b.b.b.b.b.b.b.b.b.b.b.b.b.b.",
"b.b.b.b.b.b.b.b.b.b.b.b.b.b.b.b.b.b.b.b.b.b.b.b.b.b.b.b.b.b.b.b.b.b.b.b.b.b.b.b.b.b.b.b.b.b.b.b.b.b.b.b.b.b.b.b.b.b.b.b.b.b.b.b.",
"b.b.b.b.b.b.b.b.b.b.b.b.b.b.b.b.b.b.b.b.b.b.b.b.b.b.b.b.b.b.b.b.b.b.b.b.b.b.b.b.b.b.b.b.b.b.b.b.b.b.b.b.b.b.b.b.b.b.b.b.b.b.b.b.",
"b.b.b.b.b.b.b.b.b.b.b.b.b.b.b.b.b.b.b.b.b.b.b.b.b.b.b.b.b.b.b.b.b.b.b.b.b.b.b.b.b.b.b.b.b.b.b.b.b.b.b.b.b.b.b.b.b.b.b.b.b.b.b.b.",
"b.b.b.b.b.b.b.b.b.b.b.b.b.b.b.b.b.b.b.b.b.b.b.b.b.b.b.b.b.b.b.b.b.b.b.b.b.b.b.b.b.b.b.b.b.b.b.b.b.b.b.b.b.b.b.b.b.b.b.b.b.b.b.b."
};
