/* XPM */
static char *result[] = {
/* columns rows colors chars-per-pixel */
"64 64 160 2 ",
"   c #031E1B",
".  c #04211E",
"X  c #062321",
"o  c #0A2622",
"O  c #072924",
"+  c #0B2A26",
"@  c #0A2E2A",
"#  c #102A27",
"$  c #132E2A",
"%  c #0C342E",
"&  c #16322E",
"*  c #0D3530",
"=  c #0D3C35",
"-  c #173632",
";  c #1B3532",
":  c #103832",
">  c #1E3835",
",  c #213937",
"<  c #253C3A",
"1  c #293F3E",
"2  c #0D443B",
"3  c #0E483F",
"4  c #14443D",
"5  c #25413D",
"6  c #29413E",
"7  c #0F4D43",
"8  c #1D4741",
"9  c #104C43",
"0  c #105146",
"q  c #11554A",
"w  c #12594D",
"e  c #135E52",
"r  c #2D4441",
"t  c #2F4945",
"y  c #314644",
"u  c #314945",
"i  c #364C49",
"p  c #3A4E4C",
"a  c #36524E",
"s  c #3D504E",
"d  c #3E5451",
"f  c #146155",
"g  c #186256",
"h  c #166659",
"j  c #1B6458",
"k  c #166C5D",
"l  c #1D695D",
"z  c #21695D",
"x  c #166F60",
"c  c #1C6E61",
"v  c #177363",
"b  c #1A7465",
"n  c #187768",
"m  c #197C6B",
"M  c #2B7367",
"N  c #2C7569",
"B  c #21796B",
"V  c #30776B",
"C  c #347A6F",
"Z  c #257F70",
"A  c #377C71",
"S  c #397F73",
"D  c #435653",
"F  c #445956",
"G  c #485957",
"H  c #4A5C5A",
"J  c #4D6461",
"K  c #536261",
"L  c #576A67",
"P  c #566D6A",
"I  c #5B6D6A",
"U  c #5D7370",
"Y  c #5E7B76",
"T  c #647573",
"R  c #657A76",
"E  c #687A77",
"W  c #667B78",
"Q  c #6A7B79",
"!  c #1A816F",
"~  c #1B8371",
"^  c #1D8A77",
"/  c #1E8E7A",
"(  c #1E927D",
")  c #258475",
"_  c #288677",
"`  c #218977",
"'  c #288877",
"]  c #238D7B",
"[  c #298B7B",
"{  c #308C7D",
"}  c #25907E",
"|  c #43887D",
" . c #6E817E",
".. c #71827F",
"X. c #1E9681",
"o. c #279481",
"O. c #2D9584",
"+. c #279985",
"@. c #2F9887",
"#. c #2F9A88",
"$. c #329485",
"%. c #3A9587",
"&. c #309987",
"*. c #3F9689",
"=. c #349988",
"-. c #3C998A",
";. c #458B80",
":. c #4B8F83",
">. c #409789",
",. c #4F9388",
"<. c #419A8B",
"1. c #49988C",
"2. c #549086",
"3. c #54978C",
"4. c #5D978E",
"5. c #57998E",
"6. c #589A8F",
"7. c #579B90",
"8. c #5A9C92",
"9. c #748482",
"0. c #798281",
"q. c #7A8986",
"w. c #7C8D8A",
"e. c #7F928E",
"r. c #639C94",
"t. c #6C9A93",
"y. c #749C97",
"u. c #769D98",
"i. c #7C9E9A",
"p. c #61A198",
"a. c #6DA69C",
"s. c #72A59D",
"d. c #7BA39D",
"f. c #7BA6A0",
"g. c #828D8C",
"h. c #89908F",
"j. c #829491",
"k. c #8D9291",
"l. c #849E9B",
"z. c #8D9E9C",
"x. c #939797",
"c. c #979D9C",
"v. c #9B9E9E",
"b. c #83A19D",
"n. c #88A19E",
"m. c #84A7A2",
"M. c #8BA6A2",
"N. c #8DA8A4",
"B. c #94A4A2",
"V. c #9DA1A2",
"C. c #94A8A6",
"Z. c #98A9A7",
"A. c #9CAAA8",
"S. c #A3A5A5",
"D. c #A8A6A7",
"F. c #A3A7A8",
"G. c #A4ABAA",
"H. c #ADACAC",
"J. c #B0AFAF",
"K. c None",
/* pixels */
"K.K.K.K.K.K.K.K.K.K.K.K.K.K.K.K.K.K.K.K.K.K.K.K.K.K.K.K.K.K.K.K.K.K.K.K.K.K.K.K.K.K.K.K.K.K.K.K.K.K.K.K.K.K.K.K.K.K.K.K.K.K.K.K.",
"K.K.K.K.K.K.K.K.K.K.K.K.K.K.K.K.K.K.K.K.K.K.K.K.K.K.K.K.K.K.K.K.K.K.K.K.K.K.K.K.K.K.K.K.K.K.K.K.K.K.K.K.K.K.K.K.K.K.K.K.K.K.K.K.",
"K.K.K.K.K.K.K.K.K.K.K.K.K.K.K.K.K.K.K.K.K.K.K.K.K.K.K.K.K.K.K.K.K.K.K.K.K.K.K.K.K.K.K.K.K.K.K.K.K.K.K.K.K.K.K.K.K.K.K.K.K.K.K.K.",
"K.K.K.K.K.K.K.K.K.K.K.K.K.K.K.K.K.K.K.K.K.K.K.K.K.K.K.K.K.K.K.K.K.K.K.K.K.K.K.K.K.K.K.K.K.K.K.K.K.K.K.K.K.K.K.K.K.K.K.K.K.K.K.K.",
"K.K.K.K.K.K.K.K.K.K.K.K.K.K.K.K.K.K.K.K.K.K.K.K.K.K.K.K.K.K.K.K.K.K.K.K.K.K.K.K.K.K.K.K.K.K.K.K.K.K.K.K.K.K.K.K.K.K.K.K.K.K.K.K.",
"K.K.K.K.K.K.K.K.K.K.K.K.K.K.K.K.K.K.K.K.K.K.K.K.K.K.K.K.K.K.K.K.K.K.K.K.K.K.K.K.K.K.K.K.K.K.K.K.K.K.K.K.K.K.K.K.K.K.K.K.K.K.K.K.",
"K.K.K.K.K.K.K.K.K.K.K.K.K.K.K.K.K.K.K.K.K.K.K.K.K.K.K.K.K.K.K.K.K.K.K.K.K.K.K.K.K.K.K.K.K.K.K.K.K.K.K.K.K.K.K.K.K.K.K.K.K.K.K.K.",
"K.K.K.K.K.K.K.K.K.K.K.K.K.K.K.K.K.K.K.K.K.K.K.K.K.K.K.K.K.K.K.K.K.K.K.K.K.K.K.K.K.K.K.K.K.K.K.K.K.K.K.K.K.K.K.K.K.K.K.K.K.K.K.K.",
"K.K.K.K.K.K.K.K.K.K.K.K.K.K.K.K.K.K.K.K.K.K.K.K.K.K.K.K.K.K.K.K.K.K.K.K.K.K.K.K.K.K.K.K.K.K.K.K.K.K.K.K.K.K.K.K.K.K.K.K.K.K.K.K.",
"K.K.K.K.K.K.K.K.K.K.K.K.K.K.K.K.K.K.K.K.K.K.K.K.K.K.K.K.K.K.K.K.K.K.K.j.w.K.K.K.K.K.K.K.K.K.K.K.K.K.K.K.K.K.K.K.K.K.K.K.K.K.K.K.",
"K.K.K.K.K.K.K.K.K.K.K.K.K.K.K.K.K.K.K.K.K.K.K.K.K.K.K.e.R J a r - % O O X 5 K.K.K.K.K.K.K.K.K.K.K.K.K.K.K.K.K.K.K.K.K.K.K.K.K.K.",
"K.K.K.K.K.K.K.K.K.K.K.K.K.K.K.K.K.K.K.K.K.K.K.K.K.@ O X X X . X . . X . . & K.K.K.K.K.K.K.K.K.K.K.K.K.K.K.K.K.K.K.K.K.K.K.K.K.K.",
"K.K.K.K.K.K.K.K.K.K.K.K.K.K.K.K.K.K.K.K.K.K.K.K.K.X o X X X X X o . . . . + D P K.K.K.K.K.K.K.K.K.K.K.K.K.K.K.K.K.K.K.K.K.K.K.K.",
"K.K.K.K.K.K.K.K.K.K.K.K.K.K.K.K.K.K.K.K.K.K.K.K.K.. . . X   . o $ ; 6 p H K $   i K.K.K.K.K.K.K.K.K.K.K.K.K.K.K.K.K.K.K.K.K.K.K.",
"K.K.K.K.K.K.K.K.K.K.K.K.K.K.K.K.K.K.K.K.K.K.R J 5 o > r d K T 9.h.c.S.D.J.v.; . u K.K.K.K.K.K.K.K.K.K.K.K.K.K.K.K.K.K.K.K.K.K.K.",
"K.K.K.K.K.K.K.K.K.K.K.K.K.K.K.K.K.K.K.K.K.9.. . . < x.D.H.H.J.J.H.J.H.H.J.x.$ . % - a K.K.K.K.K.K.K.K.K.K.K.K.K.K.K.K.K.K.K.K.K.",
"K.K.K.K.K.K.K.K.K.K.K.K.K.K.K.K.K.K.K.K.K.9.. X . 1 S.H.H.H.J.H.H.H.G.G.G.l.l x g X   E K.K.K.K.K.K.K.K.K.K.K.K.K.K.K.K.K.K.K.K.",
"K.K.K.K.K.K.K.K.K.K.K.K.K.K.K.K.K.K.K.K.K.L . X   r V.H.G.A.N.N.m.f.f.N.C.d.o.X.v X   q.K.K.K.K.K.K.K.K.K.K.K.K.K.K.K.K.K.K.K.K.",
"K.K.K.K.K.K.K.K.K.K.K.K.K.K.K.K.K.K.w.5 & O & G I 9.f.f.f.a.a.a.a.a.s.N.N.t.] ( x X   g.K.K.K.K.K.K.K.K.K.K.K.K.K.K.K.K.K.K.K.K.",
"K.K.K.K.K.K.K.K.K.K.K.K.K.K.K.K.K.K.R . X . i H.J.A.a.a.a.a.a.a.a.p.s.f.y.5.o.+.l . . K.K.K.K.K.K.K.K.K.K.K.K.K.K.K.K.K.K.K.K.K.",
"K.K.K.K.K.K.K.K.K.K.K.K.K.K.K.K.K.K.... X . i D.H.A.f.a.a.a.a.a.M.B.M.<.$.O.$.#.l X   G q.K.K.K.K.K.K.K.K.K.K.K.K.K.K.K.K.K.K.K.",
"K.K.K.K.K.K.K.K.K.K.K.K.K.K.K.K.K.w.u . + $ F F.G.Z.a.a.a.a.a.f.D.D.B.$.O.O.$.#.l O % o   p K.K.K.K.K.K.K.K.K.K.K.K.K.K.K.K.K.K.",
"K.K.K.K.K.K.K.K.K.K.K.K.K.K.K.U . O . y q.h.c.N.N.m.a.a.a.a.a.u.V.S.n.-.>.>.@.#.) n ~ 2   < K.K.K.K.K.K.K.K.K.K.K.K.K.K.K.K.K.K.",
"K.K.K.K.K.K.K.K.K.K.K.K.K.K.K.P . . . H J.J.G.N.N.m.a.a.a.f.s.i.z.z.n.i.i.r.@.#.} ^ ^ =   y K.K.K.K.K.K.K.K.K.K.K.K.K.K.K.K.K.K.",
"K.K.K.K.K.K.K.K.K.K.K.K.K.K.K.T . . . H H.H.G.N.m.m.N.Z.Z.m.b.l.l.l.n.l.n.8.&.@.] / ` =   p K.K.K.K.K.K.K.K.K.K.K.K.K.K.K.K.K.K.",
"K.K.K.K.K.K.K.K.K.K.K.K.K.K.K. .. O . D H.H.G.s.a.f.G.H.A.M.b.l.l.l.b.l.i.2.B c ) o.[ =   r K.K.K.K.K.K.K.K.K.K.K.K.K.K.K.K.K.K.",
"K.K.K.K.K.K.K.K.K.K.K.K.K.K.K. .. X . p H.H.A.a.a.f.G.D.V.i.d.y.t.t.r.8.8.S e e Z @.[ % X o   y K.K.K.K.K.K.K.K.K.K.K.K.K.K.K.K.",
"K.K.K.K.K.K.K.K.K.K.K.K.K.K.K.R . . . i D.H.A.f.f.m.i.y.t.8.8.7.5.5.8.5.6.A e f ) @.O.g k q . o K.K.K.K.K.K.K.K.K.K.K.K.K.K.K.K.",
"K.K.K.K.K.K.K.K.K.K.K.K.K.P d - O ; < L N.m.m.G.G.B.8.8.4.8.8.8.5.8.8.8.8.A e e ) @.O./ } g . + K.K.K.K.K.K.K.K.K.K.K.K.K.K.K.K.",
"K.K.K.K.K.K.K.K.K.K.K.K.R . . X d x.S.Z.a.a.f.G.D.B.4.5.5.8.8.7.5.5.8.8.6.C e f ' O.o.] ~ q   $ K.K.K.K.K.K.K.K.K.K.K.K.K.K.K.K.",
"K.K.K.K.K.K.K.K.K.K.K.K. .. X . H J.H.A.s.a.f.S.S.M.4.5.4.8.8.7.5.7.8.8.8.V e f B B c f w =   ; K.K.K.K.K.K.K.K.K.K.K.K.K.K.K.K.",
"K.K.K.K.K.K.K.K.K.K.K.K.w.X . . D H.H.A.s.a.s.N.M.i.8.8.7.8.8.8.5.8.8.8.8.V e e q 9 9 7 7 % . , K.K.K.K.K.K.K.K.K.K.K.K.K.K.K.K.",
"K.K.K.K.K.K.K.K.K.K.K.K.j.. X . p H.H.A.s.a.s.m.l.i.8.5.7.8.8.7.5.5.8.8.5.N e e 0 9 9 0 0 % . 6 K.K.K.K.K.K.K.K.K.K.K.K.K.K.K.K.",
"K.K.K.K.K.K.K.K.K.K.K.K.K.o X . s H.H.A.s.a.s.i.t.4.6.5.7.8.7.5.5.8.8.8.5.M h h g k k f w %   i K.K.K.K.K.K.K.K.K.K.K.K.K.K.K.K.",
"K.K.K.K.K.K.K.K.K.K.K.K.K.X X   p H.H.G.d.m.u.[ ^ _ 3.8.8.8.8.5.3.,.;.S M m ! ! ! ! n g e : > Q K.K.K.K.K.K.K.K.K.K.K.K.K.K.K.K.",
"K.K.K.K.K.K.K.K.K.K.K.K.K.O X . 6 D.J.G.N.N.d.) ~ _ 7.3.:.| S M z j f e w n ~ ~ ! ! k 3 4 K.K.K.K.K.K.K.K.K.K.K.K.K.K.K.K.K.K.K.",
"K.K.K.K.K.K.K.K.K.K.K.K.K.@ X . y D.H.G.C.n.t.) ` [ N l g f e e e e e f h v v x m ! w . $ K.K.K.K.K.K.K.K.K.K.K.K.K.K.K.K.K.K.K.",
"K.K.K.K.K.K.K.K.K.K.K.K.K.@ X   6 D.H.G.p.1.%.@.&.[ f e e e f e h k x n n w 7 q ! ~ 0 . , K.K.K.K.K.K.K.K.K.K.K.K.K.K.K.K.K.K.K.",
"K.K.K.K.K.K.K.K.K.K.K.K.K.$ X . < V.J.C.$.@.@.&.&.[ f h k v n m m ! ! ~ ! w 7 w n n 3   < K.K.K.K.K.K.K.K.K.K.K.K.K.K.K.K.K.K.K.",
"K.K.K.K.K.K.K.K.K.K.K.K.K.$ X X < V.J.Z.%.@.O.B B k n m m ~ ~ m ! ! ! ! m q 7 q e e =   6 K.K.K.K.K.K.K.K.K.K.K.K.K.K.K.K.K.K.K.",
"K.K.K.K.K.K.K.K.K.K.K.K.K.d . X , g...I $.$.[ q 7 0 m ! ~ ~ ! ~ ! ~ ~ ! m q 7 q e e 4 p q.K.K.K.K.K.K.K.K.K.K.K.K.K.K.K.K.K.K.K.",
"K.K.K.K.K.K.K.K.K.K.K.K.K.K.K.K., # o @ _ $.[ q 7 q m ! ~ ~ ! ~ ! ! ~ ! m q 0 0 2 = K.K.K.K.K.K.K.K.K.K.K.K.K.K.K.K.K.K.K.K.K.K.",
"K.K.K.K.K.K.K.K.K.K.K.K.K.K.K.K.< . . $ ) @.[ w 7 q m ~ ! ~ ~ ! ! ~ ~ ! m e e 3   o K.K.K.K.K.K.K.K.K.K.K.K.K.K.K.K.K.K.K.K.K.K.",
"K.K.K.K.K.K.K.K.K.K.K.K.K.K.K.K.6 . . % ~ / ~ q 7 q m m ! ~ ! ! ! ~ ~ ~ m g f 3 , H K.K.K.K.K.K.K.K.K.K.K.K.K.K.K.K.K.K.K.K.K.K.",
"K.K.K.K.K.K.K.K.K.K.K.K.K.K.K.K.t . X @ n ^ ~ w 7 w m ~ ! ~ ~ ~ ! ~ ! ! v 0 2 Y K.K.K.K.K.K.K.K.K.K.K.K.K.K.K.K.K.K.K.K.K.K.K.K.",
"K.K.K.K.K.K.K.K.K.K.K.K.K.K.K.K. .X o O h k q w e f m ~ ! ^ ~ n v f 0 = @ .   g.K.K.K.K.K.K.K.K.K.K.K.K.K.K.K.K.K.K.K.K.K.K.K.K.",
"K.K.K.K.K.K.K.K.K.K.K.K.K.K.K.K.K.K.K.1 X o X q f h m v k w 4 * O . .   . + > K.K.K.K.K.K.K.K.K.K.K.K.K.K.K.K.K.K.K.K.K.K.K.K.K.",
"K.K.K.K.K.K.K.K.K.K.K.K.K.K.K.K.K.K.K.E   . X 7 9 3 = @ o .     . + 6 J w.K.K.K.K.K.K.K.K.K.K.K.K.K.K.K.K.K.K.K.K.K.K.K.K.K.K.K.",
"K.K.K.K.K.K.K.K.K.K.K.K.K.K.K.K.K.K.K.K.K.K.; . .       . & u I K.K.K.K.K.K.K.K.K.K.K.K.K.K.K.K.K.K.K.K.K.K.K.K.K.K.K.K.K.K.K.K.",
"K.K.K.K.K.K.K.K.K.K.K.K.K.K.K.K.K.K.K.K.K.K.P   o , D Q K.K.K.K.K.K.K.K.K.K.K.K.K.K.K.K.K.K.K.K.K.K.K.K.K.K.K.K.K.K.K.K.K.K.K.K.",
"K.K.K.K.K.K.K.K.K.K.K.K.K.K.K.K.K.K.K.K.K.K.K.K.K.K.K.K.K.K.K.K.K.K.K.K.K.K.K.K.K.K.K.K.K.K.K.K.K.K.K.K.K.K.K.K.K.K.K.K.K.K.K.K.",
"K.K.K.K.K.K.K.K.K.K.K.K.K.K.K.K.K.K.K.K.K.K.K.K.K.K.K.K.K.K.K.K.K.K.K.K.K.K.K.K.K.K.K.K.K.K.K.K.K.K.K.K.K.K.K.K.K.K.K.K.K.K.K.K.",
"K.K.K.K.K.K.K.K.K.K.K.K.K.K.K.K.K.K.K.K.K.K.K.K.K.K.K.K.K.K.K.K.K.K.K.K.K.K.K.K.K.K.K.K.K.K.K.K.K.K.K.K.K.K.K.K.K.K.K.K.K.K.K.K.",
"K.K.K.K.K.K.K.K.K.K.K.K.K.K.K.K.K.K.K.K.K.K.K.K.K.K.K.K.K.K.K.K.K.K.K.K.K.K.K.K.K.K.K.K.K.K.K.K.K.K.K.K.K.K.K.K.K.K.K.K.K.K.K.K.",
"K.K.K.K.K.K.K.K.K.K.K.K.K.K.K.K.K.K.K.K.K.K.K.K.K.K.K.K.K.K.K.K.K.K.K.K.K.K.K.K.K.K.K.K.K.K.K.K.K.K.K.K.K.K.K.K.K.K.K.K.K.K.K.K.",
"K.K.K.K.K.K.K.K.K.K.K.K.K.K.K.K.K.K.K.K.K.K.K.K.K.K.K.K.K.K.K.K.K.K.K.K.K.K.K.K.K.K.K.K.K.K.K.K.K.K.K.K.K.K.K.K.K.K.K.K.K.K.K.K.",
"K.K.K.K.K.K.K.K.K.K.K.K.K.K.K.K.K.K.K.K.K.K.K.K.K.K.K.K.K.K.K.K.K.K.K.K.K.K.K.K.K.K.K.K.K.K.K.K.K.K.K.K.K.K.K.K.K.K.K.K.K.K.K.K.",
"K.K.K.K.K.K.K.K.K.K.K.K.K.K.K.K.K.K.K.K.K.K.K.K.K.K.K.K.K.K.K.K.K.K.K.K.K.K.K.K.K.K.K.K.K.K.K.K.K.K.K.K.K.K.K.K.K.K.K.K.K.K.K.K.",
"K.K.K.K.K.K.K.K.K.K.K.K.K.K.K.K.K.K.K.K.K.K.K.K.K.K.K.K.K.K.K.K.K.K.K.K.K.K.K.K.K.K.K.K.K.K.K.K.K.K.K.K.K.K.K.K.K.K.K.K.K.K.K.K.",
"K.K.K.K.K.K.K.K.K.K.K.K.K.K.K.K.K.K.K.K.K.K.K.K.K.K.K.K.K.K.K.K.K.K.K.K.K.K.K.K.K.K.K.K.K.K.K.K.K.K.K.K.K.K.K.K.K.K.K.K.K.K.K.K.",
"K.K.K.K.K.K.K.K.K.K.K.K.K.K.K.K.K.K.K.K.K.K.K.K.K.K.K.K.K.K.K.K.K.K.K.K.K.K.K.K.K.K.K.K.K.K.K.K.K.K.K.K.K.K.K.K.K.K.K.K.K.K.K.K.",
"K.K.K.K.K.K.K.K.K.K.K.K.K.K.K.K.K.K.K.K.K.K.K.K.K.K.K.K.K.K.K.K.K.K.K.K.K.K.K.K.K.K.K.K.K.K.K.K.K.K.K.K.K.K.K.K.K.K.K.K.K.K.K.K.",
"K.K.K.K.K.K.K.K.K.K.K.K.K.K.K.K.K.K.K.K.K.K.K.K.K.K.K.K.K.K.K.K.K.K.K.K.K.K.K.K.K.K.K.K.K.K.K.K.K.K.K.K.K.K.K.K.K.K.K.K.K.K.K.K.",
"K.K.K.K.K.K.K.K.K.K.K.K.K.K.K.K.K.K.K.K.K.K.K.K.K.K.K.K.K.K.K.K.K.K.K.K.K.K.K.K.K.K.K.K.K.K.K.K.K.K.K.K.K.K.K.K.K.K.K.K.K.K.K.K."
};
