/* XPM */
static char *result[] = {
/* columns rows colors chars-per-pixel */
"64 64 176 2 ",
"   c #001612",
".  c #031916",
"X  c #031C19",
"o  c #091D1B",
"O  c #04221D",
"+  c #0C211D",
"@  c #052621",
"#  c #062A25",
"$  c #092B26",
"%  c #072D28",
"&  c #092D28",
"*  c #0A2722",
"=  c #102421",
"-  c #182B28",
";  c #152825",
":  c #0B322C",
">  c #12322E",
",  c #0B3C35",
"<  c #0A3530",
"1  c #133531",
"2  c #1B3632",
"3  c #173934",
"4  c #1B3B36",
"5  c #1D3D39",
"6  c #21312E",
"7  c #213E3A",
"8  c #2B3C3A",
"9  c #273836",
"0  c #0D443B",
"q  c #1F403B",
"w  c #23413E",
"e  c #29433F",
"r  c #31413F",
"t  c #164C43",
"y  c #125549",
"u  c #12594E",
"i  c #18594D",
"p  c #1D574E",
"a  c #135D51",
"s  c #195C50",
"d  c #294743",
"f  c #274842",
"g  c #2A4845",
"h  c #2F4D49",
"j  c #264641",
"k  c #394846",
"l  c #314E4A",
"z  c #3B4D4A",
"x  c #354A47",
"c  c #38524F",
"v  c #35514D",
"b  c #146255",
"n  c #16665A",
"m  c #176B5D",
"M  c #186D5F",
"N  c #1A6356",
"B  c #186E61",
"V  c #177162",
"C  c #187465",
"Z  c #1A7769",
"A  c #177D6B",
"S  c #1A7D6C",
"D  c #1B7F70",
"F  c #247F71",
"G  c #404D4B",
"H  c #425D5A",
"J  c #4C5D5A",
"K  c #4E5957",
"L  c #46615C",
"P  c #4B625F",
"I  c #4B6561",
"U  c #4F6864",
"Y  c #5C6A67",
"T  c #546D69",
"R  c #5A6E6B",
"E  c #5C706D",
"W  c #636F6D",
"Q  c #61726F",
"!  c #667A77",
"~  c #1A806E",
"^  c #1C8472",
"/  c #1D8A77",
"(  c #1E8D79",
")  c #1F917C",
"_  c #258777",
"`  c #268876",
"'  c #238D7B",
"]  c #3E8B7E",
"[  c #20937E",
"{  c #6D817E",
"}  c #1F9580",
"|  c #1F9882",
" . c #209781",
".. c #2B9381",
"X. c #219A84",
"o. c #229F88",
"O. c #3A9A89",
"+. c #359987",
"@. c #23A48C",
"#. c #2BA08D",
"$. c #25AD94",
"%. c #2FAA96",
"&. c #30AC97",
"*. c #31AD99",
"=. c #24B096",
"-. c #2BB097",
";. c #2BB49B",
":. c #29BA9F",
">. c #35B29E",
",. c #29BDA1",
"<. c #33BCA4",
"1. c #38BEA8",
"2. c #748583",
"3. c #7E8886",
"4. c #7E8D8A",
"5. c #778784",
"6. c #44A293",
"7. c #48A797",
"8. c #4DAA9B",
"9. c #51AF9F",
"0. c #58AFA1",
"q. c #54B3A3",
"w. c #5AB7A7",
"e. c #55B9A7",
"r. c #35C3AB",
"t. c #3BC6AF",
"y. c #38C8AF",
"u. c #3DC7B0",
"i. c #3ECAB4",
"p. c #40CBB5",
"a. c #4ECAB6",
"s. c #6AC5B6",
"d. c #6ACCBC",
"f. c #75CEBF",
"g. c #77C8BA",
"h. c #77CFC1",
"j. c #79CFC1",
"k. c #79D0C2",
"l. c #808D8C",
"z. c #849392",
"x. c #9AA4A5",
"c. c #9FA8A8",
"v. c #90A8A3",
"b. c #A3ACAC",
"n. c #A7B3B2",
"m. c #ACB2B4",
"M. c #A3BFBC",
"N. c #B9BEBF",
"B. c #B4BBBD",
"V. c #87C9BD",
"C. c #83CFC3",
"Z. c #8DCBC1",
"A. c #97CEC5",
"S. c #98CFC6",
"D. c #85D0C4",
"F. c #8AD1C4",
"G. c #93D1C6",
"H. c #98D2C7",
"J. c #9BD2C9",
"K. c #97D3C8",
"L. c #B8C3C3",
"P. c #A3D2CB",
"I. c #ABD3CD",
"U. c #B2D4CF",
"Y. c #B4D4D0",
"T. c #BBD5D1",
"R. c #C4C7C8",
"E. c #C8CCCD",
"W. c #C3D6D4",
"Q. c #CAD6D5",
"!. c #D2D7D7",
"~. c #D5D7D8",
"^. c #D8D7D8",
"/. c #D5D8D8",
"(. c #DAD9DA",
"). c None",
/* pixels */
").).).).).).).).).).).).).).).).).).).).).).).).).).).).).).).).).).).).).).).).).).).).).).).).).).).).).).).).).).).).).).).).",
").).).).).).).).).).).).).).).).).).).).).).).).).).).).).).).).).).).).).).).).).).).).).).).).).).).).).).).).).).).).).).).).",
").).).).).).).).).).).).).).).).).).).).).).).).).).).).).).).).).).).).).).).).).).).).).).).).).).).).).).).).).).).).).).).).",
").).).).).).).).).).).).).).).).).).).).).).).).).).).).).).).).).).).).).).).).).).).).).).).).).).).).).).).).).).).).).).).).",
").).).).).).).).).).).).).).).).).).).).).).).).).).).).).).).).).).).).).).).).).).).).).).).).).).).).).).).).).).).).).).).).",
").).).).).).).).).).).).).).).).).).).).).).).).).).).).).).).).).).).).).).).).).).).).).).).).).).).).).).).).).).).).).).).).",
").).).).).).).).).).).).).).).).).).).).).).).).).).).).).).).).).).).).).).).).).).).).).).).).).).).).).).).).).).).).).).).).",
").).).).).).).).).).).).).).).).).).).).).).).).).).).).).).).).).).).).).).).).).).).).).).).).).).).).).).).).).).).).).).).).",
").).).).).).).).).).).).).).).).).).).).).).).).).).).).).).).).).).).).).).).).).).).).).).).).).).).).).).).).).).).).).).).).",
").).).).).).).).).).).).).).).).).).).).).).).).).).T c ! ).).).).).).).).).).).).).).).).).).).).).).).).).).).).).).).).).).).",
").).).).).).).).).).).).).).).).).).).).).).).).).g # # # # > f L { ).).).).).).).).).).).).).).).).).).).).).).).).).).).).).).",
").).).).).).).).).).).).).).).).).).).).).).).).).q # % # : & # # # $ 1 e Q ).).).).).).).).).).).).).).).).).).).).).).).).).).",
").).).).).).).).).).).).).).).).).).).).).).).f : q : # # $ $ % # % & # . 8 ).).).).).).).).).).).).).).).).).).).).).).).).).).",
").).).).).).).).).).).).).).).).).).).).).).4.O q b.c.{ I g 1 $ # # # $ . 8 ).).).).).).).).).).).).).).).).).).).).).).).).).).",
").).).).).).).).).).).).).).).).).).).).).E 7 # w ).).).).R.n.z.E c 4 & X 9 ).).).).).).).).).).).).).).).).).).).).).).).).).).",
").).).).).).).).).).).).).).).).).).).).h # c U H L.).).^.^.(.(./.E.B.z.> $ & 9 5.).).).).).).).).).).).).).).).).).).).).).).).",
").).).).).).).).).).).).).).).).).).).z.3 # { ).E.P.I.T.W.!./.^.^.^.).).w # @   J ).).).).).).).).).).).).).).).).).).).).).).).",
").).).).).).).).).).).).).).).).).).e $ 7 > { ).!.K.Z.D.G.K.I.U.Q./.^.N.5 # *   W ).).).).).).).).).).).).).).).).).).).).).).).",
").).).).).).).).).).).).).).).).).).& 3 b.b.n.Q.Q.K.F.F.F.F.F.F.G.Y.W.M.i , $ . z ).).).).).).).).).).).).).).).).).).).).).).).",
").).).).).).).).).).).).).).).).).).: 1 m.).Q.U.Y.K.F.F.F.F.D.F.F.I.U.A.;.@.C # * & 2 ).).).).).).).).).).).).).).).).).).).).).",
").).).).).).).).).).).).).).).).).).> 1 m.).W.U.U.G.F.F.F.F.P.P.G.I.Y.S.<.,. .% & @ . 4.).).).).).).).).).).).).).).).).).).).).",
").).).).).).).).).).).).).).).).).2.& 1 m.).W.P.I.G.D.F.F.F.T.^.T.f.j.f.,.,.' & & * . ).).).).).).).).).).).).).).).).).).).).).",
").).).).).).).).).).).).).).).).7 $ : 1 m.(.T.F.G.Y.Y.J.G.F.T.(.W.a.u.p.u.y.' & & * . ).).).).).).).).).).).).).).).).).).).).).",
").).).).).).).).).).).).).).).).# d x.4.L.~.U.F.F.Q.(.Q.U.P.T.!.T.a.u.p.p.p...# & O o ).).).).).).).).).).).).).).).).).).).).).",
").).).).).).).).).).).).).).).).# l ).).P.G.I.I.J.Q.^.Q.Y.Y.Y.Y.U.Z.d.a.i.i.` % : O o ).).).).).).).).).).).).).).).).).).).).).",
").).).).).).).).).).).).).).).).# l ).).P.F.I.~.Q.J.P.I.I.Y.U.U.Y.Y.Y.D.i.i..., : O o 4.).).).).).).).).).).).).).).).).).).).).",
").).).).).).).).).).).).).).).).% g ).).P.C.I.^.!.F.h.h.j.F.K.I.I.Y.Y.D.i.i.1.@.( 0 O $ 2 J ).).).).).).).).).).).).).).).).).).",
").).).).).).).).).).).).).).).).& j ).).P.F.J.W.W.D.h.h.h.h.h.j.C.G.P.C.u.i.r.,.:.m $ $ O ; ).).).).).).).).).).).).).).).).).).",
").).).).).).).).).).).).).).).).& j ).).P.D.K.Y.U.k.h.j.f.j.h.h.h.h.j.w.X.%.,.,.:.b $ $ O 6 ).).).).).).).).).).).).).).).).).).",
").).).).).).).).).).).).).).).).1 7 ).).Y.K.K.I.Y.D.f.j.j.h.h.h.h.h.j.8.S S %.t.r.N # $ X 9 ).).).).).).).).).).).).).).).).).).",
").).).).).).).).).).).).).).).).1 5 ).(.W.U.Z.e.g.j.h.f.h.h.h.j.h.h.j.8.S S *.p.t.s $ & X r ).).).).).).).).).).).).).).).).).).",
").).).).).).).).).).).).).).).).1 3 ).).T.Y.V.$.$.d.j.h.h.h.h.h.h.h.j.9.S S %.p.t.i # $ . z ).).).).).).).).).).).).).).).).).).",
").).).).).).).).).).).).).).).).7 1 ).).D.d.s.;.%.d.k.f.h.h.j.j.h.h.h.7.S S >.i.t.n : # X 8 ).).).).).).).).).).).).).).).).).).",
").).).).).).).).).).).).).).).).).{ ).).k.u.p.t.r.e.s.f.k.j.j.j.h.h.j.6.A D <.i.u.-.| C : O & e ).).).).).).).).).).).).).).).).",
").).).).).).).).).).).).).).).).).).! T q.p.p.p.t.' _ O.q.s.f.j.j.h.h.6.S S &.u.u.r.:.=.0 $ * . Y ).).).).).).).).).).).).).).).",
").).).).).).).).).).).).).).).).).).L @ F p.1.*.<.' S A A _ O.q.s.h.j.6.A S Z _ #.$.:.@., $ # . ! ).).).).).).).).).).).).).).).",
").).).).).).).).).).).).).).).).).).L @ F p.*.B S [ ' ~ S A A ~ _ +.q.+.S A B n n B ~ ~ , % * . l.).).).).).).).).).).).).).).).",
").).).).).).).).).).).).).).).).).).I # S t.*.m m o.$.@. ./ ~ S S A S X.o.( Z m m n m i % # $ X ).).).).).).).).).).).).).).).).",
").).).).).).).).).).).).).).).).).).! O C ,.$.M m o.$.$.$.$.@. ./ S A | =.$.@.X.~ m m u % % @ X ).).).).).).).).).).).).).).).).",
").).).).).).).).).).).).).).).).).).).z.] :.@.m m o.=.$.$.$.=.$.$.@.} | $.$.$.$.@.S S a : % * o ).).).).).).).).).).).).).).).).",
").).).).).).).).).).).).).).).).).).).).v.u A m M | =.=.$.$.$.=.$.$.$.D Z ( $.$.@.S ^ b & % @ + ).).).).).).).).).).).).).).).).",
").).).).).).).).).).).).).).).).).).).).).# , C C o.=.$.=.$.$.$.$.$.$.S n C @.$.X.B A a & # @ = ).).).).).).).).).).).).).).).).",
").).).).).).).).).).).).).).).).).).).).).U t A S o.=.$.$.=.$.=.$.$.$.Z n V @.=.^ < 0 , $ > * Y ).).).).).).).).).).).).).).).).",
").).).).).).).).).).).).).).).).).).).).).).).N V @.=.$.$.$.$.$.$.$.$.Z m V | $.S & # O - ).).).).).).).).).).).).).).).).).).).",
").).).).).).).).).).).).).).).).).).).).).).).1 < u ^ @.$.$.$.$.$.$.@.Z n B S / m $ & O 6 ).).).).).).).).).).).).).).).).).).).",
").).).).).).).).).).).).).).).).).).).).).).).l # # : 0 M ( $.$.$.$.$.D M B A ~ u $ & X 9 ).).).).).).).).).).).).).).).).).).).",
").).).).).).).).).).).).).).).).).).).).).).).).).H 1 # # < y Z | $.$.^ A m y M y $ # . k ).).).).).).).).).).).).).).).).).).).",
").).).).).).).).).).).).).).).).).).).).).).).).).).).{ g % # % , b ^ A S n % : & $ d x ).).).).).).).).).).).).).).).).).).).).",
").).).).).).).).).).).).).).).).).).).).).).).).).).).).).).U 3 # # : , u y & # . G ).).).).).).).).).).).).).).).).).).).).).).",
").).).).).).).).).).).).).).).).).).).).).).).).).).).).).).).).5.l & # # * o P Q ).).).).).).).).).).).).).).).).).).).).).).).",
").).).).).).).).).).).).).).).).).).).).).).).).).).).).).).).).).).).T 5 O K ).).).).).).).).).).).).).).).).).).).).).).).).).",
").).).).).).).).).).).).).).).).).).).).).).).).).).).).).).).).).).).).).).).).).).).).).).).).).).).).).).).).).).).).).).).).",
").).).).).).).).).).).).).).).).).).).).).).).).).).).).).).).).).).).).).).).).).).).).).).).).).).).).).).).).).).).).).).).).",
").).).).).).).).).).).).).).).).).).).).).).).).).).).).).).).).).).).).).).).).).).).).).).).).).).).).).).).).).).).).).).).).",
").).).).).).).).).).).).).).).).).).).).).).).).).).).).).).).).).).).).).).).).).).).).).).).).).).).).).).).).).).).).).).).).",
").).).).).).).).).).).).).).).).).).).).).).).).).).).).).).).).).).).).).).).).).).).).).).).).).).).).).).).).).).).).).).).).",
").).).).).).).).).).).).).).).).).).).).).).).).).).).).).).).).).).).).).).).).).).).).).).).).).).).).).).).).).).).).).).).).",
").).).).).).).).).).).).).).).).).).).).).).).).).).).).).).).).).).).).).).).).).).).).).).).).).).).).).).).).).).).).).).).).",
").).).).).).).).).).).).).).).).).).).).).).).).).).).).).).).).).).).).).).).).).).).).).).).).).).).).).).).).).).).).).).).).",
").).).).).).).).).).).).).).).).).).).).).).).).).).).).).).).).).).).).).).).).).).).).).).).).).).).).).).).).).).).).).).).).",
").).).).).).).).).).).).).).).).).).).).).).).).).).).).).).).).).).).).).).).).).).).).).).).).).).).).).).).).).).).).).).).).",
").).).).).).).).).).).).).).).).).).).).).).).).).).).).).).).).).).).).).).).).).).).).).).).).).).).).).).).).).).).).).).).).",
").).).).).).).).).).).).).).).).).).).).).).).).).).).).).).).).).).).).).).).).).).).).).).).).).).).).).).).).).).).).).).).).",
").).).).).).).).).).).).).).).).).).).).).).).).).).).).).).).).).).).).).).).).).).).).).).).).).).).).).).).).).).).).).).).)."
};
