/* XPM */
static char *result[] = {
/* columns rows colors chars-per-pixel */
"64 64 168 2 ",
"   c #03231E",
".  c #042621",
"X  c #092622",
"o  c #062924",
"O  c #092B26",
"+  c #0B2E29",
"@  c #122F2A",
"#  c #07302A",
"$  c #0C322C",
"%  c #14322E",
"&  c #0C3C34",
"*  c #0B3731",
"=  c #153631",
"-  c #173833",
";  c #1C3A36",
":  c #1C3F39",
">  c #223B38",
",  c #0E423A",
"<  c #0E483F",
"1  c #1B443E",
"2  c #23413D",
"3  c #0F4940",
"4  c #114C43",
"5  c #12554B",
"6  c #12584D",
"7  c #145E53",
"8  c #274440",
"9  c #2A4642",
"0  c #2D4945",
"q  c #244943",
"w  c #324D49",
"e  c #344A47",
"r  c #36514D",
"t  c #38534F",
"y  c #3A5551",
"u  c #3E5955",
"i  c #166357",
"p  c #146559",
"a  c #166A5D",
"s  c #176E61",
"d  c #196E61",
"f  c #177264",
"g  c #187264",
"h  c #1A7668",
"j  c #1A7B6C",
"k  c #1D7F70",
"l  c #217265",
"z  c #247A6C",
"x  c #405451",
"c  c #455E5B",
"v  c #475C59",
"b  c #47615D",
"n  c #4A615E",
"m  c #4D6461",
"M  c #486B66",
"N  c #526A66",
"B  c #566C69",
"V  c #556B68",
"C  c #5C726E",
"Z  c #5D7471",
"A  c #547872",
"S  c #627572",
"D  c #657976",
"F  c #6B7D7B",
"G  c #677C79",
"H  c #1B816F",
"J  c #1C8372",
"K  c #1C8977",
"L  c #1D8B7A",
"P  c #1E917E",
"I  c #238374",
"U  c #288677",
"Y  c #238B7B",
"T  c #2E8C7D",
"R  c #20927F",
"E  c #56837C",
"W  c #6E827E",
"Q  c #1E9682",
"!  c #239783",
"~  c #219A86",
"^  c #229E89",
"/  c #369586",
"(  c #23A28D",
")  c #2DA08D",
"_  c #24A691",
"`  c #25AA94",
"'  c #2DAB95",
"]  c #2AA590",
"[  c #31AA95",
"{  c #35A895",
"}  c #26B49B",
"|  c #2CB59D",
" . c #27B89E",
".. c #29B89E",
"X. c #34B29C",
"o. c #3BB29E",
"O. c #2CBBA1",
"+. c #35BCA4",
"@. c #39BBA4",
"#. c #3BBFA8",
"$. c #419E8F",
"%. c #6F8380",
"&. c #738583",
"*. c #768986",
"=. c #798886",
"-. c #7A8C89",
";. c #788684",
":. c #4CA798",
">. c #50AB9D",
",. c #56AFA1",
"<. c #48B7A5",
"1. c #4ABBA8",
"2. c #5BB3A4",
"3. c #5FB8AA",
"4. c #55B8A7",
"5. c #62BBAD",
"6. c #66BEB0",
"7. c #6EBDB2",
"8. c #34C0A7",
"9. c #3DC5AD",
"0. c #43C4AD",
"q. c #4DC7B1",
"w. c #54C7B3",
"e. c #5AC8B5",
"r. c #6AC2B4",
"t. c #7AC5BA",
"y. c #73CABC",
"u. c #7ACBBE",
"i. c #78C2B6",
"p. c #83918F",
"a. c #869693",
"s. c #8A9694",
"d. c #889996",
"f. c #889B9A",
"g. c #93A09F",
"h. c #9BABAA",
"j. c #A2ABAB",
"k. c #A9BAB8",
"l. c #B2B7B8",
"z. c #B9BDBE",
"x. c #80CBBF",
"c. c #85C6BC",
"v. c #85CCC1",
"b. c #8BCCC2",
"n. c #94CDC5",
"m. c #9ACDC6",
"M. c #9FCEC8",
"N. c #A0CEC7",
"B. c #A3CEC9",
"V. c #ACCFCB",
"C. c #B0CFCC",
"Z. c #BFC2C3",
"A. c #ACD0CB",
"S. c #B3D0CD",
"D. c #B9D2CE",
"F. c #BFD3D1",
"G. c #C7C9C9",
"H. c #CCCDCD",
"J. c #C2C5C5",
"K. c #C0D2CF",
"L. c #C4D3D1",
"P. c #CBD3D3",
"I. c #D5D5D5",
"U. c #D8D7D7",
"Y. c #D8D8D7",
"T. c #D9D7D8",
"R. c #DAD9DA",
"E. c None",
/* pixels */
"E.E.E.E.E.E.E.E.E.E.E.E.E.E.E.E.E.E.E.E.E.E.E.E.E.E.E.E.E.E.E.E.E.E.E.E.E.E.E.E.E.E.E.E.E.E.E.E.E.E.E.E.E.E.E.E.E.E.E.E.E.E.E.E.",
"E.E.E.E.E.E.E.E.E.E.E.E.E.E.E.E.E.E.E.E.E.E.E.E.E.E.E.E.E.E.E.E.E.E.E.E.E.E.E.E.E.E.E.E.E.E.E.E.E.E.E.E.E.E.E.E.E.E.E.E.E.E.E.E.",
"E.E.E.E.E.E.E.E.E.E.E.E.E.E.E.E.E.E.E.E.E.E.E.E.E.E.E.E.E.E.E.E.E.E.E.E.E.E.E.E.E.E.E.E.E.E.E.E.E.E.E.E.E.E.E.E.E.E.E.E.E.E.E.E.",
"E.E.E.E.E.E.E.E.E.E.E.E.E.E.E.E.E.E.E.E.E.E.E.E.E.E.E.E.E.E.E.E.E.E.E.E.E.E.E.E.E.E.E.E.E.E.E.E.E.E.E.E.E.E.E.E.E.E.E.E.E.E.E.E.",
"E.E.E.E.E.E.E.E.E.E.E.E.E.E.E.E.E.E.E.E.E.E.E.E.E.E.E.E.E.E.E.E.E.E.E.E.E.E.E.E.E.E.E.E.E.E.E.E.E.E.E.E.E.E.E.E.E.E.E.E.E.E.E.E.",
"E.E.E.E.E.E.E.E.E.E.E.E.E.E.E.E.E.E.E.E.E.E.E.E.E.E.E.E.E.E.E.E.E.E.E.E.E.E.E.E.E.E.E.E.E.E.E.E.E.E.E.E.E.E.E.E.E.E.E.E.E.E.E.E.",
"E.E.E.E.E.E.E.E.E.E.E.E.E.E.E.E.E.E.E.E.E.E.E.E.E.E.E.E.E.E.E.E.E.E.E.E.E.E.E.E.E.E.E.E.E.E.E.E.E.E.E.E.E.E.E.E.E.E.E.E.E.E.E.E.",
"E.E.E.E.E.E.E.E.E.E.E.E.E.E.E.E.E.E.E.E.E.E.E.E.E.E.E.E.E.E.E.E.E.E.E.E.E.E.E.E.E.E.E.E.E.E.E.E.E.E.E.E.E.E.E.E.E.E.E.E.E.E.E.E.",
"E.E.E.E.E.E.E.E.E.E.E.E.E.E.E.E.E.E.E.E.E.E.E.E.E.E.E.E.E.E.E.E.E.E.E.E.E.E.E.E.E.E.E.E.E.E.E.E.E.E.E.E.E.E.E.E.E.E.E.E.E.E.E.E.",
"E.E.E.E.E.E.E.E.E.E.E.E.E.E.E.E.E.E.E.E.E.E.E.E.E.E.E.E.E.E.E.E.E.E.E.E.E.E.E.E.E.E.E.E.E.E.E.E.E.E.E.E.E.E.E.E.E.E.E.E.E.E.E.E.",
"E.E.E.E.E.E.E.E.E.E.E.E.E.E.E.E.E.E.E.E.E.E.E.E.E.$ O # $ ; 2 0 y b B G -.E.E.E.E.E.E.E.E.E.E.E.E.E.E.E.E.E.E.E.E.E.E.E.E.E.E.E.",
"E.E.E.E.E.E.E.E.E.E.E.E.E.E.E.E.E.E.E.E.E.E.E.E.-.o O O # O O o o o o o o X E.E.E.E.E.E.E.E.E.E.E.E.E.E.E.E.E.E.E.E.E.E.E.E.E.E.",
"E.E.E.E.E.E.E.E.E.E.E.E.E.E.E.E.E.E.E.E.E.E.E.a.b o o O o O O O + + O O + X E.E.E.E.E.E.E.E.E.E.E.E.E.E.E.E.E.E.E.E.E.E.E.E.E.E.",
"E.E.E.E.E.E.E.E.E.E.E.E.E.E.E.E.E.E.E.E.E.-.o o 0 n y 0 2 - = # + o O o X X E.E.E.E.E.E.E.E.E.E.E.E.E.E.E.E.E.E.E.E.E.E.E.E.E.E.",
"E.E.E.E.E.E.E.E.E.E.E.E.E.E.E.E.E.E.E.E.E.Z o o &.E.E.E.E.l.j.g.a.;.D B c > % 2 0 E.E.E.E.E.E.E.E.E.E.E.E.E.E.E.E.E.E.E.E.E.E.E.",
"E.E.E.E.E.E.E.E.E.E.E.E.E.E.E.E.E.E.E.S C 9 o o &.E.E.E.Y.I.Y.I.I.U.E.E.E.F . O   E.E.E.E.E.E.E.E.E.E.E.E.E.E.E.E.E.E.E.E.E.E.E.",
"E.E.E.E.E.E.E.E.E.E.E.E.E.E.E.E.E.E.F .   u S n f.P.L.P.I.I.I.I.I.I.I.I.I.Z o O O E.E.E.E.E.E.E.E.E.E.E.E.E.E.E.E.E.E.E.E.E.E.E.",
"E.E.E.E.E.E.E.E.E.E.E.E.E.E.E.E.E.E.B o o -.T.I.S.b.b.n.m.m.B.V.S.D.L.P.P.C # # X x *.E.E.E.E.E.E.E.E.E.E.E.E.E.E.E.E.E.E.E.E.E.",
"E.E.E.E.E.E.E.E.E.E.E.E.E.E.E.E.r 8 ; + o =.T.I.S.v.v.v.v.v.v.v.c.b.V.V.S.2.P P i X .   F E.E.E.E.E.E.E.E.E.E.E.E.E.E.E.E.E.E.E.",
"E.E.E.E.E.E.E.E.E.E.E.E.E.E.E.&.. o V s.&.h.P.P.A.v.v.v.v.v.v.v.v.v.V.V.V.w. ...J + + X =.E.E.E.E.E.E.E.E.E.E.E.E.E.E.E.E.E.E.E.",
"E.E.E.E.E.E.E.E.E.E.E.E.E.E.E.%.o O -.R.U.F.V.V.M.x.v.v.v.v.n.B.N.m.m.B.N.q.}  .j O +   p.E.E.E.E.E.E.E.E.E.E.E.E.E.E.E.E.E.E.E.",
"E.E.E.E.E.E.E.E.E.E.E.E.E.E.E.p.o O -.U.I.F.V.V.M.v.v.v.v.v.m.P.I.K.e.q.w.0.+.8.z O + X E.E.E.E.E.E.E.E.E.E.E.E.E.E.E.E.E.E.E.E.",
"E.E.E.E.E.E.E.E.E.E.E.E.E.E.E.s.o O &.U.I.F.B.B.m.b.b.v.v.v.m.I.I.K.q.9.9.9.0.9.z X O o E.E.E.E.E.E.E.E.E.E.E.E.E.E.E.E.E.E.E.E.",
"E.E.E.E.E.E.E.E.E.E.E.E.E.E.s.N o o G U.I.V.v.v.V.P.K.S.M.m.B.L.P.D.w.0.9.9.9.9.l o + X E.E.E.E.E.E.E.E.E.E.E.E.E.E.E.E.E.E.E.E.",
"E.E.E.E.E.E.E.E.E.E.E.E.E.>   % 8 - F U.I.V.v.x.V.I.I.P.V.V.C.V.S.A.M.n.v.w.9.9.I 4 , $ % 2 e E.E.E.E.E.E.E.E.E.E.E.E.E.E.E.E.E.",
"E.E.E.E.E.E.E.E.E.E.E.E.E.+ o N Z.l.k.M.V.V.B.m.V.P.P.H.V.V.V.C.V.V.C.V.V.w.9.9.O.} ` j O O   s.E.E.E.E.E.E.E.E.E.E.E.E.E.E.E.E.",
"E.E.E.E.E.E.E.E.E.E.E.E.E.$ o B U.T.C.v.v.B.I.I.V.u.v.v.v.b.n.m.N.B.V.V.B.w.9.9.O. ...H O O O E.E.E.E.E.E.E.E.E.E.E.E.E.E.E.E.E.",
"E.E.E.E.E.E.E.E.E.E.E.E.E.= o m I.U.S.v.v.V.I.I.A.y.y.y.y.y.y.y.y.u.u.x.t.{ ^ ' X.....h O O O E.E.E.E.E.E.E.E.E.E.E.E.E.E.E.E.E.",
"E.E.E.E.E.E.E.E.E.E.E.E.E.= o b P.I.D.v.v.B.L.P.N.y.y.y.y.y.y.y.y.y.y.y.6.U h j X.9.9.z O + O E.E.E.E.E.E.E.E.E.E.E.E.E.E.E.E.E.",
"E.E.E.E.E.E.E.E.E.E.E.E.E.; o c I.I.C.v.v.n.V.V.n.y.y.y.y.y.y.y.y.y.y.y.6.I j J X.9.9.l O O @ E.E.E.E.E.E.E.E.E.E.E.E.E.E.E.E.E.",
"E.E.E.E.E.E.E.E.E.E.E.E.E.2 o u H.I.D.b.b.n.V.V.n.y.y.y.y.y.y.y.y.y.y.y.6.I h J X.9.9.l O O X v W a.E.E.E.E.E.E.E.E.E.E.E.E.E.E.",
"E.E.E.E.E.E.E.E.E.E.E.E.E.2 o r H.I.L.V.B.c.5.7.i.y.y.y.y.y.y.y.y.y.y.y.6.I h J @.9.9.' Y H 5 . . X E.E.E.E.E.E.E.E.E.E.E.E.E.E.",
"E.E.E.E.E.E.E.E.E.E.E.E.E.0 o r H.I.P.C.C.t.` _ 1.y.y.y.y.y.y.y.y.y.y.y.3.J h J @.9.9.O. . .h + O @ E.E.E.E.E.E.E.E.E.E.E.E.E.E.",
"E.E.E.E.E.E.E.E.E.E.E.E.E.0 o w G.U.F.n.B.r.` ` <.u.y.y.y.y.y.y.y.y.y.y.3.J j k ) | @.| } ..g O O % E.E.E.E.E.E.E.E.E.E.E.E.E.E.",
"E.E.E.E.E.E.E.E.E.E.E.E.E.t   8 J.U.A.0.q.0.#.+.o.>.2.5.r.r.y.y.y.y.y.y.3.k j j a a g g j K 5 O O ; E.E.E.E.E.E.E.E.E.E.E.E.E.E.",
"E.E.E.E.E.E.E.E.E.E.E.E.E.-.y c z.I.S.0.9.9.9.9.' j j I U T / $.:.,.3.r.,.k j h a p p p p p & O O 2 E.E.E.E.E.E.E.E.E.E.E.E.E.E.",
"E.E.E.E.E.E.E.E.E.E.E.E.E.E.E.E.m c E 0.9.9.@.#.' j j h h j h j j j k I Y Q Q Q H j f p p i & O X 0 E.E.E.E.E.E.E.E.E.E.E.E.E.E.",
"E.E.E.E.E.E.E.E.E.E.E.E.E.E.E.E.9 . 4 @.9.X.d h Y Q Q L K J J j j j j h K ` ` ` ` ` ( j h h , O . u E.E.E.E.E.E.E.E.E.E.E.E.E.E.",
"E.E.E.E.E.E.E.E.E.E.E.E.E.E.E.E.0 O 4 @.9.[ p p k ` _ ` _ _ ( ^ Q Q L K L _ ` ` ` ` ( J j h , O o c E.E.E.E.E.E.E.E.E.E.E.E.E.E.",
"E.E.E.E.E.E.E.E.E.E.E.E.E.E.E.E.r o , ' +.] p p j _ ` ` ` ` ` ` ` ` ` _ Q f h K ` ` ( g g g & O   W E.E.E.E.E.E.E.E.E.E.E.E.E.E.",
"E.E.E.E.E.E.E.E.E.E.E.E.E.E.E.E.u . & ` ..( p i j ` ` ` ` ` ` ` ` ` ` ` Q 7 p h ` ` ! * * * D E.-.E.E.E.E.E.E.E.E.E.E.E.E.E.E.E.",
"E.E.E.E.E.E.E.E.E.E.E.E.E.E.E.E.E.*.A ! _ ~ a i j ` ` ` ` ` ` ` ` ` ` ` L p p k _ ` L + O O E.E.E.E.E.E.E.E.E.E.E.E.E.E.E.E.E.E.",
"E.E.E.E.E.E.E.E.E.E.E.E.E.E.E.E.E.E.E.q & 6 f s J ` ` ` ` ` ` ` ` ` ` ` K p p d K Q h + O O E.E.E.E.E.E.E.E.E.E.E.E.E.E.E.E.E.E.",
"E.E.E.E.E.E.E.E.E.E.E.E.E.E.E.E.E.E.E.9   * h j L ` ` ` ` ` ` ` ` ` ` ` K p p d k j 7 + O + E.E.E.E.E.E.E.E.E.E.E.E.E.E.E.E.E.E.",
"E.E.E.E.E.E.E.E.E.E.E.E.E.E.E.E.E.E.E.E.W M g h K ` ` ` ` ` ` ` ` ` ` ` L d d d s h 7 o o ; E.E.E.E.E.E.E.E.E.E.E.E.E.E.E.E.E.E.",
"E.E.E.E.E.E.E.E.E.E.E.E.E.E.E.E.E.E.E.E.E.E.: * < 7 f H P Q ( ` ` ` ` ` Q j j 5 * & : -.%.a.E.E.E.E.E.E.E.E.E.E.E.E.E.E.E.E.E.E.",
"E.E.E.E.E.E.E.E.E.E.E.E.E.E.E.E.E.E.E.E.E.E.= o o o O O $ , < 6 s h L ~ K h j 4 . . w E.E.E.E.E.E.E.E.E.E.E.E.E.E.E.E.E.E.E.E.E.",
"E.E.E.E.E.E.E.E.E.E.E.E.E.E.E.E.E.E.E.E.E.E.E.G m w ; $ o o o o O O + * & , 4 4 N u a.E.E.E.E.E.E.E.E.E.E.E.E.E.E.E.E.E.E.E.E.E.",
"E.E.E.E.E.E.E.E.E.E.E.E.E.E.E.E.E.E.E.E.E.E.E.E.E.E.E.E.E.&.N y 2 % + O . o . x E.E.E.E.E.E.E.E.E.E.E.E.E.E.E.E.E.E.E.E.E.E.E.E.",
"E.E.E.E.E.E.E.E.E.E.E.E.E.E.E.E.E.E.E.E.E.E.E.E.E.E.E.E.E.E.E.E.E.E.E.-.C u 2 E.E.E.E.E.E.E.E.E.E.E.E.E.E.E.E.E.E.E.E.E.E.E.E.E.",
"E.E.E.E.E.E.E.E.E.E.E.E.E.E.E.E.E.E.E.E.E.E.E.E.E.E.E.E.E.E.E.E.E.E.E.E.E.E.E.E.E.E.E.E.E.E.E.E.E.E.E.E.E.E.E.E.E.E.E.E.E.E.E.E.",
"E.E.E.E.E.E.E.E.E.E.E.E.E.E.E.E.E.E.E.E.E.E.E.E.E.E.E.E.E.E.E.E.E.E.E.E.E.E.E.E.E.E.E.E.E.E.E.E.E.E.E.E.E.E.E.E.E.E.E.E.E.E.E.E.",
"E.E.E.E.E.E.E.E.E.E.E.E.E.E.E.E.E.E.E.E.E.E.E.E.E.E.E.E.E.E.E.E.E.E.E.E.E.E.E.E.E.E.E.E.E.E.E.E.E.E.E.E.E.E.E.E.E.E.E.E.E.E.E.E.",
"E.E.E.E.E.E.E.E.E.E.E.E.E.E.E.E.E.E.E.E.E.E.E.E.E.E.E.E.E.E.E.E.E.E.E.E.E.E.E.E.E.E.E.E.E.E.E.E.E.E.E.E.E.E.E.E.E.E.E.E.E.E.E.E.",
"E.E.E.E.E.E.E.E.E.E.E.E.E.E.E.E.E.E.E.E.E.E.E.E.E.E.E.E.E.E.E.E.E.E.E.E.E.E.E.E.E.E.E.E.E.E.E.E.E.E.E.E.E.E.E.E.E.E.E.E.E.E.E.E.",
"E.E.E.E.E.E.E.E.E.E.E.E.E.E.E.E.E.E.E.E.E.E.E.E.E.E.E.E.E.E.E.E.E.E.E.E.E.E.E.E.E.E.E.E.E.E.E.E.E.E.E.E.E.E.E.E.E.E.E.E.E.E.E.E.",
"E.E.E.E.E.E.E.E.E.E.E.E.E.E.E.E.E.E.E.E.E.E.E.E.E.E.E.E.E.E.E.E.E.E.E.E.E.E.E.E.E.E.E.E.E.E.E.E.E.E.E.E.E.E.E.E.E.E.E.E.E.E.E.E.",
"E.E.E.E.E.E.E.E.E.E.E.E.E.E.E.E.E.E.E.E.E.E.E.E.E.E.E.E.E.E.E.E.E.E.E.E.E.E.E.E.E.E.E.E.E.E.E.E.E.E.E.E.E.E.E.E.E.E.E.E.E.E.E.E.",
"E.E.E.E.E.E.E.E.E.E.E.E.E.E.E.E.E.E.E.E.E.E.E.E.E.E.E.E.E.E.E.E.E.E.E.E.E.E.E.E.E.E.E.E.E.E.E.E.E.E.E.E.E.E.E.E.E.E.E.E.E.E.E.E.",
"E.E.E.E.E.E.E.E.E.E.E.E.E.E.E.E.E.E.E.E.E.E.E.E.E.E.E.E.E.E.E.E.E.E.E.E.E.E.E.E.E.E.E.E.E.E.E.E.E.E.E.E.E.E.E.E.E.E.E.E.E.E.E.E.",
"E.E.E.E.E.E.E.E.E.E.E.E.E.E.E.E.E.E.E.E.E.E.E.E.E.E.E.E.E.E.E.E.E.E.E.E.E.E.E.E.E.E.E.E.E.E.E.E.E.E.E.E.E.E.E.E.E.E.E.E.E.E.E.E.",
"E.E.E.E.E.E.E.E.E.E.E.E.E.E.E.E.E.E.E.E.E.E.E.E.E.E.E.E.E.E.E.E.E.E.E.E.E.E.E.E.E.E.E.E.E.E.E.E.E.E.E.E.E.E.E.E.E.E.E.E.E.E.E.E.",
"E.E.E.E.E.E.E.E.E.E.E.E.E.E.E.E.E.E.E.E.E.E.E.E.E.E.E.E.E.E.E.E.E.E.E.E.E.E.E.E.E.E.E.E.E.E.E.E.E.E.E.E.E.E.E.E.E.E.E.E.E.E.E.E.",
"E.E.E.E.E.E.E.E.E.E.E.E.E.E.E.E.E.E.E.E.E.E.E.E.E.E.E.E.E.E.E.E.E.E.E.E.E.E.E.E.E.E.E.E.E.E.E.E.E.E.E.E.E.E.E.E.E.E.E.E.E.E.E.E."
};
