/* XPM */
static char *da0ff1e6c51547efd59c7fe8d50c95358DYXUJT8CyX1dYf6[] = {
/* columns rows colors chars-per-pixel */
"64 64 137 2 ",
"   c #6E3A2C",
".  c #713D2F",
"X  c #733F31",
"o  c #71402F",
"O  c #744032",
"+  c #7D4435",
"@  c #774638",
"#  c #7D4638",
"$  c #7B4A3C",
"%  c #7D4D41",
"&  c #7F5346",
"*  c #804736",
"=  c #814837",
"-  c #804638",
";  c #804C3E",
":  c #8C4E3D",
">  c #914F3E",
",  c #8F503F",
"<  c #93523F",
"1  c #98533F",
"2  c #834F41",
"3  c #8E4F40",
"4  c #914F41",
"5  c #835042",
"6  c #8E5444",
"7  c #81554A",
"8  c #955341",
"9  c #9B5744",
"0  c #945947",
"q  c #9C5845",
"w  c #955748",
"e  c #935949",
"r  c #9A5D4B",
"t  c #A05744",
"y  c #A35C46",
"u  c #AA5E4A",
"i  c #AD614C",
"p  c #B0624C",
"a  c #BC634E",
"s  c #B26450",
"d  c #8B6D66",
"f  c #8B6E68",
"g  c #936D64",
"h  c #887066",
"j  c #8E716B",
"k  c #967066",
"l  c #94716A",
"z  c #9D7B6F",
"x  c #9D7F75",
"c  c #9C7E76",
"v  c #9D7C72",
"b  c #A17E74",
"n  c #C0664E",
"m  c #C1664E",
"M  c #C36750",
"N  c #C66751",
"B  c #C36650",
"V  c #C86754",
"C  c #C86754",
"Z  c #C26850",
"A  c #C46851",
"S  c #C76950",
"D  c #C56952",
"F  c #C76852",
"G  c #C66A53",
"H  c #C76852",
"J  c #C86A51",
"K  c #C86852",
"L  c #C96953",
"P  c #CB6853",
"I  c #C96953",
"U  c #9E8076",
"Y  c #9D8078",
"T  c #9E8179",
"R  c #9F827A",
"E  c #9F827C",
"W  c #9E877F",
"Q  c #9E827A",
"!  c #A58175",
"~  c #A78176",
"^  c #A68175",
"/  c #A88277",
"(  c #A98177",
")  c #A78178",
"_  c #A2847A",
"`  c #A3857B",
"'  c #A1867B",
"]  c #A1847C",
"[  c #A0857C",
"{  c #A2847C",
"}  c #A2857D",
"|  c #A3857D",
" . c #A1867D",
".. c #A3877C",
"X. c #A2857F",
"o. c #A1867F",
"O. c #A3867E",
"+. c #A2877E",
"@. c #A4867E",
"#. c #A4877F",
"$. c #A5877F",
"%. c #A2857D",
"&. c #A8837A",
"*. c #A3887D",
"=. c #A3887F",
"-. c #A3887F",
";. c #A08780",
":. c #A38680",
">. c #A68782",
",. c #A28780",
"<. c #A18881",
"1. c #A38881",
"2. c #A58A81",
"3. c #A58A83",
"4. c #A28984",
"5. c #A38982",
"6. c #AA8D84",
"7. c #A7958C",
"8. c #A8918B",
"9. c #A9928A",
"0. c #A8948B",
"q. c #A9928C",
"w. c #A9958C",
"e. c #A8948D",
"r. c #AA968D",
"t. c #A8958E",
"y. c #A9958E",
"u. c #AB948E",
"i. c #A9968F",
"p. c #AA968F",
"a. c #A9958E",
"s. c #AA9790",
"d. c #AA9790",
"f. c #A99891",
"g. c #AB9891",
"h. c #AA9991",
"j. c #AA9891",
/* pixels */
"p p p p p p p i q 9 9 q f f f l F F F F F F N F F K F M p p p p p p p p p p p u 9 9 q r @.@._ ^ F F L A p p p p p p p i p p p p ",
"p p p i p p p u 9 9 9 r f f f g F A F F F F L N F K F M p p p p p p p p p p p u 9 9 8 r | | W ) F F F A p p p p i p p p p p p p ",
"p p p p p p p p 9 9 q q f d f g F F L L L L L L J J K F p p p p p p p p p p p p 9 9 9 r | | | ) V F F F p p p i p p p p p p p p ",
"u i i i i i p u 9 w 1 w f j f l a a a a a a a M Z Z a a i i i u u p u p i i i i 9 9 w q | | | ! a a a a i i i i i i i i i i i i ",
"q q 9 9 q 9 q 8 , : : e :.] :.v + + + = : 6 3 > 9 9 q q 1 q q q q 9 q q 9 9 w 9 , , : e W | | v + + + - q q 9 q 8 q q q 9 9 9 9 ",
"9 9 q q 9 9 q 8 , 3 : e | | :.v # + + = : 8 : 6 9 9 w 9 9 q q q 9 q 9 q 9 9 q 9 , , : 0 | | | v + @ + - q 9 9 9 q 9 9 q 9 9 9 9 ",
"q q 9 q q q q q 6 < , 0 _ | :.v + + + # 8 , 3 3 9 9 9 9 9 9 q w q q q q q q q 9 < < : 0 | | ] v + + + = q 9 9 q q q q q q t t q ",
"8 9 8 8 < < 8 < : : : 6 | | 3.c # + + + : : : 3 w 9 9 8 9 8 9 8 8 < 8 8 1 < 8 > : = : 0 W | W v # + @ - 8 9 9 8 8 8 9 8 8 8 8 8 ",
"+ + + # X X X X . O   % t.t.d.:.. O O X o X X X , , , , : 8 4 : - + + + O O . O X O . $ | | =.v X X X + 4 : 3 3 * * + + + + + + ",
"+ + + + X X X X O X X % d.t.j.;.O o O O X X X @ < , , , 3 : , : + + + + O o O o O O   $ | | =.v X X X @ < 3 4 : + + + + + - + + ",
"+ + + + . . X .   X   $ t.q.j.;..   . . . X X X : : , , > > 3 : + + + + . . . X . .   $ _ | | z X   . X : : 3 : + + + + + + + + ",
"; $ ; $ @ @ @ @ $ $ @ 7 t.t.j.4.$ $ $ $ @ @ @ $ 6 6 6 6 6 6 6 6 ; $ ; ; $ $ $ @ $ $ $ & -.| 3.v $ $ $ % 6 6 6 6 ; ; ; ; ; ; ; 2 ",
"f f f f f f f j | | _ =.t.q.t.9.| | | E f f f d j f f d f h f f d d f f :.:.| | W | @.:.t.t.h.9.| | :.T f f f f f f f f d f f f ",
"j d f d f f h f | | | <.t.t.t.9.| | | T f f f f f f f f f f f f d f f j | | | | | | | <.t.t.t.w.| | | T f d d f f f f d d f f f ",
"f f f f j f f j W | | 3.g.g.j.t.:.<.3.T f f h d d d j d j f d d j f f j ;.:.:.;.W | W <.g.g.h.w.:.:.<.W f f d d f f d f f f f f ",
"l g k g g g g k ! ^ ^ ) 6.6.6.2.b v b z g d g g d d d d j j j j g g g k b ^ ^ ^ ^ ^ ! ^ 6.6.6.$.c b b z g g d g g d d d d f f f ",
"C N F F F F F M p p p p p p p i 1 9 9 q p p p p 9 9 9 r :.| | ^ F F K Z p p p p p p p p p p i i q 9 9 q i p p i 9 9 9 r d f j d ",
"N L F N F S m M p p p p i i p i 9 9 1 y p p p i 9 9 q q | | | ^ K F K F p p p p p p p p p p p i q 9 q 1 p p p i 9 9 q q h d d f ",
"L F K F J J P F i p p p p p p p q 9 9 q p i s p q q q r | =.W ( L L K m p p p p p p p p p p p i 9 9 q t s p s i q w t w f f d d ",
"a a a a Z a M a i i i i i i i i 9 9 9 q i i i i 8 9 8 q =._ | ^ a a a p i i u u u i u u i i u u 9 9 9 q y i i y 1 8 1 w j j j j ",
"+ + + - 9 9 q 1 9 9 9 9 9 q 9 9 9 9 9 0 : : , , # @ + 2 | | ;.z + + + + , 6 > , : 6 : > , , , , : , , , < : 8 : - + + 2 :.| | =.",
"+ + + - q 9 q q 9 9 9 q 9 9 9 9 9 9 9 9 : : , : + + + ; | | :.v + + + # , , < : 8 : < , , , , , , , , , > 6 : : + * O 2 :.:.| | ",
"+ + @ - q 9 9 q 9 9 q 9 q q 9 q 9 q 9 9 , , , , + + + 5 W _ :.v + + - = : , < : 6 : , , , , , , > < : 4 : < 6 : + + + ; | _ W _ ",
"# # # - 9 8 9 9 9 9 9 9 9 8 1 9 1 1 1 < , , , = + + + % | | 3.c # # + # : : : : : 3 3 : , , , , , , , > : : : : + + + ; | W | | ",
"+ - + + 8 : 8 > 9 q q 8 + + + + # + # + * + + * X X X $ t.t.g.| X X X O X X X O + # + - > < , , > 6 3 3 + + + + o O . $ _ | _ | ",
"+ - # = : : 3 6 9 9 q 8 + + + + # + + + * - * X X X . 2 t.t.g.3.X X O O O X X O + + + - , , , , : : 3 : + + * @ o . . $ @.| | | ",
"* + + + , 8 , , 9 9 q 1 + + + + + + + + * X + @ . .   $ t.q.j.| X . .   . . . X + + + + : , , , > , 6 : + + + + . . . @ | | Q | ",
"; ; 5 ; 6 6 6 6 w r w w ; ; ; $ ; ; ; ; 2 2 ; % @ $ @ 7 t.t.j.3.$ $ $ $ $ $ $ $ ; ; ; 2 6 6 6 6 6 6 6 3 ; = 2 $ $ $ @ 7 =.=.=.=.",
"@.@.| Q j d f d d h f d f f f f h d f j :.| | :.] :.| | d.t.d.9.| W | | | W | T f f f f f f f f f f f f f f f j | | | @.7.t.t.t.",
"_ | | T h d f f f f f d f d f f d d f j | | | | ] ] | <.t.7.q.q.| | | | | | :.c d d f f f f f f f f f d f f d j | | _ 3.d.t.t.t.",
"| | <.Q f f f f j d h d f f f d j f f j ;.| W | | | | 4.d.d.j.t.| <.=.=.| W | T d d f f f d f f f f f f f f f j ;.:.:.<.g.g.g.g.",
"^ ^ ^ b g d g g d g d g j j j j g g g k ^ ^ ^ ( ) ^ ^ ) 6.6.8.$.b c v U ! ! ! ! d d d d j j l j g g l g k g g k ^ b ^ ) 6.6.6.6.",
"p p i p i p p i q 9 q r W | | ^ F F F K F F K K F F K Z p p p i 9 q 9 q p p p u 9 1 q r | _ | ^ F A F F F K K Z i p p p p p p p ",
"p p p p p p p i 9 9 q r | | | ^ F F F K F F F C F L K Z p p p i 9 q 9 t p p p p q q 9 r | | | ^ F F F F K K K A p p p p p i p p ",
"p p p p p p p i 9 q 9 r | | W ^ L L L L K K V P F F K F p p p i 9 9 9 t p p p p q q q r | | | ^ L L K J K J L F p i p p p p p p ",
"i i i i i i i i 8 9 1 r W | | ^ n a a a M M a B a M Z a i i i u 9 9 9 q i p u u < 9 1 e | _ W _ a a a a Z Z a a i i i i i i i i ",
"9 9 9 q 9 9 q 8 > > : 0 W _ | b 4 > 6 > 9 9 9 9 w q q q 9 9 9 9 q q 9 q q q 9 8 + + + 2 =._ @.b 8 6 , < 9 9 9 9 9 q q q 9 9 9 9 ",
"9 9 9 9 9 9 9 9 6 : : 0 | | | v 3 3 3 < 9 9 9 q q q q q q 9 9 9 q q w t q 9 t < + + + ; | | _ b , , , , 9 9 9 9 9 q q w 9 9 9 9 ",
"1 q q q 9 9 q 8 , , : e =.| @.c , , , < q q q t q 9 q 9 q 9 9 9 q q t q q 9 q 9 + + + ; W _ ` v , , , 6 9 9 9 9 9 9 9 9 q w 9 q ",
"1 0 1 1 9 1 w < : : : 6 | | @.v : 3 : , 9 8 8 8 8 9 8 8 8 9 w 9 1 < 8 8 8 8 8 4 + + + & :.| 3.c : : : , 9 w 8 9 8 9 8 9 9 9 8 9 ",
"# + + + + # + + X O . $ | | | v + + + + + + - - : 6 : < , , , : + + + # + + + + X O . % t.t.g.@.+ + + - , 4 , , > , , , , < , , ",
"+ # + + + + + + o O . # | | | v # + - # + + + - : 6 4 : , , , : + + + + + + + # O X X % t.t.g.3.# + # - 8 : < : , , , , , , , , ",
"+ + + + + # + + X . . @ _ W @.v + + + + + + + - , , , : > < > : + + - + + + + @ . X   $ w.u.g.<.+ + + + : , , , > > : , , , : , ",
"; ; = ; ; ; ; ; $ $ @ & =.| 3.U 2 2 ; ; ; 2 # ; 6 6 6 6 6 6 6 6 = ; ; ; ; ; ; $ $ $ @ 7 t.d.g.>.; ; 5 5 6 6 6 6 6 6 6 6 6 6 6 6 ",
"f f f f *.| | | | | | @.t.t.t.9.| ] :.] d f j f d f f f f f f f f d f f f d f j | ] _ | 7.t.g.9.-.@._ T f f f f f f f f h d f f ",
"d f f j *.` | _ _ _ W <.t.w.t.0.| | | c f f f d d h f d f f f f d j f f f f d l ] ] | 3.t.t.t.q.` @.@.T f d f f d d f f f f f f ",
"f j f j ;.:.=.;.W | =.3.t.g.j.0.W <.:.] f f f f d d j d f f f f f f f f f d f j @.:.| <.d.g.j.t.@.:.<.W d f f d h j f d j f d f ",
"d d d d ! ! ! ! ! ! ! / 6.6.6.$.b b b v g d g g g d d d d f f f g k l g d g d g ^ ^ ^ _ 6.6.6.2.b b b z g g d g d d g d h j j j ",
"q q 9 t p p p p p p p p p p p i 9 9 9 q p p p i 9 9 9 q f f f g F F F Z p i p p p p p p p p p p q q 9 q p p p i q q q r | | | W ",
"1 q 1 q p p p p p p p p p p p i 9 9 8 t p p p i q 9 w r f f f g K G F Z p p p p p p p p p p p p 9 q 9 t p i p u 9 q q r | | | | ",
"9 q q t p p p p p p p p p p p i 9 9 9 t p p p i 9 9 q q d d d g K K K S p p p p p p i p p p i i 9 9 9 t s p p i q q q y | | | | ",
"1 9 < 9 i i i i i i i u i i i i 9 9 9 t i i p u w 9 9 e j l j k n a a a i i i i i i i i i i i i 9 q 9 q p u p u 1 8 > r | | ] W ",
"+ + + = 9 w w q 9 9 q 9 1 9 9 1 q 9 q q t 8 q w : > : e ] ] | c 8 : : < 9 9 9 9 1 9 9 9 9 9 9 9 9 9 9 9 9 q 9 8 + + + 5 W | | | ",
"+ # + = q q 9 9 9 9 9 9 q q q 9 9 q 9 9 q 9 9 9 < > : e ] ] | b , 6 , 6 q 9 9 9 9 9 9 9 q q 9 9 9 9 q t q 9 q 8 + * + ; | | | | ",
"# + + = q q q q q q q q q q q q q q q t q q q 9 8 8 : e ] :._ v < > < 8 q q y 1 q q q q w q q q q 9 q q q 9 9 9 - + O 2 | | W ] ",
"+ + + # 1 1 1 8 1 0 8 1 1 0 1 1 9 8 8 8 8 8 8 8 ; : : 6 3.:.3.b : ; : : 1 0 1 0 1 0 1 1 1 1 9 1 < 9 8 8 < 9 8 < + + + % =.=.3.| ",
"X X X X + + + + + + + # + + # + + + + + - + + + X X X $ d.d.j.;.X . X O + # + - + + # # + # + # - + + + + + + + X O . $ d.u.t.t.",
"O X X + + - + + + # + + + * + + + + + # + + + + O X . $ d.q.d.;.O X O O @ + + + + + + + # + + + + + + + + + + + O o X % q.q.u.t.",
". . . X + + + + + + + + + + + + + + + + + + + + . X   $ q.8.j.<..     X - X + + + + + + + + + + + + + + + @ + + . X   $ t.u.t.t.",
"$ $ $ $ $ ; ; ; ; ; ; ; ; ; ; ; ; ; ; ; ; ; ; ; $ $ @ 7 t.d.d.4.$ $ $ $ 2 2 2 2 ; ; ; ; ; ; ; ; ; ; ; ; 2 ; 5 $ % $ $ 7 t.t.u.t.",
"| | | T f f f f f f f d h d d j f f d f f f f j | ] ] @.d.q.d.q.| ] | | | ] | c f f f d f f f f d f d j | =.W =.g.w.t.t.t.t.u.u.",
"| | | E d f f f d f f j d j f d f f f f f f f j | W | =.t.d.d.8.| W | | | | :.] f f f f f d f f f f d j | _ _ =.u.u.u.u.t.u.t.h.",
"| | =.T h f f d f f f d f f f f f f f f f f h f | | ] :.d.q.d.8.| :.] | :.:.:.c f d f f f f f f f f f f | | _ -.t.t.t.t.u.9.t.t.",
"| W | E f f f f f f f f f d f f f d f f f f d j | | | =.q.d.7.8.| ] W | | :.>.b f f f d f f f f f f f l | | _ -.u.t.t.u.t.u.t.t."
};
